/* XPM */
static char *result[] = {
/* columns rows colors chars-per-pixel */
"64 64 147 2 ",
"   c #1B1A17",
".  c #1C1B19",
"X  c #231D17",
"o  c #2C1D16",
"O  c #211E1C",
"+  c #2E1E18",
"@  c #341E16",
"#  c #381F16",
"$  c #2B2217",
"%  c #21201E",
"&  c #2B2018",
"*  c #352217",
"=  c #312816",
"-  c #3C2B15",
";  c #242323",
":  c #282727",
">  c #272729",
",  c #282729",
"<  c #2B2A2C",
"1  c #2E2E32",
"2  c #302F33",
"3  c #313136",
"4  c #333339",
"5  c #38373D",
"6  c #39393F",
"7  c #5B390F",
"8  c #442215",
"9  c #4A2414",
"0  c #422E14",
"q  c #4A2D15",
"w  c #542412",
"e  c #562A14",
"r  c #403115",
"t  c #4D3313",
"y  c #563614",
"u  c #5E3314",
"i  c #63240F",
"p  c #752B0E",
"a  c #7B360D",
"s  c #682510",
"d  c #732911",
"f  c #733412",
"g  c #554314",
"h  c #71440C",
"j  c #6C4113",
"k  c #644D15",
"l  c #794812",
"z  c #6B5212",
"x  c #3C3C43",
"c  c #403F44",
"v  c #404047",
"b  c #45454E",
"n  c #48484F",
"m  c #474750",
"M  c #4A4A54",
"N  c #4F4F59",
"B  c #504F58",
"V  c #53525C",
"C  c #565661",
"Z  c #5A5A65",
"A  c #5D5D69",
"S  c #61616E",
"D  c #656572",
"F  c #6A6A77",
"G  c #6E6E7B",
"H  c #82270A",
"J  c #822F0D",
"K  c #8D2D0B",
"L  c #9F2D0A",
"P  c #81350E",
"I  c #89300D",
"U  c #9F370A",
"Y  c #843B11",
"T  c #A5350A",
"R  c #AB3B0B",
"E  c #B93107",
"W  c #B53408",
"Q  c #85430F",
"!  c #82490E",
"~  c #9C420F",
"^  c #88530F",
"/  c #8D5F0F",
"(  c #874910",
")  c #8F4F11",
"_  c #845713",
"`  c #9B5611",
"'  c #AD4408",
"]  c #BD4506",
"[  c #BA4B07",
"{  c #B74C0E",
"}  c #BD5806",
"|  c #BA540B",
" . c #8D6310",
".. c #A96D0D",
"X. c #BF6507",
"o. c #B26D0C",
"O. c #A46013",
"+. c #C2480A",
"@. c #CC5E05",
"#. c #C45B0A",
"$. c #D95908",
"%. c #C56F07",
"&. c #C96D05",
"*. c #D26805",
"=. c #D86A06",
"-. c #CD7105",
";. c #CB7B0D",
":. c #DC7906",
">. c #DB7009",
",. c #D2740B",
"<. c #E46107",
"1. c #E66D0D",
"2. c #E37E06",
"3. c #AC8011",
"4. c #D88809",
"5. c #D4910E",
"6. c #DD9B0A",
"7. c #E78106",
"8. c #EA8906",
"9. c #EF840C",
"0. c #EA9707",
"q. c #E0920A",
"w. c #EF9D09",
"e. c #F19B0A",
"r. c #DAA80B",
"t. c #C7AC10",
"y. c #EFA208",
"u. c #F1AC09",
"i. c #F4A50B",
"p. c #F9DF0C",
"a. c #727280",
"s. c #797987",
"d. c #7B7B8B",
"f. c #838394",
"g. c #878799",
"h. c #888798",
"j. c #89899B",
"k. c #8E8EA2",
"l. c #9797AA",
"z. c #9898AD",
"x. c #9B9BB0",
"c. c #A0A0B5",
"v. c #A4A4B9",
"b. c #A8A8BE",
"n. c #ABABC3",
"m. c #B0B0C8",
"M. c None",
/* pixels */
"M.M.M.M.M.M.M.M.M.M.M.M.M.M.M.M.M.M.M.M.M.M.M.M.M.M.M.M.M.M.M.M.M.M.M.M.M.M.M.M.M.M.M.M.M.M.M.M.M.M.M.M.M.M.M.M.M.M.M.M.M.M.M.M.",
"M.M.M.M.M.M.M.M.M.M.M.M.M.M.M.M.M.M.M.M.M.M.M.M.M.M.M.M.M.M.M.M.M.M.M.M.M.M.M.M.M.M.M.M.M.M.M.M.M.M.M.M.M.M.M.M.M.M.M.M.M.M.M.M.",
"M.M.M.M.M.M.M.M.M.M.M.M.M.M.M.M.M.M.M.M.M.M.M.M.M.M.M.M.M.M.M.M.M.M.M.M.M.M.M.M.M.M.M.M.M.M.M.M.M.M.M.M.M.M.M.M.M.M.M.M.M.M.M.M.",
"M.M.M.M.M.M.M.M.M.M.M.M.M.M.M.M.M.M.M.M.M.M.M.M.M.M.  . . . .   . .   .     M.M.M.M.M.M.M.M.M.M.M.M.M.M.M.M.M.M.M.M.M.M.M.M.M.M.",
"M.M.M.M.M.M.M.M.M.M.M.M.M.M.M.M.M.M.M.M.M.M.      .   . O O % % % % % . .     .   M.M.M.M.M.M.M.M.M.M.M.M.M.M.M.M.M.M.M.M.M.M.M.",
"M.M.M.M.M.M.M.M.M.M.M.M.M.M.M.M.M.M.M.M.M..   . ; 1 1 1 3 3 3 3 3 4 4 3 3 1 > O     . . M.M.M.M.M.M.M.M.M.M.M.M.M.M.M.M.M.M.M.M.",
"M.M.M.M.M.M.M.M.M.M.M.M.M.M.M.M.M.M.M..   > 1 5 x x 1 ; ; > < 3 x x 4 3 3 4 4 3 1 > ;   ; . M.M.M.M.M.M.M.M.M.M.M.M.M.M.M.M.M.M.",
"M.M.M.M.M.M.M.M.M.M.M.M.M.M.M.M.M.M.  . x A V m b b b b m x x x x x x ; . ; > 3 1 x 1 1 ; . . M.M.M.M.M.M.M.M.M.M.M.M.M.M.M.M.M.",
"M.M.M.M.M.M.M.M.M.M.M.M.M.M.M.M.M.  ; a.j.C m b m m x b b b b x x x x 3 x x > . ; 1 x 1 1 > . . M.M.M.M.M.M.M.M.M.M.M.M.M.M.M.M.",
"M.M.M.M.M.M.M.M.M.M.M.M.M.M.M.M.  O S f.S M b m m m x x b m m m x x x x x x x x < . > 1 1 x > . . M.M.M.M.M.M.M.M.M.M.M.M.M.M.M.",
"M.M.M.M.M.M.M.M.M.M.M.M.M.M.M.  . F j.A V m m N m m v C M m m m m b x x x x x N x x > ; x > x > . . M.M.M.M.M.M.M.M.M.M.M.M.M.M.",
"M.M.M.M.M.M.M.M.M.M.M.M.M.M.M.  1 x.D V m m M A V m m N n m v x m m x x x x x b x x x ; > x > > . . M.M.M.M.M.M.M.M.M.M.M.M.M.M.",
"M.M.M.M.M.M.M.M.M.M.M.M.M.M..   g.g.S M m x m V M m b m b m v b m b m x x x x x x x x x ; 1 > x <   M.M.M.M.M.M.M.M.M.M.M.M.M.M.",
"M.M.M.M.M.M.M.M.M.M.M.M.M.M.. 3 m.G A m m x m b m b m b m b m m b m m m x x x x x x x x x x x > 4 . . M.M.M.M.M.M.M.M.M.M.M.M.M.",
"M.M.M.M.M.M.M.M.M.M.M.M.M.M.  V z.S C b m m m b b m b m b m b m x m m m x x x x x x x x x 1 1 x 3 ; . M.M.M.M.M.M.M.M.M.M.M.M.M.",
"M.M.M.M.M.M.M.M.M.M.M.M.M.  O j.f.D V b m b b x b b m b m b m b x M m x x x x x x N m x x x x 1 4 1 . M.M.M.M.M.M.M.M.M.M.M.M.M.",
"M.M.M.M.M.M.M.M.M.M.M.M.M.. 3 b.c.S A n b b b c b b b v m m b m b m b b b x x x x x x x x x > x 4 1 .   M.M.M.M.M.M.M.M.M.M.M.M.",
"M.M.M.M.M.M.M.M.M.M.M.M.M.  V m.z.S S M b V B n m b b m b m m b m b b b b b x x x x > 1 x x > 1 3 3 O   M.M.M.M.M.M.M.M.M.M.M.M.",
"M.M.M.M.M.M.M.M.M.M.M.M.M.  d.m.z.S S V M D D M b m b m m N N m b m b b b b b x x x x x x x > x 4 4 ;   M.M.M.M.M.M.M.M.M.M.M.M.",
"M.M.M.M.M.M.M.M.M.M.M.M.. % l.m.k.S S V m A A m m b m b M A S b m b b b b b b x x x x x x 1 . 1 3 4 <   M.M.M.M.M.M.M.M.M.M.M.M.",
"M.M.M.M.M.M.M.M.M.M.M.M.  : c.n.G S A M m m m m m b m b m V V v b m b m b b b x x x x x x 1 . 1 3 4 >     M.M.M.M.M.M.M.M.M.M.M.",
"M.M.M.M.M.M.M.M.M.M.M.M.  3 n.d.D A N m N m m m b C M m m m b m m b m b b x x x x x x x x x . x x 3 x % . M.M.M.M.M.M.M.M.M.M.M.",
"M.M.M.M.M.M.M.M.M.M.M.M.. 6 b.F N < 2 b m m m m m C M b m b m b b b x > . . . x x x x x x x . x 1 1 1 . . M.M.M.M.M.M.M.M.M.M.M.",
"M.M.M.M.M.M.M.M.M.M.M.M.  b z.S m O   < x m m m m b m m b m b n x > . . . > x x 1 x x x M x . > 1 x 3 % . M.M.M.M.M.M.M.M.M.M.M.",
"M.M.M.M.M.M.M.M.M.M.M.M.. c h.S m x 1   < b b b b b m b b m b 3 ; . O 3 4 < > x x x x x x x ; x 1 1 4 % . M.M.M.M.M.M.M.M.M.M.M.",
"M.M.M.M.M.M.M.M.M.M.M.M.. 4 G n > 3 x 1 . 6 b n n m b m b b 3 . . > 1 > % +   5 x x x x x < ; 1 3 4 4 % . M.M.M.M.M.M.M.M.M.M.M.",
"M.M.M.M.M.M.M.M.M.M.M.M.  % d.b . o   < v . v n m b m b m x   , 1 O O d R T o 5 x x x x x ; > 1 4 3 4 . . M.M.M.M.M.M.M.M.M.M.M.",
"M.M.M.M.M.M.M.M.M.M.M.M.    f.V   | K @ : 4 < b m m b m v > < ; O d { *.:.{ o x x x x x x . 1 x 1 x 3 O . M.M.M.M.M.M.M.M.M.M.M.",
"M.M.M.M.M.M.M.M.M.M.M.M.M.. V S . 5.=.W 9 : 3 M Z b b b x 5 . w [ %.:.8.i.O.X x x x x x > . x 1 1 1 1   . M.M.M.M.M.M.M.M.M.M.M.",
"M.M.M.M.M.M.M.M.M.M.M.M.M.  < D . ` e.*.R   4 3 C b m m v : w [ &.2.8.u.9.u ; x x x x x ; 1 > > x 1 ;   M.M.M.M.M.M.M.M.M.M.M.M.",
"M.M.M.M.M.M.M.M.M.M.M.M.M.  . S 1 * ;.0.@.8 < v b m b m 1 o ] -.7.y.p.w.~ X 3 v x x x   x 1 1 x 1 x . . M.M.M.M.M.M.M.M.M.M.M.M.",
"M.M.M.M.M.M.M.M.M.M.M.M.M.M.. M b : & _ o.K . b m b m c . J %.4.q.q.,.f X 3 x x x x . 1 < x x > x >   . M.M.M.M.M.M.M.M.M.M.M.M.",
"M.M.M.M.M.M.M.M.M.M.M.M.M.M.  5 Z x 1 O X e . v m m b 5 X e y q q q @ O 1 x m x x < ; x 1 x 1 x < . . M.M.M.M.M.M.M.M.M.M.M.M.M.",
"M.M.M.M.M.M.M.M.M.M.M.M.M.M.. . G m v x 5 , . x x v b 5 . , 1 3 3 3 3 x x m x x x ; x > > 1 x > ;   ; M.M.M.M.M.M.M.M.M.M.M.M.M.",
"M.M.M.M.M.M.M.M.M.M.M.M.M.M.M.. C M m b v v x b 3 x v b x x x x c c m m m x x x 1 ; x 1 1 x 1 x % . M.M.M.M.M.M.M.M.M.M.M.M.M.M.",
"M.M.M.M.M.M.M.M.M.M.M.M.M.M.M.  , b , m v v m m m m b m b m m b n M 4 m m x x x > 1 1 1 x 1 1 . . M.M.M.M.M.M.M.M.M.M.M.M.M.M.M.",
"M.M.M.M.M.M.M.M.M.M.M.M.M.M.M.  . x . 3 %   x x ; 2 m 6 < v 5 ; x 1   x x x x 3 ; x 1 1 4 3 ; . . M.M.M.M.M.M.M.M.M.M.M.M.M.M.M.",
"M.M.M.M.M.M.M.M.M.M.M.M.M.M.M.M.  : . . ; ; ; : . . 3 O   < .   . .   x x x x 1 > 3 1 x 1 ; . . M.M.M.M.M.M.M.M.M.M.M.M.M.M.M.M.",
"M.M.M.M.M.M.M.M.M.M.M.M.M.M.M.M.  . . ; x x . . < ; . . ;   . ; . .   x x x x ; 1 4 4 1 %   . M.M.M.M.M.M.M.M.M.M.M.M.M.M.M.M.M.",
"M.M.M.M.M.M.M.M.M.M.M.M.M.M.M.M.M.. . 3 Z b 4 < x x . 1 5 ; 3 x ;   . x x x x 3 4 3 >       M.M.M.M.M.M.M.M.M.M.M.M.M.M.M.M.M.M.",
"M.M.M.M.M.M.M.M.M.M.M.M.M.M.M.M.M.M.. . D d.V v b b B M v x x v > . 4 x x 4 3 1 > .   . M.M.M.M.M.M.M.M.M.M.M.M.M.M.M.M.M.M.M.M.",
"M.M.M.M.M.M.M.M.M.M.M.M.M.M.M.M.M.M.M.. ; F f.D M b V V b b v x . ; x x 3 1 > . . . .   M.M.M.M.M.M.M.M.M.M.M.M.M.M.M.M.M.M.M.M.",
"M.M.M.M.M.M.M.M.M.M.M.M.M.M.M.M.M.M.M.      < V V V b v v x x 1 . 1 < ; % . . . . .   . M.M.M.M.M.M.M.M.M.M.M.M.M.M.M.M.M.M.M.M.",
"M.M.M.M.M.M.M.M.M.M.M.M.M.M.M.M.M.M.M.. . .   . % < < 3 3 2 1 . % % .   . O . 1 < . .   M.M.M.M.M.M.M.M.M.M.M.M.M.M.M.M.M.M.M.M.",
"M.M.M.M.M.M.M.M.M.M.M.M.M.M.M.M.M.M.M.  X   . k y     .   .       . @ , C % 1 x 4 > . .     M.M.M.M.M.M.M.M.M.M.M.M.M.M.M.M.M.M.",
"M.M.M.M.M.M.M.M.M.M.M.M.M.M.M.M.M.M..   . < 3 3.<.E X j ( ! P K K H o M M . x m x 2 . .   . M.M.M.M.M.M.M.M.M.M.M.M.M.M.M.M.M.M.",
"M.M.M.M.M.M.M.M.M.M.M.M.M.M.M.M.M.M.. ; . Z 3  .+.U % ) 1.$.W L i o < A c . B m x 4 %   % . M.M.M.M.M.M.M.M.M.M.M.M.M.M.M.M.M.M.",
"M.M.M.M.M.M.M.M.M.M.M.M.M.M.M.M.M.M.. % X l.< ; % X   X - - $ . . x C c x O A N m 4 1   . . M.M.M.M.M.M.M.M.M.M.M.M.M.M.M.M.M.M.",
"M.M.M.M.M.M.M.M.M.M.M.M.M.M.M.M.M.M.M.  < n.: s.V 5 . Z Z x b 5 X S V x 4 . d.A N x 4 . . M.M.M.M.M.M.M.M.M.M.M.M.M.M.M.M.M.M.M.",
"M.M.M.M.M.M.M.M.M.M.M.M.M.M.M.M.M.M.M.  < v.; F 3 6 X V Z m V x . A M x 1 . s.a.N x 3 ;   M.M.M.M.M.M.M.M.M.M.M.M.M.M.M.M.M.M.M.",
"M.M.M.M.M.M.M.M.M.M.M.M.M.M.M.M.M.M.M.. ; ; % v ; % . . . . 3 5 % M b 6 : . x V 1 O . O . M.M.M.M.M.M.M.M.M.M.M.M.M.M.M.M.M.M.M.",
"M.M.M.M.M.M.M.M.M.M.M.M.M.M.M.M.M.M.M.  D v . ; ; < . x b v C x . 6 v 3 ;   . .     ; 3 % M.M.M.M.M.M.M.M.M.M.M.M.M.M.M.M.M.M.M.",
"M.M.M.M.M.M.M.M.M.M.M.M.M.M.M.M.M.M.M.  < :   b 3 . . % : ; : % . % . . . o l ^ Q # O 4 O M.M.M.M.M.M.M.M.M.M.M.M.M.M.M.M.M.M.M.",
"M.M.M.M.M.M.M.M.M.M.M.M.M.M.M.M.M.M.M.. X <   4 M % 5 F :   X D V < . 5 1 0 r.8.>.o > 3   M.M.M.M.M.M.M.M.M.M.M.M.M.M.M.M.M.M.M.",
"M.M.M.M.M.M.M.M.M.M.M.M.M.M.M.M.M.M.M.M.. . - X 1 . ; n % z r b F ; t ; 4 % t.u.{ . 1 O . M.M.M.M.M.M.M.M.M.M.M.M.M.M.M.M.M.M.M.",
"M.M.M.M.M.M.M.M.M.M.M.M.M.M.M.M.M.M.M.M.M.. q q . = r . g 6.#.+ < $ X.w . . k ;.Y . .   M.M.M.M.M.M.M.M.M.M.M.M.M.M.M.M.M.M.M.M.",
"M.M.M.M.M.M.M.M.M.M.M.M.M.M.M.M.M.M.M.M.M.M.X *   q e X / ..R d . 0 l s @     . . . M.M.M.M.M.M.M.M.M.M.M.M.M.M.M.M.M.M.M.M.M.M.",
"M.M.M.M.M.M.M.M.M.M.M.M.M.M.M.M.M.M.M.M.M.M.    % . .   X X X X . . % .   0 h $ . M.M.M.M.M.M.M.M.M.M.M.M.M.M.M.M.M.M.M.M.M.M.M.",
"M.M.M.M.M.M.M.M.M.M.M.M.M.M.M.M.M.M.M.M.M.M.. % 4 . x 2 X 7 .   . M Z % . X 7 - . M.M.M.M.M.M.M.M.M.M.M.M.M.M.M.M.M.M.M.M.M.M.M.",
"M.M.M.M.M.M.M.M.M.M.M.M.M.M.M.M.M.M.M.M.M.M.    ; v v x : .       < < : x 1 X   . M.M.M.M.M.M.M.M.M.M.M.M.M.M.M.M.M.M.M.M.M.M.M.",
"M.M.M.M.M.M.M.M.M.M.M.M.M.M.M.M.M.M.M.M.M.M.    X ; . ; . . . .   . . 4 1 > %   . M.M.M.M.M.M.M.M.M.M.M.M.M.M.M.M.M.M.M.M.M.M.M.",
"M.M.M.M.M.M.M.M.M.M.M.M.M.M.M.M.M.M.M.M.M.M.M.M.M.M.M.M.M.M.M.M.. . .   . .   M.M.M.M.M.M.M.M.M.M.M.M.M.M.M.M.M.M.M.M.M.M.M.M.M.",
"M.M.M.M.M.M.M.M.M.M.M.M.M.M.M.M.M.M.M.M.M.M.M.M.M.M.M.M.M.M.M.M.M.M.M.M.M.M.M.M.M.M.M.M.M.M.M.M.M.M.M.M.M.M.M.M.M.M.M.M.M.M.M.M.",
"M.M.M.M.M.M.M.M.M.M.M.M.M.M.M.M.M.M.M.M.M.M.M.M.M.M.M.M.M.M.M.M.M.M.M.M.M.M.M.M.M.M.M.M.M.M.M.M.M.M.M.M.M.M.M.M.M.M.M.M.M.M.M.M."
};
