/* XPM */
static char *result[] = {
/* columns rows colors chars-per-pixel */
"64 64 147 2 ",
"   c #1B1A17",
".  c #1C1B19",
"X  c #231D17",
"o  c #2C1D16",
"O  c #211E1C",
"+  c #2E1E18",
"@  c #341E16",
"#  c #381F16",
"$  c #2B2217",
"%  c #21201E",
"&  c #2B2018",
"*  c #352217",
"=  c #312816",
"-  c #3C2B15",
";  c #242323",
":  c #282727",
">  c #272729",
",  c #282729",
"<  c #2B2A2C",
"1  c #2E2E32",
"2  c #302F33",
"3  c #313136",
"4  c #333339",
"5  c #38373D",
"6  c #39393F",
"7  c #5B390F",
"8  c #442215",
"9  c #4A2414",
"0  c #422E14",
"q  c #4A2D15",
"w  c #542412",
"e  c #562A14",
"r  c #403115",
"t  c #4D3313",
"y  c #563614",
"u  c #5E3314",
"i  c #63240F",
"p  c #752B0E",
"a  c #7B360D",
"s  c #682510",
"d  c #732911",
"f  c #733412",
"g  c #554314",
"h  c #71440C",
"j  c #6C4113",
"k  c #644D15",
"l  c #794812",
"z  c #6B5212",
"x  c #3C3C43",
"c  c #403F44",
"v  c #404047",
"b  c #45454E",
"n  c #48484F",
"m  c #474750",
"M  c #4A4A54",
"N  c #4F4F59",
"B  c #504F58",
"V  c #53525C",
"C  c #565661",
"Z  c #5A5A65",
"A  c #5D5D69",
"S  c #61616E",
"D  c #656572",
"F  c #6A6A77",
"G  c #6E6E7B",
"H  c #82270A",
"J  c #822F0D",
"K  c #8D2D0B",
"L  c #9F2D0A",
"P  c #81350E",
"I  c #89300D",
"U  c #9F370A",
"Y  c #843B11",
"T  c #A5350A",
"R  c #AB3B0B",
"E  c #B93107",
"W  c #B53408",
"Q  c #85430F",
"!  c #82490E",
"~  c #9C420F",
"^  c #88530F",
"/  c #8D5F0F",
"(  c #874910",
")  c #8F4F11",
"_  c #845713",
"`  c #9B5611",
"'  c #AD4408",
"]  c #BD4506",
"[  c #BA4B07",
"{  c #B74C0E",
"}  c #BD5806",
"|  c #BA540B",
" . c #8D6310",
".. c #A96D0D",
"X. c #BF6507",
"o. c #B26D0C",
"O. c #A46013",
"+. c #C2480A",
"@. c #CC5E05",
"#. c #C45B0A",
"$. c #D95908",
"%. c #C56F07",
"&. c #C96D05",
"*. c #D26805",
"=. c #D86A06",
"-. c #CD7105",
";. c #CB7B0D",
":. c #DC7906",
">. c #DB7009",
",. c #D2740B",
"<. c #E46107",
"1. c #E66D0D",
"2. c #E37E06",
"3. c #AC8011",
"4. c #D88809",
"5. c #D4910E",
"6. c #DD9B0A",
"7. c #E78106",
"8. c #EA8906",
"9. c #EF840C",
"0. c #EA9707",
"q. c #E0920A",
"w. c #EF9D09",
"e. c #F19B0A",
"r. c #DAA80B",
"t. c #C7AC10",
"y. c #EFA208",
"u. c #F1AC09",
"i. c #F4A50B",
"p. c #F9DF0C",
"a. c #727280",
"s. c #797987",
"d. c #7B7B8B",
"f. c #838394",
"g. c #878799",
"h. c #888798",
"j. c #89899B",
"k. c #8E8EA2",
"l. c #9797AA",
"z. c #9898AD",
"x. c #9B9BB0",
"c. c #A0A0B5",
"v. c #A4A4B9",
"b. c #A8A8BE",
"n. c #ABABC3",
"m. c #B0B0C8",
"M. c None",
/* pixels */
"M.M.M.M.M.M.M.M.M.M.M.M.M.M.M.M.M.M.M.M.M.M.M.M.M.M.M.M.M.M.M.M.M.M.M.M.M.M.M.M.M.M.M.M.M.M.M.M.M.M.M.M.M.M.M.M.M.M.M.M.M.M.M.M.",
"M.M.M.M.M.M.M.M.M.M.M.M.M.M.M.M.M.M.M.M.M.M.M.M.M.M.M.M.M.M.M.M.M.M.M.M.M.M.M.M.M.M.M.M.M.M.M.M.M.M.M.M.M.M.M.M.M.M.M.M.M.M.M.M.",
"M.M.M.M.M.M.M.M.M.M.M.M.M.M.M.M.M.M.M.M.M.M.M.M.M.M.M.M.M.M.M.M.M.M.M.M.M.M.M.M.M.M.M.M.M.M.M.M.M.M.M.M.M.M.M.M.M.M.M.M.M.M.M.M.",
"M.M.M.M.M.M.M.M.M.M.M.M.M.M.M.M.M.M.M.M.M.M.M.M.M.M.. . . . .   . . . .   . M.M.M.M.M.M.M.M.M.M.M.M.M.M.M.M.M.M.M.M.M.M.M.M.M.M.",
"M.M.M.M.M.M.M.M.M.M.M.M.M.M.M.M.M.M.M.M.M.M.M.  . .   . . ; % % ; . O % . . .       M.M.M.M.M.M.M.M.M.M.M.M.M.M.M.M.M.M.M.M.M.M.",
"M.M.M.M.M.M.M.M.M.M.M.M.M.M.M.M.M.M.M.M.. . .   % > 1 1 3 4 1 1 3 3 3 1 3 1 1 > .   . M.M.M.M.M.M.M.M.M.M.M.M.M.M.M.M.M.M.M.M.M.",
"M.M.M.M.M.M.M.M.M.M.M.M.M.M.M.M.M.M.    . ; > 1 3 4 4 3 1 x 4 x 3 > > ; ; 1 x 4 5 1 ; .   M.M.M.M.M.M.M.M.M.M.M.M.M.M.M.M.M.M.M.",
"M.M.M.M.M.M.M.M.M.M.M.M.M.M.M.M.M.    . 1 x 1 x 3 > ; . ; x x x x x x b b m m m m V S x .   M.M.M.M.M.M.M.M.M.M.M.M.M.M.M.M.M.M.",
"M.M.M.M.M.M.M.M.M.M.M.M.M.M.M.M..   > 1 x 1 < ; % 1 3 x 5 x x x x m m m x m m m b m C g.a.;   M.M.M.M.M.M.M.M.M.M.M.M.M.M.M.M.M.",
"M.M.M.M.M.M.M.M.M.M.M.M.M.M.M.    ; x 1 x > . > x x x x x x x x m m m v x x m m m b m S g.S %   M.M.M.M.M.M.M.M.M.M.M.M.M.M.M.M.",
"M.M.M.M.M.M.M.M.M.M.M.M.M.M.    > x 4 1 . ; x x M x x x x x b b m m m N C b m m N m m N A g.F     M.M.M.M.M.M.M.M.M.M.M.M.M.M.M.",
"M.M.M.M.M.M.M.M.M.M.M.M.M.M.. . 3 3 3 1 ; x x x x x x x x b b m x x m m M m m V S M m m V D x.1 . M.M.M.M.M.M.M.M.M.M.M.M.M.M.M.",
"M.M.M.M.M.M.M.M.M.M.M.M.M.M.. < 4 1 1 ; x x x x x x x x x m m b m b m v m m m m V m x m M S f.g.    M.M.M.M.M.M.M.M.M.M.M.M.M.M.",
"M.M.M.M.M.M.M.M.M.M.M.M.M.  . 3 3 4 4 x x x x x x x x x b b m m m m b m m m m m m m x b m A a.m.3 . M.M.M.M.M.M.M.M.M.M.M.M.M.M.",
"M.M.M.M.M.M.M.M.M.M.M.M.M.  ; 3 3 4 x x x x x x x x x x b b b x m b m b m b m m v m m m m C S z.N   M.M.M.M.M.M.M.M.M.M.M.M.M.M.",
"M.M.M.M.M.M.M.M.M.M.M.M.M.  1 4 3 3 x x x m C x x x x x b m b b m m b m m m b v x m m m b C S f.j.; . M.M.M.M.M.M.M.M.M.M.M.M.M.",
"M.M.M.M.M.M.M.M.M.M.M.M.. O 1 3 4 3 1 x x x x x x x x b m b m b m b m m c b b b x m m m m Z S x.n.3 . M.M.M.M.M.M.M.M.M.M.M.M.M.",
"M.M.M.M.M.M.M.M.M.M.M.M.  ; 3 3 x > x x 1 1 x x x x b b b m b m b m m m m b m b m N N m M S D l.m.V . M.M.M.M.M.M.M.M.M.M.M.M.M.",
"M.M.M.M.M.M.M.M.M.M.M.M.  ; 4 4 1 ; x x x x x x x c b b b m b b m M N m m m b m M D D M V D S z.m.d.  M.M.M.M.M.M.M.M.M.M.M.M.M.",
"M.M.M.M.M.M.M.M.M.M.M.M.  > 4 4 1 % x x x x x x x b m b b b b m m A A m m m m b m A A m B S D k.m.l.% . M.M.M.M.M.M.M.M.M.M.M.M.",
"M.M.M.M.M.M.M.M.M.M.M..   1 1 1 1 . x x x x x x x b m b m b m b b N C m m m m m m m m m m S S G b.c.: . M.M.M.M.M.M.M.M.M.M.M.M.",
"M.M.M.M.M.M.M.M.M.M.M.. . 1 x x x . x x x x x x b x 6 b b m b m m b b m m M C b m m m N b N A S d.n.3   M.M.M.M.M.M.M.M.M.M.M.M.",
"M.M.M.M.M.M.M.M.M.M.M.. . x 4 1 < % 1 x x x x x x . . . < x b m b m m b b m C m b m m m b 2 < V F b.x . M.M.M.M.M.M.M.M.M.M.M.M.",
"M.M.M.M.M.M.M.M.M.M.M.. . 1 4 4 x ; x b x x x 1 x x < .     , c m b b m m b m m b b m b , . % m D z.v   M.M.M.M.M.M.M.M.M.M.M.M.",
"M.M.M.M.M.M.M.M.M.M.M.  ; 4 1 1 1 ; x x x x x x x ; > x 3 ;   . 1 m b m b m b m b m b , . < x m S h.v   M.M.M.M.M.M.M.M.M.M.M.M.",
"M.M.M.M.M.M.M.M.M.M.M.  . 4 4 1 1 ; 1 x x x x x x   .   ; 2 < .   3 m m m b m b m m 5 . 1 x 3 : n G 4   M.M.M.M.M.M.M.M.M.M.M.M.",
"M.M.M.M.M.M.M.M.M.M.M.. O 4 4 3 x > > x x x x x x + L R d X . < ,   x m m b b m b v . c , . o . b d.;   M.M.M.M.M.M.M.M.M.M.M.M.",
"M.M.M.M.M.M.M.M.M.M.M.  . 1 4 4 < 1 . x x x x x x + { >.-.} a @ ; < ; v b m b m m < 5 ; # K |   V f.  . M.M.M.M.M.M.M.M.M.M.M.M.",
"M.M.M.M.M.M.M.M.M.M.M.  . 1 3 4 x > ; > x x x x x   O.i.8.:.&.] w . 5 c m b m Z M 3 ; 9 W =.5.  A V . M.M.M.M.M.M.M.M.M.M.M.M.M.",
"M.M.M.M.M.M.M.M.M.M.M.M.  > 4 3 > x 1 . x x x x x % u 9.u.8.2.,.[ w ; v b m b C 3 3 . R *.e.` . D <   M.M.M.M.M.M.M.M.M.M.M.M.M.",
"M.M.M.M.M.M.M.M.M.M.M.M.  . 3 3 x > x >   x x x x 4 . U e.p.y.2.-.] o 1 m b b b x 1 8 @.0.4.* 1 S . . M.M.M.M.M.M.M.M.M.M.M.M.M.",
"M.M.M.M.M.M.M.M.M.M.M.M.    1 3 > x 1 x > ; x x x x 3 O f ;.q.6.4.%.J O x m b m b % K o._ X : n M . M.M.M.M.M.M.M.M.M.M.M.M.M.M.",
"M.M.M.M.M.M.M.M.M.M.M.M.M.. . x x 1 1 x x > 1 x x m x 1 . + 8 q q y e X 5 b m b v . e & % < x Z 5   M.M.M.M.M.M.M.M.M.M.M.M.M.M.",
"M.M.M.M.M.M.M.M.M.M.M.M.M.    > > 1 x 1 1 3 . x x x m c x 5 4 3 3 2 > . 5 b b x v . > 4 x b b G . . M.M.M.M.M.M.M.M.M.M.M.M.M.M.",
"M.M.M.M.M.M.M.M.M.M.M.M.M.M.. . 1 x 1 < > x ; 3 x x b b m b x v x x x x b v x 3 b x x b b m N C . M.M.M.M.M.M.M.M.M.M.M.M.M.M.M.",
"M.M.M.M.M.M.M.M.M.M.M.M.M.M.M.. . > x 1 1 3 4 ; 5 x x b m 4 m b m m m m b b m b b b c b b ; v >   M.M.M.M.M.M.M.M.M.M.M.M.M.M.M.",
"M.M.M.M.M.M.M.M.M.M.M.M.M.M.M.% . ; x 1 x 3 x % 3 3 x x x . 1 x % 5 v , 5 m 2 ; v x . % 4 . x . . M.M.M.M.M.M.M.M.M.M.M.M.M.M.M.",
"M.M.M.M.M.M.M.M.M.M.M.M.M.M.M.M..   . 1 3 3 1 > < x x x x   . %   . 1   O 3 . . : % ; ; .   : . M.M.M.M.M.M.M.M.M.M.M.M.M.M.M.M.",
"M.M.M.M.M.M.M.M.M.M.M.M.M.M.M.M.M.. . . 1 3 3 3 ; x x x x     . ; .   ; . . ; 1 . % 5 x ; . .   M.M.M.M.M.M.M.M.M.M.M.M.M.M.M.M.",
"M.M.M.M.M.M.M.M.M.M.M.M.M.M.M.M.M.M.. . . ; 4 3 4 x x x x ;   ; 6 3 ; 6 1 . 5 x < 3 b Z 4 .   M.M.M.M.M.M.M.M.M.M.M.M.M.M.M.M.M.",
"M.M.M.M.M.M.M.M.M.M.M.M.M.M.M.M.M.M.M.M.% . . > 2 3 5 x x 2 . > v x x b B N b b v V d.D . . M.M.M.M.M.M.M.M.M.M.M.M.M.M.M.M.M.M.",
"M.M.M.M.M.M.M.M.M.M.M.M.M.M.M.M.M.M.M.M.. . . . . > 1 3 5 x ; % x v v m V V b N D d.F ;   M.M.M.M.M.M.M.M.M.M.M.M.M.M.M.M.M.M.M.",
"M.M.M.M.M.M.M.M.M.M.M.M.M.M.M.M.M.M.M.M.. . . . . . . % ; 1 1 . 1 x x x v b V V V 1 . . . M.M.M.M.M.M.M.M.M.M.M.M.M.M.M.M.M.M.M.",
"M.M.M.M.M.M.M.M.M.M.M.M.M.M.M.M.M.M.M.M.. . . < 2 O . .   . % % . 1 3 3 3 < , ; . .       M.M.M.M.M.M.M.M.M.M.M.M.M.M.M.M.M.M.M.",
"M.M.M.M.M.M.M.M.M.M.M.M.M.M.M.M.M.M.. . . . > x x < ; V : @ X         .   . . y k . . . . M.M.M.M.M.M.M.M.M.M.M.M.M.M.M.M.M.M.M.",
"M.M.M.M.M.M.M.M.M.M.M.M.M.M.M.M.M.M.. . . . 1 x b c . N m o H K K P ( ( j X E <.3.3 , . . . M.M.M.M.M.M.M.M.M.M.M.M.M.M.M.M.M.M.",
"M.M.M.M.M.M.M.M.M.M.M.M.M.M.M.M.M.M.. . . ; 1 x b B . v Z < o i L W $.1.) X U +. .3 Z . ;   M.M.M.M.M.M.M.M.M.M.M.M.M.M.M.M.M.M.",
"M.M.M.M.M.M.M.M.M.M.M.M.M.M.M.M.M.M.. . . < x x N A O x v Z x . . & - - X . . % ; < l.X %   M.M.M.M.M.M.M.M.M.M.M.M.M.M.M.M.M.M.",
"M.M.M.M.M.M.M.M.M.M.M.M.M.M.M.M.M.M.M.  . 4 4 N A d.. 4 x V S X 5 b x Z Z % 5 N s.: n.<   M.M.M.M.M.M.M.M.M.M.M.M.M.M.M.M.M.M.M.",
"M.M.M.M.M.M.M.M.M.M.M.M.M.M.M.M.M.M.M.  ; 3 x C a.s.  1 x b S . 6 C b Z V . 5 5 F ; v., . M.M.M.M.M.M.M.M.M.M.M.M.M.M.M.M.M.M.M.",
"M.M.M.M.M.M.M.M.M.M.M.M.M.M.M.M.M.M.M.. % . % 1 C x   > x b N . 6 3 . . .   % % v % ; ;   M.M.M.M.M.M.M.M.M.M.M.M.M.M.M.M.M.M.M.",
"M.M.M.M.M.M.M.M.M.M.M.M.M.M.M.M.M.M.M.% 3 ;           ; 4 x 5 % c V v b x . < : ; . v D . M.M.M.M.M.M.M.M.M.M.M.M.M.M.M.M.M.M.M.",
"M.M.M.M.M.M.M.M.M.M.M.M.M.M.M.M.M.M.M.% 3 % * Q _ l & . . % . . % ; ; : %   . 3 b   : <   M.M.M.M.M.M.M.M.M.M.M.M.M.M.M.M.M.M.M.",
"M.M.M.M.M.M.M.M.M.M.M.M.M.M.M.M.M.M.M.  1 < @ >.8.r.0 1 4   < V F . . : F 5 % M 3 . < X . M.M.M.M.M.M.M.M.M.M.M.M.M.M.M.M.M.M.M.",
"M.M.M.M.M.M.M.M.M.M.M.M.M.M.M.M.M.M.M.  % 1 . | y.t.X 4 ; q ; F v 0 z % b ;   2 X - . . M.M.M.M.M.M.M.M.M.M.M.M.M.M.M.M.M.M.M.M.",
"M.M.M.M.M.M.M.M.M.M.M.M.M.M.M.M.M.M.M.M.  . . Y ;.k . X w %.$ < o #.r.g % - = . q t   M.M.M.M.M.M.M.M.M.M.M.M.M.M.M.M.M.M.M.M.M.",
"M.M.M.M.M.M.M.M.M.M.M.M.M.M.M.M.M.M.M.M.M.M.  . .     o s ! 0 . d R ../ X e q   8 . M.M.M.M.M.M.M.M.M.M.M.M.M.M.M.M.M.M.M.M.M.M.",
"M.M.M.M.M.M.M.M.M.M.M.M.M.M.M.M.M.M.M.M.M.M.M.  $ h 0 . . X .   X X X X   .   % .   M.M.M.M.M.M.M.M.M.M.M.M.M.M.M.M.M.M.M.M.M.M.",
"M.M.M.M.M.M.M.M.M.M.M.M.M.M.M.M.M.M.M.M.M.M.M.. - 7 X . ; A n   . . 7 X 1 x . 5 %   M.M.M.M.M.M.M.M.M.M.M.M.M.M.M.M.M.M.M.M.M.M.",
"M.M.M.M.M.M.M.M.M.M.M.M.M.M.M.M.M.M.M.M.M.M.M.  . . 1 x ; > 1   . . X ; x v x ;     M.M.M.M.M.M.M.M.M.M.M.M.M.M.M.M.M.M.M.M.M.M.",
"M.M.M.M.M.M.M.M.M.M.M.M.M.M.M.M.M.M.M.M.M.M.M.  . O > 3 4 . . . . . . . . ; ; .   . M.M.M.M.M.M.M.M.M.M.M.M.M.M.M.M.M.M.M.M.M.M.",
"M.M.M.M.M.M.M.M.M.M.M.M.M.M.M.M.M.M.M.M.M.M.M.M.M..     .   . . M.M.M.M.M.M.M.M.M.M.M.M.M.M.M.M.M.M.M.M.M.M.M.M.M.M.M.M.M.M.M.M.",
"M.M.M.M.M.M.M.M.M.M.M.M.M.M.M.M.M.M.M.M.M.M.M.M.M.M.M.M.M.M.M.M.M.M.M.M.M.M.M.M.M.M.M.M.M.M.M.M.M.M.M.M.M.M.M.M.M.M.M.M.M.M.M.M.",
"M.M.M.M.M.M.M.M.M.M.M.M.M.M.M.M.M.M.M.M.M.M.M.M.M.M.M.M.M.M.M.M.M.M.M.M.M.M.M.M.M.M.M.M.M.M.M.M.M.M.M.M.M.M.M.M.M.M.M.M.M.M.M.M."
};
