/* XPM */
static char *result[] = {
/* columns rows colors chars-per-pixel */
"64 64 185 2 ",
"   c #151413",
".  c #191715",
"X  c #1A1917",
"o  c #1C1B19",
"O  c #201716",
"+  c #211E1A",
"@  c #281F1A",
"#  c #24221D",
"$  c #2C221C",
"%  c #2B2A1E",
"&  c #34241B",
"*  c #3A261C",
"=  c #3C281F",
"-  c #1F1F20",
";  c #242423",
":  c #2B2722",
">  c #212D21",
",  c #2D2B23",
"<  c #2B2B2A",
"1  c #252529",
"2  c #312721",
"3  c #322B24",
"4  c #3A2B23",
"5  c #352F29",
"6  c #243E29",
"7  c #2A3525",
"8  c #323222",
"9  c #3A3A26",
"0  c #35332C",
"q  c #3C352D",
"w  c #3E3E29",
"e  c #2D2E32",
"r  c #2F3039",
"t  c #333434",
"y  c #383635",
"u  c #32333B",
"i  c #3C3C3C",
"p  c #3F3930",
"a  c #452B1F",
"s  c #452C21",
"d  c #4A2E21",
"f  c #4E3123",
"g  c #4D352A",
"h  c #443227",
"j  c #533425",
"k  c #543B2E",
"l  c #5B3B2A",
"z  c #503628",
"x  c #433B32",
"c  c #553E32",
"v  c #5A3D30",
"b  c #613F2D",
"n  c #3F402B",
"m  c #294E31",
"M  c #2D5738",
"N  c #305439",
"B  c #29482F",
"V  c #30613D",
"C  c #43432C",
"Z  c #47482E",
"A  c #48492F",
"S  c #484727",
"D  c #504D29",
"F  c #52502A",
"G  c #454533",
"H  c #474830",
"J  c #4B4D32",
"K  c #4E4439",
"L  c #4B4839",
"P  c #5F4232",
"I  c #53493D",
"U  c #50463B",
"Y  c #4E5035",
"T  c #515337",
"R  c #535639",
"E  c #56583B",
"W  c #595C3E",
"Q  c #5C5B35",
"!  c #65412E",
"~  c #644332",
"^  c #694430",
"/  c #6D4935",
"(  c #6A4B3A",
")  c #704A35",
"_  c #734E39",
"`  c #77533F",
"'  c #746F2F",
"]  c #726E38",
"[  c #3C3D47",
"{  c #366D45",
"}  c #434343",
"|  c #5B4F41",
" . c #5B5444",
".. c #5C5E41",
"X. c #58574C",
"o. c #5B5B5A",
"O. c #645446",
"+. c #645A49",
"@. c #795642",
"#. c #785945",
"$. c #5E6142",
"%. c #556F5B",
"&. c #636544",
"*. c #676947",
"=. c #6B6D4A",
"-. c #6D604F",
";. c #6E714D",
":. c #71734F",
">. c #726351",
",. c #796757",
"<. c #737452",
"1. c #7A7B57",
"2. c #7D7E58",
"3. c #757850",
"4. c #6C6B6B",
"5. c #805C48",
"6. c #81634E",
"7. c #886C56",
"8. c #84725D",
"9. c #89735D",
"0. c #8E7963",
"q. c #897665",
"w. c #957C64",
"e. c #7F805A",
"r. c #A79D36",
"t. c #BFB33C",
"y. c #83835D",
"u. c #9A934B",
"i. c #A39B4B",
"p. c #8A8B63",
"a. c #878860",
"s. c #978069",
"d. c #9C836A",
"f. c #908F68",
"g. c #94946B",
"h. c #99986F",
"j. c #98976E",
"k. c #98887C",
"l. c #9C9B72",
"z. c #AA896E",
"x. c #A58C73",
"c. c #AC9276",
"v. c #AE9579",
"b. c #B2977B",
"n. c #B49A7C",
"m. c #B9987B",
"M. c #B6AD60",
"N. c #A1A076",
"B. c #C9BD49",
"V. c #C7BD63",
"C. c #D1C665",
"Z. c #89978C",
"A. c #8F9D93",
"S. c #929894",
"D. c gray54",
"F. c #B39A81",
"G. c #BA9F81",
"H. c #BDA283",
"J. c #BFA792",
"K. c gray66",
"L. c #C6A98A",
"P. c #CEAC8B",
"I. c #C8A787",
"U. c #D2AE8C",
"Y. c #CDB08E",
"T. c #DBB693",
"R. c #DCBA96",
"E. c #E2BE9A",
"W. c #E1BB97",
"Q. c #BBC2BD",
"!. c #E4C29D",
"~. c #EAC49F",
"^. c #EBC6A1",
"/. c #EFCAA3",
"(. c #EFCCA9",
"). c #E2C2A1",
"_. c #E9CDB7",
"`. c #EFD1B7",
"'. c #F0D2B8",
"]. c #C5C5C5",
"[. c #CBCBCC",
"{. c #CDD1CF",
"}. c #D4D4D4",
"|. c #DADBDB",
" X c None",
/* pixels */
" X X X X X X X X X X X X X X X X X X X X X X X X X X X X X X X X X X X X X X X X X X X X X X X X X X X X X X X X X X X X X X X X",
" X X X X X X X X X X X X X X X X X X X X X X X X X X X X X X X X X X X X X X X X X X X X X X X X X X X X X X X X X X X X X X X X",
" X X X X X X X X X X X X X X X X X X X X X X X X X X X X X X X X X X X X X X X X X X X X X X X X X X X X X X X X X X X X X X X X",
" X X X X X X X X X X X X X X X X X X X X X X X X X X X X X X X X X X X X X X X X X X X X X X X X X X X X X X X X X X X X X X X X",
" X X X X X X X X X X X X X X X X X X X X X X X X X X X X X X X X X X X X X X X X X X X X X X X X X X X X X X X X X X X X X X X X",
" X X X X X X X X X X X X X X X X X X X X X X X X X X X X X Xo o o o  X X X X X X X X X X X X X X X X X X X X X X X X X X X X X X",
" X X X X X X X X X X X X X X X X X X X X X X X X Xo o o < G  .....X.L < o o o  X X X X X X X X X X X X X X X X X X X X X X X X X",
" X X X X X X X X X X X X X X X X X X X X X Xo o , <.h.g.g.g.j.j.h.h.l.l.N.l.<.< o o  X X X X X X X X X X X X X X X X X X X X X X",
" X X X X X X X X X X X X X X X X X X X Xo o L g.y.f.y.y.y.y.y.y.2.2.2.2.2.y.f.g.g.L o o  X X X X X X X X X X X X X X X X X X X X",
" X X X X X X X X X X X X X X X X X X Xo t f.e.e.f.p.y.:.&.&.;.:.:.;.;.:.;.<.1.2.y.p.f.0 o  X X X X X X X X X X X X X X X X X X X",
" X X X X X X X X X X X X X X X X X XX <.y.p.p.2.;.;.:.3.:.*.&...W W W W W Y R =.;.3.e.y.;.X  X X X X X X X X X X X X X X X X X X",
" X X X X X X X X X X X X X X X X Xo e.a.3.1.3.*.E W W $.$.$.....E E ..&.&.&.&.$...&.*.;.3.y.o  X X X X X X X X X X X X X X X X X",
" X X X X X X X X X X X X X X X XX e.a.;.;.$.W $.$.W Y R ..E R R E E E R R J J E E $...E $.&.e.o  X X X X X X X X X X X X X X X X",
" X X X X X X X X X X X X X X Xo 1.e.=.;.$.$.Y J R R R R R E R R R E E R E E R W R J ..$.$.W &.&.o  X X X X X X X X X X X X X X X",
" X X X X X X X X X X X X X Xo G e.3.*.$.Y H T T T Y Y Y A A C C C C w C J T R T E E R G E $.$.W G o  X X X X X X X X X X X X X X",
" X X X X X X X X X X X X X Xo :.;.W R Z Y T Y T R J C S n n C.A Z C i.Z C Z J C C Y R E W E W W E o  X X X X X X X X X X X X X X",
" X X X X X X X X X X X X Xo H T W J R R J J J C 9 Z t.h 9 n F 9 9 C ' n 9 n C.H J J C Y E R E J H G o  X X X X X X X X X X X X X",
" X X X X X X X X X X X X Xo R W T R J J C w B.3 8 $ # o X o o # o o o . o # % 8 8 A Q F J R E E E Y o  X X X X X X X X X X X X X",
" X X X X X X X X X X X Xo 9 T R T J ] ' 8 % + . O q 6.w.c.n.n.n.n.n.b.c.0.>.w o o # S 8 Z Q A Y Y A , o  X X X X X X X X X X X X",
" X X X X X X X X X X X Xo A Y Y C n w > o o I 8.0.I.E.E.~././.~./././././.T.L.m.9.I o o 8 r.A C C C n .  X X X X X X X X X X X X",
" X X X X X X X X X X X Xo n u.n M.Z $ o   +.c.R./././././././././././././././././.x., . X % 9 Z w 9 D o  X X X X X X X X X X X X",
" X X X X X X X X X X X Xo 9 S h C 8 .   0.n.!././././././././././././././././././.L.n., & X 8 F S 8 % o  X X X X X X X X X X X X",
" X X X X X X X X X X X Xo # 8 8 % . + o F.Y././././././././././././././././././././.n.x.. $ o % % 8 # o  X X X X X X X X X X X X",
" X X X X X X X X X X X X XX o o o * & # L././././././././././././././././././././.(./.F.X a * X . o .  X X X X X X X X X X X X X",
" X X X X X X X X X X X X Xo * a d j j + (././././././././././././././././././././././.Y.o z f a a * .  X X X X X X X X X X X X X",
" X X X X X X X X X X X X X+ d j l j $  .^./././.^././././././././././.W./././././././.~.o d a l j s o  X X X X X X X X X X X X X",
" X X X X X X X X X X X X X+ j d j s o n.^././.~././././././././././././././.W./.~././.!. .o d f f a +  X X X X X X X X X X X X X",
" X X X X X X X X X X X X Xo d d l o 8.F.(.~.P./././.~././.E./././././././././././.P./.!.n.I # f j a #  X X X X X X X X X X X X X",
" X X X X X X X X X X X X Xo s d j o n.).,.a a a s /././././././.^././././././.b a a a P G.n.o f j a O  X X X X X X X X X X X X X",
" X X X X X X X X X X X X Xo & a a 0 H.!.6.W.!.U.7.s 7./././.~././././././.z.d 5.I.E.!.d.m.n.# a j a o  X X X X X X X X X X X X X",
" X X X X X X X X X X X X X Xo s = 0 ~./.,.o < o + U m.( U./././././.T.T.@.z.O.+ o < - p /.R.5 = j a o  X X X X X X X X X X X X X",
" X X X X X X X X X X X X X X. & * x /./.# {.A.V > 6 o x.~./././.~././.^.P.o 6 > M %.|.o /.R.O.O a $ o  X X X X X X X X X X X X X",
" X X X X X X X X X X X X X Xo o o s.^./.o [.%.m @ m %.1 m.~./././.W./.W.o Z.M O 6 N }.; /.T.w.@ o X  X X X X X X X X X X X X X X",
" X X X X X X X X X X X X X Xo O.  w.!.(.: ].Q.{ N { K.{.# /./././././.U K.|.M M { Z.[.o /.!.9.  ,.   X X X X X X X X X X X X X X",
" X X X X X X X X X X X X X X X  o o >./.1.o.}.{.S.{.|.X.s././././.~./.U.< }.|.A.Q.|.S.x /.8.o o    X X X X X X X X X X X X X X X",
" X X X X X X X X X X X X X X X Xo ( $ 5 /.< 4.].{.].o.p /././././.^./.W.>.y ].{.].D.+ !.x + c o  X X X X X X X X X X X X X X X X",
" X X X X X X X X X X X X X X X Xo * ` 4 o L.>.o o @ 0.(././.(././././././.n.: o o I 8.o h ! o  X X X X X X X X X X X X X X X X X",
" X X X X X X X X X X X X X X X X Xo a ! ~ o : d.)./.(.(.!.v.L . o # I 0.H.Y.Y.v. .o 3 @.j = o  X X X X X X X X X X X X X X X X X",
" X X X X X X X X X X X X X X X X X Xo j j ) ( $ o o o o o $ k ) / @.k 4 : @ ; 2 c / ! b a o  X X X X X X X X X X X X X X X X X X",
" X X X X X X X X X X X X X X X X X Xo o s b ~ ! ` ) ^ / / ! k k g g l b ^ ^ ^ ~ ! l j a o o  X X X X X X X X X X X X X X X X X X",
" X X X X X X X X X X X X X X X X X X Xo & & = f l b j j b ^ @._ l b ! #.@.b ^ j f a & o o  X X X X X X X X X X X X X X X X X X X",
" X X X X X X X X X X X X X X X X X X X Xo o o * + f * j j l j j j j j j d j j & @ + o  X X X X X X X X X X X X X X X X X X X X X",
" X X X X X X X X X X X X X X X X X X X X X Xo o o $ . $ a a j a f a j a & 4 $ o , o  X X X X X X X X X X X X X X X X X X X X X X",
" X X X X X X X X X X X X X X X X X X X X X Xo 3.o o y o + @ @ o a @ a o o o o o *.# o  X X X X X X X X X X X X X X X X X X X X X",
" X X X X X X X X X X X X X X X X X X X X Xo G R o o n t 0 - y - @ + - t } [ + + C R X  X X X X X X X X X X X X X X X X X X X X X",
" X X X X X X X X X X X X X X X X X X X Xo # R # n # - [ } } } + o } n i y o + C o R w X  X X X X X X X X X X X X X X X X X X X X",
" X X X X X X X X X X X X X X X X X X X Xo $ J o H Y < - i n i o o i i t o > R Y o J , X o  X X X X X X X X X X X X X X X X X X X",
" X X X X X X X X X X X X X X X X X X X. _.D.+ o H Y R n X e 1 % 3 # 1 o n E T Y o o ,.R.K  X X X X X X X X X X X X X X X X X X X",
" X X X X X X X X X X X X X X X X X X Xx `.`.J.o o # n R J o o Y Y # . x R w # o O k.'./.m.o  X X X X X X X X X X X X X X X X X X",
" X X X X X X X X X X X X X X X X X X X, /./.q.+ v ~ 4 o o o + - # o o X o 4 ~ g @ I `.~.d.o  X X X X X X X X X X X X X X X X X X",
" X X X X X X X X X X X X X X X X X X Xo x.^.| o o o o 2 g k k k c k k h : o o o o 3 E.P.+  X X X X X X X X X X X X X X X X X X X",
" X X X X X X X X X X X X X X X X X X X Xo x : 8 w , o o . o o o o @ : 4 c ~ k 4 + o O.o  X X X X X X X X X X X X X X X X X X X X",
" X X X X X X X X X X X X X X X X X X X X X Xo , Z J J A n % + o o o o o o o # % % .  X X X X X X X X X X X X X X X X X X X X X X",
" X X X X X X X X X X X X X X X X X X X X X Xo % 9 w A Y A Y Y Y C J R R Y J C 9 8 o  X X X X X X X X X X X X X X X X X X X X X X",
" X X X X X X X X X X X X X X X X X X X X X Xo , 8 , 9 x C n n 9 , C w C w 9 C 9 % o  X X X X X X X X X X X X X X X X X X X X X X",
" X X X X X X X X X X X X X X X X X X X X X X Xo o o o o + % o o o o o # o o . o o  X X X X X X X X X X X X X X X X X X X X X X X",
" X X X X X X X X X X X X X X X X X X X X X X X XX o e [ u o o  X Xo o u [ e . o  X X X X X X X X X X X X X X X X X X X X X X X X",
" X X X X X X X X X X X X X X X X X X X X X X X Xo ; r r r [ o  X Xo u u r r 1 o  X X X X X X X X X X X X X X X X X X X X X X X X",
" X X X X X X X X X X X X X X X X X X X X X X X Xo o o ; - - o o  Xo - - - o o o  X X X X X X X X X X X X X X X X X X X X X X X X",
" X X X X X X X X X X X X X X X X X X X X X X X X X X X X X X X X X X X X X X X X X X X X X X X X X X X X X X X X X X X X X X X X",
" X X X X X X X X X X X X X X X X X X X X X X X X X X X X X X X X X X X X X X X X X X X X X X X X X X X X X X X X X X X X X X X X",
" X X X X X X X X X X X X X X X X X X X X X X X X X X X X X X X X X X X X X X X X X X X X X X X X X X X X X X X X X X X X X X X X",
" X X X X X X X X X X X X X X X X X X X X X X X X X X X X X X X X X X X X X X X X X X X X X X X X X X X X X X X X X X X X X X X X",
" X X X X X X X X X X X X X X X X X X X X X X X X X X X X X X X X X X X X X X X X X X X X X X X X X X X X X X X X X X X X X X X X"
};
