/* XPM */
static char *result[] = {
/* columns rows colors chars-per-pixel */
"64 64 177 2 ",
"   c #161513",
".  c #1B1917",
"X  c #1C1B18",
"o  c #221E1A",
"O  c #291F1A",
"+  c #221915",
"@  c #24231D",
"#  c #2B221C",
"$  c #2C2C1F",
"%  c #34221A",
"&  c #3D261C",
"*  c #3F281D",
"=  c #232324",
"-  c #292621",
";  c #2C2B22",
":  c #242529",
">  c #27282F",
",  c #2B2A2B",
"<  c #322C24",
"1  c #342E28",
"2  c #372A23",
"3  c #243224",
"4  c #333323",
"5  c #3A3A26",
"6  c #36352A",
"7  c #3A342C",
"8  c #3D3E29",
"9  c #2A2A30",
"0  c #2F3139",
"q  c #313030",
"w  c #3B3B3A",
"e  c #393836",
"r  c #442A1E",
"t  c #40271D",
"y  c #462C20",
"u  c #4A2E21",
"i  c #4D3123",
"p  c #4A382E",
"a  c #533425",
"s  c #5C3B2A",
"d  c #573C2F",
"f  c #433A31",
"g  c #4C3E33",
"h  c #593E30",
"j  c #573D30",
"k  c #613F2D",
"l  c #3F412C",
"z  c #2B5434",
"x  c #325A3C",
"c  c #32623F",
"v  c #43442C",
"b  c #47482F",
"n  c #48482F",
"m  c #454326",
"M  c #444431",
"N  c #4C4237",
"B  c #474930",
"V  c #4B4C32",
"C  c #4B443A",
"Z  c #4C4B3B",
"A  c #5E4435",
"S  c #544335",
"D  c #4F5035",
"F  c #515336",
"G  c #545639",
"H  c #55583A",
"J  c #595C3E",
"K  c #63402E",
"L  c #664533",
"P  c #6C4732",
"I  c #6E4834",
"U  c #6B4A3A",
"Y  c #704B35",
"T  c #714E3B",
"R  c #4A4948",
"E  c #5A4F42",
"W  c #564D47",
"Q  c #415E48",
"!  c #5C5E40",
"~  c #5E5344",
"^  c #6B5949",
"/  c #645446",
"(  c #7B5643",
")  c #7F5A46",
"_  c #775440",
"`  c #5E6042",
"'  c #616343",
"]  c #666846",
"[  c #6E604F",
"{  c #676948",
"}  c #6B6D4A",
"|  c #686647",
" . c #6E704C",
".. c #71734F",
"X. c #746452",
"o. c #7C6955",
"O. c #7A6452",
"+. c #737550",
"@. c #7A7B56",
"#. c #7D7D59",
"$. c #657E6B",
"%. c #886F5A",
"&. c #816754",
"*. c #82705C",
"=. c #8C715C",
"-. c #8B7864",
";. c #907660",
":. c #947C65",
">. c #9B7C62",
",. c #8E7E71",
"<. c #7F805A",
"1. c #718776",
"2. c #83845D",
"3. c #878760",
"4. c #878861",
"5. c #8B8B64",
"6. c #99846B",
"7. c #9F886F",
"8. c #968169",
"9. c #909067",
"0. c #94946B",
"q. c #99996F",
"w. c #9C9C72",
"e. c #A0826A",
"r. c #A68C72",
"t. c #A98F75",
"y. c #AC9276",
"u. c #A09F76",
"i. c #AE957A",
"p. c #B69B7E",
"a. c #BB9C7E",
"s. c #B1967A",
"d. c #A1A177",
"f. c #A3A278",
"g. c #BDB572",
"h. c #C59E7F",
"j. c #D3C651",
"k. c #DDD16E",
"l. c #858383",
"z. c #8E8C8C",
"x. c #9B8B80",
"c. c #A99482",
"v. c #B29E8F",
"b. c #BDA384",
"n. c #BBA89A",
"m. c #B9B7B7",
"M. c #BAB9B9",
"N. c #C59F80",
"B. c #C3A384",
"V. c #CCA686",
"C. c #CBAA8A",
"Z. c #C5AA8C",
"A. c #D2AE8C",
"S. c #D4B18F",
"D. c #D4B492",
"F. c #D9B592",
"G. c #DCB996",
"H. c #DFBC99",
"J. c #E1BF9A",
"K. c #D9BBA0",
"L. c #E5C29D",
"P. c #E9C49F",
"I. c #F2E688",
"U. c #E4C2A2",
"Y. c #EBC6A1",
"T. c #EECBA4",
"R. c #EFCDAB",
"E. c #F0CFAF",
"W. c #E3C8B4",
"Q. c #F0CEB0",
"!. c #EFD0B5",
"~. c #F2D2B6",
"^. c #CACBCA",
"/. c #DADADA",
"(. c #F5DBC8",
"). c #E3E2E2",
"_. c None",
/* pixels */
"_._._._._._._._._._._._._._._._._._._._._._._._._._._._._._._._._._._._._._._._._._._._._._._._._._._._._._._._._._._._._._._._.",
"_._._._._._._._._._._._._._._._._._._._._._._._._._._._._._._._._._._._._._._._._._._._._._._._._._._._._._._._._._._._._._._._.",
"_._._._._._._._._._._._._._._._._._._._._._._._._._._._._._._._._._._._._._._._._._._._._._._._._._._._._._._._._._._._._._._._.",
"_._._._._._._._._._._._._._._._._._._._._._._._._._._._._._._._._._._._._._._._._._._._._._._._._._._._._._._._._._._._._._._._.",
"_._._._._._._._._._._._._._._._._._._._._._._._._._._._._._._._._._._._._._._._._._._._._._._._._._._._._._._._._._._._._._._._.",
"_._._._._._._._._._._._._._._._._._._._._._._._._._._._._._._._._._._._._._._._._._._._._._._._._._._._._._._._._._._._._._._._.",
"_._._._._._._._._._._._._._._._._._._._._._._._._._._._._._._._._._._._._._._._._._._._._._._._._._._._._._._._._._._._._._._._.",
"_._._._._._._._._._._._._._._._._._._._._._._._._._._.. . X 4 M Z 6 = . . X _._._._._._._._._._._._._._._._._._._._._._._._._._.",
"_._._._._._._._._._._._._._._._._._._._._._._._.. . 7 @.d.f.w.q.0.d.u.d.5.Z @ . . _._._._._._._._._._._._._._._._._._._._._._._.",
"_._._._._._._._._._._._._._._._._._._._._._.X X M G } +.5.+.5.9.w.f.d.d.d.d.d.q.Z X . _._._._._._._._._._._._._._._._._._._._._.",
"_._._._._._._._._._._._._._._._._._._._._.X @ J `  ...' J #.5.5.5.w.w.f.q.5.q.w.w.u.' X X _._._._._._._._._._._._._._._._._._._.",
"_._._._._._._._._._._._._._._._._._._._.X @ G J ! V .. .2...` 5.3.0.w.f.d.f.f.d.w.u.9.w.7 X _._._._._._._._._._._._._._._._._._.",
"_._._._._._._._._._._._._._._._._._._._.. v H ! ! ` ' G ..+.2.} } 4.3.5.5.q.w.w.w.w.5.3.0.~ . _._._._._._._._._._._._._._._._._.",
"_._._._._._._._._._._._._._._._._._._._.@ M 8 H H ! ` } V { ..+.3.2.3.5.5.5.5.5.5.5.5.5.3.@.5 . _._._._._._._._._._._._._._._._.",
"_._._._._._._._._._._._._._._._._._._.. ; } V B B G H ` J } ` } +.}  .} @.#.#.#.#.2.3...H D ! ; X _._._._._._._._._._._._._._._.",
"_._._._._._._._._._._._._._._._._._._.. $ j.V H V ! ! H ` n J } } +.+.+.} { } .. .! H } { ` ` D X _._._._._._._._._._._._._._._.",
"_._._._._._._._._._._._._._._._._._._._.X 5 8 V F D D J ` ! H H ` ` } .......... . . .] ! H ! F 4 X _._._._._._._._._._._._._._.",
"_._._._._._._._._._._._._._._._._._._._.. X 4 8 5 V n D F H ! ! ! J H F ! ! ' ' ` ` ` ` ! H H v B X _._._._._._._._._._._._._._.",
"_._._._._._._._._._._._._._._._._._._.. v.W X @ m k.b b V D D G H H J ! ` ' ! ! ` ` V B b D F F V ; X _._._._._._._._._._._._._.",
"_._._._._._._._._._._._._._._._._._._.- (.K.i.C X @ m l V D F D F H H H H F H H H H F H H H D D n l X _._._._._._._._._._._._._.",
"_._._._._._._._._._._._._._._._._._.. x.~.~.U.D.i.= X 8 v v V n b V D D D D F F D H D D D F F D v n X _._._._._._._._._._._._._.",
"_._._._._._._._._._._._._._._._._._.. (.~.T.Q.R.T.  @ X 5 8 v v b D n l l v b n V V D V m D F D n n @ X _._._._._._._._._._._._.",
"_._._._._._._._._._._._._._._._._._.X ~.R.E.R.R.b.+ * O X 5 I.b b l v b n b b b V b V V m v v v V 4 5 X _._._._._._._._._._._._.",
"_._._._._._._._._._._._._._._._._._.C E.R.L.T.T.6.# r r O X ; v 4 l g.v l 5 l 8 8 8 8 5 5 f 4 8 l l $ X _._._._._._._._._._._._.",
"_._._._._._._._._._._._._._._._._.. 8.Q.R.T.T.T.S.X r i t y o . X $ m 4 5 5 5 5 8 5 8 8 4 $ $ $ @ o X _._._._._._._._._._._._._.",
"_._._._._._._._._._._._._._._._._.. Z.R.T.T.P.T.T.4 # r u u & % # O + + X X X X X + X X X X X + X   _._._._._._._._._._._._._._.",
"_._._._._._._._._._._._._._._._._.. J.T.T.T.T.P.T.X.# r u y y y r i t & & & r r a r r & & % & % + _._._._._._._._._._._._._._._.",
"_._._._._._._._._._._._._._._._._.. T.R.T.T.T.T.T.=.o * u u u i a r i r r a i u r s a a r r i t @ _._._._._._._._._._._._._._._.",
"_._._._._._._._._._._._._._._._._.X T.T.T.B.S &.T.B.X t t y t y % O O y r r r r a s s i r u a t t X _._._._._._._._._._._._._._.",
"_._._._._._._._._._._._._._._._._.X S.T.%.+ # # N Y.X & & t t O X   X X % r u r r r r r r r r r t X _._._._._._._._._._._._._._.",
"_._._._._._._._._._._._._._._._._.o L.g ^ J.C.F.V.Y.4 # t & O . n.W.. :.X % t i r u a r r a r r & X _._._._._._._._._._._._._._.",
"_._._._._._._._._._._._._._._._._.@ g p.@ , R e X H.s.. t & X c.%.%.:.H 6.X * * r r r a r r t * @ _._._._._._._._._._._._._._._.",
"_._._._._._._._._._._._._._._._._.o 7.o z $.).^.l.y.T.~ # % . K.U.E.r.g A.g X & & r r t r t t * X _._._._._._._._._._._._._._._.",
"_._._._._._._._._._._._._._._._._.X , 3 = x ).^.l.p.P.b.. X X L.>.J.< t.R.p.f X & t u t t t & * X _._._._._._._._._._._._._._._.",
"_._._._._._._._._._._._._._._._._.X w Q c 1.).^.R G.T.L.X.E < =.>.f 7 T.Y.T.a.*.X o t r r * t * . _._._._._._._._._._._._._._._.",
"_._._._._._._._._._._._._._._._._.X ; M.^.)./.M.- Y.T.T.A.F.J.; o O.T.Y.T.T.T.D.y.f o & t t * & X _._._._._._._._._._._._._._._.",
"_._._._._._._._._._._._._._._._._.@ A.X l.M.z.X G.C.1 X o X :.T.T.T.T.T.T.T.T.Y.Y.y.g o & & r O . _._._._._._._._._._._._._._._.",
"_._._._._._._._._._._._._._._._._.X X.B.^ 7 ^ t.; X d T T k X L.T.T.T.T.T.L.J.T.L.G.r.@ % & t . _._._._._._._._._._._._._._._._.",
"_._._._._._._._._._._._._._._._._.X p @ X X . O A I ) Y K s X F.T.T.P.J.P.J.Y.L.H.G.V.%.X t o . _._._._._._._._._._._._._._._._.",
"_._._._._._._._._._._._._._._._._.X K L U Y I k &.Y P s s s # *.L.L.L.L.Y.L.H.F.V.V.V.&.X o X _._._._._._._._._._._._._._._._._.",
"_._._._._._._._._._._._._._._._._.X # T Y k K k ( s a s u i X 7 H.H.H.F.G.F.V.D.V.N./ . _.X _._._._._._._._._._._._._._._._._._.",
"_._._._._._._._._._._._._._._._._.X O U I k Y K T a K s s y X C.F.F.G.F.A.V.N.%.1 X X _._._._._._._._._._._._._._._._._._._._._.",
"_._._._._._._._._._._._._._._._._._.X a a k s I L a a u u X $ h.B.a.6.^ 6 . . X _._._._._._._._._._._._._._._._._._._._._._._._.",
"_._._._._._._._._._._._._._._._._._.X @ r r a r a u i y y X X X X X $ f ` ` V . _._._._._._._._._._._._._._._._._._._._._._._._.",
"_._._._._._._._._._._._._._._._._._._.. o # # y i r & X @ @ . 4 ` o } +.| ! D @ _._._._._._._._._._._._._._._._._._._._._._._._.",
"_._._._._._._._._._._._._._._._._._._._._.+ . . X X : , > X X  ...X } } ! ! G 8 X _._._._._._._._._._._._._._._._._._._._._._._.",
"_._._._._._._._._._._._._._._._._._._._._._._.X o q e : . ] X ..` $ V ! ! H G V X _._._._._._._._._._._._._._._._._._._._._._._.",
"_._._._._._._._._._._._._._._._._._._._._._._.. l X = X H Z @ { G 5 4 ! ! H G D X _._._._._._._._._._._._._._._._._._._._._._._.",
"_._._._._._._._._._._._._._._._._._._._._._._.X o @ $ G ` 6 4 H G v @ J H H n @ . _._._._._._._._._._._._._._._._._._._._._._._.",
"_._._._._._._._._._._._._._._._._._._._._._._.# S 2 . . - o 8 B V M X ; X X @ d < X _._._._._._._._._._._._._._._._._._._._._._.",
"_._._._._._._._._._._._._._._._._._._._._._.. X . o 2 h h X - - = o . A U h # X X X _._._._._._._._._._._._._._._._._._._._._._.",
"_._._._._._._._._._._._._._._._._._._._._._.X 4 v B 4 @ X g J.Q.(.U.^ X X ; b n $ X _._._._._._._._._._._._._._._._._._._._._._.",
"_._._._._._._._._._._._._._._._._._._._._._.X 4 M V n D 4 O.Y.E.~.Y.r.; G D n v 4 X _._._._._._._._._._._._._._._._._._._._._._.",
"_._._._._._._._._._._._._._._._._._._._._._.. $ f v D n n @ A.L.T.A.N v G V n l 4 . _._._._._._._._._._._._._._._._._._._._._._.",
"_._._._._._._._._._._._._._._._._._._._._._.X , 4 5 l n n @ $ ;.>.7 o v 8 8 b 8 4 . _._._._._._._._._._._._._._._._._._._._._._.",
"_._._._._._._._._._._._._._._._._._._._._._.X X X X X $ 4 v $ X X X ; 4 @ @ X . . . _._._._._._._._._._._._._._._._._._._._._._.",
"_._._._._._._._._._._._._._._._._._._._._._._._._.X X X X . = X X , = . = : . _._._._._._._._._._._._._._._._._._._._._._._._._.",
"_._._._._._._._._._._._._._._._._._._._._._._._._.X 0 X = = : X : . > > > > . _._._._._._._._._._._._._._._._._._._._._._._._._.",
"_._._._._._._._._._._._._._._._._._._._._._._._._.X X X . . . X 9 = X : : = . _._._._._._._._._._._._._._._._._._._._._._._._._.",
"_._._._._._._._._._._._._._._._._._._._._._._._._._._._._._._.. . . . . . X X _._._._._._._._._._._._._._._._._._._._._._._._._.",
"_._._._._._._._._._._._._._._._._._._._._._._._._._._._._._._._._._._._._._._._._._._._._._._._._._._._._._._._._._._._._._._._.",
"_._._._._._._._._._._._._._._._._._._._._._._._._._._._._._._._._._._._._._._._._._._._._._._._._._._._._._._._._._._._._._._._.",
"_._._._._._._._._._._._._._._._._._._._._._._._._._._._._._._._._._._._._._._._._._._._._._._._._._._._._._._._._._._._._._._._.",
"_._._._._._._._._._._._._._._._._._._._._._._._._._._._._._._._._._._._._._._._._._._._._._._._._._._._._._._._._._._._._._._._."
};
