/* XPM */
static char *result[] = {
/* columns rows colors chars-per-pixel */
"64 64 177 2 ",
"   c #161513",
".  c #1B1917",
"X  c #1C1B18",
"o  c #221E1A",
"O  c #291F1A",
"+  c #221915",
"@  c #24231D",
"#  c #2B221C",
"$  c #2C2C1F",
"%  c #34221A",
"&  c #3D261C",
"*  c #3F281D",
"=  c #232324",
"-  c #292621",
";  c #2C2B22",
":  c #242529",
">  c #27282F",
",  c #2B2A2B",
"<  c #322C24",
"1  c #342E28",
"2  c #372A23",
"3  c #243224",
"4  c #333323",
"5  c #3A3A26",
"6  c #36352A",
"7  c #3A342C",
"8  c #3D3E29",
"9  c #2A2A30",
"0  c #2F3139",
"q  c #313030",
"w  c #3B3B3A",
"e  c #393836",
"r  c #442A1E",
"t  c #40271D",
"y  c #462C20",
"u  c #4A2E21",
"i  c #4D3123",
"p  c #4A382E",
"a  c #533425",
"s  c #5C3B2A",
"d  c #573C2F",
"f  c #433A31",
"g  c #4C3E33",
"h  c #593E30",
"j  c #573D30",
"k  c #613F2D",
"l  c #3F412C",
"z  c #2B5434",
"x  c #325A3C",
"c  c #32623F",
"v  c #43442C",
"b  c #47482F",
"n  c #48482F",
"m  c #454326",
"M  c #444431",
"N  c #4C4237",
"B  c #474930",
"V  c #4B4C32",
"C  c #4B443A",
"Z  c #4C4B3B",
"A  c #5E4435",
"S  c #544335",
"D  c #4F5035",
"F  c #515336",
"G  c #545639",
"H  c #55583A",
"J  c #595C3E",
"K  c #63402E",
"L  c #664533",
"P  c #6C4732",
"I  c #6E4834",
"U  c #6B4A3A",
"Y  c #704B35",
"T  c #714E3B",
"R  c #4A4948",
"E  c #5A4F42",
"W  c #564D47",
"Q  c #415E48",
"!  c #5C5E40",
"~  c #5E5344",
"^  c #6B5949",
"/  c #645446",
"(  c #7B5643",
")  c #7F5A46",
"_  c #775440",
"`  c #5E6042",
"'  c #616343",
"]  c #666846",
"[  c #6E604F",
"{  c #676948",
"}  c #6B6D4A",
"|  c #686647",
" . c #6E704C",
".. c #71734F",
"X. c #746452",
"o. c #7C6955",
"O. c #7A6452",
"+. c #737550",
"@. c #7A7B56",
"#. c #7D7D59",
"$. c #657E6B",
"%. c #886F5A",
"&. c #816754",
"*. c #82705C",
"=. c #8C715C",
"-. c #8B7864",
";. c #907660",
":. c #947C65",
">. c #9B7C62",
",. c #8E7E71",
"<. c #7F805A",
"1. c #718776",
"2. c #83845D",
"3. c #878760",
"4. c #878861",
"5. c #8B8B64",
"6. c #99846B",
"7. c #9F886F",
"8. c #968169",
"9. c #909067",
"0. c #94946B",
"q. c #99996F",
"w. c #9C9C72",
"e. c #A0826A",
"r. c #A68C72",
"t. c #A98F75",
"y. c #AC9276",
"u. c #A09F76",
"i. c #AE957A",
"p. c #B69B7E",
"a. c #BB9C7E",
"s. c #B1967A",
"d. c #A1A177",
"f. c #A3A278",
"g. c #BDB572",
"h. c #C59E7F",
"j. c #D3C651",
"k. c #DDD16E",
"l. c #858383",
"z. c #8E8C8C",
"x. c #9B8B80",
"c. c #A99482",
"v. c #B29E8F",
"b. c #BDA384",
"n. c #BBA89A",
"m. c #B9B7B7",
"M. c #BAB9B9",
"N. c #C59F80",
"B. c #C3A384",
"V. c #CCA686",
"C. c #CBAA8A",
"Z. c #C5AA8C",
"A. c #D2AE8C",
"S. c #D4B18F",
"D. c #D4B492",
"F. c #D9B592",
"G. c #DCB996",
"H. c #DFBC99",
"J. c #E1BF9A",
"K. c #D9BBA0",
"L. c #E5C29D",
"P. c #E9C49F",
"I. c #F2E688",
"U. c #E4C2A2",
"Y. c #EBC6A1",
"T. c #EECBA4",
"R. c #EFCDAB",
"E. c #F0CFAF",
"W. c #E3C8B4",
"Q. c #F0CEB0",
"!. c #EFD0B5",
"~. c #F2D2B6",
"^. c #CACBCA",
"/. c #DADADA",
"(. c #F5DBC8",
"). c #E3E2E2",
"_. c None",
/* pixels */
"_._._._._._._._._._._._._._._._._._._._._._._._._._._._._._._._._._._._._._._._._._._._._._._._._._._._._._._._._._._._._._._._.",
"_._._._._._._._._._._._._._._._._._._._._._._._._._._._._._._._._._._._._._._._._._._._._._._._._._._._._._._._._._._._._._._._.",
"_._._._._._._._._._._._._._._._._._._._._._._._._._._._._._._._._._._._._._._._._._._._._._._._._._._._._._._._._._._._._._._._.",
"_._._._._._._._._._._._._._._._._._._._._._._._._._._._._._._._._._._._._._._._._._._._._._._._._._._._._._._._._._._._._._._._.",
"_._._._._._._._._._._._._._._._._._._._._._._._._._._._._._._._._._._._._._._._._._._._._._._._._._._._._._._._._._._._._._._._.",
"_._._._._._._._._._._._._._._._._._._._._._._._._._._._._._._._._._._._._._._._._._._._._._._._._._._._._._._._._._._._._._._._.",
"_._._._._._._._._._._._._._._._._._._._._._._._._._._._._._._._._._._._._._._._._._._._._._._._._._._._._._._._._._._._._._._._.",
"_._._._._._._._._._._._._._._._._._._._._._._._._._.X X X @ 6 Z M < X X X _._._._._._._._._._._._._._._._._._._._._._._._._._._.",
"_._._._._._._._._._._._._._._._._._._._._._._.X . @ Z 5.d.d.u.0.q.w.f.w.#.6 X X _._._._._._._._._._._._._._._._._._._._._._._._.",
"_._._._._._._._._._._._._._._._._._._._._.X X Z q.f.d.d.d.d.d.u.9.4.@.5.+.{ G M X X _._._._._._._._._._._._._._._._._._._._._._.",
"_._._._._._._._._._._._._._._._._._._.X X ^ u.q.w.q.5.q.d.w.q.5.5.5.#.! ' +. .! ! @ X _._._._._._._._._._._._._._._._._._._._._.",
"_._._._._._._._._._._._._._._._._._.X 6 q.9.d.w.u.f.f.d.d.u.9.5.4.` +.<.} +.V ! ! H o X _._._._._._._._._._._._._._._._._._._._.",
"_._._._._._._._._._._._._._._._._.X ! 0.5.5.w.w.w.w.q.9.5.2.5. .} 2.+.+.F ' ! ! ! G v . _._._._._._._._._._._._._._._._._._._._.",
"_._._._._._._._._._._._._._._._.X 8 #.2.5.5.5.5.5.5.5.5.5.2.2.2.+.+.} B } ` ! H G 5 b @ _._._._._._._._._._._._._._._._._._._._.",
"_._._._._._._._._._._._._._._.X ; J D H ..2.2.<.#.<.#.#. . .} +.} ' } ! ` J H B B D } ; . _._._._._._._._._._._._._._._._._._._.",
"_._._._._._._._._._._._._._._.X D ! ` } } J H }  . .] {  .+.+...} J B ! H ! J V G V j.$ . _._._._._._._._._._._._._._._._._._._.",
"_._._._._._._._._._._._._._.. 4 G J J J { .. . .+.+.+.+. .} ` ! G H ! ` ! F D F D 5 4 X _._._._._._._._._._._._._._._._._._._._.",
"_._._._._._._._._._._._._._.. b l G H J ` ` ` ` ` ` ` J G H J ! ! ! H G V n n 8 8 5 X X _._._._._._._._._._._._._._._._._._._._.",
"_._._._._._._._._._._._._.X $ V D G D B B V ! ! J J ` ` ! J H H H F D n n n k.v @ X W v.X _._._._._._._._._._._._._._._._._._._.",
"_._._._._._._._._._._._._.X l V F D H H G G H G H H H H H G G G V F V n l l @ . C i.K.(., _._._._._._._._._._._._._._._._._._._.",
"_._._._._._._._._._._._._.X b m F F G n D G G D G F D D D D D n V n b v 8 o @ i.D.U.!.~.7.X _._._._._._._._._._._._._._._._._._.",
"_._._._._._._._._._._._.X @ b b V F D v B D V V V m v l v n V n b m l 5 . @   T.Q.R.T.!.(.X _._._._._._._._._._._._._._._._._._.",
"_._._._._._._._._._._._.X 5 4 D v v l v V V V V n n n b b v l m v I.5 . @ * X b.T.E.E.R.~.X _._._._._._._._._._._._._._._._._._.",
"_._._._._._._._._._._._.X ; l l 8 5 8 8 5 8 8 8 l l 5 l l g.f 4 m 4 . o y y # 6.T.T.L.R.!.C _._._._._._._._._._._._._._._._._._.",
"_._._._._._._._._._._._._.X X # $ $ 4 4 8 f 5 5 5 5 5 5 4 m # o X o r t i r + C.T.T.T.R.R.6.X _._._._._._._._._._._._._._._._._.",
"_._._._._._._._._._._._._._.  X . . X X . + + . . . . . o + # O % % i i r # 6 T.T.J.T.T.R.Z.X _._._._._._._._._._._._._._._._._.",
"_._._._._._._._._._._._._._._.X % & % % & r r u r u & % & t r u r r r r r O X.T.T.T.T.T.R.L.X _._._._._._._._._._._._._._._._._.",
"_._._._._._._._._._._._._._._.O t a r r a a k u u u s r r i u a a a r i t o -.T.T.T.T.T.T.P.X _._._._._._._._._._._._._._._._._.",
"_._._._._._._._._._._._._._.X * t a r u a k k u r r y r & # O % r * r r t X B.T.&.S B.P.T.Y.X _._._._._._._._._._._._._._._._._.",
"_._._._._._._._._._._._._._.X r r r r r r r r r r u r % . .   X O r * & & . P.g # # + %.T.F.X _._._._._._._._._._._._._._._._._.",
"_._._._._._._._._._._._._._.X % r r a r r a r u u t % @ 6.. W.n.. O & * % < P.V.D.Z.L.^ g L.@ _._._._._._._._._._._._._._._._._.",
"_._._._._._._._._._._._._._._.O t r r r u r r r & t . 8.H :.%.=.c.X & * X i.L.X e W , @ p.g o _._._._._._._._._._._._._._._._._.",
"_._._._._._._._._._._._._._._.X * * & r r r r * & o g A.N r.T.U.K.X O O / Y.i.l.^.).$.z X 7.= _._._._._._._._._._._._._._._._._.",
"_._._._._._._._._._._._._._._.X t * r r * r r & X f p.T.t., G.>.J.X X . B.P.s.l.^.).x = 3 , X _._._._._._._._._._._._._._._._._.",
"_._._._._._._._._._._._._._._.X & t * r r r o . *.p.Y.T.T.7 f >.=.1 E X.P.T.H.R ^.).1.c Q l X _._._._._._._._._._._._._._._._._.",
"_._._._._._._._._._._._._._._.X & & * * * . f y.D.T.T.T.T.T.o.O ; J.D.D.T.T.T.@ m./.).^.M.; = _._._._._._._._._._._._._._._._._.",
"_._._._._._._._._._._._._._._.X # r t & o f y.Y.P.T.T.T.T.T.T.T.T.:.X + X < C.G.X z.m.l.X C.- _._._._._._._._._._._._._._._._._.",
"_._._._._._._._._._._._._._._._.X & * % @ r.G.P.T.L.L.T.T.T.T.T.L.X K ( Y s X , t./ 6 [ B.X.X _._._._._._._._._._._._._._._._._.",
"_._._._._._._._._._._._._._._._.. o t X =.V.G.G.P.Y.J.P.J.P.T.T.S.. a k I ( Y A @ X X X @ p o _._._._._._._._._._._._._._._._._.",
"_._._._._._._._._._._._._._._._._.  O . &.V.V.V.D.G.P.P.L.L.J.L.*.# s s k P I &.P I T U L s X _._._._._._._._._._._._._._._._._.",
"_._._._._._._._._._._._._._._._._._.. _.X ~ h.V.S.V.F.G.G.G.J.G.7 X a r s s s _ K K K P _ % X _._._._._._._._._._._._._._._._._.",
"_._._._._._._._._._._._._._._._._._._._._.X X 1 %.B.V.A.F.G.F.F.C.o r s s s a T K I K P U O X _._._._._._._._._._._._._._._._._.",
"_._._._._._._._._._._._._._._._._._._._._._._._.X . . 6 ^ 6.h.B.h.- o i i a a L I s s a i X _._._._._._._._._._._._._._._._._._.",
"_._._._._._._._._._._._._._._._._._._._._._._._.X V ! ` f $ . . X . X r r i u a u a r u O X _._._._._._._._._._._._._._._._._._.",
"_._._._._._._._._._._._._._._._._._._._._._._._.@ D ! ]  .} @ ` 4 X o = X & r i r # # X X _._._._._._._._._._._._._._._._._._._.",
"_._._._._._._._._._._._._._._._._._._._._._._.X l G ! ! {  .X +.} X X , , = X X X X X _._._._._._._._._._._._._._._._._._._._._.",
"_._._._._._._._._._._._._._._._._._._._._._._.X D G G ` ` D @ ` ..X { X , e q X X _._._._._._._._._._._._._._._._._._._._._._._.",
"_._._._._._._._._._._._._._._._._._._._._._._.X D F H ! J 6 6 G ] @ V ! X = X l . _._._._._._._._._._._._._._._._._._._._._._._.",
"_._._._._._._._._._._._._._._._._._._._._._._.X # b H H ! @ v G H 6 6 ` G - @ o X _._._._._._._._._._._._._._._._._._._._._._._.",
"_._._._._._._._._._._._._._._._._._._._._._.X $ j @ X X - X B B n l X @ X . 2 d @ _._._._._._._._._._._._._._._._._._._._._._._.",
"_._._._._._._._._._._._._._._._._._._._._._.X . X - h U A X o - - ; . h j 2 o . X X _._._._._._._._._._._._._._._._._._._._._._.",
"_._._._._._._._._._._._._._._._._._._._._._.X 4 V v - X X ^ U.(.!.H.N X @ 4 V v 4 X _._._._._._._._._._._._._._._._._._._._._._.",
"_._._._._._._._._._._._._._._._._._._._._._.. $ b n D G $ r.P.~.R.P.O.4 V V V v 4 X _._._._._._._._._._._._._._._._._._._._._._.",
"_._._._._._._._._._._._._._._._._._._._._._.. 4 f n n F l N S.T.P.A.@ n V V v v $ X _._._._._._._._._._._._._._._._._._._._._._.",
"_._._._._._._._._._._._._._._._._._._._._._.X ; 8 m l 8 v @ 7 >.=.- # V V 8 8 4 $ X _._._._._._._._._._._._._._._._._._._._._._.",
"_._._._._._._._._._._._._._._._._._._._._._.X X . @ @ @ 4 $ . . X - v 4 $ X . X X X _._._._._._._._._._._._._._._._._._._._._._.",
"_._._._._._._._._._._._._._._._._._._._._._._._._.. : = X = > X o X X X X X X _._._._._._._._._._._._._._._._._._._._._._._._._.",
"_._._._._._._._._._._._._._._._._._._._._._._._._.. > > > : X : X : : = X 0 X _._._._._._._._._._._._._._._._._._._._._._._._._.",
"_._._._._._._._._._._._._._._._._._._._._._._._._.X : = = = = > X X X X X X X _._._._._._._._._._._._._._._._._._._._._._._._._.",
"_._._._._._._._._._._._._._._._._._._._._._._._._.X X X .   X X X _._._._._._._._._._._._._._._._._._._._._._._._._._._._._._._.",
"_._._._._._._._._._._._._._._._._._._._._._._._._._._._._._._._._._._._._._._._._._._._._._._._._._._._._._._._._._._._._._._._.",
"_._._._._._._._._._._._._._._._._._._._._._._._._._._._._._._._._._._._._._._._._._._._._._._._._._._._._._._._._._._._._._._._.",
"_._._._._._._._._._._._._._._._._._._._._._._._._._._._._._._._._._._._._._._._._._._._._._._._._._._._._._._._._._._._._._._._.",
"_._._._._._._._._._._._._._._._._._._._._._._._._._._._._._._._._._._._._._._._._._._._._._._._._._._._._._._._._._._._._._._._."
};
