/* XPM */
static char *result[] = {
/* columns rows colors chars-per-pixel */
"64 64 150 2 ",
"   c gray6",
".  c #151413",
"X  c #191513",
"o  c #1A1917",
"O  c #1C1B19",
"+  c #271D17",
"@  c #211E1B",
"#  c #281F1A",
"$  c #24231D",
"%  c #2C221C",
"&  c #2B2B1E",
"*  c #36251D",
"=  c #3B261D",
"-  c #3C281E",
";  c #212122",
":  c #2A2621",
">  c #2D2B23",
",  c #26272C",
"<  c #27282E",
"1  c #28292F",
"2  c #322721",
"3  c #352922",
"4  c #3C2A20",
"5  c #342E28",
"6  c #323222",
"7  c #3A3A26",
"8  c #36352A",
"9  c #3C352D",
"0  c #3D3D29",
"q  c #2A2B31",
"w  c #452B1F",
"e  c #452C21",
"r  c #4A2D21",
"t  c #4E3123",
"y  c #443128",
"u  c #4D362B",
"i  c #42382F",
"p  c #543525",
"a  c #583827",
"s  c #543A2E",
"d  c #5D3C2A",
"f  c #433B32",
"g  c #5A3E31",
"h  c #613E2C",
"j  c #3F402A",
"k  c #43432C",
"l  c #47482F",
"z  c #48492F",
"x  c #454533",
"c  c #474830",
"v  c #4B4D32",
"b  c #4D4338",
"n  c #4C4B3A",
"m  c #5E4133",
"M  c #524439",
"N  c #4F5135",
"B  c #515337",
"V  c #535639",
"C  c #56583B",
"Z  c #595C3E",
"A  c #65412E",
"S  c #69442F",
"D  c #654332",
"F  c #6B4632",
"G  c #6D4935",
"H  c #6F4B38",
"J  c #704B37",
"K  c #724E3A",
"L  c #75513E",
"P  c #594E42",
"I  c #5B5443",
"U  c #5C5E41",
"Y  c #5F5E48",
"T  c #614F41",
"R  c #655344",
"E  c #685444",
"W  c #645748",
"Q  c #605F49",
"!  c #6B5C4C",
"~  c #735240",
"^  c #7A5541",
"/  c #725E4D",
"(  c #5E6042",
")  c #636545",
"_  c #676847",
"`  c #676948",
"'  c #6B6D4A",
"]  c #6E714D",
"[  c #71734F",
"{  c #716351",
"}  c #7B6654",
"|  c #79695B",
" . c #737552",
".. c #767852",
"X. c #7A7B57",
"o. c #7D7E58",
"O. c #805C48",
"+. c #846D59",
"@. c #8B725D",
"#. c #8C7962",
"$. c #8E7A68",
"%. c #977A63",
"&. c #9E7F67",
"*. c #7F805A",
"=. c #83845D",
"-. c #878860",
";. c #8A8B63",
":. c #9B8169",
">. c #908F68",
",. c #9F8A6F",
"<. c #94946B",
"1. c #98976E",
"2. c #99986F",
"3. c #9B8B7F",
"4. c #9C9B72",
"5. c #A08168",
"6. c #A8896F",
"7. c #A48C71",
"8. c #AB9276",
"9. c #AF9579",
"0. c #B2977A",
"q. c #BA9578",
"w. c #B59A7C",
"e. c #BC9A7D",
"r. c #A1A076",
"t. c #B99F80",
"y. c #BEA182",
"u. c #C69F80",
"i. c #C0A384",
"p. c #CCA585",
"a. c #C3A887",
"s. c #CDA989",
"d. c #D2AD8C",
"f. c #D1B08F",
"g. c #C4AB96",
"h. c #D7B794",
"j. c #D9B693",
"k. c #DCB996",
"l. c #DFBC98",
"z. c #E2BE9A",
"x. c #E6C39E",
"c. c #E9C49F",
"v. c #EDC7A1",
"b. c #EFC9A4",
"n. c #EFCBA8",
"m. c #EFCFB4",
"M. c #E2CABA",
"N. c #EFD1B7",
"B. c #F0D2B8",
"V. c None",
/* pixels */
"V.V.V.V.V.V.V.V.V.V.V.V.V.V.V.V.V.V.V.V.V.V.V.V.V.V.V.V.V.V.V.V.V.V.V.V.V.V.V.V.V.V.V.V.V.V.V.V.V.V.V.V.V.V.V.V.V.V.V.V.V.V.V.V.",
"V.V.V.V.V.V.V.V.V.V.V.V.V.V.V.V.V.V.V.V.V.V.V.V.V.V.V.V.V.V.V.V.V.V.V.V.V.V.V.V.V.V.V.V.V.V.V.V.V.V.V.V.V.V.V.V.V.V.V.V.V.V.V.V.",
"V.V.V.V.V.V.V.V.V.V.V.V.V.V.V.V.V.V.V.V.V.V.V.V.V.V.V.V.V.V.V.V.V.V.V.V.V.V.V.V.V.V.V.V.V.V.V.V.V.V.V.V.V.V.V.V.V.V.V.V.V.V.V.V.",
"V.V.V.V.V.V.V.V.V.V.V.V.V.V.V.V.V.V.V.V.V.V.V.V.V.V.V.V.V.V.V.V.V.V.V.V.V.V.V.V.V.V.V.V.V.V.V.V.V.V.V.V.V.V.V.V.V.V.V.V.V.V.V.V.",
"V.V.V.V.V.V.V.V.V.V.V.V.V.V.V.V.V.V.V.V.V.V.V.V.V.V.V.V.V.V.V.V.V.V.V.V.V.V.V.V.V.V.V.V.V.V.V.V.V.V.V.V.V.V.V.V.V.V.V.V.V.V.V.V.",
"V.V.V.V.V.V.V.V.V.V.V.V.V.V.V.V.V.V.V.V.V.V.V.V.V.V.V.V.V.V.O O O O V.V.V.V.V.V.V.V.V.V.V.V.V.V.V.V.V.V.V.V.V.V.V.V.V.V.V.V.V.V.",
"V.V.V.V.V.V.V.V.V.V.V.V.V.V.V.V.V.V.V.V.V.V.V.V.V.O O O > x I Y ) I x 1 ; O O V.V.V.V.V.V.V.V.V.V.V.V.V.V.V.V.V.V.V.V.V.V.V.V.V.",
"V.V.V.V.V.V.V.V.V.V.V.V.V.V.V.V.V.V.V.V.V.V.O O 6  .1.<.<.<.2.2.<.4.4.4.4.4. .> O O V.V.V.V.V.V.V.V.V.V.V.V.V.V.V.V.V.V.V.V.V.V.",
"V.V.V.V.V.V.V.V.V.V.V.V.V.V.V.V.V.V.V.V.O O n >.;.;.-.-.=.*.;.=.o.o.o.o.X.=.;.1.1.n O O V.V.V.V.V.V.V.V.V.V.V.V.V.V.V.V.V.V.V.V.",
"V.V.V.V.V.V.V.V.V.V.V.V.V.V.V.V.V.V.V.O 8 >.*.*.;.-.*.[ ) ) ' [  .] ] ] ]  .o.o.=.-.>.8 O V.V.V.V.V.V.V.V.V.V.V.V.V.V.V.V.V.V.V.",
"V.V.V.V.V.V.V.V.V.V.V.V.V.V.V.V.V.V.O  .=.;.;.*.[ [ [ [ [ _ _ Z Z Z U Z C B V ' ]  .o.=.[ O V.V.V.V.V.V.V.V.V.V.V.V.V.V.V.V.V.V.",
"V.V.V.V.V.V.V.V.V.V.V.V.V.V.V.V.V.O *.=...*.[ ` V Z Z ( ( ) U U C C ( ( ) ) ) ( ( ) ` ]  .=.O V.V.V.V.V.V.V.V.V.V.V.V.V.V.V.V.V.",
"V.V.V.V.V.V.V.V.V.V.V.V.V.V.V.V.o *.=.[ ' ( ( U ( Z B B U V V V C C C C V v v Z C ( U C ) ) o.O V.V.V.V.V.V.V.V.V.V.V.V.V.V.V.V.",
"V.V.V.V.V.V.V.V.V.V.V.V.V.V.V.O *.*.' ] ( ( N v V V V V V V V V V C C V C C C Z V v U ( ( C ) ) O V.V.V.V.V.V.V.V.V.V.V.V.V.V.V.",
"V.V.V.V.V.V.V.V.V.V.V.V.V.V.O x *.[ _ ( B l B B B N B N v l k k k k 0 k x B V B C V V c C ( ) Z x O V.V.V.V.V.V.V.V.V.V.V.V.V.V.",
"V.V.V.V.V.V.V.V.V.V.V.V.V.V.O [ [ Z V k B B N B V v l j k k l k l k l k l l c k k N V C Z V C U C O V.V.V.V.V.V.V.V.V.V.V.V.V.V.",
"V.V.V.V.V.V.V.V.V.V.V.V.V.O x B Z v B B v c v k 7 k j j 7 j j 7 7 k k k 7 j z k v z k N C C B v c k O V.V.V.V.V.V.V.V.V.V.V.V.V.",
"V.V.V.V.V.V.V.V.V.V.V.V.V.O V Z B C N l k 7 6 6 & & $ O o o o o O o X o o $ & 6 6 k z z N B C C C N O V.V.V.V.V.V.V.V.V.V.V.V.V.",
"V.V.V.V.V.V.V.V.V.V.V.V.O 6 V V B c z 0 6 & $ o o % * u s m m m m t w - - * % o O $ 0 6 l z l N N l > O V.V.V.V.V.V.V.V.V.V.V.V.",
"V.V.V.V.V.V.V.V.V.V.V.V.O z B N k j k & O @ * e t m L S d S m A A A m A S m p p p - O O 6 k v k k k 0 O V.V.V.V.V.V.V.V.V.V.V.V.",
"V.V.V.V.V.V.V.V.V.V.V.V.o j l 0 j k & o w r m F O.K S S L L a h A S K S S S d L A D p w O & 0 j 0 6 6 O V.V.V.V.V.V.V.V.V.V.V.V.",
"V.V.V.V.V.V.V.V.V.V.V.V.o 0 j 0 j 6 o w a A m A A A S L K S h h a m A A A A L S H ^ H a t o 6 7 7 6 6 o V.V.V.V.V.V.V.V.V.V.V.V.",
"V.V.V.V.V.V.V.V.V.V.V.V.O $ 6 6 & o % a S d d S S S h h A F h A S S A S A m H S d S A m A % O & 6 6 $ o V.V.V.V.V.V.V.V.V.V.V.V.",
"V.V.V.V.V.V.V.V.V.V.V.V.V.o O O O - r A A A d A h h A S S A S A G G m A A G G S A A S d A w = O o o X V.V.V.V.V.V.V.V.V.V.V.V.V.",
"V.V.V.V.V.V.V.V.V.V.V.V.V.V.  + = t d d h S A h h h d h h h h h A F F G S A m A S h h J d p p = X V.V.V.V.V.V.V.V.V.V.V.V.V.V.V.",
"V.V.V.V.V.V.V.V.V.V.V.V.V.V.O - w a a A d d S S h h A h A S S A S S A A S S A a h H D a p p a r * V.V.V.V.V.V.V.V.V.V.V.V.V.V.V.",
"V.V.V.V.V.V.V.V.V.V.V.V.V.V.O - w p p d d h h S A A a a a h h A A A A A A m A A L h a a p a p r * o V.V.V.V.V.V.V.V.V.V.V.V.V.V.",
"V.V.V.V.V.V.V.V.V.V.V.V.V.V.O - r p p a a a p a d d A S A d h d a a a A a S H A d d p p p p p w - O V.V.V.V.V.V.V.V.V.V.V.V.V.V.",
"V.V.V.V.V.V.V.V.V.V.V.V.V.V.O - t w a p a a d h a a a h d h d h A m A A A a a a h a a a p d r r - O V.V.V.V.V.V.V.V.V.V.V.V.V.V.",
"V.V.V.V.V.V.V.V.V.V.V.V.V.V.V.% w p p a p p a a d h h a a a h h a A a p a a t A a p p p p r t p * o V.V.V.V.V.V.V.V.V.V.V.V.V.V.",
"V.V.V.V.V.V.V.V.V.V.V.V.V.V.V.@ w p w a t p p p a a a a p a p p p a A a p A a a a d a r p p t p % V.V.V.V.V.V.V.V.V.V.V.V.V.V.V.",
"V.V.V.V.V.V.V.V.V.V.V.V.V.V.O O w p w t a p p p p a a d a p d d a a a p p p p p p p w p p w r w @ o V.V.V.V.V.V.V.V.V.V.V.V.V.V.",
"V.V.V.V.V.V.V.V.V.V.V.V.V.V.O $ w w e t p t p t t t p a d a p p p p p p a p p r w t p t w r e w O o V.V.V.V.V.V.V.V.V.V.V.V.V.V.",
"V.V.V.V.V.V.V.V.V.V.V.V.V.V.O R O # t r p t a r t p t h d a p d a a p p p p p w p r w w w w = O : o V.V.V.V.V.V.V.V.V.V.V.V.V.V.",
"V.V.V.V.V.V.V.V.V.V.V.V.V.V.V.O . @ @ - w a r p p t t w w w r p p p p p p w t p p w r e w O O . O V.V.V.V.V.V.V.V.V.V.V.V.V.V.V.",
"V.V.V.V.V.V.V.V.V.V.V.V.V.V.V.V.O / } @ @ + @ r r w w t w p a p r w w r w t t r w e * O $ / E O V.V.V.V.V.V.V.V.V.V.V.V.V.V.V.V.",
"V.V.V.V.V.V.V.V.V.V.V.V.V.V.V.V.V.@ p.q.+.#.W O = w r t r w w w w p t w t r w w * O 5 :.w.p.@ V.V.V.V.V.V.V.V.V.V.V.V.V.V.V.V.V.",
"V.V.V.V.V.V.V.V.V.V.V.V.V.V.V.V.V.O T s.h.d.l.,.f @ O = w w w w w w w w w $ o & W 8.s.h.p.T O V.V.V.V.V.V.V.V.V.V.V.V.V.V.V.V.V.",
"V.V.V.V.V.V.V.V.V.V.V.V.V.V.V.V.V.V.O M s.j.h.l.s.t.6.5 @ O O @ - w * o @ { 0.a.h.k.k.p.M O V.V.V.V.V.V.V.V.V.V.V.V.V.V.V.V.V.V.",
"V.V.V.V.V.V.V.V.V.V.V.V.V.V.V.V.V.V.V.O @ %.d.h.h.z.x.i.0.8.7.! > O 7 6.8.f.k.z.k.d.%.O O V.V.V.V.V.V.V.V.V.V.V.V.V.V.V.V.V.V.V.",
"V.V.V.V.V.V.V.V.V.V.V.V.V.V.V.V.V.V.V.V.V.O @ +.p.k.k.k.k.k.k.h.t.e.i.z.z.j.p.d.@.@ o V.V.V.V.V.V.V.V.V.V.V.V.V.V.V.V.V.V.V.V.V.",
"V.V.V.V.V.V.V.V.V.V.V.V.V.V.V.V.V.V.V.V.V.V.V.O O f 6.p.p.s.d.d.d.d.d.s.u.:.i O O V.V.V.V.V.V.V.V.V.V.V.V.V.V.V.V.V.V.V.V.V.V.V.",
"V.V.V.V.V.V.V.V.V.V.V.V.V.V.V.V.V.V.V.V.V.V.O $ 8 > $ O > R &.q.e.&.R : O $ 5 & 6 O V.V.V.V.V.V.V.V.V.V.V.V.V.V.V.V.V.V.V.V.V.V.",
"V.V.V.V.V.V.V.V.V.V.V.V.V.V.V.V.V.V.V.V.V.V.O ..O N Z ` ) x > O @ : x ) [ ( z O ' $ O V.V.V.V.V.V.V.V.V.V.V.V.V.V.V.V.V.V.V.V.V.",
"V.V.V.V.V.V.V.V.V.V.V.V.V.V.V.V.V.V.V.V.V.O x C $ V C ` ]  .=.....-.[ [ Q Z B & c V O V.V.V.V.V.V.V.V.V.V.V.V.V.V.V.V.V.V.V.V.V.",
"V.V.V.V.V.V.V.V.V.V.V.V.V.V.V.V.V.V.V.V.O $ C : 7 C C ( ] ) ) ....' ` ) Z Z V k O V 0 o V.V.V.V.V.V.V.V.V.V.V.V.V.V.V.V.V.V.V.V.",
"V.V.V.V.V.V.V.V.V.V.V.V.V.V.V.V.V.V.V.V.O $ l O l N V ( ( ` ] ] ' ' ) U ) C V v O v > O O V.V.V.V.V.V.V.V.V.V.V.V.V.V.V.V.V.V.V.",
"V.V.V.V.V.V.V.V.V.V.V.V.V.V.V.V.V.V.V.O M.3.$ o z N C Z ( ( U ( Q U Z U Z V B B O O | h.b V.V.V.V.V.V.V.V.V.V.V.V.V.V.V.V.V.V.V.",
"V.V.V.V.V.V.V.V.V.V.V.V.V.V.V.V.V.V.V.f m.N.g.O O $ x V Z Q ( ( ( ( ( Z V v > o O 3.B.v.e.O V.V.V.V.V.V.V.V.V.V.V.V.V.V.V.V.V.V.",
"V.V.V.V.V.V.V.V.V.V.V.V.V.V.V.V.V.V.V.> b.n.$.@ s g 2 O O @ % > > : O O O $ s G % P m.c.:.O V.V.V.V.V.V.V.V.V.V.V.V.V.V.V.V.V.V.",
"V.V.V.V.V.V.V.V.V.V.V.V.V.V.V.V.V.V.V.O 7.v.P O O O @ 2 u g s s u g g g y % O O O 5 z.d.@ V.V.V.V.V.V.V.V.V.V.V.V.V.V.V.V.V.V.V.",
"V.V.V.V.V.V.V.V.V.V.V.V.V.V.V.V.V.V.V.V.O f > O y D g u 3 $ @ O O O O O O O $ 0 5 @ R O V.V.V.V.V.V.V.V.V.V.V.V.V.V.V.V.V.V.V.V.",
"V.V.V.V.V.V.V.V.V.V.V.V.V.V.V.V.V.V.V.V.V.V.O & % O O O O O O o O O $ 6 l N v k & O V.V.V.V.V.V.V.V.V.V.V.V.V.V.V.V.V.V.V.V.V.V.",
"V.V.V.V.V.V.V.V.V.V.V.V.V.V.V.V.V.V.V.V.V.V.O > 0 k v v c v N v k N V V B z k 0 6 o V.V.V.V.V.V.V.V.V.V.V.V.V.V.V.V.V.V.V.V.V.V.",
"V.V.V.V.V.V.V.V.V.V.V.V.V.V.V.V.V.V.V.V.V.V.O : 6 6 0 k l k k 0 6 k j k j 0 l 0 & O V.V.V.V.V.V.V.V.V.V.V.V.V.V.V.V.V.V.V.V.V.V.",
"V.V.V.V.V.V.V.V.V.V.V.V.V.V.V.V.V.V.V.V.V.V.V.O O O O O @ > $ O O O @ $ O o o O O V.V.V.V.V.V.V.V.V.V.V.V.V.V.V.V.V.V.V.V.V.V.V.",
"V.V.V.V.V.V.V.V.V.V.V.V.V.V.V.V.V.V.V.V.V.V.V.V.o q q q , ; O V.V.O 1 ; < 1 q O V.V.V.V.V.V.V.V.V.V.V.V.V.V.V.V.V.V.V.V.V.V.V.V.",
"V.V.V.V.V.V.V.V.V.V.V.V.V.V.V.V.V.V.V.V.V.V.V.V.O , < < < < ; V.V.O , , , 1 , O V.V.V.V.V.V.V.V.V.V.V.V.V.V.V.V.V.V.V.V.V.V.V.V.",
"V.V.V.V.V.V.V.V.V.V.V.V.V.V.V.V.V.V.V.V.V.V.V.V.O O ; O ; O O O V.O ; ; ; O O O V.V.V.V.V.V.V.V.V.V.V.V.V.V.V.V.V.V.V.V.V.V.V.V.",
"V.V.V.V.V.V.V.V.V.V.V.V.V.V.V.V.V.V.V.V.V.V.V.V.V.V.V.V.V.V.V.V.V.V.V.V.V.V.V.V.V.V.V.V.V.V.V.V.V.V.V.V.V.V.V.V.V.V.V.V.V.V.V.V.",
"V.V.V.V.V.V.V.V.V.V.V.V.V.V.V.V.V.V.V.V.V.V.V.V.V.V.V.V.V.V.V.V.V.V.V.V.V.V.V.V.V.V.V.V.V.V.V.V.V.V.V.V.V.V.V.V.V.V.V.V.V.V.V.V.",
"V.V.V.V.V.V.V.V.V.V.V.V.V.V.V.V.V.V.V.V.V.V.V.V.V.V.V.V.V.V.V.V.V.V.V.V.V.V.V.V.V.V.V.V.V.V.V.V.V.V.V.V.V.V.V.V.V.V.V.V.V.V.V.V.",
"V.V.V.V.V.V.V.V.V.V.V.V.V.V.V.V.V.V.V.V.V.V.V.V.V.V.V.V.V.V.V.V.V.V.V.V.V.V.V.V.V.V.V.V.V.V.V.V.V.V.V.V.V.V.V.V.V.V.V.V.V.V.V.V.",
"V.V.V.V.V.V.V.V.V.V.V.V.V.V.V.V.V.V.V.V.V.V.V.V.V.V.V.V.V.V.V.V.V.V.V.V.V.V.V.V.V.V.V.V.V.V.V.V.V.V.V.V.V.V.V.V.V.V.V.V.V.V.V.V."
};
