/* XPM */
static char *result[] = {
/* columns rows colors chars-per-pixel */
"64 64 252 2 ",
"   c #19010A",
".  c #0E0A03",
"X  c #351C0B",
"o  c #2E0B12",
"O  c #3C220D",
"+  c #36260D",
"@  c #352112",
"#  c #3A2311",
"$  c #3A2911",
"%  c #430101",
"&  c #4C0104",
"*  c #45000B",
"=  c #4C010B",
"-  c #4F0805",
";  c #530103",
":  c #5C0203",
">  c #5C0A03",
",  c #53020A",
"<  c #5D010B",
"1  c #550908",
"2  c #5D1608",
"3  c #5A1506",
"4  c #4B0012",
"5  c #470316",
"6  c #540214",
"7  c #5C0212",
"8  c #570419",
"9  c #5A1317",
"0  c #640403",
"q  c #6B0505",
"w  c #630A02",
"e  c #64010B",
"r  c #6B030A",
"t  c #6A0B06",
"y  c #740305",
"u  c #7B0204",
"i  c #74030B",
"p  c #7B030C",
"a  c #720E0F",
"s  c #671707",
"d  c #741A03",
"f  c #761909",
"g  c #640114",
"h  c #6B0115",
"j  c #680715",
"k  c #750213",
"l  c #7A0313",
"z  c #770A17",
"x  c #691515",
"c  c #721213",
"v  c #731618",
"b  c #44290D",
"n  c #552B0D",
"m  c #52300F",
"M  c #6A230B",
"N  c #6C2A0D",
"B  c #692706",
"V  c #7D240A",
"C  c #742B0D",
"Z  c #7D2B0B",
"A  c #77240A",
"S  c #7D3309",
"D  c #6F2D12",
"F  c #6E2411",
"G  c #732913",
"H  c #663B19",
"J  c #783919",
"K  c #6B350F",
"L  c #760828",
"P  c #662625",
"I  c #734B0E",
"U  c #7B4C24",
"Y  c #6B5C21",
"T  c #5D440C",
"R  c #8B0402",
"E  c #8C090E",
"W  c #830408",
"Q  c #930C0D",
"!  c #930207",
"~  c #830415",
"^  c #8C0514",
"/  c #820A14",
"(  c #8C0B14",
")  c #860A1A",
"_  c #910713",
"`  c #940D13",
"'  c #9A0D13",
"]  c #980719",
"[  c #951113",
"{  c #991113",
"}  c #812B0C",
"|  c #842307",
" . c #823D0A",
".. c #8A3807",
"X. c #8B2D10",
"o. c #8E3111",
"O. c #873915",
"+. c #923B13",
"@. c #973706",
"#. c #880424",
"$. c #940325",
"%. c #923A25",
"&. c #B92823",
"*. c #894506",
"=. c #87470A",
"-. c #9A4707",
";. c #8A5505",
":. c #884714",
">. c #974A14",
",. c #875B13",
"<. c #995416",
"1. c #9C5508",
"2. c #A44B0B",
"3. c #A75807",
"4. c #B35909",
"5. c #A75818",
"6. c #BB5215",
"7. c #B2591A",
"8. c #B14A16",
"9. c #9B7817",
"0. c #99620E",
"q. c #AC650E",
"w. c #AC6A0C",
"e. c #A7670C",
"r. c #B46D0C",
"t. c #B86905",
"y. c #BC7D04",
"u. c #B97709",
"i. c #A46216",
"p. c #AC6514",
"a. c #AD6914",
"s. c #A3621A",
"d. c #AB671B",
"f. c #B26313",
"g. c #B46B11",
"h. c #B2651B",
"j. c #B2691B",
"k. c #BB6C18",
"l. c #BB7615",
"z. c #AB750B",
"x. c #864B26",
"c. c #9D5A24",
"v. c #9A4C2E",
"b. c #B65D22",
"n. c #AB572A",
"m. c #8D732A",
"M. c #AB682A",
"N. c #B26C2D",
"B. c #B96528",
"V. c #B97825",
"C. c #AA6634",
"Z. c #A46C33",
"A. c #AA6A33",
"S. c #B36933",
"D. c #B37031",
"F. c #C65317",
"G. c #D24E1E",
"H. c #C87807",
"J. c #C37615",
"K. c #D07F15",
"L. c #C26A29",
"P. c #C97E24",
"I. c #D47726",
"U. c #C87A31",
"Y. c #B7880D",
"T. c #AD8418",
"R. c #B98616",
"E. c #AC810E",
"W. c #968A3C",
"Q. c #8E8B3B",
"!. c #BA8437",
"~. c #A5843B",
"^. c #C88907",
"/. c #D28C02",
"(. c #D88907",
"). c #D59201",
"_. c #DB9303",
"`. c #D49C02",
"'. c #DD9C01",
"]. c #D7960C",
"[. c #C88A17",
"{. c #CB931B",
"}. c #D89816",
"|. c #CC910A",
" X c #E68B04",
".X c #E49B01",
"XX c #E69603",
"oX c #EA9312",
"OX c #DBA401",
"+X c #DDA900",
"@X c #D5A801",
"#X c #D9A418",
"$X c #DEB917",
"%X c #E2A301",
"&X c #E4AB00",
"*X c #ECAB03",
"=X c #EAAA08",
"-X c #F1AC03",
";X c #F7AB05",
":X c #EBB606",
">X c #F5BB01",
",X c #F8B704",
"<X c #E7AA15",
"1X c #E9B713",
"2X c #F7B414",
"3X c #F8AB18",
"4X c #C48926",
"5X c #C69626",
"6X c #CC9634",
"7X c #E8922E",
"8X c #DEAE23",
"9X c #D3A426",
"0X c #D4A33B",
"qX c #E1AD22",
"wX c #F2B92C",
"eX c #EFC40B",
"rX c #FDCC05",
"tX c #F2C20B",
"yX c #FCCD0B",
"uX c #F8C606",
"iX c #FDD40C",
"pX c #FCD807",
"aX c #FDCE13",
"sX c #F7C819",
"dX c #FDD415",
"fX c #FCD31A",
"gX c #F8D619",
"hX c #ECC914",
"jX c #FEE103",
"kX c #DFC33F",
"lX c #FCCD24",
"zX c #F9C927",
"xX c #FDD223",
"cX c #FBD22B",
"vX c #FBD925",
"bX c #FBDB33",
"nX c #F9D739",
"mX c #E9CA38",
"MX c #FBE425",
"NX c #FCE438",
"BX c #958B42",
"VX c #B4904D",
"CX c #D59346",
"ZX c #D5AD4E",
"AX c #E9B650",
"SX c #F9CA4C",
"DX c #FACE54",
"FX c #F6CA53",
"GX c #F1D14B",
"HX c #F5E54D",
"JX c #E2CD60",
"KX c None",
/* pixels */
"KXKXKXKXKXKXKXKXKXKXKXKXKXKXKXKXKXKXKXKXKXKXKXKXKXKXKXKXKXKXKXKXKXKXKXKXKXKXKXKXKXKXKXKXKXKXKXKXKXKXKXKXKXKXKXKXKXKXKXKXKXKXKXKX",
"KXKXKXKXKXKXKXKXKXKXKXKXKXKXKXKXKXKXKXKXKXKXKXKXKXKXKXKXKXKXKXKXKXKXKXKXKXKXKXKXKXKXKXKXKXKXKXKXKXKXKXKXKXKXKXKXKXKXKXKXKXKXKXKX",
"KXKXKXKXKXKXKXKXKXKXKXKXKXKXKXKXKXKXKXKXKXKXKXKXKXKXKXKXKXKXKXKXKXKXKXKXKXKXKXKXKXKXKXKXKXKXKXKXKXKXKXKXKXKXKXKXKXKXKXKXKXKXKXKX",
"KXKXKXKXKXKXKXKXKXKXKXKXKXKXKXKXKXKXKXKXKXKXKXKXKXKXKXKXKXKXKXKXKXKXKXKXKXKXKXKXKXKXKXKXKXKXKXKXKXKXKXKXKXKXKXKXKXKXKXKXKXKXKXKX",
"KXKXKXKXKXKXKXKXKXKXKXKXKXKXKXKXKXKXKXKXKXKXKXKXKXKXKXKXKXKXKXKXKXKXKXKXKXKXKXKXKXKXKXKXKXKXKXKXKXKXKXKXKXKXKXKXKXKXKXKXKXKXKXKX",
"KXKXKXKXKXKXKXKXKXKXKXKXKXKXKXKXKXKXKXKXKXKXKXKXKXKXKXKXKXKXKXKXKXKXKXKXKXKXKXKXKXKXKXKXKXKXKXKXKXKXKXKXKXKXKXKXKXKXKXKXKXKXKXKX",
"KXKXKXKXKXKXKXKXKXKXKXKXKXKXKXKXKXKXKXKXKXKXKXKXKXKXKXKXKXKXKXKXKXKXKXKXKXKXKXKXKXKXKXKXKXKXKXKXKXKXKXKXKXKXKXKXKXKXKXKXKXKXKXKX",
"KXKXKXKXKXKXKXKXKXKXKXKXKXKXKXKXKXKXKXKXKXKXKXKXKXKXKXKXKXKXKXKXKXKXKXKXKXKXKXKXKXKXKXKXKXKXKXKXKXKXKXKXKXKXKXKXKXKXKXKXKXKXKXKX",
"KXKXKXKXKXKXKXKXKXKXKXKXKXKXKXKXKXKXKXKXKXKXKXKXKXKXKXKXKXKXKXKXKXKXKXKXKXKXKXKXKXKXKXKXKXKXKXKXKXKXKXKXKXKXKXKXKXKXKXKXKXKXKXKX",
"KXKXKXKXKXKXKXKXKXKXKXKXKXKXKXKXKXKXKXKXKXKXKXKXKXKXKXKXKXKXKXKXKXKXKXKXKXKXKXKXKXKXKXKXKXKXKXKXKXKXKXKXKXKXKXKXKXKXKXKXKXKXKXKX",
"KXKXKXKXKXKXKXKXKXKXKXKXKXKXKXKXKXKXKXKXKXKXKXKXKXKXKXKXKXKXKXKXKXKXKXKXKXKXKXKXKXKXKXKXKXKXKXKXKXKXKXKXKXKXKXKXKXKXKXKXKXKXKXKX",
"KXKXKXKXKXKXKXKXKXKXKXKXKXKXKXKXKXKXKXKXKXKXKXKXKXKXKXKXKXKXKXKXKXKXKXKXKXKXKXKXKXKXKXKXKXKXKXKXKXKXKXKXKXKXKXKXKXKXKXKXKXKXKXKX",
"KXKXKXKXKXKXKXKXKXKXm.9.9.9.Z.W.W.W.BXBXBXBXBXBXBXW.W.W.W.Q.m.Y X           X I 9.T.l.T.T.R.Y.R.Y.Y.E.E.9.,.b KXKXKXKXKXKXKXKXKX",
"KXKXKXKXKXKXKXKXKXkXvXsXwXzXwXSXSXDXDXDXDXDXDXSXDXDXDXDXSXSXFXFXS.= o o   P R.eXiXfXzX2X2X;X;X;X,X,X,X,X,X2X#XKXKXKXKXKXKXKXKXKX",
"KXKXKXKXKXKXKXKXkXdXuX XH.4.4.6.6.6.6.6.6.6.6.6.6.F.F.F.F.F.G.G.&.~ 5 o n 0XfXjXrX<Xu.3.2.-.-.-.-.-.2.3.t.).2X8X,.KXKXKXKXKXKXKX",
"KXKXKXKXKXKXKXGXfX,X X@.f y u u u u u R W R R R R R R R ! ! ! ! ^ L 5 @ 6XMXpXrX<X..> ; ; ; ; ; ; & & ; > A 4.<XsXI KXKXKXKXKXKX",
"KXKXKXKXKXKXZXgX,X X4.x j q y y u W R R R R R R Q Q R ! ! ! ] ] #.L 9 W.NXpX>XXX2.; % & ; & ; ; ; ; ; , , ; w 4.-X#XKXKXKXKXKXKX",
"KXKXKXKXKXZXNX>XXXH.X.g e q y u W R E E E Q Q Q Q Q ' Q ' ] ] $.L L v.HXpX>X.X4.x = & ; & ; ; ; ; 0 : 0 : < : d 4.7X4Xb KXKXKXKX",
"KXKXKXKXKXnXrX;XXXH.v 7 r r y p ~ E Q ` [ Q Q [ ' [ ` ` ] ] ] $.L j 0XMXuX%X(.c.5 = & & ; ; < ; 0 0 e e 0 e 0 e d t.3X,.KXKXKXKX",
"KXKXKXKXKXfX>X-X.Xk.x j r r p W E ( Q Q Q Q { Q ' ` ` [ ' ] ] $.L J nXpX:X'.(.J 5 = & & ; ; : 0 e 0 e q r 0 r 0 0 @.K.J.KXKXKXKX",
"KXKXKXKXGXdX-X'.l.O.j e r y p / E [ { | { [ { [ [ [ [ ] { $.] $.j CXHXeX+X/.1.9 * = & ; ; : 0 0 q q q r q q q 0 q t 8.CXKXKXKXKX",
"KXKXKXJXNXtX.Xt.S s < e r p a ( [ { { [ [ { [ { ` { { { { ] ( #.v.JXMXeX).t.M * * * & ; < 0 q q q q q r q r q q q w [ 7Xm.. KXKX",
"KXKXKXHXMX,X).w.S < : r y z / [ [ [ [ [ { [ { { { { { { { $.) z Z.HXpX:X/.3.3 * * = = ; : 0 0 q q q r y q q r q 0 w t L.U.X KXKX",
"KXKXKXNXvX*X).u.S > : 0 y / ( ( ( [ [ [ [ [ [ { { { ` ` ` ( ) c !.NXpX+X/.3.- * * & ; ; e 0 r r r q q q y r q q 0 0 0 @.P.m KXKX",
"KXKXKXnXvX=X/.r.S > : r p / ( ( [ [ [ [ [ ` [ [ [ [ [ ( ] ^ ) a 6XNXhX&X/.5.; * * & ; ; 0 0 q q q q y q q r q q q w : | U.H KXKX",
"KXKXKXNXfX-X_.r.A : e r l / ( ` ( ( [ ( [ [ ` [ ` [ ( ] _ ^ ~ z CXNXuX%X_.2.- * & & ; < e 0 q q q q q q q q q q 0 0 ; d L.U KXKX",
"KXKXKXbXaX-X).k.C < e r l / ( ` ( [ ( ( [ ( [ ( ` ( ] ( _ _ l c CXbXeX&X_.2.& = & , ; < 0 e q q y q q q y q r q q 0 ; d B.U KXKX",
"KXKXKXbXaX-X).g.C < e g i l l z z / / v / ) z z ) ~ ~ ^ ~ ~ l c ZXnXeX&X_.2.- = & ; ; < < q q q t q q q q q q q q 0 0 t B.U KXKX",
"KXKXKXbXyX*X).l.A < e e r k h j j a a f z c z L L z l W ~ l k v ZXcXtX&X_.>., = = , ; ; : e r 0 r q q 0 0 0 q 0 0 w ; d B.x.KXKX",
"KXKXKXbXaX*X).u.C < 7 < < < < x.B.4XP.P.J.J.4.>.f r h h h h j v AXxXtX:X].-., & & & ; ; ; : : 0 : : : : 0 : : 0 0 : ; s B.U KXKX",
"KXKXKXbXaX*X).l.G 7 7 , , - x.AXnXnXcXzX3X2X3XoXJ. .9 8 8 8 7 D AXzXeX:X].+.1 = = & & & - , ; ; ; ; ; ; ; ; ; ; ; ; % s 5.U KXKX",
"KXKXKXbXfX=X|.j.G j f >.g.{.wXvXtX}.f.2.1.-.3.(.3X.XK.V.!.!.!.!.wXsXeX2X}.>.J J D D D D D D D D D N D D N N C C C C C  .B.U KXKX",
"KXKXKXbXdX1X^.s. .:.k.<X,XuXrX>XXX..: e 7 6 & *.;X>XrXiXMXNXNXcXhX1XhXgX{.<.c.c.c.s.s.i.s.5.5.s.s.i.i.i.s.s.d.d.d.M.B.a.k.H KXKX",
"KXKXKXbXdX*X`.^.g.J.].&X:X,X>X-XXXt.2.>.%.v * S -X>X>X>X>X:X2X,X:XeXhXzX5X<.<.<.i.p.p.a.a.w.r.w.e.w.e.e.e.a.a.p.p.e.p.f.V.m KXKX",
"KXKXKXbXdX:X&X1XoX(.(.'.%X&X:X*X*X.XXXoXI.>.= *.-X*X.X).H.H.t.^.OXhXgXcX5X<.<.5.p.f.g.r.r.r.r.r.r.r.r.e.w.w.r.w.q.3.3.4.j.m KXKX",
"KXKXKXNXcX<X|.}.[.p.k.^.`.&X&X&X%X.X_.(.K.>.3 0.%X_.H.g.f.h.p.3.H.#X0XAX4X<.s.s.f.g.r.g.r.r.r.t.r.r.r.w.z.w.r.w.q.q.3.f.V.m KXKX",
"KXKXKXHXSXV.;.<.:.J O.2.l.OX+X+X%X'./.g.i.=.;.H..X).r.1.n.M.5.-.<.>.>.5.c.c.n.5.7.h.d.j.h.j.j.h.g.a.a.a.d.a.g.j.h.5.3.h.Z.@ KXKX",
"KXKXKXVXm.b I :.0.=.2 x O.y.@X+XOXOX).w.I ;.Y.`.%X`.u.5.x.H K ;.e.0.<.Z a s M M M M M M N N N N N N N N B B B C Z ..5.>.b KXKXKX",
"KXKXKXKXKXK Y.<X1Xz.3 4 7 X.y.@X@X@X@Xy.;.z.`.OXOX`.l.:.9 5 B Y.$X+X^.S & = % % % % % % o % % % % % % % % & % % % s 7.U KXKXKXKX",
"KXKXKXKXKXT.tXyXaXR.e 8 8 j *.Y.@X@X+XY.z.^.OX+X%X(.5.v 8 = *.:XyXyX#X .= = = & & & % % & & % % % & % & & & & - & B 7.U KXKXKXKX",
"KXKXKXKXKX#XrXiXzXJ.s 8 8 8 e :.d.T.R.z.u.u.^.u.a.>.c g 7 : t.uXpXgX#XS = = = & * % ; & ; & & ; ; & ; ; ; & ; ; ; d 8.H KXKXKXKX",
"KXKXKXKXKX<XrXaXzXR.2 8 6 7 g j x x x F A f V f j j k h g > u.rXhXfXqXI - = & & & & & ; ; ; ; ; ; ; ; ; ; ; ; > - d 5.U KXKXKXKX",
"KXKXKXKXKX=XyXzXzX[.2 4 7 g h h j h g h g h h h h h g 7 7 > y.pXaXlXqX .= = & & ; ; ; ; ; ; ; ; ; ; ; ; ; ; ; ; - d 7.J KXKXKXKX",
"KXKXKXKXKX<XyXlXzX[.2 4 , e k k l l l z l l k k l k h g < w H.iXgXcX8X .- = ; = ; ; ; : : : 0 > : 0 0 : 0 0 : > > d 7.J KXKXKXKX",
"KXKXKXKXKX<XiXxXcX[.3 4 , r p ~ ^ ^ ( ( #.( ( ) ) ~ l k g w Y.pXgXcX8X .- = & ; ; ; : 0 w 0 w q 0 q 0 0 w w q 0 w d b.J KXKXKXKX",
"KXKXKXKXKX1XdXxXcX[.2 4 , r l ^ ] ` ' ' ` ` ` ' _ _ ~ ~ h q u.gXgXcX8X=., = ; & ; ; > q 0 q q w q w q t t q w w > f b.U KXKXKXKX",
"KXKXKXKXKX1XiXlXcX[.2 4 , e l _ ` ' ' ' ' ' ' ' ' ' _ ~ l q z.gXgXcX8X*.1 = , ; ; : w 0 q q w q q q t q q q q w w d B.J KXKXKXKX",
"KXKXKXKXKX1XiXfXcX{.2 4 , e p _ ' ' ' ' { ' { ' ' ' ` ^ / i e.gXhXnX8X=.1 4 , ; ; : 0 q q q y q t q q q q q w w 0 d B.H KXKXKXKX",
"KXKXKXKXKX1XpXfXcX{.2 4 = < i ^ ' ' ' ' ' ' { ' { ' ` ( ~ i *.$XlXlXqX*.6 , , ; ; : 0 q q y q y y y q t q q w w > d B.H KXKXKXKX",
"KXKXKXKXKX1XpXxXcX{.3 5 4 , e W _ ' ' ' ' ' [ ' ' Q ` E / z A {.zXcXqX*.1 = ; ; < ; 0 q t q q q q w q q q q q 0 0 | L.H KXKXKXKX",
"KXKXKXKXKX1XpXfXxX{.s 5 = = < e i ~ ~ ( Q ^ E E E E E p l a f V.qXwX7X=., , ; > ; : 0 0 w q w q q q w q q q 0 0 w | L.H KXKXKXKX",
"KXKXKXKXKXeXjXgXxX{.s = & ; ; ; : 0 r y W u W u u u p y y q d 2.J.H.l.+.> ; ; ; ; > w w 0 q 0 0 0 q 0 q 0 0 0 0 : | L.K KXKXKXKX",
"KXKXKXKXKX1XjXpXaX}.>.J J Z Z Z } } } X.X.X.X.o.o.o.o.o.o.+.>.7.j.f.k.7.+.O. .Z } Z | Z Z } V V V V V V V V | | | 8.I.J KXKXKXKX",
"KXKXKXKXKX].uXhXqX4XB.S.S.N.D.A.A.A.Z.A.Z.Z.Z.Z.Z.Z.Z.Z.C.C.S.N.N.V.D.N.M.M.M.S.N.S.A.A.C.C.A.C.A.A.C.C.C.C.S.S.B.L.S.n KXKXKXKX",
"KXKXKXKXKXKXI I T b # O b # b $ $ $ $ $ $ + + + + + + @ @ $ O O # b b O O O X # X # X # @ # # @ @ @ @ @ @ @ @ # X b # KXKXKXKXKX",
"KXKXKXKXKXKXKXKXKXKXKXKXKXKXKXKXKXKXKXKXKXKXKXKXKXKXKXKXKXKXKXKXKXKXKXKXKXKXKXKXKXKXKXKXKXKXKXKXKXKXKXKXKXKXKXKXKXKXKXKXKXKXKXKX",
"KXKXKXKXKXKXKXKXKXKXKXKXKXKXKXKXKXKXKXKXKXKXKXKXKXKXKXKXKXKXKXKXKXKXKXKXKXKXKXKXKXKXKXKXKXKXKXKXKXKXKXKXKXKXKXKXKXKXKXKXKXKXKXKX",
"KXKXKXKXKXKXKXKXKXKXKXKXKXKXKXKXKXKXKXKXKXKXKXKXKXKXKXKXKXKXKXKXKXKXKXKXKXKXKXKXKXKXKXKXKXKXKXKXKXKXKXKXKXKXKXKXKXKXKXKXKXKXKXKX",
"KXKXKXKXKXKXKXKXKXKXKXKXKXKXKXKXKXKXKXKXKXKXKXKXKXKXKXKXKXKXKXKXKXKXKXKXKXKXKXKXKXKXKXKXKXKXKXKXKXKXKXKXKXKXKXKXKXKXKXKXKXKXKXKX",
"KXKXKXKXKXKXKXKXKXKXKXKXKXKXKXKXKXKXKXKXKXKXKXKXKXKXKXKXKXKXKXKXKXKXKXKXKXKXKXKXKXKXKXKXKXKXKXKXKXKXKXKXKXKXKXKXKXKXKXKXKXKXKXKX",
"KXKXKXKXKXKXKXKXKXKXKXKXKXKXKXKXKXKXKXKXKXKXKXKXKXKXKXKXKXKXKXKXKXKXKXKXKXKXKXKXKXKXKXKXKXKXKXKXKXKXKXKXKXKXKXKXKXKXKXKXKXKXKXKX",
"KXKXKXKXKXKXKXKXKXKXKXKXKXKXKXKXKXKXKXKXKXKXKXKXKXKXKXKXKXKXKXKXKXKXKXKXKXKXKXKXKXKXKXKXKXKXKXKXKXKXKXKXKXKXKXKXKXKXKXKXKXKXKXKX",
"KXKXKXKXKXKXKXKXKXKXKXKXKXKXKXKXKXKXKXKXKXKXKXKXKXKXKXKXKXKXKXKXKXKXKXKXKXKXKXKXKXKXKXKXKXKXKXKXKXKXKXKXKXKXKXKXKXKXKXKXKXKXKXKX",
"KXKXKXKXKXKXKXKXKXKXKXKXKXKXKXKXKXKXKXKXKXKXKXKXKXKXKXKXKXKXKXKXKXKXKXKXKXKXKXKXKXKXKXKXKXKXKXKXKXKXKXKXKXKXKXKXKXKXKXKXKXKXKXKX"
};
