/* XPM */
static char *result[] = {
/* columns rows colors chars-per-pixel */
"64 64 256 2 ",
"   c #0C000C",
".  c #180407",
"X  c #190711",
"o  c #351C0A",
"O  c #250C06",
"+  c #35240D",
"@  c #3C230D",
"#  c #37280E",
"$  c #352112",
"%  c #3B2511",
"&  c #3A2912",
"*  c #372A10",
"=  c #390727",
"-  c #430102",
";  c #4C0104",
":  c #4C000B",
">  c #470608",
",  c #530103",
"<  c #5C0203",
"1  c #5B0C01",
"2  c #53020B",
"3  c #5C030B",
"4  c #530A0A",
"5  c #5B0A09",
"6  c #4C0114",
"7  c #550213",
"8  c #5B0112",
"9  c #580519",
"0  c #5A1806",
"q  c #640404",
"w  c #6B0505",
"e  c #6A0805",
"r  c #63010C",
"t  c #6B020B",
"y  c #690B08",
"u  c #730304",
"i  c #7B0303",
"p  c #73010C",
"a  c #7C020B",
"s  c #770C0E",
"d  c #6A140C",
"f  c #6A1507",
"g  c #751606",
"h  c #640114",
"j  c #6B0114",
"k  c #63021A",
"l  c #660A15",
"z  c #730113",
"x  c #7B0313",
"c  c #780918",
"v  c #671616",
"b  c #781717",
"n  c #5A3617",
"m  c #502D0D",
"M  c #6A240B",
"N  c #6D2A0D",
"B  c #6D2707",
"V  c #7C2304",
"C  c #7E2509",
"Z  c #732B0D",
"A  c #7D2B0D",
"S  c #762A05",
"D  c #7B3306",
"F  c #6E2B12",
"G  c #6F2115",
"H  c #772716",
"J  c #643C1B",
"K  c #793615",
"L  c #6E0A23",
"P  c #7B2B24",
"I  c #6F4D0D",
"U  c #7D7936",
"Y  c #74672B",
"T  c #79651E",
"R  c #840402",
"E  c #8B0302",
"W  c #83040D",
"Q  c #8D050D",
"!  c #8D090D",
"~  c #86080E",
"^  c #94040C",
"/  c #930B0D",
"(  c #960508",
")  c #850413",
"_  c #8B0314",
"`  c #840A14",
"'  c #8D0C14",
"]  c #890819",
"[  c #930514",
"{  c #940D13",
"}  c #9A0A12",
"|  c #98061A",
" . c #951113",
".. c #981214",
"X. c #991018",
"o. c #822505",
"O. c #832B0B",
"+. c #832807",
"@. c #89390A",
"#. c #953709",
"$. c #8A2C11",
"%. c #832A17",
"&. c #8A3713",
"*. c #953814",
"=. c #860624",
"-. c #930522",
";. c #883324",
":. c #A9341A",
">. c #89470A",
",. c #9D4A02",
"<. c #984505",
"1. c #845404",
"2. c #9A5307",
"3. c #894515",
"4. c #964617",
"5. c #9E5D1A",
"6. c #9B5717",
"7. c #A65A07",
"8. c #B45C09",
"9. c #A64A14",
"0. c #A75B17",
"q. c #B25A17",
"w. c #A44509",
"e. c #826619",
"r. c #9A6D12",
"t. c #AB660E",
"y. c #AC6A0D",
"u. c #A86307",
"i. c #B36D0D",
"p. c #BA6807",
"a. c #AA7706",
"s. c #BC7605",
"d. c #A26114",
"f. c #AB6513",
"g. c #A3621B",
"h. c #AC641D",
"j. c #AD6B16",
"k. c #B1661A",
"l. c #B66816",
"z. c #AE7616",
"x. c #B47212",
"c. c #B97716",
"v. c #9A5923",
"b. c #945529",
"n. c #A85B23",
"m. c #B45E22",
"M. c #827936",
"N. c #8A722B",
"B. c #AA6929",
"V. c #BA662C",
"C. c #B66927",
"Z. c #A36E35",
"A. c #AB6A35",
"S. c #A96837",
"D. c #B66A32",
"F. c #B37336",
"G. c #B97526",
"H. c #C8780A",
"J. c #C86319",
"K. c #D36218",
"L. c #C67C18",
"P. c #C96E07",
"I. c #C96F2B",
"U. c #D15A21",
"Y. c #934D47",
"T. c #B9870A",
"R. c #A98219",
"E. c #B98B16",
"W. c #AF860E",
"Q. c #B69936",
"!. c #B18829",
"~. c #B9A137",
"^. c #CC8404",
"/. c #CB8C04",
"(. c #C58406",
"). c #D68E00",
"_. c #D78805",
"`. c #CB9307",
"'. c #DC9202",
"]. c #D79806",
"[. c #C98A16",
"{. c #CE9D1D",
"}. c #D39E1B",
"|. c #DB9413",
" X c #D98E17",
".X c #E59804",
"XX c #EA910B",
"oX c #DBA301",
"OX c #DCAB01",
"+X c #D6A507",
"@X c #DBB302",
"#X c #DEAB1D",
"$X c #E2A501",
"%X c #E4AB00",
"&X c #ECAC01",
"*X c #ECA708",
"=X c #F2AD01",
"-X c #F8AD08",
";X c #E5B201",
":X c #ECB301",
">X c #F4B302",
",X c #FAB403",
"<X c #F6BB00",
"1X c #F8B909",
"2X c #E9A515",
"3X c #F4BC14",
"4X c #F9B516",
"5X c #F2AF16",
"6X c #C88E2B",
"7X c #D5AC35",
"8X c #EBB828",
"9X c #F1B62D",
"0X c #EEC509",
"qX c #FDC402",
"wX c #F2C20A",
"eX c #FDCD0C",
"rX c #F7C707",
"tX c #FDD404",
"yX c #FDD30C",
"uX c #FDDB0C",
"iX c #F5D009",
"pX c #EAC514",
"aX c #F5C816",
"sX c #FDD411",
"dX c #FCDA14",
"fX c #FCD31A",
"gX c #F8D71A",
"hX c #EFD317",
"jX c #FEE104",
"kX c #FEE717",
"lX c #DFC33C",
"zX c #FACD29",
"xX c #F9C926",
"cX c #F6D321",
"vX c #FCD325",
"bX c #FDD922",
"nX c #F9D32B",
"mX c #F6D32C",
"MX c #FADB36",
"NX c #EBCB2E",
"BX c #FCEA2B",
"VX c #FDE728",
"CX c #FCE738",
"ZX c #AD964B",
"AX c #D4AC48",
"SX c #EAB753",
"DX c #DE944B",
"FX c #F4C94B",
"GX c #F8D648",
"HX c #F5CE53",
"JX c #F1C354",
"KX c #F5D157",
"LX c #EACB4F",
"PX c #FBE94B",
"IX c #DECF5D",
"UX c None",
/* pixels */
"UXUXUXUXUXUXUXUXUXUXUXUXUXUXUXUXUXUXUXUXUXUXUXUXUXUXUXUXUXUXUXUXUXUXUXUXUXUXUXUXUXUXUXUXUXUXUXUXUXUXUXUXUXUXUXUXUXUXUXUXUXUXUXUX",
"UXUXUXUXUXUXUXUXUXUXUXUXUXUXUXUXUXUXUXUXUXUXUXUXUXUXUXUXUXUXUXUXUXUXUXUXUXUXUXUXUXUXUXUXUXUXUXUXUXUXUXUXUXUXUXUXUXUXUXUXUXUXUXUX",
"UXUXUXUXUXUXUXUXUXUXUXUXUXUXUXUXUXUXUXUXUXUXUXUXUXUXUXUXUXUXUXUXUXUXUXUXUXUXUXUXUXUXUXUXUXUXUXUXUXUXUXUXUXUXUXUXUXUXUXUXUXUXUXUX",
"UXUXUXUXUXUXUXUXUXUXUXUXUXUXUXUXUXUXUXUXUXUXUXUXUXUXUXUXUXUXUXUXUXUXUXUXUXUXUXUXUXUXUXUXUXUXUXUXUXUXUXUXUXUXUXUXUXUXUXUXUXUXUXUX",
"UXUXUXUXUXUXUXUXUXUXUXUXUXUXUXUXUXUXUXUXUXUXUXUXUXUXUXUXUXUXUXUXUXUXUXUXUXUXUXUXUXUXUXUXUXUXUXUXUXUXUXUXUXUXUXUXUXUXUXUXUXUXUXUX",
"UXUXUXUXUXUXUXUXUXUXUXUXUXUXUXUXUXUXUXUXUXUXUXUXUXUXUXUXUXUXUXUXUXUXUXUXUXUXUXUXUXUXUXUXUXUXUXUXUXUXUXUXUXUXUXUXUXUXUXUXUXUXUXUX",
"UXUXUXUXUXUXUXUXUXUXUXUXUXUXUXUXUXUXUXUXUXUXUXUXUXUXUXUXUXUXUXUXUXUXUXUXUXUXUXUXUXUXUXUXUXUXUXUXUXUXUXUXUXUXUXUXUXUXUXUXUXUXUXUX",
"UXUXUXUXUXUXUXUXUXUXUXUXUXUXUXUXUXUXUXUXUXUXUXUXUXUXUXUXUXUXUXUXUXUXUXUXUXUXUXUXUXUXUXUXUXUXUXUXUXUXUXUXUXUXUXUXUXUXUXUXUXUXUXUX",
"UXUXUXUXUXUXUXUXUXUXUXUXUXUXUXUXUXUXUXUXUXUXUXUXUXUXUXUXUXUXUXUXUXUXUXUXUXUXUXUXUXUXUXUXUXUXUXUXUXUXUXUXUXUXUXUXUXUXUXUXUXUXUXUX",
"UXUXUXUXUXUXUXUXUXUXUXUXUXUXUXUXUXUXUXUXUXUXUXUXUXUXUXUXUXUXUXUXUXUXUXUXUXUXUXUXUXUXUXUXUXUXUXUXUXUXUXUXUXUXUXUXUXUXUXUXUXUXUXUX",
"UXUXUXUXUXUXUXUXUXUXUXUXUXUXUXUXUXUXUXUXUXUXUXUXUXUXUXUXUXUXUXUXUXUXUXUXUXUXUXUXUXUXUXUXUXUXUXUXUXUXUXUXUXUXUXUXUXUXUXUXUXUXUXUX",
"UXUXUXUXUXUXUXUXUXUXUXUXUXUXUXUXUXUXUXUXUXUXUXUXUXUXUXUXUXUXUXUXUXUXUXUXUXUXUXUXUXUXUXUXUXUXUXUXUXUXUXUXUXUXUXUXUXUXUXUXUXUXUXUX",
"UXUXUXUXUXUXUXUXUXUXUXUXUXUXUXUXUXUXUXUXUXUXUXUXUXUXUXUXUXUXUXUXUXUXUX    . o I r.R.z.R.E.E.E.E.E.W.W.a.r.T UXUXUXUXUXUXUXUXUXUX",
"UXUXUXUXUXUXUXUXUXUXUXUXUXUXUXUXUXUXUXUXUXUXUXUXUXUXUXUXUXUXUXUXUXUX  X O K E.0XsXgXaX4X4X-X-X-X,X,X,X1X1X5X{.UXUXUXUXUXUXUXUXUX",
"UXUXUXUXUXUXUXUXUXUXT e.e.e.e.M.M.M.U U U U U U R.M.M.R.M.M.Y UXUX  X X b.9XsXjXiX2Xi.7.w.<.<.,.,.,.,.7.s..X4X}.UXUXUXUXUXUXUXUX",
"UXUXUXUXUXUXUXUXUXlXmX4X9XxX9XFXJXKXKXKXKXKXKXKXIXLXGXIXHXHXJXSXY.= X n 8XuXtXqX XO., , , , , ; , ; , , 1 O.s.2X#XUXUXUXUXUXUXUX",
"UXUXUXUXUXUXUXUXlXdXqX.XH.P.J.J.J.J.J.J.J.J.J.J.J.K.K.K.K.K.U.U.:.L m 7XdXtX<X).&.- ; ; , ; , , , , , 2 , , g p.,X[.UXUXUXUXUXUX",
"UXUXUXUXUXUXUXLXdX,X_.#.g u u i i u R R R R E E E E E E E ( ( } -.=.F.PXtX:X].<.4 ; ; ; ; , , , < < 3 3 3 3 q V P.9XG.UXUXUXUXUX",
"UXUXUXUXUXUXlXgX,XXX<.v k q u u i i R R E E E Q ( Q Q Q ( } } | =.L 7XkXrXoX/.&.7 - ; ; ; , < < < q q q q r q t g P.2XUXUXUXUXUX",
"UXUXUXUXUXAXVXrX.XP.b 9 r t w u i R Q ! ! ! / ( / / ( } } | | | L ;.NXuX;X].L.G : : ; , , < < q q t q t t q r q q w.XXUXUXUXUXUX",
"UXUXUXUXUXMXtX,X.Xq.l k t t p u a R ! ! / / / /  .} / [ | | -.-.L K NX0X+Xs.>.4 : : ; , , 3 q t t q t w w w t w q g K.I.UXUXUXUX",
"UXUXUXUXUXkXqX=X.X9.l h r t t u a ~ / / / / ../  ./ { } } | -.-.h 0.aX;X(.2.0 > > - ; 2 < t q w w w w p u t t q q f :.DXJ UXUXUX",
"UXUXUXUXMXtX>X.Xl.H h r t t p W ~  .'  ......./ { } } | | X.-.=.H AXyXOXH.2.4 : : ; , < < q w w w u w w t p w q q q g I.B.O UXUX",
"UXUXUXIXBXqX.Xu.Z l 3 r t p s ~ '  . ./ ........ .X.X.X.X.X.] =.S.GXiXOXT.2.; > - ; , , q t q w w w w w w w w w q q q 9.6X+ UXUX",
"UXUXY PXkX,X).7.d 3 r r t x ~ '  . . . . . ......... . .X.| ] c I.PX0XoX(.>., ; ; ; , < q q w w w w u w w w w w e q < #.I.m UXUX",
"UXUX!.PXdX=X).t.d 5 3 t p ~ ' ' '  .'  . . . ....... .X.| ] c b 6XCX0XoX(.@.; > : ; , 3 q q e w w w e w w w u q q q < +.D.n UXUX",
"UXUX!.CXdX=X).u.d 3 q t x ` ' { '  . . . . . . .X. .{ { [ ] ] b AXCXwXoX^.@.; > ; , , 3 q q w w w w w w w u w w e q < V D.J UXUX",
"UXUX!.BXyX&X'.0.d 3 r t x ) ] ' ' ' '  .{  .{ X. .' | [ | ] x b AXMXwX$X_.@.2 : ; , < 3 r t q t e w w w w w w t q q < V D.I UXUX",
"UXUXQ.BXyX*X'.q.d 8 r t x ] ' ' ' ' { ' ' X.| ' ' ' [ [ _ _ x %.SXmX0X%X^.O.2 : , 2 , < < q w q t q q t q w q q q < < V D.J UXUX",
"UXUXQ.BXyX=X'.q.v 8 r j z x x s b s b ` ` ` c ` ] ] W _ _ _ z %.SXnXwX:X^.%.2 : ; ; , , < < 3 < q 3 < < < q q < < < , g V.J UXUX",
"UXUX~.VXtX&X'.h.l 3 3 t t j j l t p s s v c c c c x ) ) x ] z %.SXnXwX>X[.K 2 ; ; ; ; ; ; , , 4 , , , , , , , < , , ; S B.J UXUX",
"UXUX~.BXeX&X'.q.d 8 8 h r 3 y ;.B.C.G.l.l.q.4.%.s z j j z j h ;.JXzXaX3XL.&.H F F F F F F F Z F N N N Z N N Z Z Z Z S 3.C.n UXUX",
"UXUXQ.VXuX&X'.k.v 7 7 : ; > b.JXGXMXzXxX4X4X5XXX0.M 4 7 8 8 4 ;.FXxXfX3XG.b.b.v.v.g.0.5.5.d.0.d.0.d.d.g.g.g.g.g.h.B.h.k.k.m UXUX",
"UXUXQ.BXyX&X].C.v 9 f &.d.6XlXvXaX[.c.f.7.u.P..X-X].j.B.Z.Z.S.G.NXaXfX8Xz.6.6.0.0.f.f.j.t.t.t.t.t.t.y.u.y.f.f.y.t.t.f.8.B.m UXUX",
"UXUXQ.BXuX:X`.j.K 3.L.5XeXyXeX,X_.g < < 3 4 q 8.=X<XqXfXCXPXPXnXxXaXfX8Xj.6.6.0.f.i.l.i.i.i.i.i.i.i.y.u.y.y.y.y.t.t.7.q.g.+ UXUX",
"UXUXQ.CXdX:X].[.i.[.2X:X<X<X<X=X.X7.*.$.;.L O ,.,X<XqXtXyXdXgXaX<XwX8X9XB.n.g.f.j.i.i.i.i.i.i.i.i.x.y.y.y.i.i.y.t.7.7.l.B.o UXUX",
"UXUXZXPXbXrX=X5X|.(.|.&X&X:X:X&X&X.X'._.I.;.6 7.,X&X&X'.L.P.P.].%X+XE.0.v.n.n.B.h.h.h.k.k.j.k.k.j.f.j.f.f.f.f.j.k.7.0.G.b.O UXUX",
"UXUXUXZX~.`.&X>X|.7.j. XoX:X:X%X&X'.'.XXL.&.0 i.&X.X^.9.%.H #._.oX+Xi.$.d v M f M M M N N N N g B N B B B N B D A @.0.3.# UXUXUX",
"UXUXUXUXO 1.*X,X2X>.H n.[.OX;X%X$X].^.x.B.I 1./.$XoXs.b k l #.|.;X@XT.%.; : - - - - ; O O ; - o - - o - - ; ; > > S h.F UXUXUXUX",
"UXUXUXUXUXz.aXeXwX6.9 v >./.OX@X%XoX/.0.I 1.T.].$XoXs.G 9 3 7.3XpXpXE.A ; > ; ; ; ; , ; ; , ; ; > ; ; ; ; ; ; ; ; S C.UXUXUXUXUX",
"UXUXUXUXUX8XsXeX8Xh.3 6 9 <./.OX@X@X+Xa.1.a.].OX%XoXl.d 9 5 s.yXhXNX{.S : ; ; ; - ; ; ; ; , ; ; ; , ; , ; ; ; 1 , S q.UXUXUXUXUX",
"UXUXUXUXUX3XeXaXxX0.7 9 9 b 2.`.OX@XOXT.a.).%X;X&X'.4.h 7 e (.yXhXmX{.S : ; ; ; ; , ; , , , , , , , , , , , , , 1 V m.UXUXUXUXUX",
"UXUXUXUXUX1XeXxXxX0.2 9 9 k l 4.j.E.[.T.s.^./.(.s.w.s k 7 f ).sXhXmX}.D : : : ; , , , , , , < , , < < , < < < , 1 V C.UXUXUXUXUX",
"UXUXUXUXUX3XeXvXzXf.4 9 9 k h l v G N Z A A O.g d t j k 3 f ].sXcXmX{.S 2 : , , , , < 3 < < < q < < q < < < < 1 , V q.UXUXUXUXUX",
"UXUXUXUXUX3XsXvXzXu.4 6 3 h j j k j h r k k j k k j h k h f ].dXcXmX{.S 4 ; , ; , , 5 q q q q q q e q e q e q 1 q o.V.UXUXUXUXUX",
"UXUXUXUXUXaXdXvXnXy.4 6 2 h t z z z j z j z z z z z j h h f ].uXcXmX}.D 2 : : , , < q w e e e e e e e e e e e 1 1 o.V.UXUXUXUXUX",
"UXUXUXUXUXaXsXbXzXy.4 6 2 r z ) _ ` _ ) ` ) ] _ _ x z j h g ].hXcXmX}.D 2 2 , , , < q e q e w w w e e w e e e q q o.V.UXUXUXUXUX",
"UXUXUXUXUXwXuXbXcXx.4 : : r a [ [ } { } ^ ^ { / ^ Q W x p g E.hXcXnX}.D 2 : 2 , , 3 q e e w w e e e e w q e e q q +.D.UXUXUXUXUX",
"UXUXUXUXUXaXuXbXnXi.4 6 : 3 a Q } } } ( } }  .( } ^ ! ) x w t.NXcXvX}.D 2 2 2 , < < q e u e e e w u e e w w e q q O.D.UXUXUXUXUX",
"UXUXUXUXUX0XuXbXnXx.4 6 : 2 t a ^ ^ } } } } } /  .( ^ W c t @.#XxXxX}.@.2 2 , , < < w e e e u u w w w e w w q q q #.D.UXUXUXUXUX",
"UXUXUXUXUXaXjXbXvXc.4 : : ; , t a W W Q ( ^ ! ! ! ~ W ) z s %.[.8X4X6X+.2 2 , , < 5 q q e q q w w w w w q w q q < #.V.UXUXUXUXUX",
"UXUXUXUXUXhXjXdXvXi.5 ; , , , < < t u a R a a a a i u u w w o.0.H.L.l.O.1 , , < < < q q q q q q q q q q q q q t < #.J.UXUXUXUXUX",
"UXUXUXUXI hXjXjXfXL.*.K K A A C A A %.$.$.$.$.$.$.&.&.$.*.*.9.0.q.p.J.n.*.&.&.A A O.O.O.%.A +.C o.V +.C C o.+.o.$.q.I.m UXUXUXUX",
"UXUXUXUXUX+XiXpX2X6XF.F.F.F.F.A.F.Z.Z.Z.Z.Z.Z.Z.Z.Z.Z.Z.A.S.D.D.D.B.F.D.B.B.B.Z.B.A.A.S.S.S.S.S.S.A.S.S.S.S.S.V.V.I.m.UXUXUXUXUX",
"UXUXUXUXUXn I I m * % @ @ % & % $ & & * * * * * # + * + + + @ @ m & # @ @ @ o $ o $ % $ $ $ $ $ $ $ $ $ $ $ $ % @ m o UXUXUXUXUX",
"UXUXUXUXUXUXUXUXUXUXUXUXUXUXUXUXUXUXUXUXUXUXUXUXUXUXUXUXUXUXUXUXUXUXUXUXUXUXUXUXUXUXUXUXUXUXUXUXUXUXUXUXUXUXUXUXUXUXUXUXUXUXUXUX",
"UXUXUXUXUXUXUXUXUXUXUXUXUXUXUXUXUXUXUXUXUXUXUXUXUXUXUXUXUXUXUXUXUXUXUXUXUXUXUXUXUXUXUXUXUXUXUXUXUXUXUXUXUXUXUXUXUXUXUXUXUXUXUXUX",
"UXUXUXUXUXUXUXUXUXUXUXUXUXUXUXUXUXUXUXUXUXUXUXUXUXUXUXUXUXUXUXUXUXUXUXUXUXUXUXUXUXUXUXUXUXUXUXUXUXUXUXUXUXUXUXUXUXUXUXUXUXUXUXUX",
"UXUXUXUXUXUXUXUXUXUXUXUXUXUXUXUXUXUXUXUXUXUXUXUXUXUXUXUXUXUXUXUXUXUXUXUXUXUXUXUXUXUXUXUXUXUXUXUXUXUXUXUXUXUXUXUXUXUXUXUXUXUXUXUX",
"UXUXUXUXUXUXUXUXUXUXUXUXUXUXUXUXUXUXUXUXUXUXUXUXUXUXUXUXUXUXUXUXUXUXUXUXUXUXUXUXUXUXUXUXUXUXUXUXUXUXUXUXUXUXUXUXUXUXUXUXUXUXUXUX",
"UXUXUXUXUXUXUXUXUXUXUXUXUXUXUXUXUXUXUXUXUXUXUXUXUXUXUXUXUXUXUXUXUXUXUXUXUXUXUXUXUXUXUXUXUXUXUXUXUXUXUXUXUXUXUXUXUXUXUXUXUXUXUXUX",
"UXUXUXUXUXUXUXUXUXUXUXUXUXUXUXUXUXUXUXUXUXUXUXUXUXUXUXUXUXUXUXUXUXUXUXUXUXUXUXUXUXUXUXUXUXUXUXUXUXUXUXUXUXUXUXUXUXUXUXUXUXUXUXUX",
"UXUXUXUXUXUXUXUXUXUXUXUXUXUXUXUXUXUXUXUXUXUXUXUXUXUXUXUXUXUXUXUXUXUXUXUXUXUXUXUXUXUXUXUXUXUXUXUXUXUXUXUXUXUXUXUXUXUXUXUXUXUXUXUX",
"UXUXUXUXUXUXUXUXUXUXUXUXUXUXUXUXUXUXUXUXUXUXUXUXUXUXUXUXUXUXUXUXUXUXUXUXUXUXUXUXUXUXUXUXUXUXUXUXUXUXUXUXUXUXUXUXUXUXUXUXUXUXUXUX"
};
