/* XPM */
static char *result[] = {
/* columns rows colors chars-per-pixel */
"64 64 256 2 ",
"   c #0B000B",
".  c #140306",
"X  c #130214",
"o  c #270607",
"O  c #3E0208",
"+  c #2C1D0B",
"@  c #241506",
"#  c #311E0B",
"$  c #381014",
"%  c #2D230E",
"&  c #35210A",
"*  c #322112",
"=  c #3C2410",
"-  c #2F2210",
";  c #330824",
":  c #440103",
">  c #4C0104",
",  c #44010A",
"<  c #4B000A",
"1  c #4D0804",
"2  c #530103",
"3  c #5C0103",
"4  c #54000A",
"5  c #5C010B",
"6  c #570B08",
"7  c #4A0117",
"8  c #540213",
"9  c #5B0012",
"0  c #59061B",
"q  c #56150B",
"w  c #640303",
"e  c #6B0405",
"r  c #63010C",
"t  c #6B020A",
"y  c #630C08",
"u  c #720106",
"i  c #73020B",
"p  c #7D030B",
"a  c #7C0602",
"s  c #661705",
"d  c #781804",
"f  c #630112",
"g  c #6C0112",
"h  c #650A16",
"j  c #730213",
"k  c #7B0214",
"l  c #780718",
"z  c #681716",
"x  c #791919",
"c  c #45250E",
"v  c #482C13",
"b  c #512E15",
"n  c #5A2E11",
"m  c #4E3119",
"M  c #533119",
"N  c #562F08",
"B  c #66220E",
"V  c #6A240D",
"C  c #6C2403",
"Z  c #7D2509",
"A  c #732C0D",
"S  c #772706",
"D  c #73310C",
"F  c #7B310B",
"G  c #763106",
"H  c #682513",
"J  c #792914",
"K  c #763311",
"L  c #673A04",
"P  c #740F26",
"I  c #7B2D25",
"U  c #53002B",
"Y  c #654808",
"T  c #785308",
"R  c #715206",
"E  c #6F5517",
"W  c #8C0403",
"Q  c #8C0900",
"!  c #84020C",
"~  c #8C030B",
"^  c #8D090D",
"/  c #850703",
"(  c #93020B",
")  c #9B030E",
"_  c #940C0D",
"`  c #970805",
"'  c #840214",
"]  c #8B0314",
"[  c #840B14",
"{  c #8C0C13",
"}  c #82021A",
"|  c #89081B",
" . c #940514",
".. c #9B0413",
"X. c #940D13",
"o. c #9B0A13",
"O. c #98071B",
"+. c #961112",
"@. c #981213",
"#. c #831F19",
"$. c #A1040E",
"%. c #A40411",
"&. c #A30712",
"*. c #812309",
"=. c #832B0C",
"-. c #862706",
";. c #893609",
":. c #832B18",
">. c #853514",
",. c #873818",
"<. c #943D19",
"1. c #923205",
"2. c #8A0624",
"3. c #833422",
"4. c #AB3827",
"5. c #8B410B",
"6. c #974A09",
"7. c #9C5808",
"8. c #964519",
"9. c #9D5C1B",
"0. c #995616",
"q. c #86500B",
"w. c #A85806",
"e. c #A65918",
"r. c #B95616",
"t. c #AA4E10",
"y. c #9F611B",
"u. c #987217",
"i. c #906E10",
"p. c #A5640D",
"a. c #AA660D",
"s. c #AC6B0E",
"d. c #A66006",
"f. c #B46D0C",
"g. c #B66403",
"h. c #B57804",
"j. c #AC6612",
"k. c #AB641D",
"l. c #AB6817",
"z. c #B36A1A",
"x. c #B56715",
"c. c #A67B17",
"v. c #B97516",
"b. c #AB7108",
"n. c #9A5927",
"m. c #98502C",
"M. c #A85A24",
"N. c #B25B22",
"B. c #A9532C",
"V. c #986F34",
"C. c #AB6727",
"Z. c #B4652C",
"A. c #B76828",
"S. c #B87429",
"D. c #AC6C34",
"F. c #AA6A37",
"G. c #B46C33",
"H. c #B96A32",
"J. c #A3733B",
"K. c #A87237",
"L. c #B47436",
"P. c #A87522",
"I. c #C97707",
"U. c #D47905",
"Y. c #C86818",
"T. c #C47A19",
"R. c #D77719",
"E. c #CC6911",
"W. c #D47422",
"Q. c #D87623",
"!. c #D0712F",
"~. c #E27626",
"^. c #884A42",
"/. c #B9821A",
"(. c #BB8303",
"). c #B99431",
"_. c #C78606",
"`. c #D58B04",
"'. c #D68708",
"]. c #CB9504",
"[. c #DA9C02",
"{. c #D79706",
"}. c #C88515",
"|. c #D68511",
" X c #D69615",
".X c #C79316",
"XX c #E28A02",
"oX c #E59704",
"OX c #E79B17",
"+X c #EE920D",
"@X c #DDA301",
"#X c #DAA503",
"$X c #D9A51B",
"%X c #DFB404",
"&X c #E3A601",
"*X c #EDA602",
"=X c #E4AB01",
"-X c #ECAC02",
";X c #E4A40D",
":X c #F2AB00",
">X c #F5AC06",
",X c #EBB400",
"<X c #E4B802",
"1X c #F4B401",
"2X c #FBB504",
"3X c #FBBC02",
"4X c #F6B708",
"5X c #EAA718",
"6X c #F3AB17",
"7X c #F7B715",
"8X c #EFB912",
"9X c #CE912F",
"0X c #D8A522",
"qX c #C8AA39",
"wX c #CCB139",
"eX c #D5BC3B",
"rX c #F5BA25",
"tX c #EABA36",
"yX c #EBB02D",
"uX c #EBC707",
"iX c #FCC402",
"pX c #F7C809",
"aX c #FDD203",
"sX c #FCD20D",
"dX c #FDDB0C",
"fX c #FAD807",
"gX c #F6CA16",
"hX c #F6D31C",
"jX c #FBD716",
"kX c #EDCD17",
"lX c #FEE308",
"zX c #FDE619",
"xX c #EBC826",
"cX c #F9CD24",
"vX c #F8C727",
"bX c #FCD224",
"nX c #FBD527",
"mX c #FBD936",
"MX c #EACC36",
"NX c #FEE925",
"BX c #FDE827",
"VX c #FAE43A",
"CX c #FDF238",
"ZX c #D7BA46",
"AX c #CFAC4E",
"SX c #E7B953",
"DX c #EB9749",
"FX c #F3D348",
"GX c #EFCE5A",
"HX c #EDC356",
"JX c #F0CC54",
"KX c #EAD15B",
"LX c #EDCE4D",
"PX c #FDE645",
"IX c #F9F34D",
"UX c None",
/* pixels */
"UXUXUXUXUXUXUXUXUXUXUXUXUXUXUXUXUXUXUXUXUXUXUXUXUXUXUXUXUXUXUXUXUXUXUXUXUXUXUXUXUXUXUXUXUXUXUXUXUXUXUXUXUXUXUXUXUXUXUXUXUXUXUXUX",
"UXUXUXUXUXUXUXUXUXUXUXUXUXUXUXUXUXUXUXUXUXUXUXUXUXUXUXUXUXUXUXUXUXUXUXUXUXUXUXUXUXUXUXUXUXUXUXUXUXUXUXUXUXUXUXUXUXUXUXUXUXUXUXUX",
"UXUXUXUXUXUXUXUXUXUXUXUXUXUXUXUXUXUXUXUXUXUXUXUXUXUXUXUXUXUXUXUXUXUXUXUXUXUXUXUXUXUXUXUXUXUXUXUXUXUXUXUXUXUXUXUXUXUXUXUXUXUXUXUX",
"UXUXUXUXUXUXUXUXUXUXUXUXUXUXUXUXUXUXUXUXUXUXUXUXUXUXUXUXUXUXUXUXUXUXUXUXUXUXUXUXUXUXUXUXUXUXUXUXUXUXUXUXUXUXUXUXUXUXUXUXUXUXUXUX",
"UXUXUXUXUXUXUXUXUXUXUXUXUXUXUXUXUXUXUXUXUXUXUXUXUXUXUXUXUXUXUXUXUXUXUXUXUXUXUXUXUXUXUXUXUXUXUXUXUXUXUXUXUXUXUXUXUXUXUXUXUXUXUXUX",
"UXUXUXUXUXUXUXUXUXUXUXUXUXUXUXUXUXUXUXUXUXUXUXUXUXUXUXUXUXUXUXUXUXUXUXUXUXUXUXUXUXUXUXUXUXUXUXUXUXUXUXUXUXUXUXUXUXUXUXUXUXUXUXUX",
"UXUXUXUXUXUXUXUXUXUXUXUXUXUXUXUXUXUXUXUXUXUXUXUXUXUXUXUXUXUXUXUXUXUXUXUXUXUXUXUXUXUXUXUXUXUXUXUXUXUXUXUXUXUXUXUXUXUXUXUXUXUXUXUX",
"UXUXUXUXUXUXUXUXUXUXUXUXUXUXUXUXUXUXUXUXUXUXUXUXUXUXUXUXUXUXUXUXUXUXUXUXUXUXUXUXUXUXUXUXUXUXUXUXUXUXUXUXUXUXUXUXUXUXUXUXUXUXUXUX",
"UXUXUXUXUXUXUXUXUXUXUXUXUXUXUXUXUXUXUXUXUXUXUXUXUXUXUXUXUXUXUXUXUXUXUXUXUXUXUXUXUXUXUXUXUXUXUXUXUXUXUXUXUXUXUXUXUXUXUXUXUXUXUXUX",
"UXUXUXUXUXUXUXUXUXUXUXUXUXUXUXUXUXUXUXUXUXUXUXUXUXUXUXUXUXUXUXUXUXUXUXUXUXUXUXUXUXUXUXUXUXUXUXUXUXUXUXUXUXUXUXUXUXUXUXUXUXUXUXUX",
"UXUXUXUXUXUXUXUXUXUXUXUXUXUXUXUXUXUXUXUXUXUXUXUXUXUXUXUXUXUXUXUXUXUXUXUXUXUXUXUXUXUXUXUXUXUXUXUXUXUXUXUXUXUXUXUXUXUXUXUXUXUXUXUX",
"UXUXUXUXUXUXUXUXUXUXUXUXUXUXUXUXUXUXUXUXUXUXUXUXUXUXUXUXUXUXUXUXUXUXUXUXUXUXUXUXUXUXUXUXUXUXUXUXUXUXUXUXUXUXUXUXUXUXUXUXUXUXUXUX",
"UXUXUXUXUXUXUXUXUXUXUXUXUXUXUXUXUXUXUXUXUXUXUXUXUXUXUXUXUXUXUXUXUXUXUXUXUXUXUXUXUXUXUXUXUXUXUXUXUXUXUXUXUXUXUXUXUXUXUXUXUXUXUXUX",
"UXUXUXUXUXUXUXUXUXUXUXUXUXUXUXUXUXUXUXUXUXUXUXUXUXUXUXUXUXUXUXUXUXUXUXUXUXUXUXUXUXUXUXUXUXUXUXUXUXUXUXUXUXUXUXUXUXUXUXUXUXUXUXUX",
"UXUXUXUXUXUXUXUXUXUXUXUXUXUXUXUXUXUXUXUXUXUXUXUXUXUXUXUXUXUXUXUXUXUXUXUX. . . @ N T u.u.u.c.c.c.c.c.u.u.i.i.Y UXUXUXUXUXUXUXUXUX",
"UXUXUXUXUXUXUXUXUXUXUXUXUXUXUXUXUXUXUXUXUXUXUXUXUXUXUXUXUXUXUXUXUXUXUX  X o H h.<XhXnXgX7X7X>X4X2X2X3X3X4X4X5X).UXUXUXUXUXUXUXUX",
"UXUXUXUXUXUXUXUXUXUXUXUXUXUXUXUXUXUXUXUXUXUXUXUXUXUXUXUXUXUXUXUXUXUX  X X 8.0XsXdXsX5XI.g.w.w.w.w.w.w.g.g._.*X7X.XUXUXUXUXUXUXUX",
"UXUXUXUXUXUXUXUXeXcX7XtXtXMXLXKXGXGXKXKXKXGXGXGXJXJXFXFXFXLXJXSXSX^.; X b tXjXaXaX;X5.3 3 2 2 2 > 2 2 2 2 s ;.I.6X0XUXUXUXUXUXUX",
"UXUXUXUXUXUXUXMXjX3X+X|.R.R.R.R.W.R.W.W.W.Q.Q.Q.R.W.R.R.R.R.~.~.!.4.P c ).zXaXiXoX;.> > > 2 > > > > 2 2 2 4 > d I.4X/.UXUXUXUXUX",
"UXUXUXUXUXUXLXjX3X'.1.d a / a a / / / Q Q Q Q Q W W W ` ` ` ` ` O.2.2.L.VXfX1X[.t.6 > > > > 2 2 2 3 3 3 5 5 3 w Z I.yXP.UXUXUXUX",
"UXUXUXUXUXeXhX2XXX1.z y e u u p / / / W W W W W W _ ( ( (  ...%.O.2.P ZXzXpX@X].,.8 < > > 2 2 3 3 w w w r w w w w -.R.OXUXUXUXUX",
"UXUXUXUXZXBX3X*XE.z 0 r e u u a ! / ^ ^ ( _ ` ^ _ _ _ _  .%.O.O.O.2.J LXdX,X#XI.A , < > > 2 3 3 w r w t w t t t w w t.+XUXUXUXUX",
"UXUXUXJ.mXaX>XoXt.0 f t t i i ! ! ^ _ _ _ _ _ _ +._ o.X.o.O.O.O.2.g K nXuX#X_.q.8 < < > 2 2 3 w w w t e t t e e w w d Y.L.UXUXUX",
"UXUXUXZXdX3X:X+X8.9 f t t i i / ] _ _ _ _ _ X._ o.+._ X.o.O.O.O.2.9 0.hX<X_.7.s < , > > 2 3 w w t t e e e t e t t e s 4.DXE UXUX",
"UXUXUXVXaX1XoXv.J f f g t p p [ ^ { +.+.+.+.+.@.@.+.+.+.O.@.O.O.2.z AXsX@X_.6.1 , < > > 3 5 w e e e e e e i t t e w w d 9XV.. UX",
"UXUXKXNXiXoXw.S h f f t i a { { +.+.+.+.+.+.+.+.@.+.@.@.@.O.O.2.2.B.FXpX@X_.7.1 < : > 2 3 w y t e e i e d e e e e w w e r.!.@ UX",
"UXE IXzX1X`.7.z 5 r t i p [ { +.{ +.+.+.+.+.@.@.@.@.@.@.@.O.| | P 9XmXuX@X_.5.1 < > > 2 3 3 t e e e e e t e e e e e w w <.!.# UX",
"UX).CXsX-X`.w.s 5 r t i [ { { { +.+.+.+.+.@.@.@.@.@.@.@.X.O. .| x AXmXuX@X_.5.1 , > 2 2 5 w e e e y e i e e e e e y w 3 =.H.= UX",
"UXAXBXjX*X`.e.y 5 y t k [ { { { { +.{ +.+.+.+.+.@.@.X.X.O.X.| } x AXVX8X=X`.;.< < > 2 5 3 r t e e e y e e e i e e e y 3 =.H.m UX",
"UXqXBXsX*X`.t.y 5 r i ' [ { X.{ { ^ { +.+.+.+.+.@.@.X.X. . .] ' #.SXnXpX=X`.;.< < > 4 2 3 w y t i e e e e e e e e e w 3 *.H.m UX",
"UXqXBXsX*X`.e.y 5 r j k ' { { { { { +.+.+.{ +.{ { X.{ {  .] | k x SXnXuX=X'.=.4 < 2 4 2 5 3 y w e t e i w w y e w w w 3 *.Z.m UX",
"UXZXBXaX:X`.e.h 9 r j j k k k k l [ [ [ [ [ | | | | | ] ] ] ' k :.SXnXuX,X'.:.< < > 2 4 2 3 5 3 3 y 3 y w 3 w 3 w w 3 2 Z G.M UX",
"UXwXNXiX*X{.M.6 9 r f g j g h j g i j l l l l l l l k ' ' } } l :.HXnX7X,X|.F < : > > > > 2 2 2 2 2 6 2 6 2 2 2 3 2 2 > S C.m UX",
"UXwXNXsX*X`.e.h 4 9 f r 9 h ,.8.M.M.A.Z.e.e.8.:.:.l j j j l l f 3.HXnXpX8X}.,.H z B B B B B H H B V V B V B V V V V V C ;.A.m UX",
"UXwXBXsX:X{.C.h 8 0 8 > 6 m.SXmXmXmXmXvXvX7X7XOXQ.8.B 7 8 4 0 4 ,.JXcXgXxXv.8.B.n.n.9.9.9.9.9.9.9.9.9.y.y.y.y.y.k.C.k.k.j.S.v UX",
"UXwXBXsX-X`.M.z 8 y F 0.P.MXnXgX0X9XT.v.f.f.h._.+X6X_.7.n.n.n.M.S.MXhXjXxXS.0.9.9.k.k.k.a.a.a.a.a.a.a.p.p.p.s.a.a.a.p.a.x.S.v UX",
"UXwXNXfX-X.XC.V ,.T.6XpXsXiX3X`.d 1 2 1 4 > O 1 g.>XiXiXjXVXPXFXvXkXsXjXrXc.0.0.e.j.j.f.f.f.f.f.f.f.s.s.a.a.s.s.a.d.d.w.g.A.c UX",
"UXAXBXfX<X{.}.j.}.;X4X3X3X3X:XXX6.J =.>.3.P 0 o 7.3XiXaXaXdXzXNXgXiXpXrX0XA.M.e.j.j.f.f.f.f.f.f.f.h.f.f.s.b.f.s.s.a.f.a.r.A.v UX",
"UXAXPXjX4X>X5X X'.;X=X,X1X1X:X*X+XXXR.|.~.!.I o w.3X3X1X>XOX|._.;X1X#X}.N.B.B.C.k.k.A.z.z.z.z.z.j.z.l.z.l.l.l.l.j.z.x.x.x.A.c UX",
"UXUXAXwX#X:X>X Xp.T. X=X,X,X,X=XoXXXXXXX+XQ.I o b.1X&XU.8.:.x ;.'.&X#Xf.:.z H A A A A K A K D A D D D D D D D D D F F =.6.A.v UX",
"UXUXUX= q.-X4X5X;.J C. X<X,X<X=X`.I.U.U.Y.B.B N (.,X[.t.h U 0 ;.OX,X%X/.J > < : : : : O O : O : : : : : O : : : : : : : F A.v UX",
"UXUXUXUX(.gXpX8X5.0 H j.=X,X<X<X#X{.`.'.g.;.q.h.=X,X@XT.x 7 7 w.8XpXuX.XF , , : : > > : : > > : : > : > > > > > > > 2 1 Z A.b UX",
"UXUXUXn xXsXsXvX8.7 7 z x.@X<X<X<X%X=X&X].h.].<X,X1X*X9X3.7 0 I.aXkXkX$XG , , , : > > > > 2 2 > 2 2 2 2 2 2 2 2 2 2 2 2 Z Z.b UX",
"UXUXUXT pXsXgXrX0.O 7 7 i 6.h.].#X[.#X[._.h.].#X[.[.R.m.0 7 y `.aXgXxX0XA < : > > > 2 2 2 3 3 3 3 3 3 3 3 3 3 3 3 3 3 1 S Z.b UX",
"UXUXUXT 8XsXcXvX0.O 7 7 9 5 6 s s s C C s q s C C d s 3 7 < s {.fXhXnX0XD : < > > > 2 3 w 3 w w w w w w w w e w w w 3 1 Z Z.b UX",
"UXUXUXT pXsXbXvX7.O ; 4 9 f r 5 5 9 5 8 2 4 4 2 2 5 r 5 9 4 s  XsXhXxX$XA < < < 2 2 3 3 w w e e e e e e e e e w e y w 3 Z Z.M UX",
"UXUXUXT pXdXbXcX7.O O < r k } } } } l k k k l k k } k j g f d {.kXhXnX$XG < < > > 2 3 w e e e e e e e e e d e e e w w 3 Z A.M UX",
"UXUXUXR pXdXnXcX9.O O , 3 ! ..%.%....... ...X.o... .] ' k j d .XjXhXnX$XG < < > 2 2 3 w e e e e e e e e e e e e e e w w *.H.M UX",
"UXUXUXT kXlXnXnXe., O , 2 i ) %.%.%.%.&.&.&.$.&.o.$.) ( ] k u 7.xXbXbX5XD 8 < < 2 2 3 w e e u e e e a e e e e e e e w 3 -.A.M UX",
"UXUXUXR pXdXzXcXp.: , , : 3 p ) ) $.%.%.$.$.&.o.o.o.o.( ! k g F 0XvXbX0XF < < 4 2 3 3 w e u e e e e e e u e e e e e w 3 -.H.b UX",
"UXUXUXT kXlXBXcXe., O , : > 3 u p ! ! ~ ~ ~ ( ~ ~ ~ W ! p i t x .XrXrX XF < 1 2 2 3 3 w w e e e w e e e e e w e e w w 3 -.H.b UX",
"UXUXUXT fXlXjXcXp.1 : > > > 2 3 3 w w t e u u u u u u e e w e #.e.v.R.x.=.3 2 2 2 3 3 w w w w w w y e e e w e w w w w w 1.Y.b UX",
"UXUXUXq.dXlXlXhX}.8.3.,.>.>.>.>.,.,.,.,.,.,.,.<.<.<.<.8.8.<.8.N.N.z.Y.W.N.8.<.,.>.=.>.=.:.=.=.=.-.*.=.*.Z Z *.*.*.*.*.*.r.!.n UX",
"UXUXUXY %XkXkX$XS.L.L.L.L.L.K.K.J.J.J.J.J.J.J.J.J.V.J.V.J.F.F.D.H.G.D.L.L.C.D.C.G.D.D.D.G.F.D.F.F.F.F.F.F.F.F.F.F.H.N.!.!.N.c UX",
"UXUXUXUXY R Y N & % # # + * * * - - - - * - % % % % + + + + + # # & & % # & + # # # * & * * * * * * * * * * * * * * = # c # UXUX",
"UXUXUXUXUXUXUXUXUXUXUXUXUXUXUXUXUXUXUXUXUXUXUXUXUXUXUXUXUXUXUXUXUXUXUXUXUXUXUXUXUXUXUXUXUXUXUXUXUXUXUXUXUXUXUXUXUXUXUXUXUXUXUXUX",
"UXUXUXUXUXUXUXUXUXUXUXUXUXUXUXUXUXUXUXUXUXUXUXUXUXUXUXUXUXUXUXUXUXUXUXUXUXUXUXUXUXUXUXUXUXUXUXUXUXUXUXUXUXUXUXUXUXUXUXUXUXUXUXUX",
"UXUXUXUXUXUXUXUXUXUXUXUXUXUXUXUXUXUXUXUXUXUXUXUXUXUXUXUXUXUXUXUXUXUXUXUXUXUXUXUXUXUXUXUXUXUXUXUXUXUXUXUXUXUXUXUXUXUXUXUXUXUXUXUX",
"UXUXUXUXUXUXUXUXUXUXUXUXUXUXUXUXUXUXUXUXUXUXUXUXUXUXUXUXUXUXUXUXUXUXUXUXUXUXUXUXUXUXUXUXUXUXUXUXUXUXUXUXUXUXUXUXUXUXUXUXUXUXUXUX",
"UXUXUXUXUXUXUXUXUXUXUXUXUXUXUXUXUXUXUXUXUXUXUXUXUXUXUXUXUXUXUXUXUXUXUXUXUXUXUXUXUXUXUXUXUXUXUXUXUXUXUXUXUXUXUXUXUXUXUXUXUXUXUXUX",
"UXUXUXUXUXUXUXUXUXUXUXUXUXUXUXUXUXUXUXUXUXUXUXUXUXUXUXUXUXUXUXUXUXUXUXUXUXUXUXUXUXUXUXUXUXUXUXUXUXUXUXUXUXUXUXUXUXUXUXUXUXUXUXUX",
"UXUXUXUXUXUXUXUXUXUXUXUXUXUXUXUXUXUXUXUXUXUXUXUXUXUXUXUXUXUXUXUXUXUXUXUXUXUXUXUXUXUXUXUXUXUXUXUXUXUXUXUXUXUXUXUXUXUXUXUXUXUXUXUX",
"UXUXUXUXUXUXUXUXUXUXUXUXUXUXUXUXUXUXUXUXUXUXUXUXUXUXUXUXUXUXUXUXUXUXUXUXUXUXUXUXUXUXUXUXUXUXUXUXUXUXUXUXUXUXUXUXUXUXUXUXUXUXUXUX",
"UXUXUXUXUXUXUXUXUXUXUXUXUXUXUXUXUXUXUXUXUXUXUXUXUXUXUXUXUXUXUXUXUXUXUXUXUXUXUXUXUXUXUXUXUXUXUXUXUXUXUXUXUXUXUXUXUXUXUXUXUXUXUXUX"
};
