/* XPM */
static char *result[] = {
/* columns rows colors chars-per-pixel */
"64 64 255 2 ",
"   c #170208",
".  c #3B0307",
"X  c #331E0C",
"o  c #381D08",
"O  c #280213",
"+  c #300D10",
"@  c #34230D",
"#  c #3B220D",
"$  c #35290F",
"%  c #382201",
"&  c #342112",
"*  c #362810",
"=  c #440103",
"-  c #4C0104",
";  c #44010B",
":  c #4B000A",
">  c #530103",
",  c #5C0203",
"<  c #55010A",
"1  c #5D020B",
"2  c #5C0B0C",
"3  c #590B03",
"4  c #591605",
"5  c #4B0113",
"6  c #470116",
"7  c #550215",
"8  c #5C0211",
"9  c #5D0B18",
"0  c #50160F",
"q  c #640303",
"w  c #6B0505",
"e  c #65020C",
"r  c #6B010B",
"t  c #680D05",
"y  c #740105",
"u  c #7B0302",
"i  c #72010C",
"p  c #7B030D",
"a  c #730F04",
"s  c #641403",
"d  c #691A06",
"f  c #731E07",
"g  c #630113",
"h  c #6C0212",
"j  c #660918",
"k  c #730112",
"l  c #7C0313",
"z  c #790916",
"x  c #6B1813",
"c  c #731816",
"v  c #49330E",
"b  c #6A240D",
"n  c #66220A",
"m  c #792709",
"M  c #73310D",
"N  c #7B360B",
"B  c #692416",
"V  c #752D12",
"C  c #75261D",
"Z  c #793514",
"A  c #633E1C",
"S  c #751923",
"D  c #6D0527",
"F  c #702224",
"G  c #581526",
"H  c #674A06",
"J  c #6E5405",
"K  c #6F5523",
"L  c #7E7839",
"P  c #7C7836",
"I  c #766C32",
"U  c #8B0502",
"Y  c #83030D",
"T  c #8C040D",
"R  c #870607",
"E  c #920403",
"W  c #93030C",
"Q  c #930C0C",
"!  c #9A060E",
"~  c #840414",
"^  c #8B0312",
"/  c #840B15",
"(  c #8C0C13",
")  c #8A0519",
"_  c #870819",
"`  c #920614",
"'  c #9C0512",
"]  c #940C14",
"[  c #9B0C11",
"{  c #97071A",
"}  c #951113",
"|  c #981313",
" . c #821711",
".. c #A00711",
"X. c #81240A",
"o. c #832B0D",
"O. c #862A06",
"+. c #83340C",
"@. c #8A370A",
"#. c #95360D",
"$. c #822A1A",
"%. c #823213",
"&. c #8B3414",
"*. c #8D3B16",
"=. c #933B15",
"-. c #933915",
";. c #912F1A",
":. c #860325",
">. c #960322",
",. c #8B3523",
"<. c #81242D",
"1. c #A42B15",
"2. c #89430A",
"3. c #98450A",
"4. c #995509",
"5. c #984817",
"6. c #9E5C1B",
"7. c #9B5419",
"8. c #885010",
"9. c #A95702",
"0. c #A84E16",
"q. c #A5591A",
"w. c #B1540D",
"e. c #9C750D",
"r. c #856618",
"t. c #9B7516",
"y. c #986B09",
"u. c #AB660D",
"i. c #AC6B0D",
"p. c #A66508",
"a. c #B46D0C",
"s. c #B96805",
"d. c #A1750D",
"f. c #B9740A",
"g. c #AC6614",
"h. c #AC6914",
"j. c #A1621B",
"k. c #A86618",
"l. c #B36B13",
"z. c #B4641A",
"x. c #B36A1A",
"c. c #B96516",
"v. c #A27919",
"b. c #B77216",
"n. c #974A25",
"m. c #9D5A25",
"M. c #92502A",
"N. c #A55A2C",
"B. c #B65021",
"V. c #837434",
"C. c #8D742B",
"Z. c #AC6B2C",
"A. c #AB6628",
"S. c #B5692A",
"D. c #BD7526",
"F. c #AC6B34",
"G. c #A86937",
"H. c #B26731",
"J. c #B26E33",
"K. c #A47237",
"L. c #A47439",
"P. c #AA7334",
"I. c #B47535",
"U. c #C35C14",
"Y. c #C87A08",
"T. c #D37702",
"R. c #CB621C",
"E. c #C66617",
"W. c #D2621A",
"Q. c #C27815",
"!. c #C56A03",
"~. c #C86A23",
"^. c #CF7228",
"/. c #E16D1E",
"(. c #B57A43",
"). c #AC8410",
"_. c #AF8C2A",
"`. c #CC8403",
"'. c #CB8707",
"]. c #D58603",
"[. c #D3830B",
"{. c #D88908",
"}. c #D99804",
"|. c #C68E1A",
" X c #CB8713",
".X c #D98815",
"XX c #C89318",
"oX c #D5991A",
"OX c #E38A07",
"+X c #E59803",
"@X c #ED9816",
"#X c #DCA503",
"$X c #D8AD0C",
"%X c #E4A401",
"&X c #E9A300",
"*X c #E4AA01",
"=X c #EBAD01",
"-X c #E8AA0B",
";X c #F4AB04",
":X c #EBB400",
">X c #ECBC02",
",X c #E8B807",
"<X c #F3B200",
"1X c #FBB403",
"2X c #F4BC02",
"3X c #FBBC01",
"4X c #F9B808",
"5X c #E7A718",
"6X c #E9BA18",
"7X c #F8B717",
"8X c #F0A510",
"9X c #CE912A",
"0X c #CFB033",
"qX c #E8B825",
"wX c #F3B927",
"eX c #EAAA32",
"rX c #E78D38",
"tX c #EDC408",
"yX c #FCC504",
"uX c #FDCA04",
"iX c #FCCC0B",
"pX c #F3C707",
"aX c #FCD50C",
"sX c #FDD706",
"dX c #F8C916",
"fX c #FDDB13",
"gX c #FAD518",
"hX c #EAC719",
"jX c #FEE209",
"kX c #FDE51C",
"lX c #FEE518",
"zX c #F2C225",
"xX c #F8CB26",
"cX c #FAD323",
"vX c #FCD829",
"bX c #E4C73C",
"nX c #F5C534",
"mX c #FFD636",
"MX c #ECCC34",
"NX c #FEE922",
"BX c #FBE52A",
"VX c #FDEB3B",
"CX c #FEF436",
"ZX c #B8A649",
"AX c #D3974D",
"SX c #CFAF48",
"DX c #E1BF44",
"FX c #F4CC4E",
"GX c #F9D546",
"HX c #F5CE54",
"JX c #F6D156",
"KX c #E7CA4E",
"LX c #FBE644",
"PX c #F9EC53",
"IX c None",
/* pixels */
"IXIXIXIXIXIXIXIXIXIXIXIXIXIXIXIXIXIXIXIXIXIXIXIXIXIXIXIXIXIXIXIXIXIXIXIXIXIXIXIXIXIXIXIXIXIXIXIXIXIXIXIXIXIXIXIXIXIXIXIXIXIXIXIX",
"IXIXIXIXIXIXIXIXIXIXIXIXIXIXIXIXIXIXIXIXIXIXIXIXIXIXIXIXIXIXIXIXIXIXIXIXIXIXIXIXIXIXIXIXIXIXIXIXIXIXIXIXIXIXIXIXIXIXIXIXIXIXIXIX",
"IXIXIXIXIXIXIXIXIXIXIXIXIXIXIXIXIXIXIXIXIXIXIXIXIXIXIXIXIXIXIXIXIXIXIXIXIXIXIXIXIXIXIXIXIXIXIXIXIXIXIXIXIXIXIXIXIXIXIXIXIXIXIXIX",
"IXIXIXIXIXIXIXIXIXIXIXIXIXIXIXIXIXIXIXIXIXIXIXIXIXIXIXIXIXIXIXIXIXIXIXIXIXIXIXIXIXIXIXIXIXIXIXIXIXIXIXIXIXIXIXIXIXIXIXIXIXIXIXIX",
"IXIXIXIXIXIXIXIXIXIXIXIXIXIXIXIXIXIXIXIXIXIXIXIXIXIXIXIXIXIXIXIXIXIXIXIXIXIXIXIXIXIXIXIXIXIXIXIXIXIXIXIXIXIXIXIXIXIXIXIXIXIXIXIX",
"IXIXIXIXIXIXIXIXIXIXIXIXIXIXIXIXIXIXIXIXIXIXIXIXIXIXIXIXIXIXIXIXIXIXIXIXIXIXIXIXIXIXIXIXIXIXIXIXIXIXIXIXIXIXIXIXIXIXIXIXIXIXIXIX",
"IXIXIXIXIXIXIXIXIXIXIXIXIXIXIXIXIXIXIXIXIXIXIXIXIXIXIXIXIXIXIXIXIXIXIXIXIXIXIXIXIXIXIXIXIXIXIXIXIXIXIXIXIXIXIXIXIXIXIXIXIXIXIXIX",
"IXIXIXIXIXIXIXIXIXIXIXIXIXIXIXIXIXIXIXIXIXIXIXIXIXIXIXIXIXIXIXIXIXIXIXIXIXIXIXIXIXIXIXIXIXIXIXIXIXIXIXIXIXIXIXIXIXIXIXIXIXIXIXIX",
"IXIXIXIXIXIXIXIXIXIXIXIXIXIXIXIXIXIXIXIXIXIXIXIXIXIXIXIXIXIXIXIXIXIXIXIXIXIXIXIXIXIXIXIXIXIXIXIXIXIXIXIXIXIXIXIXIXIXIXIXIXIXIXIX",
"IXIXIXIXIXIXIXIXIXIXIXIXIXIXIXIXIXIXIXIXIXIXIXIXIXIXIXIXIXIXIXIXIXIXIXIXIXIXIXIXIXIXIXIXIXIXIXIXIXIXIXIXIXIXIXIXIXIXIXIXIXIXIXIX",
"IXIXIXIXIXIXIXIXIXIXIXIXIXIXIXIXIXIXIXIXIXIXIXIXIXIXIXIXIXIXIXIXIXIXIXIXIXIXIXIXIXIXIXIXIXIXIXIXIXIXIXIXIXIXIXIXIXIXIXIXIXIXIXIX",
"IXIXIXIXIXIXIXIXIXIXIXIXIXIXIXIXIXIXIXIXIXIXIXIXIXIXIXIXIXIXIXIXIXIXIXIXIXIXIXIXIXIXIXIXIXIXIXIXIXIXIXIXIXIXIXIXIXIXIXIXIXIXIXIX",
"IXIXIXIXIXIXIXIXIXIXIXIXIXIXIXIXIXIXIXIXIXIXIXIXIXIXIXIXIXIXIXIXIXIXIXIXIXIXIXIXIXIXIXIXIXIXIXIXIXIXIXIXIXIXIXIXIXIXIXIXIXIXIXIX",
"IXIXIXIXIXIXIXIXIXIXIXIXIXIXIXIXIXIXIXIXIXIXIXIXIXIXIXIXIXIXIXIXIXIXIXIXIXIXIXIXIXIXIXIXIXIXIXIXIXIXIXIXIXIXIXIXIXIXIXIXIXIXIXIX",
"IXIXIXIXIXIXIXIXIXr.r.r.K C.V.V.L L L L L L L L V.P P P P P I K v O           o H r.t.t.t.v.v.v.).e.e.e.r.r.A IXIXIXIXIXIXIXIXIX",
"IXIXIXIXIXIXIX_.MXcX7XwXnXnXFXHXJXJXJXJXJXJXJXJXJXJXJXFXHXHXKXHXAXF + O O O Z XXpXgXxXdX7X8X1X1X4X1X1X4X4X4X5Xv.IXIXIXIXIXIXIXIX",
"IXIXIXIXIXIXIXMXaX;XOXY.E.E.E.E.R.E.E.E.R.R.R.R.R.R.R.W.W.W.W./.W.| j O O M.qXaXsXiX5Xs.s.9.9.9.9.9.9.9.s.`.=X7X_.IXIXIXIXIXIXIX",
"IXIXIXIXIX_.LXgX;Xs.O.a u u u u u R R U U U U U U U U E U E E E { ) D O A bXlXsXyX.XO.3 > > > > - - > 3 3 d 3.].7XXXIXIXIXIXIXIX",
"IXIXIXIXIXMXiX;XT.o.9 e w y y u R R R U R U R U E E T E E W W ' >.:.D F 0XgXsX<X{.+.- - > > - > - > > > < - > O.].7Xv.IXIXIXIXIX",
"IXIXIXK JXfX1X+X9.j j e w y y Y R R U W Q Q E Q Q [ Q Q [ ' ' { >.D D ZXVXaX<X{.3.< - - - - > > , , , 1 1 , , q @.[.eXr.IXIXIXIX",
"IXIXIXZXkXyX;XOX=.9 g r r i p Y R ( Q Q Q Q Q Q Q | [ [ | ..{ >.:.D ,.GXfX>X+X[.C 5 - - - > > , , q q q e q q r y O.OXoXIXIXIXIX",
"IXIXIXGXaX3X&X{.$.g g e r y p Y Q Q Q Q Q Q Q } } [ Q ] { ..{ >.:.8 L.BXpX=X+Xb.G 5 : - - > , , e q r q q r q r q w U.@XIXIXIXIX",
"IXIXIXvXuX;X{.q.F g e r i p Y R ( ] } Q } | | | } } [ { { | >.{ z C KXNXtX#X`.2.5 5 : - > , , q q q q r r r r q q w X./.L.IXIXIX",
"IXI PXlX3X].4.f j g e r p Y (  .} } } } } | | | | } | | | { | _ :.L.PXgX*X`.4.0 5 ; - - < , q q r r y w w i w r t q a B.AXv IXIX",
"IXZXLXfX;X`.2.j 2 e r i p ( ( ( } } } } | } | | | | | } | { { :.C SXVXpX#X`.@.- : ; - > > q q r w r w y w w w r w q q @.rXK IXIX",
"IX0XCXiX&X`.3.s 1 e r z / ( } } ( } } } | } } | | | | } ] { _ z $.KXBXtX#X`.@.= ; ; - > < q w t w w w w a k w w w q q a ~.A.IXIX",
"IX0XkXaX+X`.3.2 1 e i l ) ( ( } Q ( } } } } } } } } } >.` ` ) z ,.KXvXtX}.].N ; ; - : > , q w e w a w w r w w w w q q q B.Z.IXIX",
"IXbXNXyX%X`.5.2 1 r i / / ( ( ( ( } ( } ] } ] } ] } } } { ) ) l ,.FXgX>X+X[.m ; : - > , , e w w w r r a w w w w q w , q =.J.IXIX",
"IXKXNXyX+X{.5.e e e i ~ ~ ) ( ( ( ( } } ( } } } _ | ] ) ` ^ ) k n.FXgX:X&X[.m : : - > > , q t w w w w w w r t y q w q q =.J.IXIX",
"IXbXNXyX&X].5.9 1 g k k l l p / / z z / z z z _ / :.~ ~ ^ ) ~ k n.JXdX:X*X{.m : : > > < , e e w r t w w w w r q w w 3 q #.J.IXIX",
"IXbXkXyX%X[.5.8 8 e h h h h j r r h z k c z j z z z ~ ~ ~ l l h M.JXdX:X&X[.f ; : - < > 1 , w q q w r t w w w q q q , , #.F.IXIX",
"IXbXkXyX&X[.n.2 8 8 8 1 1 x n.N.D.D.D.D.x.z.0.-.$.z k h h k h g G.JXdX,X=X Xd : - - - > > 1 1 , 1 e , q , q , q q q , > &.H.IXIX",
"IXbXkXpX=X{.n.9 7 7 : - 4 (.FXVXmXmXmXxX7X7X7X@X9X5.d 7 7 7 < : H.GXdX>X=XQ.f - = - - = - > : > > > < > > > > , > , > > +.F.IXIX",
"IXbXNXiX&X X7.9 9 f 8.h.9XnXgX6X9XD.x.g.u.p.p.`.@X8X'.g.Z.K.L.P.9XnXtXtX6Xa.%.B B B n n n B n b b b b b n n B b b b b n 3.Z.IXIX",
"IXbXkXiX%X Xm.M 7..X7XiXsXuX1X!.4 - > < : : + 4 !.1XyXuXgXLXPXLXnXdX,XpX6Xk.n.m.m.m.m.6.6.6.6.q.6.6.j.6.q.j.j.j.k.A.k.g.c.Z.IXIX",
"IXKXNXiX,X}.Q.b..X-X2X3XyX1X;X].3.@.-.;.,.C 6 . s.3XyXuXsXfXgXvXtXpXpXdXqXA.7.m.6.g.g.g.h.u.i.u.p.i.i.p.y.k.i.i.h.u.u.g.E.Z.IXIX",
"IXKXLXgX2X-X5X.X X-X=X:X:X<X=X&X+XOXOXT./.^.F O Y.3X<X&XOX.XE.!.+XtXtXdXqXj.7.7.q.g.a.a.a.a.a.a.a.i.i.i.i.i.a.i.p.u.9.u.s.A.IXIX",
"IXIXSX_.}.<X7XY.4.Q.oX*X:X:X:X&X+X{.OXOXOXR.F 0 '.2X+X!.;.S c 5.@XtXtX6XeXG.7.6.g.l.l.a.l.a.a.s.a.a.f.i.i.i.i.i.u.i.u.9.c.Z.IXIX",
"IXIXIX% p.1X4XXXm ,.x.#X,X:X:X#X].Y.T.T.U.#.4 M }.=X}.3.j G 8 0.5XtX$Xf.0.N.N.A.A.z.S.x.x.x.x.x.l.x.h.x.k.k.h.h.g.x.z.c.E.S.IXIX",
"IXIXIXv oXdXiX5Xm 7 B a.#X,X,X,X#X}.{.].s.2.y.}.=X:X&X~.c 6 2 Q.dXpXhXS.b x C V V N M V V M M M M M M M M M M M N N N N 0.A.IXIX",
"IXIXIXr.dXiXdXwX+.6 6 x c.#X:XtX>X:X:X=X}.).=XpXpX>X-X^.F 7 d }.aXgXzX_.d . ; = = = = = . = . . . = = = . . = = = = = = 3.S.IXIX",
"IXIXIXd.iXdXxXwXN 5 6 7 j @.p.Y.'.'.'.`.l.a.'.`.].Y.c.$.9 6 d %XsXdXxXXXd ; ; = = - = = - = - - - - = - - - - - - - - - @.Z.IXIX",
"IXIXIXd.uXgXxXwXN ; 6 7 g 1 1 3 3 s a a q 3 4 s s q w 1 7 5 m *XaXcXxX|.s ; ; ; - - - - - > - > > > > > > > > > > > > 3 &.A.IXIX",
"IXIXIXe.iXdXcXwXN 6 6 < h r r k i k r i r h r r r r r h g 7 m ,XaXcXxX|.s ; ; - - - > > > , , , , , , , , , , , , > 3 > &.A.IXIX",
"IXIXIXd.aXgXvXwXH 5 : < r l ~ ~ / ~ _ ~ ) / _ _ _ ) l k g < m 6XfXcXvX|.d ; : - - - > , q q q q q q q q w q q q q q , , @.H.IXIX",
"IXIXIXd.aXgXvXzX2.. ; 1 r Y ` ` ` ` ` ( ] ] ] ] ` ` ) k g , m ,XfXvXcXXXd : : - - > > q q q w w q w w w w w w w q q q 3 @.H.IXIX",
"IXIXIXd.fXfXvXzX+.; ; < r T ` ' { [ [ [ ' [ [ [ ' ` ^ p g 8 m 6XaXvXvX_.n : : - > > , q w w w w w w w w w w w w w q , , #.H.IXIX",
"IXIXIXd.sXfXvXzX2.; ; - r Y ` ' [ [ [ [ [ [ [ [ [ ! W ~ k e m $XhXgXcX|.n : : - > > , q w w w w w w y w w w a w w t q q @.H.IXIX",
"IXIXIXe.fXfXvXzX2.; ; : e Y ' ' ..[ ..[ [ [ | [ ..! ! T i h t ).hXcXxXoXn 5 : - > , , w w w w w w w w y y w w w w w q 3 #.H.IXIX",
"IXIXIXe.sXfXBXzX2.; ; ; > y W ' ....[ [ [ [ [ [ [ [ ! W l h e 4.hXcXxXXXd : < < > > q q w y w y w a w w w w w w w w q q #.S.IXIX",
"IXIXIXd.jXfXvXzX2.; 5 : : 1 r p ~ Y ^ ^ Q W Q W W ^ T Y i h g %.oXnXwX^.f 5 - > > , , q w w w w w w w w w w w w q q q , #.S.IXIX",
"IXIXIX).sXjXNXzX2.: = - - > > , e q r i y p y p y y w y w w w m z.Q.Y.z.f > > > > , , , q q q q q w q w q w q q q q q q 0.S.IXIX",
"IXIXIX).jXjXjXdXb.,.Z %.%.N N %.%.%.%.%.&.%.&.&.&.-.&.*.-.-.5.B.z.c.E.~.q.=.=.&.+.o.o.o.o.X.o.o.O.m X.m X.X.X.X.O. .X.o.U.~.IXIX",
"IXIXIX8.tXpXhXoXD.I.I.I.I.J.J.P.P.L.L.L.L.L.L.K.K.L.L.K.K.F.F.J.S.Z.I.I.Z.Z.F.J.F.J.F.F.F.J.G.G.G.G.G.G.G.G.G.G.H.H.H.~.^.N.IXIX",
"IXIXIXIXJ J H v $ # o & # * * & * * $ $ * $ $ $ @ @ @ @ @ @ @ o # # # @ X @ X X X @ & & & & & & & & & & & & & & & & # # v X IXIX",
"IXIXIXIXIXIXIXIXIXIXIXIXIXIXIXIXIXIXIXIXIXIXIXIXIXIXIXIXIXIXIXIXIXIXIXIXIXIXIXIXIXIXIXIXIXIXIXIXIXIXIXIXIXIXIXIXIXIXIXIXIXIXIXIX",
"IXIXIXIXIXIXIXIXIXIXIXIXIXIXIXIXIXIXIXIXIXIXIXIXIXIXIXIXIXIXIXIXIXIXIXIXIXIXIXIXIXIXIXIXIXIXIXIXIXIXIXIXIXIXIXIXIXIXIXIXIXIXIXIX",
"IXIXIXIXIXIXIXIXIXIXIXIXIXIXIXIXIXIXIXIXIXIXIXIXIXIXIXIXIXIXIXIXIXIXIXIXIXIXIXIXIXIXIXIXIXIXIXIXIXIXIXIXIXIXIXIXIXIXIXIXIXIXIXIX",
"IXIXIXIXIXIXIXIXIXIXIXIXIXIXIXIXIXIXIXIXIXIXIXIXIXIXIXIXIXIXIXIXIXIXIXIXIXIXIXIXIXIXIXIXIXIXIXIXIXIXIXIXIXIXIXIXIXIXIXIXIXIXIXIX",
"IXIXIXIXIXIXIXIXIXIXIXIXIXIXIXIXIXIXIXIXIXIXIXIXIXIXIXIXIXIXIXIXIXIXIXIXIXIXIXIXIXIXIXIXIXIXIXIXIXIXIXIXIXIXIXIXIXIXIXIXIXIXIXIX",
"IXIXIXIXIXIXIXIXIXIXIXIXIXIXIXIXIXIXIXIXIXIXIXIXIXIXIXIXIXIXIXIXIXIXIXIXIXIXIXIXIXIXIXIXIXIXIXIXIXIXIXIXIXIXIXIXIXIXIXIXIXIXIXIX",
"IXIXIXIXIXIXIXIXIXIXIXIXIXIXIXIXIXIXIXIXIXIXIXIXIXIXIXIXIXIXIXIXIXIXIXIXIXIXIXIXIXIXIXIXIXIXIXIXIXIXIXIXIXIXIXIXIXIXIXIXIXIXIXIX",
"IXIXIXIXIXIXIXIXIXIXIXIXIXIXIXIXIXIXIXIXIXIXIXIXIXIXIXIXIXIXIXIXIXIXIXIXIXIXIXIXIXIXIXIXIXIXIXIXIXIXIXIXIXIXIXIXIXIXIXIXIXIXIXIX",
"IXIXIXIXIXIXIXIXIXIXIXIXIXIXIXIXIXIXIXIXIXIXIXIXIXIXIXIXIXIXIXIXIXIXIXIXIXIXIXIXIXIXIXIXIXIXIXIXIXIXIXIXIXIXIXIXIXIXIXIXIXIXIXIX"
};
