/* XPM */
static char *result[] = {
/* columns rows colors chars-per-pixel */
"64 64 256 2 ",
"   c #1A000A",
".  c #080600",
"X  c #3F0002",
"o  c #3F020A",
"O  c #331E0D",
"+  c #391B0A",
"@  c #380114",
"#  c #2D110E",
"$  c #2F210F",
"%  c #32230E",
"&  c #38230B",
"*  c #332111",
"=  c #382210",
"-  c #380020",
";  c #450004",
":  c #4C0104",
">  c #45000B",
",  c #4C010B",
"<  c #4A0A08",
"1  c #530103",
"2  c #5C0203",
"3  c #550D06",
"4  c #53020A",
"5  c #5C010B",
"6  c #560A09",
"7  c #571609",
"8  c #440012",
"9  c #4C0114",
"0  c #4A0519",
"q  c #540114",
"w  c #5B0013",
"e  c #590915",
"r  c #5B1216",
"t  c #4E130E",
"y  c #640303",
"u  c #6B0505",
"i  c #63010B",
"p  c #6C010B",
"a  c #660C06",
"s  c #740103",
"d  c #7B0104",
"f  c #74010C",
"g  c #7C020D",
"h  c #720C07",
"j  c #6D1401",
"k  c #681908",
"l  c #751806",
"z  c #630112",
"x  c #6C0416",
"c  c #730112",
"v  c #7A0313",
"b  c #7B021B",
"n  c #7A0918",
"m  c #681515",
"M  c #751717",
"N  c #47290D",
"B  c #5B3616",
"V  c #482B0E",
"C  c #66230A",
"Z  c #682709",
"A  c #6E2A0D",
"S  c #692507",
"D  c #76270A",
"F  c #7D3908",
"G  c #6E2D12",
"H  c #692619",
"J  c #782A19",
"K  c #683B1B",
"L  c #77391B",
"P  c #68320E",
"I  c #6A4707",
"U  c #76441A",
"Y  c #754D0E",
"T  c #7A4B25",
"R  c #6B561D",
"E  c #850201",
"W  c #8A0302",
"Q  c #8C060E",
"!  c #8C090D",
"~  c #83050C",
"^  c #940C0D",
"/  c #95080B",
"(  c #840413",
")  c #8C0513",
"_  c #8C0C14",
"`  c #84031A",
"'  c #890617",
"]  c #940D12",
"[  c #9A0C11",
"{  c #960517",
"}  c #951112",
"|  c #981214",
" . c #811F08",
".. c #A00814",
"X. c #822C0D",
"o. c #862508",
"O. c #893907",
"+. c #862F10",
"@. c #883513",
"#. c #923214",
"$. c #993A19",
"%. c #973606",
"&. c #B53D13",
"*. c #B13F0E",
"=. c #8E0521",
"-. c #863D28",
";. c #84410B",
":. c #8B430B",
">. c #8A4204",
",. c #984705",
"<. c #884813",
"1. c #974615",
"2. c #895913",
"3. c #985519",
"4. c #9C5F0D",
"5. c #A8480A",
"6. c #A65508",
"7. c #B25C08",
"8. c #A94816",
"9. c #B14411",
"0. c #A15D1A",
"q. c #A95918",
"w. c #B3581C",
"e. c #B1400E",
"r. c #916C14",
"t. c #AD660D",
"y. c #AD6A0C",
"u. c #A9640A",
"i. c #B46C0B",
"p. c #B86808",
"a. c #B5710B",
"s. c #BC7809",
"d. c #AC6413",
"f. c #A5641B",
"g. c #A96617",
"h. c #B36A1A",
"j. c #B76817",
"k. c #BB7516",
"l. c #9C5725",
"z. c #904829",
"x. c #A45722",
"c. c #B15823",
"v. c #8B6630",
"b. c #B96828",
"n. c #B67329",
"m. c #AD6B35",
"M. c #AC6C39",
"N. c #B56B34",
"B. c #A77238",
"V. c #AB7138",
"C. c #B77334",
"Z. c #AA6E27",
"A. c #C56C04",
"S. c #C87805",
"D. c #C87816",
"F. c #CE6F0C",
"G. c #C77730",
"H. c #C97428",
"J. c #E87F11",
"K. c #B27B43",
"L. c #B7870A",
"P. c #AC851A",
"I. c #B78816",
"U. c #AB800F",
"Y. c #B38B2D",
"T. c #9E882A",
"R. c #CA8506",
"E. c #D48C02",
"W. c #D68705",
"Q. c #CD950B",
"!. c #DB9501",
"~. c #DC9B01",
"^. c #D59704",
"/. c #CB8D1A",
"(. c #CA8719",
"). c #CC951C",
"_. c #D79715",
"`. c #D48318",
"'. c #E79A04",
"]. c #EA9300",
"[. c #DDAC00",
"{. c #DCA406",
"}. c #DCB014",
"|. c #E4A300",
" X c #E4AB00",
".X c #ECAB01",
"XX c #E8A708",
"oX c #F3AD00",
"OX c #FAAE05",
"+X c #EBB400",
"@X c #EDBA02",
"#X c #E6BB06",
"$X c #F4B201",
"%X c #FAB402",
"&X c #F5BB03",
"*X c #FBB805",
"=X c #E7AA17",
"-X c #E2B313",
";X c #EAB717",
":X c #F7B615",
">X c #F3A718",
",X c #C59526",
"<X c #D89626",
"1X c #CD902F",
"2X c #DAA722",
"3X c #E4AA28",
"4X c #E7B527",
"5X c #F8BC29",
"6X c #F3B12E",
"7X c #E98B3F",
"8X c #EEC506",
"9X c #FDC301",
"0X c #FCCE0B",
"qX c #F8CA06",
"wX c #FED204",
"eX c #FCD30B",
"rX c #FDDA0B",
"tX c #FCD905",
"yX c #EDC415",
"uX c #F9C717",
"iX c #FCD319",
"pX c #FEDB1B",
"aX c #FBD616",
"sX c #EED113",
"dX c #FEE304",
"fX c #FDE61B",
"gX c #FACB25",
"hX c #FDD423",
"jX c #FDDA25",
"kX c #FDD32A",
"lX c #FAD72D",
"zX c #FDDD34",
"xX c #FAD839",
"cX c #EECB38",
"vX c #FCE235",
"bX c #FAE839",
"nX c #FDEF31",
"mX c #D4C13F",
"MX c #A99C4A",
"NX c #A89F44",
"BX c #AC9247",
"VX c #999343",
"CX c #C89747",
"ZX c #CD954E",
"AX c #D8AA4E",
"SX c #E6B657",
"DX c #EEB64B",
"FX c #E28F43",
"GX c #FAC84A",
"HX c #FDCC53",
"JX c #F5C952",
"KX c #EFD248",
"LX c #F8E84D",
"PX c #F5DA6A",
"IX c #D3C75D",
"UX c None",
/* pixels */
"UXUXUXUXUXUXUXUXUXUXUXUXUXUXUXUXUXUXUXUXUXUXUXUXUXUXUXUXUXUXUXUXUXUXUXUXUXUXUXUXUXUXUXUXUXUXUXUXUXUXUXUXUXUXUXUXUXUXUXUXUXUXUXUX",
"UXUXUXUXUXUXUXUXUXUXUXUXUXUXUXUXUXUXUXUXUXUXUXUXUXUXUXUXUXUXUXUXUXUXUXUXUXUXUXUXUXUXUXUXUXUXUXUXUXUXUXUXUXUXUXUXUXUXUXUXUXUXUXUX",
"UXUXUXUXUXUXUXUXUXUXUXUXUXUXUXUXUXUXUXUXUXUXUXUXUXUXUXUXUXUXUXUXUXUXUXUXUXUXUXUXUXUXUXUXUXUXUXUXUXUXUXUXUXUXUXUXUXUXUXUXUXUXUXUX",
"UXUXUXUXUXUXUXUXUXUXUXUXUXUXUXUXUXUXUXUXUXUXUXUXUXUXUXUXUXUXUXUXUXUXUXUXUXUXUXUXUXUXUXUXUXUXUXUXUXUXUXUXUXUXUXUXUXUXUXUXUXUXUXUX",
"UXUXUXUXUXUXUXUXUXUXUXUXUXUXUXUXUXUXUXUXUXUXUXUXUXUXUXUXUXUXUXUXUXUXUXUXUXUXUXUXUXUXUXUXUXUXUXUXUXUXUXUXUXUXUXUXUXUXUXUXUXUXUXUX",
"UXUXUXUXUXUXUXUXUXUXUXUXUXUXUXUXUXUXUXUXUXUXUXUXUXUXUXUXUXUXUXUXUXUXUXUXUXUXUXUXUXUXUXUXUXUXUXUXUXUXUXUXUXUXUXUXUXUXUXUXUXUXUXUX",
"UXUXUXUXUXUXUXUXUXUXUXUXUXUXUXUXUXUXUXUXUXUXUXUXUXUXUXUXUXUXUXUXUXUXUXUXUXUXUXUXUXUXUXUXUXUXUXUXUXUXUXUXUXUXUXUXUXUXUXUXUXUXUXUX",
"UXUXUXUXUXUXUXUXUXUXUXUXUXUXUXUXUXUXUXUXUXUXUXUXUXUXUXUXUXUXUXUXUXUXUXUXUXUXUXUXUXUXUXUXUXUXUXUXUXUXUXUXUXUXUXUXUXUXUXUXUXUXUXUX",
"UXUXUXUXUXUXUXUXUXUXUXUXUXUXUXUXUXUXUXUXUXUXUXUXUXUXUXUXUXUXUXUXUXUXUXUXUXUXUXUXUXUXUXUXUXUXUXUXUXUXUXUXUXUXUXUXUXUXUXUXUXUXUXUX",
"UXUXUXUXUXUXUXUXUXUXUXUXUXUXUXUXUXUXUXUXUXUXUXUXUXUXUXUXUXUXUXUXUXUXUXUXUXUXUXUXUXUXUXUXUXUXUXUXUXUXUXUXUXUXUXUXUXUXUXUXUXUXUXUX",
"UXUXUXUXUXUXUXUXUXUXT.P.P.Y.Y.Y.Y.MXMXMXMXMXMXMXMXMXNXNXNXNXVXv.UXUXUXUXUXUXUXUXUXUXUXUXUXUXUXUXUXUXUXUXUXUXUXUXUXUXUXUXUXUXUXUX",
"UXUXUXUXUXUXUXUXUXcXjXuX:X5X5XGXGXHXHXHXHXHXHXHXHXHXHXHXHXHXPXSXUXUXUXUXUXUXUXUXUXUXUXUXUXUXUXUXUXUXUXUXUXUXUXUXUXUXUXUXUXUXUXUX",
"UXUXUXUXUXUXUXUXcXrX*XW.p.5.e.5.e.5.9.e.9.9.9.e.e.e.e.e.&.&.&.&.m @       . + I r.I.I.k.P.I.I.I.I.L.U.U.r.2.V UXUXUXUXUXUXUXUXUX",
"UXUXUXUXUXUXUXKXpX*XW.X.M y s d d d d d E E E E E E W W W W / / c 0 @ @ @ 7 k.@XeXpXgX:XOXOXOX%X*X*X*X9X%X:X2XUXUXUXUXUXUXUXUXUX",
"UXUXUXUXUXUXmXaX%X].5.m z y u s s d E W E W W W ! / W / / { ..{ ' x 0 @ 7 <XiXdXwX;Xp.6.,.,.,.,.,.,.,.6.p.!.:X3Xr.UXUXUXUXUXUXUX",
"UXUXUXUXUXAXnX9X].S.J e z u u s s E ! ! ! ^ ^ / ^ ^ / / { ......=.b 0 t Y.nXtXwX=X,.6 1 1 1 1 : 1 : 1 : 3 D 7.=X;XY UXUXUXUXUXUX",
"UXUXUXUXUXxXwX$X'.F.m e i p p f d ~ ! ^ ^ ^ ^ ^ [ ] ^ [ { { { =.` x H Y.lXwX*X'.1.< : : 1 : 1 : 1 1 1 1 4 1 a 6.oX2XUXUXUXUXUXUX",
"UXUXUXUXUXpX9XoX'.b.x w i p s f g ! ! ! ! ^ ^ } ^ ] ^ [ [ [ { =.b M NXLXeX%X|.q.a , : : : 1 1 1 2 2 y 5 5 5 2 l 7.>X,X& UXUXUXUX",
"UXUXUXUXKXrX&X!.i.J z i i u f g ! _ } _ } } } } ] ] ] | { | { =.x K.LXfX9X|.'.l.0 , : : : 1 2 2 y y i y y y y i h A.>XY UXUXUXUX",
"UXUXUXIXnX9X|.p.F z w i p f g ! _ } } } } } } | | | | | ] { { =.z.PXnXtX+X X_.z.0 , : : 1 2 2 y y y p i p p y i y o.J.n.UXUXUXUX",
"UXUXUXLXfX*X!.y.D 5 5 i u g ( _ _ } } } } } } | | } } ] | =.=.n BXLXfX8X[.E.4.r 8 , : 1 2 2 y u p y p u p u u u y h w.7XUXUXUXUX",
"UXUXUXbXpX%X!.s.A 2 2 p f n _ _ _ } _ } } } } } | | | _ ] _ =.n ZXvXaX@X!.t.m 8 8 , : 4 2 y i u u p u p u u u p u a } 7Xv.. UXUX",
"UXUXUXvXpX$X!.i.D 5 i p v _ _ _ } _ } } } ^ } } | | ] _ { ' =.M CXbXeX XE.6.e > , ; : 1 6 u u u u p u s s u u p y y h j.n.O UXUX",
"UXUXUXvXaX$X!.i.C 5 i f v ( _ _ } _ _ } } } ^ } _ ] ] { { ' ' M CXzXqX XE.6.6 > , , : 2 5 u u u u s u u p u u u a y u %.1XV UXUX",
"UXUXUXbXaXoX'.k.M w i p v ` ( ' ( _ _ _ } _ _ _ _ _ _ ] ) ' ` n ZXlXqX|.E.q.: , ; : 1 5 2 p u u u u h u u u u y y y 2  .H.B UXUX",
"UXUXUXvXeXoX!.i.k w z p c v v v n n n l n n n n ( n ( ( ) ` b M AXkX&X X!.6., , , : 1 2 y a u u h s u p u u s u u y 2 l b.T UXUX",
"UXUXUXvXeXoX!.k.m w 5 z p p p i h f l M M M M M n b v g ` b b M AXkX&X|.'.,.4 , , 1 4 2 y u u u u u u u h u u u u y 2 j b.T UXUX",
"UXUXUXzX0X.X'.k.M w w z w 4 6 z.G.1X<X<X`.D.w.,.l p z x x x z M SXgX&X X~.6.4 , 4 4 1 1 5 i p u p u u u u u u u y y 2 j b.T UXUX",
"UXUXUXzXeXoX!.k.M e w q 6 7 v.JXzXlXkX5X:X:X:X>X(.@.7 r e e q H SXgX@X X^.,.4 9 4 1 1 5 2 i i a u p a y u y u y y 2 1 j b.T UXUX",
"UXUXUXzXeXoX!.h.H m D q.I._.5X0X8XS.6.:.>.O.,.S.OX$X_.,XCXZXZXZXcXyX@X+X_.,.6 , , : 1 1 1 2 2 2 2 2 y 2 2 2 2 y 2 2 1 j c.T UXUX",
"UXUXUXzX0XoX^.h.@.1.D.XX*X9X9X%X].%.y 2 1 4 ; O.oX9X9X0XjXbXLXxX:X@X@X+X_.:.6 , , ; : : 4 6 4 1 1 1 1 1 1 1 1 2 1 1 ; k x.T UXUX",
"UXUXUXxXiX$X|.Q.k.k.W. X+X$X&XoX'.A.6.5.$.M > F OX$X+X.X XXX=XXX X@X8XsX_.1.J J G G P G G G G G G G G A A A A G G D A O.b.U UXUX",
"UXUXUXxXiX$X.XoXQ.S.E.|. X.X+X.X.X].W.W.W.8.1 >.%X$X.X~.W.A.A.R.{.@X8XsXY.l.l.l.l.0.f.0.f.0.f.0.0.g.4.f.f.f.f.Z.h.h.b.d.b.P UXUX",
"UXUXUXLXiX$XoXoX'.S.R.~. X X X+X|.].W.W.].A.j 6.oX.X|.!.W.S.A.S.{.8XsXlX,X3.l.3.g.d.d.d.y.u.u.y.y.p.y.u.y.y.y.y.y.g.t.j.k.V UXUX",
"UXUXUXzXiX*XoX$X'.R.W.~.[. X X X|.E.S.S.W.j.D p..X X|.!.E.S.A.S.{.8XpXcXY.1.3.4.d.t.i.j.i.p.i.p.i.i.y.u.y.y.i.y.d.t.6.7.n.N UXUX",
"UXUXUXLXkX=X_.<X<XG.D.^.[.[.[. X[.^.A.7.j.:.Y S. X|.'.^.E.W.D.A.W.2X4XSX1X0.0.g.d.j.i.i.a.a.a.a.a.a.a.a.y.a.a.a.y.d.6.p.n.N UXUX",
"UXUXUXLXJXZ.Y U K z.z.w.(.~.[.[.[.^.s.6.:.A F L.[.{.S.g.0.x.x.3.<.<.$.x.8.x.x.f.f.h.h.h.b.h.h.h.h.y.h.h.h.g.h.h.j.q.6.n.Z.$ UXUX",
"UXUXUXBXv.N I 2.2.<.t t H 3.s.Q.^._.E.L.h.3.4.Q. Xs.C 7 t t t <.2.2.<.S 6 k C k k C k C C Z Z Z Z Z Z Z S S S Z D X.q.l.N UXUXUX",
"UXUXUXUXUXI Q.;XyXk.< - - o 3 L l.f.f.Z.n.n.n.k.g.@.8 @ @ @ P /.}.;X_.F ; 8 > ; ; X ; X X X X X X X X ; ; ; ; ; < j w.<.UXUXUXUX",
"UXUXUXUXUXL.eXwXeX/.7 - 0 0 8 9 q 6 m m m k M M m a q 9 o o 4.yX0X0X}.;.> , ; ; ; ; ; ; ; ; ; : ; < ; ; ; : : : ; k w.T UXUXUXUX",
"UXUXUXUXUX}.wXeXgX(.7 8 q q q w q w w w q q w w z w w q 9 6 A.wXqXiX2XO.> > ; , ; ; : : : : : : : : : : : : : 1 < j w.L UXUXUXUX",
"UXUXUXUXUX=XwXuXgX(.7 8 q w w z z z z z z z z z z z z w w a S.wXsXhX3XY ; , ; : : : : 1 1 1 1 1 1 1 1 1 1 1 1 1 3 j c.L UXUXUXUX",
"UXUXUXUXUX-XwXuXkX/.6 , 4 5 z p c p c p p c p p p p z i 5 a S.wXuXkX4XF , , : : : 1 1 1 1 1 1 1 1 1 1 2 1 2 3 1 1 j w.U UXUXUXUX",
"UXUXUXUXUX=XeXhXkX).3 8 4 i f v g g g g g g g v g g f z i a L.wXiXkX4X;., , : : 1 1 1 2 2 2 2 2 2 2 2 y 2 2 2 2 3 j b.L UXUXUXUX",
"UXUXUXUXUX-XeXhXlX/.3 > 4 i g ~ _ ! ^ ! _ ! ! ( Q ( g f i a L.rXpXkX4X;., , : : : 1 2 y y y y y u a y y a a y 2 y l b.U UXUXUXUX",
"UXUXUXUXUX-XrXhXhX/.3 8 , i g ) [ ] } ^ ^ ] ^ ] ] ) ( v z a L.aXiXkX4X;., , 4 : 1 2 2 a u u u u u u u h u u y y y h b.K UXUXUXUX",
"UXUXUXUXUX-XrXpXlX/.3 8 , y g / / [ [ [ [ } } [ [ / ) ' c h a.aXiXlX4X;.< , 4 1 : 1 2 u u u u h a u u u u u y a 2 l b.L UXUXUXUX",
"UXUXUXUXUX-XtXhXlX/.3 > , 4 f / [ [ [ [ [ [ [ } [ [ { ' n f 4.sXiXlX4X;.4 , 1 : 1 2 y u h u u a h u u u u u u y y D N.K UXUXUXUX",
"UXUXUXUXUX-XdXpXlX/.7 8 , 4 u Q [ ....[ [ [ [ [ [ [ / ) ( c :.yXhXhX4X:.q , 1 4 1 2 y u u h u s u u u u u u u y y l N.K UXUXUXUX",
"UXUXUXUXUX-XrXpXjX/.3 8 > ; y ~ / [ ..[ [ [ [ ^ } [ [ ) ` c S ).gXhX4X:.< , : 1 1 2 2 u u u u u u u u u u u y y y o.b.B UXUXUXUX",
"UXUXUXUXUX-XdXpXjX/.3 8 , ; 4 i f ( ~ Q ! ! ! ! ! ! ~ ~ v p M k.4XgX3X$.4 , 1 1 1 2 y y u u u u y u u u u y y y 2 o.H.B UXUXUXUX",
"UXUXUXUXUX#XdXfXjX/.7 ; ; : 1 1 2 y u s d d g d d d d f u u j q.D.F.D.#.2 1 1 1 1 2 2 y y y y y y y y y y y y y 2 o.H.P UXUXUXUX",
"UXUXUXUXUXyXdXdXpX_.1.@.L X.X.X.@.+.+.+.#.#.#.#.#.#.#.#.#.$.8.w.j.A.H.w.1.@.@.X.+.X.X.X.X.X.o.D o.D D  .o. . .o.o.9.H.L UXUXUXUX",
"UXUXUXUXUXQ.8XsX-X(.C.C.C.C.C.C.V.V.V.V.B.B.B.B.B.B.B.V.M.M.N.N.C.C.C.C.N.Z.m.C.m.C.m.m.M.M.M.M.M.N.M.m.m.m.N.N.H.G.N.V UXUXUXUX",
"UXUXUXUXUXUXY I B & O + & = % % * * % * $ % % * * * $ $ % O O O = = = O % O O O O * % * * * * * * * * * * * * = + N = UXUXUXUXUX",
"UXUXUXUXUXUXUXUXUXUXUXUXUXUXUXUXUXUXUXUXUXUXUXUXUXUXUXUXUXUXUXUXUXUXUXUXUXUXUXUXUXUXUXUXUXUXUXUXUXUXUXUXUXUXUXUXUXUXUXUXUXUXUXUX",
"UXUXUXUXUXUXUXUXUXUXUXUXUXUXUXUXUXUXUXUXUXUXUXUXUXUXUXUXUXUXUXUXUXUXUXUXUXUXUXUXUXUXUXUXUXUXUXUXUXUXUXUXUXUXUXUXUXUXUXUXUXUXUXUX",
"UXUXUXUXUXUXUXUXUXUXUXUXUXUXUXUXUXUXUXUXUXUXUXUXUXUXUXUXUXUXUXUXUXUXUXUXUXUXUXUXUXUXUXUXUXUXUXUXUXUXUXUXUXUXUXUXUXUXUXUXUXUXUXUX",
"UXUXUXUXUXUXUXUXUXUXUXUXUXUXUXUXUXUXUXUXUXUXUXUXUXUXUXUXUXUXUXUXUXUXUXUXUXUXUXUXUXUXUXUXUXUXUXUXUXUXUXUXUXUXUXUXUXUXUXUXUXUXUXUX",
"UXUXUXUXUXUXUXUXUXUXUXUXUXUXUXUXUXUXUXUXUXUXUXUXUXUXUXUXUXUXUXUXUXUXUXUXUXUXUXUXUXUXUXUXUXUXUXUXUXUXUXUXUXUXUXUXUXUXUXUXUXUXUXUX",
"UXUXUXUXUXUXUXUXUXUXUXUXUXUXUXUXUXUXUXUXUXUXUXUXUXUXUXUXUXUXUXUXUXUXUXUXUXUXUXUXUXUXUXUXUXUXUXUXUXUXUXUXUXUXUXUXUXUXUXUXUXUXUXUX",
"UXUXUXUXUXUXUXUXUXUXUXUXUXUXUXUXUXUXUXUXUXUXUXUXUXUXUXUXUXUXUXUXUXUXUXUXUXUXUXUXUXUXUXUXUXUXUXUXUXUXUXUXUXUXUXUXUXUXUXUXUXUXUXUX",
"UXUXUXUXUXUXUXUXUXUXUXUXUXUXUXUXUXUXUXUXUXUXUXUXUXUXUXUXUXUXUXUXUXUXUXUXUXUXUXUXUXUXUXUXUXUXUXUXUXUXUXUXUXUXUXUXUXUXUXUXUXUXUXUX",
"UXUXUXUXUXUXUXUXUXUXUXUXUXUXUXUXUXUXUXUXUXUXUXUXUXUXUXUXUXUXUXUXUXUXUXUXUXUXUXUXUXUXUXUXUXUXUXUXUXUXUXUXUXUXUXUXUXUXUXUXUXUXUXUX"
};
