/* XPM */
static char *result[] = {
/* columns rows colors chars-per-pixel */
"64 64 251 2 ",
"   c #1D0104",
".  c #1B020A",
"X  c #170207",
"o  c #1E0112",
"O  c #230102",
"+  c #290001",
"@  c #23030B",
"#  c #2D0708",
"$  c #28090D",
"%  c #380D09",
"&  c #391308",
"*  c #370B11",
"=  c #300E14",
"-  c #4B0104",
";  c #4C000A",
":  c #450407",
">  c #530104",
",  c #5B0204",
"<  c #550B03",
"1  c #5B0B05",
"2  c #53020A",
"3  c #5A000B",
"4  c #540B0C",
"5  c #5A0C0A",
"6  c #4C1C0B",
"7  c #471609",
"8  c #5F1D06",
"9  c #5C120A",
"0  c #57170B",
"q  c #480512",
"w  c #530111",
"e  c #5B0113",
"r  c #560B12",
"t  c #451914",
"y  c #581C16",
"u  c #630304",
"i  c #6B0405",
"p  c #640B03",
"a  c #6B0A03",
"s  c #64010B",
"d  c #6A010A",
"f  c #6A0C0D",
"g  c #62090E",
"h  c #74000C",
"j  c #7A080C",
"k  c #631306",
"l  c #611C06",
"z  c #6C140B",
"x  c #6D1C0B",
"c  c #6A1506",
"v  c #75190C",
"b  c #76170B",
"n  c #6D0312",
"m  c #650612",
"M  c #740212",
"N  c #7C0214",
"B  c #7B0A18",
"V  c #671711",
"C  c #791518",
"Z  c #46210C",
"A  c #4C210A",
"S  c #592509",
"D  c #572917",
"F  c #5A3813",
"G  c #522911",
"H  c #642B05",
"J  c #682708",
"K  c #7E250E",
"L  c #7C2B0D",
"P  c #742808",
"I  c #67350A",
"U  c #7D3A0B",
"Y  c #77370A",
"T  c #672914",
"R  c #782C15",
"E  c #693816",
"W  c #783816",
"Q  c #7F3C22",
"!  c #78450C",
"~  c #6C441D",
"^  c #68431A",
"/  c #774718",
"(  c #725511",
")  c #7C6418",
"_  c #654521",
"`  c #6A4422",
"'  c #6A4828",
"]  c #7A4A27",
"[  c #7C672B",
"{  c #840B0C",
"}  c #8A070F",
"|  c #920A0F",
" . c #990E0D",
".. c #861809",
"X. c #95150E",
"o. c #830514",
"O. c #8D0613",
"+. c #8E0814",
"@. c #84051C",
"#. c #830B1C",
"$. c #8D0A19",
"%. c #8A0618",
"&. c #940614",
"*. c #9C0614",
"=. c #940914",
"-. c #9B0C13",
";. c #930C1A",
":. c #990A1A",
">. c #84141C",
",. c #871B1B",
"<. c #981815",
"1. c #A40C11",
"2. c #A80C17",
"3. c #A81616",
"4. c #852D0D",
"5. c #85270E",
"6. c #823C04",
"7. c #843A0B",
"8. c #863306",
"9. c #8C2D14",
"0. c #832C10",
"q. c #932514",
"w. c #833B15",
"e. c #883516",
"r. c #963B16",
"t. c #932B0A",
"y. c #A93F1A",
"u. c #A02F05",
"i. c #953D20",
"p. c #863223",
"a. c #C13B18",
"s. c #8C4B0C",
"d. c #864609",
"f. c #944A0B",
"g. c #8C5609",
"h. c #9D540B",
"j. c #9C5C0B",
"k. c #985907",
"l. c #894817",
"z. c #954912",
"x. c #9C4C1B",
"c. c #954817",
"v. c #885915",
"b. c #9B591A",
"n. c #A55B0C",
"m. c #A65908",
"M. c #B95B04",
"N. c #A74418",
"B. c #B5491A",
"V. c #A45B12",
"C. c #A75617",
"Z. c #B65A18",
"A. c #AD490D",
"S. c #986508",
"D. c #967609",
"F. c #9C6418",
"G. c #8E6A17",
"H. c #AA6205",
"J. c #A76708",
"K. c #B2610B",
"L. c #B76A06",
"P. c #A7790A",
"I. c #B87707",
"U. c #AA6517",
"Y. c #B76716",
"T. c #A97517",
"R. c #B6741E",
"E. c #894C23",
"W. c #874826",
"Q. c #964C21",
"!. c #8D5622",
"~. c #995724",
"^. c #AE5023",
"/. c #A76927",
"(. c #B97C25",
"). c #966721",
"_. c #C0560E",
"`. c #CC7B0B",
"'. c #C57807",
"]. c #D07C0B",
"[. c #C67917",
"{. c #CC6C0F",
"}. c #CA7427",
"|. c #AB870A",
" X c #B98707",
".X c #BC8817",
"XX c #B58C0F",
"oX c #AA8B27",
"OX c #B3962F",
"+X c #C78607",
"@X c #D28304",
"#X c #D78906",
"$X c #CB9706",
"%X c #D59404",
"&X c #DB9603",
"*X c #D89908",
"=X c #C58813",
"-X c #D28616",
";X c #C79819",
":X c #D49C1C",
">X c #D39919",
",X c #E69905",
"<X c #E58504",
"1X c #DCA302",
"2X c #D8A907",
"3X c #DBB607",
"4X c #D6A21D",
"5X c #D9A816",
"6X c #DDB316",
"7X c #CDA40D",
"8X c #E4A402",
"9X c #E8A806",
"0X c #E8B808",
"qX c #E5AA18",
"wX c #E7B918",
"eX c #F3B008",
"rX c #C28624",
"tX c #D68627",
"yX c #C6972A",
"uX c #D6902D",
"iX c #CDA928",
"pX c #DAA529",
"aX c #D8B82C",
"sX c #CBAB34",
"dX c #DCAA39",
"fX c #D7B63A",
"gX c #C6B136",
"hX c #E7B926",
"jX c #F1BC26",
"kX c #ECC40B",
"lX c #ECC706",
"zX c #F5C806",
"xX c #E7D309",
"cX c #FBD70C",
"vX c #EAC719",
"bX c #F5C917",
"nX c #FBD514",
"mX c #F4D41A",
"MX c #F9D818",
"NX c #F9EB06",
"BX c #F8E409",
"VX c #F9EA0A",
"CX c #EBC823",
"ZX c #F4CA21",
"AX c #F3C521",
"SX c #ECD22F",
"DX c #B99647",
"FX c #C7A843",
"GX c #D9B243",
"HX c #DCC247",
"JX c None",
/* pixels */
"JXJXJXJXJXJXJXJXJXJXJXJXJXJXJXJXJXJXJXJXJXJXJXJXJXJXJXJXJXJXJXJXJXJXJXJXJXJXJXJXJXJXJXJXJXJXJXJXJXJXJXJXJXJXJXJXJXJXJXJXJXJXJXJX",
"JXJXJXJXJXJXJXJXJXJXJXJXJXJXJXJXJXJXJXJXJXJXJXJXJXJXJXJXJXJXJXJXJXJXJXJXJXJXJXJXJXJXJXJXJXJXJXJXJXJXJXJXJXJXJXJXJXJXJXJXJXJXJXJX",
"JXJXJXJXJXJXJXJXJXJXJXJXJXJXJXJXJXJXJXJXJXJXJXJXJXJXJXJXJXJXJXJXJXJXJXJXJXJXJXJXJXJXJXJXJXJXJXJXJXJXJXJXJXJXJXJXJXJXJXJXJXJXJXJX",
"JXJXJXJXJXJXJXJXJXJXJXJXJXJXJXJXJXJXJXJXJXJXJXJXJXJXJXJXJXJXJXJXJXJXJXJXJXJXJXJXJXJXJXJXJXJXJXJXJXJXJXJXJXJXJXJXJXJXJXJXJXJXJXJX",
"JXJXJXJXJXJXJXJXJXJXJXJXJXJXJXJXJXJXJXJXJXJXJXJXJXJXJXJXJXJXJXJXJXJXJXJXJXJXJXJXJXJXJXJXJXJXJXJXJXJXJXJXJXJXJXJXJXJXJXJXJXJXJXJX",
"JXJXJXJXJXJXJXJXJXJXJXJXJXJXJXJXJXJXJXJXJXJXJXJXJXJXJXJXJXJXJXJXJXJXJXJXJXJXJXJXJXJXJXJXJXJXJXJXJXJXJXJXJXJXJXJXJXJXJXJXJXJXJXJX",
"JXJXJXJXJXJXJXJXJXJXJXJXJXJXJXJXJXJXJXJXJXJXJXJXJXJXJXJXJXJXJXJXJXJXJXJXJXJXJXJXJXJXJXJXJXJXJXJXJXJXJXJXJXJXJXJXJXJXJXJXJXJXJXJX",
"JXJXJXJXJXJXJXJXJXJXJXJXJXJXJXJXJXJXJXJXJXJXJXJXJXJXJXJXJXJXJXJXJXJXJXJXJXJXJXJXJXJXJXJXJXJXJXJXJXJXJXJXJXJXJXJXJXJXJXJXJXJXJXJX",
"JXJXJXJXJXJXJXJXJXJXJXJXJXJXJXJXJXJXJXJXJXJXJXJXJXJXJXJXJXJXJXJXJXJXJXJXJXJXJXJXJXJXJXJXJXJXJXJXJXJXJXJXJXJXJXJXJXJXJXJXJXJXJXJX",
"JXJXJXJXJXJXJXJXJXJXJXJXJXJXJXJXJXJXJXJXJXJXJXJXJXJXJXJXJXJXJXJXJXJXJXJXJXJXJXJXJXJXJXJXJXJXJXJXJXJXJXJXJXJXJXJXJXJXJXJXJXJXJXJX",
"JXJXJXJXJXJXJXJXJXJXJXJXJXJXJXJXJXJX).JXJXJXJXJXJXJXJXJXJXJXJXJXJXJXJXJXJXJXJXJXJXJXJXJXJXJXJXJX$ JXJXJXJXJXJXJXJXJXJXJXJXJXJXJX",
"JXJXJXJXJXJXJXJXJXJXJXJXJXJXJXJXDXFXGXdXGX}.a.3.-.-.|  . . . .X. .-.<.;.-.:.1.2.:.;.;.q.q.9.R T D G JXJXJXJXJXJXJXJXJXJXJXJXJXJX",
"JXJXJXJXJXJXJXJXJXJXJXJXJXJXFXdXuX}.Z.Z._.a.3.2.1.1.1.*.1.1.1.1.1.3.1.2.2.3.2.2.3.3.B.}.uXuXiXyXOXOXyXsXsXgXOXJXJXJXJXJXJXJXJXJX",
"JXJXJXJXJXJXJXJXJXJXJXJXoXgXdX}.B.t...{ -.1.1.*.*.*.1.1.1.1.1.3.1.1.1.2.2.2.2.:.;.^.tXjXMXMXMXmXMXmXCXhXdXdXFXFXJXJXJXJXJXJXJXJX",
"JXJXJXJXJXJXJXJXJXJXJXoXaXhX-XA...s s d M N @.%.&.&.*.*.-.-.1.-.1.-.-.1.2.:.;.,.i.(.jXMXcXBXNXBXVXxX6X=XR.(.uXdXGXJXJXJXJXJXJXJX",
"JXJXJXJXJXJXJXJXJXJXoX4X6X'.t.C f f f z C C B @.@.%.&.&.=.:.-.-. .-.:.;.$.$.>.i.}.CXkX0XqX3X3X3X3X=Xh.J k c 4.Y.dXfXJXJXJXJXJXJX",
"JXJXJXJXJXJXJXJXJXoX:X=Xm.L V m b 8.S.J.P.T.U.i.>.@.@.@.:.:.;.:.:.;.;.@.#.>.r.(.wX0X'.k.6.Y 6.6.Y J k 2 2 , p P M.qXiXJXJXJXJXJX",
"JXJXJXJXJXJXJXJXT.uX`.m.Y J l 8.H.%X3XxXxXxXvXiX~.5.B @.@.@.$.;.$.%.#.C C p..XvXwX XU 8 < < < < < < 2 2 3 3 3 p 4.+X5XXXJXJXJXJX",
"JXJXJXJXJXJXJXT.-X].L.k.g.S.D. X2XzXNXNXNXVXVXmXiX/.p.B @.#.#.@.@.@.B C p.oXhX6X X6.< - - - - - > 2 3 3 3 s , s c m.%X*XJXJXJXJX",
"JXJXJXJXJXJX).>X,X#X#X$X2X3XlXlXzXlX0X0X0X3X3X0XwXiXU.e.,.C >.>.#.>.>.p.(.SXvX Xd.< - - - > > > , , u s s s d s f 8.'.*X;XJXJXJX",
"JXJXJXJXJXJX=X9XeXqXbXMXMXBXnXeX*X{.Z.C.C.A.A.M.<XeXwX=XY.C.N.N.y.c.C.rXhXCX.XU 7 q : - > > > , , s d d d d d s p k f.+X*XJXJXJX",
"JXJXJXJXJXJX*XwXbXZXZXSXSXCXqX-XA.t.q.<.X.t.X.u.M.,X0XbX0X9X1X,X9X6XvXmXkX8Xg.0 q % : - > , u u u d i d d d d u u < P J.qX|.JXJX",
"JXJXJXJXJXJX;XjXAXyX).G.G.)./.Y.B.N.y.B.N.B.B._.{.].,X9X9X8X8X8X8X2X3X0XzX0XI.Y 7 : : - > , u d d i i i d i i u u > c h.*X$XJXJX",
"JXJXJXJXJXJXoXaXaXT.^ Z & t T w.w.Q.r.x.Q.x.C.C.C.C.V.S.J.H.H.S.k.S.k.P.%X0X1XL.7.< - - , u d d i i i d i i d d u 1 k 7.@X&XJXJX",
"JXJXJXJXJXJXJXOXSXOX! 6 7 * * * t Z Z A Z Z Z A 6 6 6 6 7 7 7 : & * = G g.$X8X&XL.6.< < > s d i h i h i i i i i , 3 1 P M.'.JXJX",
"JXJXJXJXJXJXJXJXOXsX.XF./ T * $ . . X X X . . . @ @ @ @ O @ O @ @ @ o $ t l.S.I.+XL.P 1 2 , u i i i i i i i i u u , > c 8.Z.JXJX",
"JXJXJXJXJXJXJXJXJXJXJXv.b.b.W 7 @ . X X X   X . . . @ O @ O @ O @ @   . = = 6 I H.'.m.J 5 , , p i i i i i i i i u , , p e.~.JXJX",
"JXJXJXJXJXJXJXJXJXJXJXJXE / ! E 6 # @ X X X   . @     O O O O O O O O @ . .   & S d.H.h.P 2 3 , i i i i i i i i u , , c e.] JXJX",
"JXJXJXJXJXJXJXJXJXJXJXJXJXJX! W T 6 %   . .     O O O O O O O + + + + O O @   @ # A d.U.z.J 5 3 u u i i i i i i u u a v w.JXJXJX",
"JXJXJXJXJXJXJXJXJXJXJXJXJXJXJXJXW Y J 7 #     @ @   O O + O + + + + + + O O O @   # 6 ! b.c.v 5 , , u u i i i i u u b e.W.JXJXJX",
"JXJXJXJXJXJXJXJXJXJXJXJXJXJXJXJXJXS / W 8 % + @ O O O O O + + + + + + + + + O O O O # & S 7.w.P 1 , , u u i u u , p e.W.JXJXJXJX",
"JXJXJXJXJXJXJXJXJXJXJXJXJXJXJXJXJXJXD d.c.W 6 # O @ O O O + + + + + + + + + O O O O O O # 6 T e.J < > , , u u u u c W.] JXJXJXJX",
"JXJXJXJXJXJXJXJXJXJXJXJXJXJXJXJXJXJXJXF !.~.!.E %   O   O O O O + + + + + + + O O O     O O & I Y x 1 < > , , 1 a R Q JXJXJXJXJX",
"JXJXJXJXJXJXJXJXJXJXJXJXJXJXJXJXJXJXJXJXE !./.W.& #     O O O O O + O O O O O O O O   O       & D W V 4 > , > 9 J W JXJXJXJXJXJX",
"JXJXJXJXJXJXJXJXJXJXJXJXJXJXJXJXJXJXJXJXJXJXF ' D = #           O O O O O O O O O O O O         & D W V r 2 9 T E JXJXJXJXJXJXJX",
"JXJXJXJXJXJXJXJXJXJXJXJXJXJXJXJXJXJXJXJXJXJXJXJX] ~ A O O O O   O O O O + + O + O O O O O O     O = E Q V r R p.E JXJXJXJXJXJXJX",
"JXJXJXJXJXJXJXJXJXJXJXJXJXJXJXJXJXJXJXJXJXJXJXP.$XR.j.! Y Y ( ) ) ) F A A S H H J J I H H H H S A S E c.w.R l.Q.W JXJXJXJXJXJXJX",
"JXJXJXaXqX5X5X1X*X#X%X&X1X&X&X%X#X].{.Y.Y ! P.*X9X,X].'.L.I. X;XiXsXT.g.s.k.H.K.L.K.K.K.K.K.n.J.j.j.V.Y.Y.C.C.Z.V./ JXJXJXJXJXJX",
"JXJXgXSXbXqXqX*X%X@X+X&X8X9XeX8X,X<X].].h.j.#X9X,X].'.'.'.@X+X>XiXpXrXY.Y.L.'.`.].].].].`.`.].`.[.[.[.=X[.[.Y.Y.[.F.JXJXJXJXJXJX",
"JXJXFXHXOXU.J.J.j.f.k.J.+X,X8X,X,X@X'.m.k.J.,X,X'.m.f.s.l.j.S.S.j.V.z.z.h.h.n.n.n.n.C.n.V.V.n.n.V.V.V.V.V.C.C.Z.U./ JXJXJXJXJXJX",
"JXJXJX[ ~ g.S.T.S.I y R j.$X*X1X&X+XL.g.S.$X1X,X@Xj.W y D v.T.P.U.7.P k l l l l J 8 8 8 8 8 8 S 8 H l l J J 8.z.U JXJXJXJXJXJXJX",
"JXJXJXJX^ |.7X4X.XR 4 q Y J.$X2X1X$XI.S. X1X9X8X'.s.y t I P.7X2X X7.9 > - - - - : - : : : - - - - - - - - < L z.W JXJXJXJXJXJXJX",
"JXJXJXJX( 3XbXbX:XY q q 9 U J.|. XXX|.P.+X&X%X+Xh.T q q d.$XlXkX$Xd.5 ; - - - - - - - - - - - - - - - - - < P z.JXJXJXJXJXJXJXJX",
"JXJXJXJXD.0XbXbX:XU r w ; 9 Y s.S.S.k.k.H.m.m.f.P r w 5 k.9XcXkX:Xd.< : : - : - - - - - - - - - - - > - > < K z.JXJXJXJXJXJXJXJX",
"JXJXJXJXJ.0XnXAX>XR r w e 3 g f z x x v x v V g e e e k m.9XnXvX4Xd.5 - - - - - - - > > > > > > > > > > > < L z.JXJXJXJXJXJXJXJX",
"JXJXJXJXD.0XnXAX:XU g e s s d h n h n d d M n n m e e V H.0XnXbX:Xd.9 ; ; - > > > , > > > , > , > , , , , 1 5.z.JXJXJXJXJXJXJXJX",
"JXJXJXJXP.wXnXAX:Xw.r 3 s n N N o.N B o.N o.N N M n s c H.0XnXZXiXd.5 ; - - > > , , u u u u , u 1 u , u , 1 4.x.JXJXJXJXJXJXJXJX",
"JXJXJXJXP.wXnXZX:X7.5 w s h o.$.+.=.=.O.=.&.$.$.o.M n c H.0XMXZX4Xs.9 ; > > > , , u p d u i i u i i u u p p 4.x.JXJXJXJXJXJXJXJX",
"JXJXJXJXP.kXMXZX:X7.r ; s N } &.-.-.-.-.-.-.-.:.O.o.N j m.0XmXZX4Xs.9 ; - > > , u a a i i a i i i a u a p p 4.C.JXJXJXJXJXJXJXJX",
"JXJXJXJX|.kXMXZX:XY r ; 3 h } *.*.*.-. .-.=.-.-.&.$.o.b h.6XmXvX4Xs.9 ; > > > , p i i a i i i i i i a u u p 4.x.JXJXJXJXJXJXJXJX",
"JXJXJXJXP.kXMXZXpXU 4 ; > h } *.*. .-.-. . .-. .=.=.o.B r.7XvXAX5Xf.9 2 > > , , d a i i a i a i a a i i p a 9.x.JXJXJXJXJXJXJXJX",
"JXJXJXJX|.zXnXmX:X7.4 q 2 u o.&.-.-. .=.-. . .;. .O.O.B 4.=XhXbXpXs.9 ; 2 > > u u d a h a i i i i a a u p a 9.~.JXJXJXJXJXJXJXJX",
"JXJXJXJX|.zXcXmX4XW r q 2 3 d o.{ O.O.| | | | +.} O.o.j K U.4XhX>Xf.5 > > , , , u u a i a a d a i i a i u a 9.C.JXJXJXJXJXJXJXJX",
"JXJXJXJXXXxXcXmX4Xd.9 4 > 1 p a j j { { { { { { { j j j b V.[.-X[.e.z 1 1 1 1 p a a a a a a a a a a a i a a r.C.JXJXJXJXJXJXJXJX",
"JXJXJXJX|.xXcXmXqXn.w.R R K R K K 0.0.9.9.9.9.9.9.9.9.r.c.C.Y.Y.Y.C.r.W R L K R L K K 5.K K K K 5.v 5.5.5.9.N.Z.JXJXJXJXJXJXJXJX",
"JXJXJXJXS.7X3X2X.Xb.Q.!.v.E.E.!.!.E.E.E.E.!.E.!.!.E.E.E.Q.~.~.C.~.~.!.l.E.l.E.l.E.E.E.E.W.W.W.W.W.l.W.W.c.Q.~.~.JXJXJXJXJXJXJXJX",
"JXJXJXJXJXD.|.D.) / ~ ` ~ ~ ] ` ` ' _ _ _ _ _ _ _ _ ` ` E ~ ~ ` ~ ~ ^ ^ ^ ^ ` E ` ` ` ` ` ' ` ` ` ` ` ` Q / ` JXJXJXJXJXJXJXJXJX",
"JXJXJXJXJXJXJXJXJXJXJXJXJXJXJXJXJXJXJXJXJXJXJXJXJXJXJXJXJXJXJXJXJXJXJXJXJXJXJXJXJXJXJXJXJXJXJXJXJXJXJXJXJXJXJXJXJXJXJXJXJXJXJXJX",
"JXJXJXJXJXJXJXJXJXJXJXJXJXJXJXJXJXJXJXJXJXJXJXJXJXJXJXJXJXJXJXJXJXJXJXJXJXJXJXJXJXJXJXJXJXJXJXJXJXJXJXJXJXJXJXJXJXJXJXJXJXJXJXJX",
"JXJXJXJXJXJXJXJXJXJXJXJXJXJXJXJXJXJXJXJXJXJXJXJXJXJXJXJXJXJXJXJXJXJXJXJXJXJXJXJXJXJXJXJXJXJXJXJXJXJXJXJXJXJXJXJXJXJXJXJXJXJXJXJX",
"JXJXJXJXJXJXJXJXJXJXJXJXJXJXJXJXJXJXJXJXJXJXJXJXJXJXJXJXJXJXJXJXJXJXJXJXJXJXJXJXJXJXJXJXJXJXJXJXJXJXJXJXJXJXJXJXJXJXJXJXJXJXJXJX",
"JXJXJXJXJXJXJXJXJXJXJXJXJXJXJXJXJXJXJXJXJXJXJXJXJXJXJXJXJXJXJXJXJXJXJXJXJXJXJXJXJXJXJXJXJXJXJXJXJXJXJXJXJXJXJXJXJXJXJXJXJXJXJXJX",
"JXJXJXJXJXJXJXJXJXJXJXJXJXJXJXJXJXJXJXJXJXJXJXJXJXJXJXJXJXJXJXJXJXJXJXJXJXJXJXJXJXJXJXJXJXJXJXJXJXJXJXJXJXJXJXJXJXJXJXJXJXJXJXJX",
"JXJXJXJXJXJXJXJXJXJXJXJXJXJXJXJXJXJXJXJXJXJXJXJXJXJXJXJXJXJXJXJXJXJXJXJXJXJXJXJXJXJXJXJXJXJXJXJXJXJXJXJXJXJXJXJXJXJXJXJXJXJXJXJX"
};
