/* XPM */
static char *result[] = {
/* columns rows colors chars-per-pixel */
"64 64 215 2 ",
"   c #1C1B19",
".  c #1A1816",
"X  c #241D17",
"o  c #221E1B",
"O  c #291D18",
"+  c #391F16",
"@  c #24221D",
"#  c #2B221D",
"$  c #2A291E",
"%  c #2B2217",
"&  c #3B2316",
"*  c #34241C",
"=  c #3D291F",
"-  c #362818",
";  c #32311F",
":  c #242324",
">  c #2A2522",
",  c #2C2B23",
"<  c #272628",
"1  c #282729",
"2  c #2B2A2C",
"3  c #332B24",
"4  c #3B2D25",
"5  c #312B27",
"6  c #333324",
"7  c #393926",
"8  c #363429",
"9  c #3B342C",
"0  c #3D3D2B",
"q  c #383725",
"w  c #2E2E32",
"e  c #302F33",
"r  c #323236",
"t  c #333339",
"y  c #3A393D",
"u  c #3A3937",
"i  c #2F302C",
"p  c #401F14",
"a  c #422415",
"s  c #4C2213",
"d  c #432B1E",
"f  c #4A2E14",
"g  c #542311",
"h  c #483315",
"j  c #553612",
"k  c #5A3B14",
"l  c #5E3513",
"z  c #5B380F",
"x  c #76290E",
"c  c #692810",
"v  c #7B2D11",
"b  c #683512",
"n  c #733613",
"m  c #78340F",
"M  c #432C20",
"N  c #4A2E21",
"B  c #4E3123",
"V  c #453329",
"C  c #453728",
"Z  c #51392C",
"A  c #5B3B2A",
"S  c #543526",
"D  c #443C33",
"F  c #4A3F35",
"G  c #623F2D",
"H  c #3E402D",
"J  c #724712",
"K  c #764B10",
"L  c #7B6814",
"P  c #44442C",
"I  c #47482F",
"U  c #494A2E",
"Y  c #4D4B26",
"T  c #5A582E",
"R  c #444532",
"E  c #4B4137",
"W  c #4B4D32",
"Q  c #4D4439",
"!  c #494A34",
"~  c #5E4232",
"^  c #51463B",
"/  c #54493D",
"(  c #4F5135",
")  c #515336",
"_  c #535539",
"`  c #56583C",
"'  c #5A5C3E",
"]  c #5B5935",
"[  c #504F29",
"{  c #63412F",
"}  c #644433",
"|  c #6D4935",
" . c #6A4A38",
".. c #714D3A",
"X. c #76523E",
"o. c #696636",
"O. c #736E39",
"+. c #3C3C43",
"@. c #353740",
"#. c #403F44",
"$. c #414146",
"%. c #45454D",
"&. c #49484F",
"*. c #5E5144",
"=. c #5C5E41",
"-. c #575445",
";. c #474750",
":. c #4A4A53",
">. c #4F4F58",
",. c #484750",
"<. c #52525B",
"1. c #505057",
"2. c #625446",
"3. c #6A5C4C",
"4. c #715442",
"5. c #5E6041",
"6. c #626444",
"7. c #6A6C4A",
"8. c #676848",
"9. c #6F704D",
"0. c #72724B",
"q. c #736352",
"w. c #786A55",
"e. c #737453",
"r. c #777854",
"t. c #7A7B56",
"y. c #7C7C59",
"u. c #777658",
"i. c #6F6050",
"p. c #565661",
"a. c #595965",
"s. c #5E5E6A",
"d. c #62626F",
"f. c #656572",
"g. c #6D6D7B",
"h. c #6A6976",
"j. c #70707D",
"k. c #8B3D0D",
"l. c #96360C",
"z. c #8A430E",
"x. c #915011",
"c. c #AD4709",
"v. c #B84208",
"b. c #AD560C",
"n. c #896311",
"m. c #AE6B0E",
"M. c #D75808",
"N. c #C64207",
"B. c #D36C08",
"V. c #C5760B",
"C. c #DA7706",
"Z. c #CB710B",
"A. c #E2750B",
"S. c #8B6C55",
"D. c #836C58",
"F. c #85725D",
"G. c #89715C",
"H. c #89774F",
"J. c #8D7A64",
"K. c #897765",
"L. c #967B63",
"P. c #7F805A",
"I. c #938C3F",
"U. c #D6880A",
"Y. c #E88907",
"T. c #E99709",
"R. c #F29F0A",
"E. c #F2AF09",
"W. c #F5C60A",
"Q. c #83845D",
"!. c #8D8749",
"~. c #878861",
"^. c #9B856C",
"/. c #978169",
"(. c #93936B",
"). c #9C9C72",
"_. c #9C8671",
"`. c #A38268",
"'. c #A48B72",
"]. c #A98E74",
"[. c #AF957A",
"{. c #AD9276",
"}. c #B59A7D",
"|. c #B69679",
" X c #747483",
".X c #797989",
"XX c #7F7F90",
"oX c #828292",
"OX c #878798",
"+X c #A69283",
"@X c #BC9E81",
"#X c #BDA183",
"$X c #9292A6",
"%X c #9D9DB2",
"&X c #A7A7BE",
"*X c #C3A585",
"=X c #CDAD8D",
"-X c #C4A889",
";X c #D5B492",
":X c #DCB995",
">X c #DDBD99",
",X c #D9B693",
"<X c #CEB090",
"1X c #E3BF9A",
"2X c #DCBFA7",
"3X c #E5C29D",
"4X c #EAC49F",
"5X c #EBC6A1",
"6X c #EFCAA3",
"7X c #ECC9A8",
"8X c #EFCFB1",
"9X c #EBD1BE",
"0X c #AEAEC5",
"qX c #B0B0C8",
"wX c None",
/* pixels */
"wXwXwXwXwXwXwXwXwXwXwXwXwXwXwXwXwXwXwXwXwXwXwXwXwXwXwXwXwXwXwXwXwXwXwXwXwXwXwXwXwXwXwXwXwXwXwXwXwXwXwXwXwXwXwXwXwXwXwXwXwXwXwXwX",
"wXwXwXwXwXwXwXwXwXwXwXwXwXwXwXwXwXwXwXwXwXwXwXwXwXwXwXwXwXwXwXwXwXwXwXwXwXwXwXwXwXwXwXwXwXwXwXwXwXwXwXwXwXwXwXwXwXwXwXwXwXwXwXwX",
"wXwXwXwXwXwXwXwXwXwXwXwXwXwXwXwXwXwXwXwXwXwXwXwXwXwXwXwXwXwXwXwXwXwXwXwXwXwXwXwXwXwXwXwXwXwXwXwXwXwXwXwXwXwXwXwXwXwXwXwXwXwXwXwX",
"wXwXwXwXwXwXwXwXwXwXwXwXwXwXwXwXwXwXwXwXwXwXwXwXwXwXwXwXwXwXwXwXwXwXwXwXwXwXwXwXwXwXwXwXwXwXwXwXwXwXwXwXwXwXwXwXwXwXwXwXwXwXwXwX",
"wXwXwXwXwXwXwXwXwXwXwXwXwXwXwXwXwXwXwXwXwXwXwXwXwXwXwXwXwXwXwXwXwXwXwXwXwXwXwXwXwXwXwXwXwXwXwXwXwXwXwXwXwXwXwXwXwXwXwXwXwXwXwXwX",
"wXwXwXwXwXwXwXwXwXwXwXwXwXwXwXwXwXwXwXwXwXwXwXwXwXwXwXwXwXwXwXwXwXwXwXwXwXwXwXwXwX.             wXwXwXwXwXwXwXwXwXwXwXwXwXwXwXwX",
"wXwXwXwXwXwXwXwXwXwXwXwX      .       .           wXwXwXwXwXwXwXwXwXwXwXwX  5 0 -.6.u.y.y.y.t.e.8.-.8 2   wXwXwXwXwXwXwXwXwXwXwX",
"wXwXwXwXwXwXwXwXwX    .     : : : : < < < < : o       wXwXwXwXwXwXwXwX  8 -.y.(.(.(.(.(.(.(.(.(.).).(.u./ ,   wXwXwXwXwXwXwXwXwX",
"wXwXwXwXwXwXwX      : w r r t r r w < < < t @.@.@.y @   wXwXwXwXwX  R e.~.Q.Q.Q.Q.Q.t.r.r.t.y.P.P.Q.~.~.(.(.9.u   wXwXwXwXwXwXwX",
"wXwXwXwXwX      < w r t w r @.@.@.t t t +.$.%.%.:.p.d.y   wXwXwX, -.y.~.Q.Q.Q.t.0.0.9.7.7.7.7.8.7.9.9.r.P.P.~.~._ , wXwXwXwXwXwX",
"wXwXwXwX  : < e r w 2 : < e +.+.+.+.%.;.$.;.;.;.;.:.j.OX:.@   8 t.Q.P.P.r.7.6.6.8.8.7.6.5.` ' ' =.' 5.' 6.7.r.P.~.u.0   wXwXwXwX",
"wXwXwX. : w t r 2 : < t +.@.+.+.$.%.;.%.+.+.;.;.;.;.<.f.OX:.@ -.Q.e.7.7.6.' ' ' 5.5.5.=.' _ ) _ ' 5.5.5.=.' 6.7.e.r.e.H   wXwXwX",
"wXwX    r t r < < @.+.+.+.+.+.%.;.;.%.:.p.;.;.>.>.;.:.<.d.$Xt @ 8.6.=.=.) ) ) ( ) _ ` ` _ ` ` ` _ ( ( ) ` =.5.5.` 5.7.t.u   wXwX",
"wX    w r r < : y ;.+.+.+.+.#.;.%.%.%.;.:.;.;.p.p.;.%.:.s.oX X  ! =._ ) ) ) _ _ _ ) ) ( ` ) _ ) _ ` ` _ _ ` _ ' =.=.=.5.5.6 wXwX",
"wX  2 t t w 2 @.+.+.+.+.+.+.;.;.%.$.%.;.;.;.%.;.;.%.$.;.p.h.$X;.@ R ( ) ) ( ( W ! U U ( ) U I I I W W _ _ ` ` ) ) ` 5.` 5.` : wX",
"    w t e 2 t +.+.+.+.+.+.+.;.;.%.;.%.;.%.;.;.%.;.;.%.%.>.s.oXf.. 7 W ( ( ! I 7.) P H T I.[ P ` o.I P W W W ) _ _ _ _ =.6.6.0   ",
"  o r t w @.+.+.+.+.+.+.+.#.;.;.+.:.;.%.;.;.;.;.$.;.;.;.;.s.XX0Xr @ P !.[ q 6 Y C 3 ; 6 q 6 3 Y T 7 H P H.[ P U ( _ ` _ ` ' W @ ",
"  < t r @.@.+.+.;.+.+.+.+.#.;.;.+.;.%.;.;.+.;.;.+.%.;.;.>.s.XXqX<.  , Y ; @ @ $ 6 8 9 9 9 9 8 4 $ $ $ ; T H H ) U W ` ` _ _ W q ",
". 2 r t t +.+.%.<.+.+.+.#.;.;.+.:.;.;.;.;.+.;.;.;.>.>.;.p.d..X0XoX,   3 E ' D.'.[.}.*X*X*X*X|.|./.F.2.E 6 @ $ O.[ P ( ( _ _ ) I ",
"  w r t t +.@.t +.+.+.+.;.:.;.;.;.;.;.;.;.%.;.;.:.a.s.:.a.d. X0X%Xt 3 q.'.|.,X4X6X4X6X6X6X6X6X6X1X,X=X}.J.*.6 $ , 7 O.o.I ( I I ",
": w t t w +.t t +.+.+.+.%.%.%.%.;.;.p.a.;.;.;.;.;.p.a.:.p.d.h.$XqX1.D #X6X6X6X6X6X6X6X6X6X6X6X6X6X6X6X6X4X:X'./ . X Y T I H H ] ",
": w t t < +.+.+.+.+.+.;.%.%.,.;.;.;.a.s.;.;.%.;.;.;.:.;.:.a.f.g.&Xh.9 *X6X6X6X6X6X6X4X4X6X6X6X6X6X6X4X6X6X6X;X_.$   @ q H o.H o.",
": w t r : +.+.+.+.+.#.;.;.;.;.%.;.%.;.;.;.;.:.>.;.%.;.>.;.$.%.a.OXoX, ].6X6X6X6X6X6X6X6X6X6X6X6X6X6X6X6X6X6X5X#X~.3 @ X H T q ; ",
"< r t w : t +.+.+.+.#.#.#.%.,.%.%.;.;.;.%.;.>.p.;.;.;.;.+.< : :.j.OX2 L.6X6X6X6X6X6X6X6X6X6X6X6X6X6X6X6X6X6X6X3X}.^ % X @ $ $ ; ",
"2 t t r   t +.+.+.+.@.: . o 1 t +.;.;.;.;.%.;.;.%.;.%.%.    +.:.d..X< F.6X6X6X6X6X6X6X6X6X6X6X6X6X6X6X6X6X6X7X6X=X3.= d % O     ",
"2 r t t : r +.+.+.@.@.y 1 :     < @.#.;.%.;.;.%.;.%.%.e o r y w <.f.< K.6X4X4X6X6X6X6X6X6X6X6X6X4X6X6X6X6X6X6X7X>X*.d N d d * O ",
"< @.w t : r ;.+.+.y +.e 1 e e 2 :   w +.;.%.%.;.%.;.+.: r 2 * % >.g.> /.4X6X6X6X6X6X6X6X6X6X6X6X6X4X6X4X6X6X6X6X1Xi.3 d B B N * ",
"< r w r < w +.+.+.+.+.1 p + o > 2 <   w %.;.;.%.;.%.e t : a l.h <.g.@  .,X6X6X4X6X6X4X6X6X1X6X6X6X6X6X4X6X6X6X6X>XJ.@ 4 B B N * ",
"< t t r < : @.+.+.+.#.2 v M.b.z.s o < < r %.%.;.>.%.w 2 c v.U.k a.p.5 4.d 4.4X6X6X6X6X6X6X4X6X6X6X6X6X6X4X*XS.S.*X}.i.O B B B * ",
": w t w w : @.+.+.+.+.e n A.C.B.b.k.+ @ y %.;.%.a.&.e o v.C.V.- s.$.*.,X`.4.|.4X6X6X6X6X6X6X6X6X6X6X6X:XS.} ~  .D.[./.5 N B N % ",
"  w @.@.@.2 < @.+.+.+.t = Z.R.T.A.B.c.g 2 #.;.;.:.#.w s B.U.J : s.r D.5X6X1XS.L.5X5X6X6X6X6X4X3X6X6X*XX.S.}.,X3X;X;X[.D M B M O ",
"  2 w r w w : w +.+.+.#.  n T.W.R.Y.Z.c.O r ;.;.%.%.1 x V.x.@ t <.< Z w.].=X1XL.=X6X6X6X6X4X6X6X6X3XS.`.5X6X6X6X6X6X@XD = N =   ",
". : r r r r e : e +.+.+.t : n B.R.T.U.V.v O %.;.;.;.> a o < +.;.:., _.J.Q : 8 2.q.}.6X6X6X4X6X4X|.L.|.|./.K.q.i.K.-X-X*.% = %   ",
".   w r @.e @.@.: t +.+.#.@.: a b k h d & o +.;.%.#.: : r +.$.>.$.9 ;X7X-Xq.8 ^ '.1X6X6X6X4X6X6XL./ C 9 E ! 3.J.#X>X-XF.@ %   wX",
"wX  : @.w r @.r r < +.+.#.#.+.@.r r t t t w +.+.t +.+.+.%.%.+.<.2 E 5X6X;X@X;X3X6X6X5X6X6X4X6X6X5X#Xq.-.#X5X6X6X6X6X}.2.@ 9 . wX",
"wXwX  < w @.w w t 1 t +.+.;.;.;.%.$.%.$.$.$.%.%.%.;.%.%.@.$.1 $.  9 <X=X6X6X4X4X6X6X6X6X6X4X4X6X5X6X5X=X#X6X3X5X6X<X/   . . wXwX",
"wXwX    e @.e w w t < @.@.+.;.#.t ;.+.+.;.+.+.%.w w +.1   :   2 . . @ @ <X5X6X6X6X6X6X6X;X5X6X6X7X6X6X3X4X6X6X>Xq.3 V 3 wXwXwXwX",
"wXwXwX  : e r r r @.1 2 t @.#.+.  t < : +.< < +.    1 o w :   : @ $.:   3.'.#X#X#X].F.*.Q *.^.#X;X1X4X3X>X<XJ.^ 3 S 4 o wXwXwXwX",
"wXwXwXwX    2 @.@.r e : +.+.+.+..   .     o :   : w : 2 %.$.      $.e o Z 4 9 4 4 V E ~ } ~ V = D D Q Q ! 9 V } G B o wXwXwXwXwX",
"wXwXwXwXwX    1 r t r 1 @.+.+.+.  . : r   < w   t +.e +.f.<.      +.t    ...} | | | | ~ ~ { | { } ~ Z Z ~ } { { B *   wXwXwXwXwX",
"wXwXwXwXwXwX    : 2 t @.t @.+.+.2   r $.@.@.;.p.%.%.>.g..Xw       w w : 4 A A A A G | ..A A { X.X.| | G A A B d o o wXwXwXwXwXwX",
"wXwXwXwXwXwXwX      : 2 e t @.@.t < 2 +.%.%.:.p.;.>.h.g.2 o r 1   o <   O 4 - M S A A A A S A { { A A S B d * o   wXwXwXwXwXwXwX",
"wXwXwXwXwXwXwXwX.         : 2 r t w @ r +.+.+.%.$.$.r @ < t y r       @ @   o @ 4 M N N B N B B d d = @ @     wXwXwXwXwXwXwXwXwX",
"wXwXwXwXwXwXwXwX  .             < < o o r r w 2 :     o t t w <     :     o 5   X O * % d d d - o O O   0 @ wXwXwXwXwXwXwXwXwXwX",
"wXwXwXwXwXwXwXwX      2 e : w e o . . .         & k.m.% < o         8 , @ @ u u r 2 r @ % o o : t r @ . _ H   wXwXwXwXwXwXwXwXwX",
"wXwXwXwXwXwXwX      : t #.e w >.o g x x n z.b.J c N.m.-     wXwX  8 I @ H , 1 u $.#.$.< @ t r u u r @ @ R ( @ wXwXwXwXwXwXwXwXwX",
"wXwXwXwXwXwXwX      2 t ,.,.1 ,.,.> s x l.c.b.h % a d @ wXwXwX8 -.9 , @ ( ( , : u D w @ @ u u r : $ H H , ( 6   wXwXwXwXwXwXwXwX",
"wXwXwXwXwXwXwX  o   e y ,.>.2 #.:.:.o   o o : w @ w 1.$.wXwX> K.9X+X2 @ I ) ( 6 @ r : 6 o i w : $ P ) P @ 8 $   wXwXwXwXwXwXwXwX",
"wXwXwXwXwXwXwX  : : t +.a.g.w r $.f.u 2 <.>. X X: y 1.<.wXwX8 [.8X2XD 3 @ $ 0 I :   6 W 6 o   8 _ ( P 6   -.+X<XZ wXwXwXwXwXwXwX",
"wXwXwXwXwXwXwXwX  o @.+.s.oX2 2 $.a.+.: ;.+.+.y   : 2 y   wX: F.6X=X, * V V 3 3 @ o 8 7 7 : @ 6 6 , , 3 o +X8X1X3.  wXwXwXwXwXwX",
"wXwXwXwXwXwXwXwX. : < r p.f.o : y :.t < $.t w t   < 1 : . wXwX> ^./.@ @ o @ * 4 M 9 4 3 3 3 4 4 M 4 3 #   _.5X1X^ wXwXwXwXwXwXwX",
"wXwXwXwXwXwXwXwX  :   .         t +.2 : +.$.+.+.    u y   wXwXwX@ 5 $ 0 8 $   . .   o o # # o O o O 3 4 . J.,X].@ wXwXwXwXwXwXwX",
"wXwXwXwXwXwXwXwX  w o * l J f       : 2 r   : +.#.o $.u   wXwXwXwXwX, 0 P U I 0 6 @ o o @ , 3 4 4 4 $ O   9 D o wXwXwXwXwXwXwXwX",
"wXwXwXwXwXwXwXwX  2 : a C.T.n.: r   2 d.1.$ $ H +.  2 @ - . wXwXwXwX$ q P P W ( W ! H , 7 6 8 6 6 , 6 $ o   wXwXwXwXwXwXwXwXwXwX",
"wXwXwXwXwXwXwXwX  : 2   B.E.L : > j 4 $.- m.m.; o b   a - wXwXwXwXwX@ $ $ 6 0 P P P 0 $ R I I R P P 0 q   wXwXwXwXwXwXwXwXwXwXwX",
"wXwXwXwXwXwXwXwXwX  :   c.V.-   s c.j   x M.U.K O b   O X wXwXwXwXwX. .     @ $ 6 6 $   , 6 7 8 6 6 6 $   wXwXwXwXwXwXwXwXwXwXwX",
"wXwXwXwXwXwXwXwXwXwXwX    .   . + & -   O X % %   2 <   wXwXwXwXwXwXwX    2 r r     .                   wXwXwXwXwXwXwXwXwXwXwXwX",
"wXwXwXwXwXwXwXwXwXwXwXwX  j j   2 +.r . . - K j   2 :.  wXwXwXwXwXwXwX. : t @.@.w : wXwX  : @.@.t :   wXwXwXwXwXwXwXwXwXwXwXwXwX",
"wXwXwXwXwXwXwXwXwXwXwXwX. z h   < <.$.  . - h @ t 1 +.    wXwXwXwXwXwX    : : : : : wXwX: < w w w :   wXwXwXwXwXwXwXwXwXwXwXwXwX",
"wXwXwXwXwXwXwXwXwXwXwXwX  % < t : 2 w   .   % w %.+.:     wXwXwXwXwXwXwX.     .     wXwX.       :     wXwXwXwXwXwXwXwXwXwXwXwXwX",
"wXwXwXwXwXwXwXwXwXwXwXwX.   < 2 r : . . wX    : : :     wXwXwXwXwXwXwXwXwXwXwXwXwXwXwXwXwXwXwXwXwXwXwXwXwXwXwXwXwXwXwXwXwXwXwXwX",
"wXwXwXwXwXwXwXwXwXwXwXwXwXwX        .   wXwX  wXwXwXwXwXwXwXwXwXwXwXwXwXwXwXwXwXwXwXwXwXwXwXwXwXwXwXwXwXwXwXwXwXwXwXwXwXwXwXwXwX",
"wXwXwXwXwXwXwXwXwXwXwXwXwXwXwXwXwXwXwXwXwXwXwXwXwXwXwXwXwXwXwXwXwXwXwXwXwXwXwXwXwXwXwXwXwXwXwXwXwXwXwXwXwXwXwXwXwXwXwXwXwXwXwXwX",
"wXwXwXwXwXwXwXwXwXwXwXwXwXwXwXwXwXwXwXwXwXwXwXwXwXwXwXwXwXwXwXwXwXwXwXwXwXwXwXwXwXwXwXwXwXwXwXwXwXwXwXwXwXwXwXwXwXwXwXwXwXwXwXwX"
};
