/* XPM */
static char *result[] = {
/* columns rows colors chars-per-pixel */
"64 64 219 2 ",
"   c #1C1B19",
".  c #1A1816",
"X  c #231D17",
"o  c #221E1C",
"O  c #2A1F1A",
"+  c #2F1D16",
"@  c #341E16",
"#  c #391F16",
"$  c #2C2317",
"%  c #24221D",
"&  c #2C231B",
"*  c #2B2B1F",
"=  c #322515",
"-  c #3B2A15",
";  c #34231B",
":  c #3C281C",
">  c #3B2217",
",  c #3D3016",
"<  c #201F20",
"1  c #242323",
"2  c #2B2521",
"3  c #2D2C22",
"4  c #272628",
"5  c #282729",
"6  c #2A2A2C",
"7  c #332C24",
"8  c #382C25",
"9  c #333324",
"0  c #34322C",
"q  c #3A352E",
"w  c #3C3C2A",
"e  c #3A3A27",
"r  c #2E2E32",
"t  c #302F32",
"y  c #323235",
"u  c #3B3632",
"i  c #3C3A35",
"p  c #343439",
"a  c #3B3A3D",
"s  c #38373C",
"d  c #2F3036",
"f  c #472615",
"g  c #592712",
"h  c #493415",
"j  c #5A3713",
"k  c #5C390F",
"l  c #68270F",
"z  c #653613",
"x  c #6F3310",
"c  c #4A2F21",
"v  c #452C20",
"b  c #4D3123",
"n  c #42322A",
"m  c #453227",
"M  c #553728",
"N  c #433B35",
"B  c #4A3B33",
"V  c #4A3E39",
"C  c #423B37",
"Z  c #553F35",
"A  c #603F2D",
"S  c #5C4515",
"D  c #694412",
"F  c #744612",
"G  c #724D11",
"H  c #43442C",
"J  c #4A4A2E",
"K  c #47492F",
"L  c #514E2A",
"P  c #4B4D33",
"I  c #44433C",
"U  c #4E423B",
"Y  c #4B4C3B",
"T  c #464334",
"R  c #5B4235",
"E  c #52453C",
"W  c #584639",
"Q  c #4E5136",
"!  c #4F513A",
"~  c #545435",
"^  c #53553A",
"/  c #56583B",
"(  c #5A5C3E",
")  c #644534",
"_  c #634A3C",
"`  c #674A3B",
"'  c #704D39",
"]  c #76723A",
"[  c #3C3C43",
"{  c #373840",
"}  c #403F46",
"|  c #424245",
" . c #4B4641",
".. c #4D4C42",
"X. c #45454E",
"o. c #4B4B4B",
"O. c #48474D",
"+. c #534B45",
"@. c #574B42",
"#. c #535343",
"$. c #5C5D43",
"%. c #5D5E49",
"&. c #5A5449",
"*. c #474750",
"=. c #4B4B54",
"-. c #4E4E58",
";. c #53535C",
":. c #535251",
">. c #654D41",
",. c #6B5548",
"<. c #725444",
"1. c #745A4A",
"2. c #795B4B",
"3. c #735749",
"4. c #625B52",
"5. c #695F55",
"6. c #5F6142",
"7. c #5F604B",
"8. c #626444",
"9. c #61634C",
"0. c #6B6D4B",
"q. c #686947",
"w. c #6E704D",
"e. c #74744E",
"r. c #656650",
"t. c #666851",
"y. c #6C6D54",
"u. c #6A6258",
"i. c #756A5A",
"p. c #7A7B55",
"a. c #7C7D5A",
"s. c #757655",
"d. c #6F7159",
"f. c #575762",
"g. c #595964",
"h. c #5D5D69",
"j. c #62626F",
"k. c #656572",
"l. c #696875",
"z. c #6D6D7A",
"x. c #70707F",
"c. c #7C7561",
"v. c #982E0B",
"b. c #88380D",
"n. c #8B300C",
"m. c #B93E08",
"M. c #8E4B0C",
"N. c #B3570A",
"B. c #9B6F0F",
"V. c #AD690D",
"C. c #C35706",
"Z. c #CD5008",
"A. c #CC6A09",
"S. c #DB7A06",
"D. c #CA730C",
"F. c #E76508",
"G. c #846D5D",
"H. c #8C735D",
"J. c #887868",
"K. c #947C66",
"L. c #8A7D73",
"P. c #7F805A",
"I. c #DC8D0A",
"U. c #E58608",
"Y. c #EC9508",
"T. c #F09D09",
"R. c #F48F0E",
"E. c #F1A809",
"W. c #EEC40C",
"Q. c #83835D",
"!. c #858151",
"~. c #8F8A4C",
"^. c #A59E5B",
"/. c #8B8B64",
"(. c #898964",
"). c #96836D",
"_. c #94946C",
"`. c #98976E",
"'. c #968473",
"]. c #9B9B71",
"[. c #A38B73",
"{. c #A58973",
"}. c #AA947E",
"|. c #A1907D",
" X c #AA8E73",
".X c #747483",
"XX c #7B7B8A",
"oX c #838394",
"OX c #8C8C9E",
"+X c #A99682",
"@X c #B39B84",
"#X c #BCA48C",
"$X c #BAA288",
"%X c #9595A9",
"&X c #A2A2B8",
"*X c #C6A98B",
"=X c #C5AC93",
"-X c #CAAF90",
";X c #CDB195",
":X c #D2B69A",
">X c #D3B99D",
",X c #DCBD9D",
"<X c #D3B494",
"1X c #E1BE9B",
"2X c #DFBFA1",
"3X c #E6C39E",
"4X c #DDC1A2",
"5X c #E2C3A3",
"6X c #EAC6A2",
"7X c #EEC9A3",
"8X c #E4C6A8",
"9X c #E7C9AA",
"0X c #E9CAAB",
"qX c #E5C8A7",
"wX c #E9CDB5",
"eX c #B0B0C8",
"rX c #ACACC4",
"tX c #F4D8C3",
"yX c None",
/* pixels */
"yXyXyXyXyXyXyXyXyXyXyXyXyXyXyXyXyXyXyXyXyXyXyXyXyXyXyXyXyXyXyXyXyXyXyXyXyXyXyXyXyXyXyXyXyXyXyXyXyXyXyXyXyXyXyXyXyXyXyXyXyXyXyXyX",
"yXyXyXyXyXyXyXyXyXyXyXyXyXyXyXyXyXyXyXyXyXyXyXyXyXyXyXyXyXyXyXyXyXyXyXyXyXyXyXyXyXyXyXyXyXyXyXyXyXyXyXyXyXyXyXyXyXyXyXyXyXyXyXyX",
"yXyXyXyXyXyXyXyXyXyXyXyXyXyXyXyXyXyXyXyXyXyXyXyXyXyXyXyXyXyXyXyXyXyXyXyXyXyXyXyXyXyXyXyXyXyXyXyXyXyXyXyXyXyXyXyXyXyXyXyXyXyXyXyX",
"yXyXyXyXyXyXyXyXyXyXyXyXyXyXyXyXyXyXyXyXyXyXyXyXyXyXyXyXyXyXyXyXyXyXyXyXyXyXyXyXyXyXyXyXyXyXyXyXyXyXyXyXyXyXyXyXyXyXyXyXyXyXyXyX",
"yXyXyXyXyXyXyXyXyXyXyXyXyXyXyXyXyXyXyXyXyXyXyXyXyXyXyXyXyXyXyXyXyXyXyXyXyXyXyXyXyXyXyXyXyXyXyXyXyXyXyXyXyXyXyXyXyXyXyXyXyXyXyXyX",
"yXyXyXyXyXyXyXyXyXyXyXyXyXyXyXyXyXyXyXyXyXyXyXyXyXyXyXyXyXyXyXyXyXyXyXyXyXyXyXyXyXyXyXyXyXyXyXyXyXyXyXyXyXyXyXyXyXyXyXyXyXyXyXyX",
"yXyXyXyXyXyXyXyXyXyXyXyXyXyX  .   . .         .     yXyXyXyXyXyXyXyXyXyXyXyXyXyXyXyXyXyXyXyXyXyXyXyXyXyXyXyXyXyXyXyXyXyXyXyXyXyX",
"yXyXyXyXyXyXyXyXyXyXyX.         < 1 1 1 1 1 <         .   yXyXyXyXyXyXyXyXyXyX    * 0 i i w 3 %     yXyXyXyXyXyXyXyXyXyXyXyXyXyX",
"yXyXyXyXyXyXyXyXyX      4 5 r p p d p p p p d d d r 5 1 < .   yXyXyXyXyXo w 7.s._.`._._._._.`.]./.a.7.i     yXyXyXyXyXyXyXyXyXyX",
"yXyXyXyXyXyXyX.     4 r y p r r 6 6 p { { d 6 6 5 r { p d 5 <   yXyX* i t.p.Q.Q.(.(.Q.(././././._._.`./.w.Y 2 yXyXyXyXyXyXyXyXyX",
"yXyXyXyXyXyX    5 r p p r 4 4 5 r r { [ [ [ } X.X.X.*.X.*.-.-.d   0 s.(.(.(.P.P.s.e.e.w.0.0.w.e.p.a.P.P././.a.#.% yXyXyXyXyXyXyX",
"yXyXyXyXyXyX  1 p p d 5 < 6 { [ [ [ [ [ [ X.*.*.X.[ *.*.*.*..XXX1 0 c.(.P.p.0.q.q.w.w.w.6.6.6./ ( 6.q.e.p.a.(./.9.3 yXyXyXyXyXyX",
"yXyXyXyXyX  4 p p y 1 4 [ X.X.[ [ [ [ } *.X.X.*.*.[ *.*.*.*.;..XXX6 w y.d.d.y.t.6.6.6.6.6.6.( 6.6.6.6.( ( 8.e.p.(.P.w   yXyXyXyX",
"yXyXyXyX    r d r r 6 { [ [ [ s [ [ *.*.X.X.X.*.f.*.*.*.=.*.=.h.XXj.% Y y.y.t.t.7.7.6.6.^ ! ^ ! ^ ^ ( ( 6.( 8.0.w.p.w.w yXyXyXyX",
"yXyXyXyX  1 p d r r [ [ [ [ [ [ [ [ *.X.X.[ X.*.*.*.*.f.g.*.*.-.h.OX[ % %.7.t.t.y.t.t.t.6.^ ^ ^ / ^ Q ^ ^ / ( 6.( $.w.s.0   yXyX",
"yXyXyXyX. r p p s [ [ [ [ [ [ [ { X.*.*.*.*.X.*.*.*.*.*.-.*.[ *.h.oXl.  Y 7.7.9.7.7.7.7.7.$.Q Q ^ / ^ / ^ ( / / 6.( ( 6.$.2 yXyX",
"yXyXyX  1 r p p { [ } } } } [ [ } *.*.} *.*.*.} *.*.*.*.*.[ [ =.g..XOX6 0 ! ! ,.!.%.#.%.^.0.%.! ~ H K Q ~ ^ / Q Q / 6.( 8.^ X yX",
"yXyXyX  4 p p r [ [ [ =.*.} [ [ } *.*.} *.*.*.=.*.*.} *.*.*.*.*.;.l.oX| 1 T T Y q.Y Y #.G.%.+.%.~.L H K ^ J Q ~ ^ ^ / ( ( 8.3 yX",
"yXyXyX  r p p 5 [ [ p { [ [ [ } *.} *.*.=.} *.} } *.*.} *.[ *.*.f.k.%X.X  0 T I U ..+.#.^ +.Y I Y I e e ] J K J Q ^ ^ ^ / 6.H   ",
"yXyX    p p d 1 [ { p { [ [ [ } *.*.*.*.*.*.*.=.*.*.*.} *.*.*.*.h.k.&X%X. I i.'.}.}.}.@X+X}.L.J.4...y 3 * 9 w ~ J Q ^ ^ Q ! K % ",
"yXyX  < d p r < [ [ [ [ [ [ } *.*.[ =.} *.=.-.*.*.*.*.*.f.h.=.-.j.k.&XrX% &.,X5X5X5X5X5X5X8X8X2X>X=X+XL.E * * ] H J P ~ / ~ Q 9 ",
"yXyX  4 p p r < [ [ [ [ [ } *.*.*.*.*.*.*.f.h.=.} *.*.*.h.j.-.-.j.l.&XeXr W 3X5X5X5X5X5X5X5X0X0X0XqX4X>X@XJ.T & * H ] ~ Q P K w ",
"yXyX  r p d r   [ [ [ [ [ } } *.*.*.*.*.[ =.-.*.*.*.*.*.-.-.*.-.j.j.&XrXa U 3X6X4X5X3X,X5X5XqX0X0X0X0X0X7XqX{.E . % L L H H P Q ",
"yXyX< r d p r 1 [ [ [ [ { [ 5 6 [ [ *.*.=.=.} *.*.=.*.*.*.*.*.*.h.j.oXrX| N ,X7X5X5X5X5X2X5X5X6XqX0X0X0X0X0X-X[.% % $ e ( ~ Q ] ",
"yX. 1 t d d r < =.X.[ s p { 6 X < < { *.X.X.*.*.X.-.-.*.X.*.*.*.{ *.k.%X;.q <X7X6X5X8X5X2X8X5X2X9X9X9X9X0X0X4X$X,.% % * L J 9 * ",
"yX  < p d r r < *.X.[ [ { { p y 5 < < r X.*.X.*.*.*.*.X.*.X.X.t < r h.oX;.0 <X7X7X6X2X3X5X2X8X2X8X9X9X9X0X0X0X2XH.* &   * * * & ",
"yX  < y d p r   [ [ [ [ } p O 7 6 r 1   5 [ X.*.*.*.X.*.*.X.6   6 } g..X:.q ;X3X7X6X3X8X3X5X5X5X1X8X0X0X0X0XwX0X).9 v : & X X . ",
"yX  < r p p r < s [ [ [ } t f n.f < 5 5   6 X.X.X.X.*.X.*.p o t } p *.l.*.i <X5X7X7X5X5X2X5X5X5X2X8X0X0X0X0X9X9X).7 b b c : $ . ",
"yXyX  r p p p 4 r [ [ [ [ y z F.A.N.l $ 4 1 s *.*.X.*.*.s 6 p 5 O X s x.4 E 4X4X8X6X3X2X3X2X5X5X3X3X2X9X9X9X9XwX|.N v b b b ;   ",
"yXyX  6 p d r r 1 s [ [ [ p z R.U.A.N.b.$ 4 y *.X.*.*.*.r t O f v.j X.oX  W ,X3X2X5X6X3X2X2X2X5X2X5X8X9X2X2X2X2X$X5.8 b c b ;   ",
"yXyX  4 p r p p 4 5 [ [ [ [ : N.E.Y.S.A.b.@ s *.*.*.f.X.y < n.Z.Y.D ;.z.& <.K.<X5X3X8X6X5X5X2X5X5X2X2X@XG.,.1.G.#X+Xn v b b &   ",
"yXyX    d p p d p 1 p [ [ [ 1 g T.W.Y.S.C.x 6 X.X.*.-.s t f Z.U.D.- g.O.W -XK. X5X2X3X6X2X5X,X5X5X3X{.,.G.[.@X{.$X#XE 8 b c $ yX",
"yXyXyX  r p d p p p 5 { } } { < x D.T.T.I.C.; p X.*.*.X.< b.U.I.: 6 ;.% 2 &.{.).}.3X5X5X,X3X5X5X1X XK.<XwX9X0XwXwX>X&.8 b v o yX",
"yXyXyX  1 d p d d p 5 t [ } } { 1 : j D F x > 6 *.X.*.[ @ M.G h 4 } X.% i.q 8 W }.,X5X5X,X,X5X<X[.'.#X=X=X#X#X;X4X4X&.8 c f   yX",
"yXyXyXyX  6 p p 6 t t 4 [ [ *.} [ p y d r 3 o 4 X.X.X.s X 1 6 p } ;.t T  XH.}.-X3X4X5X5X5X5X4X$X5.+. .&.%.u.J.|.4X:Xd.u ; O yXyX",
"yXyXyXyX. < r p d r { < [ [ } *.*.X.} X.[ [ p [ [ s s [ 6 s [ } *.g.1 G.7X7X7X7X7X5X5X3X,X,X5X5X@Xi.@.}.2X4X0XwX9X:XJ.s 4 . yXyX",
"yXyXyXyXyX  1 p d p p 6 r p [ } [ p *.X.X.X.X.X.*.X.*.*.X.X.*.X.-.X.w *X3X3X7X7X7X3X5X5X5X4X5X,X0X0X;X@XqX8X0X0X2XL.I | % yXyXyX",
"yXyXyXyXyX    5 p d p d 5 p { } s o y r r [ y s *.s s X.p 6 [ 6 X.y 3 G.*X<X3X3X,X;X#X}.=X,X5X2X8X9X5X2X8XqX4X#Xu.+.V I yXyXyXyX",
"yXyXyXyXyXyX    5 t d p 5 { [ [ p         4     r o < r o 1 <   6 o v m 8 n W J U U U E U &.J.+X=X:X:X:X#X'.4.+.>.+. .yXyXyXyXyX",
"yXyXyXyXyXyXyX.   < 5 d r { [ [ p <     4   1 %   1 1   5 s <   o   7 ) ' ) ` R ) ` 2.2.1.>.V i  .4.5.4.C  .,.,.>.I yXyXyXyXyXyX",
"yXyXyXyXyXyXyXyX. . . < 6 p { [ [ 4 1 s [ d s p 6 s s 6 } ;.y       & c A M ` ` A ` >._ ` <.<.2.<.,.,.2.3.<.,._ C | yXyXyXyXyXyX",
"yXyXyXyXyXyXyX  o . . . < 6 p { [ r < s [ [ X.-.*.} } X.j..X5       O X c m R ` ) ) <.>._ <.2.2.<.2.3.3.>.>.W I a yXyXyXyXyXyXyX",
"yXyXyXyXyXyX  . . . < 6 < < < < r y < 5 [ [ X.=.*.-.h..Xk.s     yX  q 1 X X n U R M R R R W ` ` ) >.W W Z C a  .yXyXyXyXyXyXyXyX",
"yXyXyXyXyXyX  o o < d { p < X .   4 1 o [ [ [ X.X.-.f.*.. . . yX  3 Q o % 6 0 u B B B R R R Z B Z B i s u s :.yXyXyXyXyXyXyXyXyX",
"yXyXyXyXyXyX    < p } } [ < } } X . . .   < 1 1 X X .   o   yXyX* Q 9 % 1 a a I u u q N w N 0 y t u +.&. .yXyXyXyXyXyXyXyXyXyXyX",
"yXyXyXyXyXyX  1 p { } } } < } ;.< g l g f - - $ # x G o   yXyX  w K * w % 6 o.:.o.=.u u i s  .o.i p ..y.a yXyXyXyXyXyXyXyXyXyXyX",
"yXyXyXyXyX    r { } f.h.< < } -.} ; l v.N.Z.A.k x Z.V.  yXyX&.L.u * 9 Q K 9 I o.:.[ y a :.o.o.| p I I r...| yXyXyXyXyXyXyXyXyXyX",
"yXyXyXyX  1 1   { ;..X.X  < p } ;.} o + g M.G : f x D   yX2 *XtX@Xy 3 K ^ ! i a ..i i i o.| i y Y 6.I :.%.I yXyXyXyXyXyXyXyXyXyX",
"yXyXyXyX. r < X < -.XXy M.G 3 [ -.l.1 s { s ;.t 5 a |   yX6 *X0X#Xq 8 & 9 P #.u 0 I #.y i y Y %.7.7.I I [ | | yXyXyXyXyXyXyXyXyX",
"yXyXyXyX< r < # o < r > N.M.1 s *.h.1 [ -.-..Xs p *.l.  yX  K.3X).2 ; m q i i u i ..^ I 0 C #.#.! ..a :.+X#Xi.o.yXyXyXyXyXyXyXyX",
"yXyXyXyX. 5 # N.V.j   + n.b.1 p X.X.1 [ 6 2 4   1 1 }   yXyX3 1.E * % % 0 N T U C N N N i C C C  .@.I (.wX8X'.I yXyXyXyXyXyXyXyX",
"yXyXyXyXo < f A.Y.D.%     = o 5 s p 4 X.=.s a   4 4 y   yXyXyX    3 w q u 0 y 0 u N C V U U V V V s s c.wX2Xi.O.yXyXyXyXyXyXyXyX",
"yXyXyXyXyX  z U.W.G = % r r 4 4           1 4     6 6   yXyXyXyX  * K Q $.#.I i u 0 u i N V E E @.@.y i.*XJ.i yXyXyXyXyXyXyXyXyX",
"yXyXyXyXyXyX$ z S $ F h 5 s [ t . r z.-.  % o.a % X.y   yXyXyXyX  * w P ^ ( / ! Y q q 0 0 9 7 7 7 2 % 7 N 2 yXyXyXyXyXyXyXyXyXyX",
"yXyXyXyXyXyXyXyXyX. - z % 6 6 > D 3 =.8 B.h s 6   6 * $ yXyXyXyX  % % % 9 w H H H 9 H K Q K H K w e X   yXyXyXyXyXyXyXyXyXyXyXyX",
"yXyXyXyXyXyXyXyXyXyX. X X   # n.N.- O b.T.B.  h = < k $ yXyXyXyXyX      X % 3 9 3 % 3 e w w e w w 9 % yXyXyXyXyXyXyXyXyXyXyXyXyX",
"yXyXyXyXyXyXyXyXyXyXyXX h   o   $ % @ l D F $ f > X @   yXyXyXyXyXyX  r { { 4                         yXyXyXyXyXyXyXyXyXyXyXyXyX",
"yXyXyXyXyXyXyXyXyXyXyX= M.= r a -.2 . . - =     1 1   yXyXyXyXyXyXyX< r d p d <   yX  < d p 6 <   yXyXyXyXyXyXyXyXyXyXyXyXyXyXyX",
"yXyXyXyXyXyXyXyXyXyX  - k & % [ h.4   . k - r p 4 p   yXyXyXyXyXyXyX    < < 1 <   yX  r r d d 5 . yXyXyXyXyXyXyXyXyXyXyXyXyXyXyX",
"yXyXyXyXyXyXyXyXyXyX  %   y 6 % s 1 .   X % [ O.y     yXyXyXyXyXyXyXyXyXyXyX    yXyX      < 1 <   yXyXyXyXyXyXyXyXyXyXyXyXyXyXyX",
"yXyXyXyXyXyXyXyXyXyX    < 4 d 4 .     yX    o 1 1     yXyXyXyXyXyXyXyXyXyXyXyXyXyXyXyXyXyXyXyXyXyXyXyXyXyXyXyXyXyXyXyXyXyXyXyXyX",
"yXyXyXyXyXyXyXyXyXyXyXyX            yXyX    yXyXyXyXyXyXyXyXyXyXyXyXyXyXyXyXyXyXyXyXyXyXyXyXyXyXyXyXyXyXyXyXyXyXyXyXyXyXyXyXyXyX",
"yXyXyXyXyXyXyXyXyXyXyXyXyXyXyXyXyXyXyXyXyXyXyXyXyXyXyXyXyXyXyXyXyXyXyXyXyXyXyXyXyXyXyXyXyXyXyXyXyXyXyXyXyXyXyXyXyXyXyXyXyXyXyXyX",
"yXyXyXyXyXyXyXyXyXyXyXyXyXyXyXyXyXyXyXyXyXyXyXyXyXyXyXyXyXyXyXyXyXyXyXyXyXyXyXyXyXyXyXyXyXyXyXyXyXyXyXyXyXyXyXyXyXyXyXyXyXyXyXyX"
};
