/* XPM */
static char *result[] = {
/* columns rows colors chars-per-pixel */
"64 64 215 2 ",
"   c #1C1B1A",
".  c #1B1816",
"X  c #231D17",
"o  c #2B1E17",
"O  c #211E1D",
"+  c #341E16",
"@  c #3A1F15",
"#  c #262017",
"$  c #2C2217",
"%  c #23211D",
"&  c #2A221B",
"*  c #2C2B1F",
"=  c #33221A",
"-  c #392818",
";  c #242323",
":  c #2A2523",
">  c #2B2A22",
",  c #262629",
"<  c #282729",
"1  c #2B2A2C",
"2  c #352C25",
"3  c #333224",
"4  c #3B3C2B",
"5  c #37352B",
"6  c #2E2E32",
"7  c #302F34",
"8  c #313135",
"9  c #393635",
"0  c #3A3A35",
"q  c #343439",
"w  c #38373C",
"e  c #3A393E",
"r  c #2E3037",
"t  c #451F13",
"y  c #452715",
"u  c #582B13",
"i  c #4A3015",
"p  c #533715",
"a  c #5C3C12",
"s  c #5C3514",
"d  c #5A380F",
"f  c #67240E",
"g  c #652810",
"h  c #633510",
"j  c #763C0B",
"k  c #4C2D28",
"l  c #4C3225",
"z  c #413F39",
"x  c #503224",
"c  c #594113",
"v  c #7A470C",
"b  c #634B13",
"n  c #784B14",
"m  c #6A400D",
"M  c #45452C",
"N  c #494A2E",
"B  c #444433",
"V  c #4A4C32",
"C  c #47443D",
"Z  c #4F5035",
"A  c #515336",
"S  c #54563A",
"D  c #56583B",
"F  c #5A5C3E",
"G  c #5A4035",
"H  c #615F38",
"J  c #666337",
"K  c #746F38",
"L  c #3C3C43",
"P  c #353741",
"I  c #403F46",
"U  c #424245",
"Y  c #45454D",
"T  c #4D4D4C",
"R  c #4D4A46",
"E  c #5C5E42",
"W  c #565646",
"Q  c #474750",
"!  c #4B4A53",
"~  c #4F4F59",
"^  c #52525C",
"/  c #575655",
"(  c #514E4B",
")  c #685F59",
"_  c #6C5447",
"`  c #5F6142",
"'  c #636545",
"]  c #6B6D4A",
"[  c #64654C",
"{  c #70724F",
"}  c #6A6955",
"|  c #747553",
" . c #7C7C5A",
".. c #787957",
"X. c #716852",
"o. c #565661",
"O. c #595964",
"+. c #5E5E69",
"@. c #61616E",
"#. c #696864",
"$. c #656572",
"%. c #686875",
"&. c #6E6E7C",
"*. c #797876",
"=. c #756F6B",
"-. c #932C0B",
";. c #98350B",
":. c #88380E",
">. c #A23A0C",
",. c #9C4E0F",
"<. c #A5490B",
"1. c #B45407",
"2. c #97600E",
"3. c #B3780E",
"4. c #AE760D",
"5. c #837F3D",
"6. c #C56306",
"7. c #D67808",
"8. c #CF7009",
"9. c #E57D09",
"0. c #C45307",
"q. c #BE3B40",
"w. c #D83945",
"e. c #CB3A43",
"r. c #9A5A5B",
"t. c #965048",
"y. c #B64649",
"u. c #A75859",
"i. c #B2494C",
"p. c #9C6464",
"a. c #9A6B6A",
"s. c #877C79",
"d. c #967675",
"f. c #96706F",
"g. c #B96B69",
"h. c #B37375",
"j. c #C7424A",
"k. c #7F805B",
"l. c #7F817A",
"z. c #AD9211",
"x. c #D9860A",
"c. c #DF9609",
"v. c #EB9708",
"b. c #EB8D09",
"n. c #F5B40B",
"m. c #F5C30A",
"M. c #83845D",
"N. c #8A8B63",
"B. c #868660",
"V. c #92926A",
"C. c #909067",
"Z. c #888879",
"A. c #9A9971",
"S. c #7C7B8B",
"D. c #727280",
"F. c #8B7F80",
"G. c #BE7E80",
"H. c #848585",
"J. c #8B8584",
"K. c #8B8A87",
"L. c #8C8D8B",
"P. c #878888",
"I. c #928C89",
"U. c #938884",
"Y. c #94928C",
"T. c #99958E",
"R. c #878698",
"E. c #959492",
"W. c #9E9A95",
"Q. c #9C9B99",
"!. c #A29E9A",
"~. c #A19C96",
"^. c #AE8886",
"/. c #9EA09B",
"(. c #A5A19C",
"). c #ABA59E",
"_. c #AFAE95",
"`. c #9999AD",
"'. c #9393A7",
"]. c #9B9BB0",
"[. c #A4A4A3",
"{. c #ABA6A1",
"}. c #ACAAA5",
"|. c #ABACAA",
" X c #A7A8A5",
".X c #B2ACA5",
"XX c #B2AEAA",
"oX c #AEB0AA",
"OX c #B4B2AD",
"+X c #B9B4AD",
"@X c #B4B3B2",
"#X c #B9B5B1",
"$X c #BDB9B5",
"%X c #BCBCBC",
"&X c #A0A0B6",
"*X c #C2BDB6",
"=X c #C2BEBA",
"-X c #C5C2BC",
";X c #CAC5BE",
":X c #B0B0C8",
">X c #AAAAC1",
",X c #BFC1C1",
"<X c #C3C3C2",
"1X c #CBC7C1",
"2X c #CEC9C3",
"3X c #C9CBCB",
"4X c #C7C9C9",
"5X c #D1CBC3",
"6X c #D3CFCA",
"7X c #DCDEDE",
"8X c #D3D5D6",
"9X c #CFD0D1",
"0X c #DEE0E1",
"qX c #E0E2E3",
"wX c None",
/* pixels */
"wXwXwXwXwXwXwXwXwXwXwXwXwXwXwXwXwXwXwXwXwXwXwXwXwXwXwXwXwXwXwXwXwXwXwXwXwXwXwXwXwXwXwXwXwXwXwXwXwXwXwXwXwXwXwXwXwXwXwXwXwXwXwXwX",
"wXwXwXwXwXwXwXwXwXwXwXwXwXwXwXwXwXwXwXwXwXwXwXwXwXwXwXwXwXwXwXwXwXwXwXwXwXwXwXwXwXwXwXwXwXwXwXwXwXwXwXwXwXwXwXwXwXwXwXwXwXwXwXwX",
"wXwXwXwXwXwXwXwXwXwXwXwXwXwXwXwXwXwXwXwXwXwXwXwXwXwXwXwXwXwXwXwXwXwXwXwXwXwXwXwXwXwXwXwXwXwXwXwXwXwXwXwXwXwXwXwXwXwXwXwXwXwXwXwX",
"wXwXwXwXwXwXwXwXwXwXwXwXwXwXwXwXwXwXwXwXwXwXwXwXwXwXwXwXwXwXwXwXwXwXwXwXwXwXwXwXwXwXwXwXwXwXwXwXwXwXwXwXwXwXwXwXwXwXwXwXwXwXwXwX",
"wXwXwXwXwXwXwXwXwXwXwXwXwXwXwXwXwXwXwXwXwXwXwXwXwXwXwXwXwXwXwXwXwXwXwXwXwXwXwXwXwXwXwXwXwXwXwXwXwXwXwXwXwXwXwXwXwXwXwXwXwXwXwXwX",
"wXwXwXwXwXwXwXwXwXwXwXwXwXwXwXwXwXwXwXwXwXwXwXwXwXwXwXwXwXwXwXwXwXwXwXwXwXwXwXwXwXwXwXwXwXwXwXwXwXwXwXwXwXwXwXwXwXwXwXwXwXwXwXwX",
"wXwXwXwXwXwXwXwXwXwXwXwXwXwXwXwXwXwXwXwXwXwXwXwXwXwXwXwXwXwXwXwXwXwXwXwXwXwXwXwXwXwXwXwXwXwXwXwXwXwXwXwXwXwXwXwXwXwXwXwXwXwXwXwX",
"wXwXwXwXwXwXwXwXwXwXwXwXwXwXwXwXwXwXwXwXwXwX.             . wXwXwXwXwXwXwXwXwXwXwXwXwXwXwXwXwXwXwXwXwXwXwXwXwXwXwXwXwXwXwXwXwXwX",
"wXwXwXwXwXwXwXwXwXwXwXwXwXwXwXwXwXwXwXwX      O ; , , ; O           wXwXwXwXwXwXwXwXwXwXwXwXwXwXwXwXwXwXwXwXwXwXwXwXwXwXwXwXwXwX",
"wXwXwXwXwXwXwXwXwXwXwXwXwXwXwXwXwXwXwX    ; 6 r q q r r 6 6 , ;         wXwXwXwXwXwX        wXwXwXwXwXwXwXwXwXwXwXwXwXwXwXwXwXwX",
"wXwXwXwXwXwXwXwXwXwXwXwXwXwXwXwXwXwX    6 q r q r 6 6 6 6 6 6 q 6 6 ;       > 0 W [ | ......} ` C 4 :   wXwXwXwXwXwXwXwXwXwXwXwX",
"wXwXwXwXwXwXwXwXwXwXwXwXwXwXwXwXwX  O 6 q 6 r r , O O O ; ; ; , 6 r q 1     4 | B.N.N.C.C.C.V.V.A.V.{ W :   wXwXwXwXwXwXwXwXwXwX",
"wXwXwXwXwXwXwXwXwXwXwXwXwXwXwXwX  O r q q q 6 < q L L L L L L 8 6 L P w r 1     D ..| | { | ..k.B.N.C.V.A...5   wXwXwXwXwXwXwXwX",
"wXwXwXwXwXwXwXwXwXwXwXwXwXwXwX    < q r q q P L L L L Y L L L L w L L P 6 6 6 O O z ..| ] ] ] ] { | k.M.B.C.B.E : wXwXwXwXwXwXwX",
"wXwXwXwXwXwXwXwXwXwXwXwXwXwX    1 q q r q L L L L L L L L L L L L L L L P r < 6 < O e Z.Z.] F F F D F ' ] | k.B...B   wXwXwXwXwX",
"wXwXwXwXwXwXwXwXwXwXwXwXwXwX  ; q q 8 6 P L L U I L L L L L L L I U Q U Y U w 1 8 <   0 }.T.[ D D F ' F F ` {  .B. .5   wXwXwXwX",
"wXwXwXwXwXwXwXwXwXwXwXwXwX  , q r q 1 < L L q Y ! L L L L L Y Y Y Y Q Y Y Y Y Y Y e 1   } oX}.K.F Z S S F ` ` ` { k.k.B wXwXwXwX",
"wXwXwXwXwXwXwXwXwXwXwXwX    6 q q r ; r L w q P Y L L L L Y Y Q Y Y Y Q Q Y I Y Y Y L 1 1 L.oXoXZ.[ S S A D F ` ` ` { ..> wXwXwX",
"wXwXwXwXwXwXwXwXwXwXwXwX  6 q r 8 6 < L L L L L L L L L I Y Q Q Y Y Y Y ~ ^ I Q Q Y ^ O.; ( oXoXoX/.} Z D D D D F F ` ` ` > wXwX",
"wXwXwXwXwXwXwXwXwXwXwX  ; 6 r q q ; 8 L L L L L L L L Y Y Y Y L Q Y Y Q Q Q Y Y Y Q ~ &.L 8 /.oX+X@XY.` A A D A A F F D ` 4 wXwX",
"wXwXwXwXwXwXwXwXwXwXwX  6 8 7 8 1 ; P L L w L L I Y Y Y Q Y Q Y Y Y Q Y Q Y Q o.^ Q ! $.&.: l. XoXoX|. X] Z N Z D S S ` ' F : wX",
"wXwXwXwXwXwXwXwXwXwX    r q r 8 ; 8 Y L L L L I Y Y Y Y Q Q Y Y Q Q Y Q Y Q Q o.^ Q ! +.R.9 #.@XoX|.|.|._.[ N N Z S S D ` ' 3 wX",
"wXwXwXwXwXwXwXwXwXwX. ; q 8 8 7 ; w Y L L P L w Y Y Y Q Y Q Y Q Y Q Q Y Y Q Q Q Y Y ! o.R.~ ( ;X-X*X@XoX|.E.B J N Z S S S S 4   ",
"wXwXwXwXwXwXwXwXwXwX  , q q r 6 < L L L w q w , ; L Q Y Q Y Y ! Q Y Y Y Q Y Y Q U I Q o.R.O.z .X5X2X;X-X#XoX#.K M N Z S S S M % ",
"wXwXwXwXwXwXwXwXwXwX  6 q r 8 < 7 L L L L L w w   O I Q Y Y ~ @.o.Y Y Q Y Y I Y Q Y ! +.'.$.9 ~.;X5X5X5X2X;X#XT % M M.c Z N N * ",
"wXwXwXwXwXwXwXwXwXwX  6 8 r 8 1 7 L L L I P ; 1 1 O 6 Q Q Y ! O.~ Y Q Y Q Y Y Q Q Y ! @.].+.9 ~.+X2X5X5X5X2X1XQ.O * J N M M M * ",
"wXwXwXwXwXwXwXwXwXwX  8 q 8 q 1 1 L L L I 1 y y 6 <   r Y Q Y Q Q Y Q Q Y ~ ^ Q Q Q o.$.'.Q z )..X*X5X5X5X5X2X6X/ % * 4 H M J 3 ",
"wXwXwXwXwXwXwXwXwXwX  r r q r r < L L L P : >.>.O 6 O O Y Y Q Q Y Q Y Q Q O.@.~ Q ^ @.%.R.w R {.)..X5X5X5X5X2X6XQ.5 & 5 K M 3 * ",
"wXwXwXwXwXwXwXwXwXwX  6 q q q w ; e L L 6 i 9.7.:.o <   q Q Y Q Q ~ ~ Q Y ^ O.! O.@.%.'.`.8 } ).)..X;X5X5X5X5X6X1X=.& % * * *   ",
"wXwXwXwXwXwXwXwXwXwX  6 q q r P ; w L L 6 s v.b.6.g < ; 1 Y Q Y Y ~ ! Y Q Q ! Q @.@.S.>XR.< s.).).).*X5X5X5X5X5X<XQ.l $ # %     ",
"wXwXwXwXwXwXwXwXwXwX  1 r 6 6 q ; q L L 6 u b.v.7.1.@ < ; I Y Q Q Y Y Q Q Q ! ! @.$.`.:X^ > T.).).)..X;X5X5X5X1X%X$X_ x i * . wX",
"wXwXwXwXwXwXwXwXwXwX  ; q 6 6 q ; w L Y 8 - x.m.x.8.f ; < I Q Y Q Q Q Q Q Q Q Q @.$.&X:Xw 9 (.).).).).*X5X5X5X1X%X%Xs.x l - % wX",
"wXwXwXwXwXwXwXwXwXwX    8 q q P ; P L Q L ; ,.n.b.7.;.X P U Y Q Y Q Q Y Y P 6 1 Q +.].`.  / )..X).).).).#X+X$X;X1X%X!.G x 2 X wX",
"wXwXwXwXwXwXwXwXwXwXwX. 6 q q q < P L U Y r i ,.v.x.<.o Y Y Q Y Q Y Y L < %     w +.`.D.; s.).OX.X).Y.T.#X#X#X*X2X<X#XX.x @ wXwX",
"wXwXwXwXwXwXwXwXwXwXwX  ; 6 q 8 < q L I Y Y r ; p 2.1.= U Y Q ! ^ I r 1 6 8 e L ^ %.R.e R W.).).+X(.~.(.;X5X5X;X2X<X%XU.l o wXwX",
"wXwXwXwXwXwXwXwXwXwXwX    6 r 6 6 w e Y Y Y I e , # g = L Y Q ~ ! r r r ; ; , 6 ^ D.&.  =.).).W.+X+X(.(.-X5X5X5X2X<X%X).- O wXwX",
"wXwXwXwXwXwXwXwXwXwXwXwX    6 6 q L L Y < 6 ! Y L q %   Y Y Q Q e 6 + g -.;.g O ! &.6 5 ).{.!.T.E.[.L.J.Q.OX$X;X1X=X%X$X: wXwXwX",
"wXwXwXwXwXwXwXwXwXwXwXwX.   1 q e L L L   ; L L Y L 8 1 Q Y Y Y 6 = ;.1.8.7.p 1 S.~ : #.).{.{.{.(.|..X(.OX;X2X5X-X,X%X%Xz wXwXwX",
"wXwXwXwXwXwXwXwXwX.   .       6 q L L 6         Y Y Y Y L L Y q = :.7.v.x.n 1 %.^ ; ) ~.).).{.{.{.-X;X+X.X;X5X;X$X%X%X%XwXwXwXwX",
"wXwXwXwXwXwXwXwX                6 w L 1         L 6 U Y U q L ; + p n n y % / &.  < *.J.W.).{.{.{.*X;X-X{.;X-X#X|.@X%X4XwXwXwXwX",
"wXwXwXwXwXwXwX    O             ; 6 P 1 ; 6 r       q Y w Y Y P q r 6 1 q ! !   2 _ U.U.K.F.L.E.Q.+X<X=XE.[.|.|.|.:X7XqXwXwXwXwX",
"wXwXwXwXwX  .   O ; < 6 6 1   %   , q , : L w ; 1 ; , ; % P Y L Y U U Y ~ ^ : 8 X._ Z.U.I.U.K.P.J.Q.XXXXE.[.XX|.OX8XqXqXwXwXwXwX",
"wXwXwXwX  ; ; % q q q L L P ; 1 r % ; , < L I I U 1 % <   1 < ; L Y Y o.~ ; R *.f.t.p.d.I.Y.I.K.K.~.XXXX).!. X|.<X7XqXqXwXwXwXwX",
"wXwXwX  ; 6 ,   L L Q Y Q P ; 8 ^ 1   ; < P Y Q ~ Y w L %   ; ; 8 1 e o.  % =.J.p.i.y.y.a.J.I.P.I.Q.XXXX[.(. X@X9X7XqXqXqXwXwXwX",
"wXwXwX  6 ,     Y O.+.O.I O 6 L ^ 2 t     6 L Y ! ! Q Y r q L 6 . % w   ; < =.r.u.u.p.a.g.p.f.a.p.E. X X X X,X4X8X0XqXqXqXwXwXwX",
"wXwXwX  1 = u   I S.S.Q ; O , L o.w f f X O < q Y ! ~ ~ ~ O.O.w   O %   8 U r.q.w.w.w.j.y.i.d.f.r.g.{.|.%X<X3X3X8X0XqXqXwXwXwXwX",
"wXwXwX  + ,.8.a O L , O 1 , O q ! ! = f -.f $   ; r ! %.&.%.L ;     * 4 % R H.d.e.e.y.y.y.q.j.i.u.g.G.:X3X3X3X3X8X0XqXqXwXwXwXwX",
"wXwXwX. :.b.v.3..   . O O - o 6 I ! q   f ;.<.n # .     .         % V D 3 U P.P.u.r.J.J.K.F.a.i.q.g.A.#X3X3X3X3X8XqXqXqXwXwXwXwX",
"wXwXwXwXy 3.z.b . .   X -.6.s ; L ^ ^ % < ; $ - # $ d p % ^ ~ ; O 2 & 4 A #.H.H.P.H.P.J.H.s.J.Z.F.G.g.h.=X3X3X3X7XqX0XqXwXwXwXwX",
"wXwXwXwX  - *   wXwX. X -.1.h ; L ^ Y : ! Q ! $.  , 1 2 < +.F.,   > l 2 z *.H.P.K.H.H.l.H.P.L.P.L.[.W.h.G.{. X[.|.|.[.[.wXwXwXwX",
"wXwXwXwXwXwXwXwXwX  + . o y - : L ! 6 < L q Q +.% q +.@.8 @.R.8 %   O * C / ~ ( ( T R L z e 0 q 9 I q w k z 8 1 O   ; 8 wXwXwXwX",
"wXwXwXwXwXwXwXwXwXX f $ < ;     6 L ; 8 Y <   %   , e T 7 Y w     O % % , 1 1 6 6 q q e L L U U I I I I Y Y e 1 O q *.|.wXwXwXwX",
"wXwXwXwXwXwXwXwXwX. j m ; 8 8 8       ; 8 w Q 8 ; < q 1   % T o.6 ~ ^ ^ o.o.^ ^ ~ ~ ! ! Y Y Y Y I I q 8 ;   % U wXwXwXwXwXwXwXwX",
"wXwXwXwXwXwXwXwXwXwXi v % 7 L 9 % : ^ /   O : ; % ; 1     % ~ ^ : U Y I U I I I U L L L L L P w r 1 ; O   wXwXwXwXwXwXwXwXwXwXwX",
"wXwXwXwXwXwXwXwXwXwX  X X O : y v 3 ^ e c * ~ /   L U . 8 q 8   1 w w q q w q r 8 r 8 6 1 1 ; % O   O   wXwXwXwXwXwXwXwXwXwXwXwX",
"wXwXwXwXwXwXwXwXwXwXwX    . + -.1.- % u v.b 6 <   q ;   8 ! ^ % ; < < < ; ; ; ; ; % O O   O * * . wXwXwXwXwXwXwXwXwXwXwXwXwXwXwX",
"wXwXwXwXwXwXwXwXwXwX. d - ; 1 ; % X y ;.8.4.X c $ O p $           , 1 6 ,       .   % % > 3 3 *   wXwXwXwXwXwXwXwXwXwXwXwXwXwXwX",
"wXwXwXwXwXwXwXwXwXwX# v d & U o.e . . o - i O s o o y   wX        , r r r , wXwX  O , ,       O wXwXwXwXwXwXwXwXwXwXwXwXwXwXwXwX",
"wXwXwXwXwXwXwXwXwXwX# i & ; r +.8   wX  i # < 1   .   wXwXwXwXwXwX    O ;   wXwX; r q P r   wXwXwXwXwXwXwXwXwXwXwXwXwXwXwXwXwXwX",
"wXwXwXwXwXwXwXwXwXwX    q L ; q ;   wX  X ; U Y 8     wXwXwXwXwXwXwXwXwXwX  wX    ; , , 1 % wXwXwXwXwXwXwXwXwXwXwXwXwXwXwXwXwXwX",
"wXwXwXwXwXwXwXwXwXwX.   O < 1 .   . wXwX    % ; ;     wXwXwXwXwXwXwXwXwXwXwXwXwXwXwXwX      wXwXwXwXwXwXwXwXwXwXwXwXwXwXwXwXwXwX",
"wXwXwXwXwXwXwXwXwXwXwXwXwX. .   .   wXwX    wXwXwXwXwXwXwXwXwXwXwXwXwXwXwXwXwXwXwXwXwXwXwXwXwXwXwXwXwXwXwXwXwXwXwXwXwXwXwXwXwXwX",
"wXwXwXwXwXwXwXwXwXwXwXwXwXwXwXwXwXwXwXwXwXwXwXwXwXwXwXwXwXwXwXwXwXwXwXwXwXwXwXwXwXwXwXwXwXwXwXwXwXwXwXwXwXwXwXwXwXwXwXwXwXwXwXwX",
"wXwXwXwXwXwXwXwXwXwXwXwXwXwXwXwXwXwXwXwXwXwXwXwXwXwXwXwXwXwXwXwXwXwXwXwXwXwXwXwXwXwXwXwXwXwXwXwXwXwXwXwXwXwXwXwXwXwXwXwXwXwXwXwX"
};
