/* XPM */
static char *result[] = {
/* columns rows colors chars-per-pixel */
"64 64 217 2 ",
"   c #1C1B19",
".  c #1C1917",
"X  c #241C17",
"o  c #2B1D17",
"O  c #211E1C",
"+  c #2A1F19",
"@  c #381F17",
"#  c #2C2317",
"$  c #23211D",
"%  c #2C221A",
"&  c #2A281C",
"*  c #3B2216",
"=  c #34231B",
"-  c #362818",
";  c #3F3016",
":  c #242323",
">  c #2C2B23",
",  c #272628",
"<  c #282729",
"1  c #2B2A2C",
"2  c #2A2421",
"3  c #322C24",
"4  c #362C29",
"5  c #343424",
"6  c #3D3D2B",
"7  c #3A3829",
"8  c #2E2E32",
"9  c #302F33",
"0  c #323136",
"q  c #3B3434",
"w  c #343439",
"e  c #38373C",
"r  c #39393E",
"t  c #3E3D31",
"y  c #5C230F",
"u  c #442E15",
"i  c #4C2B15",
"p  c #472619",
"a  c #562813",
"s  c #4B3214",
"d  c #4A3615",
"f  c #573713",
"g  c #6C250D",
"h  c #75280F",
"j  c #693712",
"k  c #6F350E",
"l  c #721E21",
"z  c #492D23",
"x  c #542A2B",
"c  c #4E3123",
"v  c #513426",
"b  c #433A35",
"n  c #503336",
"m  c #6A2326",
"M  c #744613",
"N  c #704E13",
"B  c #44452D",
"V  c #4A4A2F",
"C  c #4B4C32",
"Z  c #4C4B3A",
"A  c #464536",
"S  c #515235",
"D  c #535539",
"F  c #56593C",
"G  c #5B5D3F",
"H  c #5B5933",
"J  c #564438",
"K  c #63483B",
"L  c #7A7539",
"P  c #3C3C43",
"I  c #363841",
"U  c #453F45",
"Y  c #753B44",
"T  c #424247",
"R  c #45454D",
"E  c #4B4A4D",
"W  c #494646",
"Q  c #564846",
"!  c #5C5E40",
"~  c #585747",
"^  c #474750",
"/  c #4B4B54",
"(  c #4E4E58",
")  c #484751",
"_  c #52525B",
"`  c #5B5B56",
"'  c #685B56",
"]  c #6E524A",
"[  c #5E6042",
"{  c #636444",
"}  c #6A6C4B",
"|  c #64654A",
" . c #70724F",
".. c #686756",
"X. c #747653",
"o. c #7A7B55",
"O. c #7C7D5A",
"+. c #777759",
"@. c #726756",
"#. c #565661",
"$. c #5A5A65",
"%. c #5E5D69",
"&. c #605F69",
"*. c #62626E",
"=. c #666662",
"-. c #76716D",
";. c #656571",
":. c #6C6C7A",
">. c #696975",
",. c #787776",
"<. c #8C1B1F",
"1. c #882A0C",
"2. c #9D2E0B",
"3. c #9B390C",
"4. c #84350D",
"5. c #A3370A",
"6. c #971F23",
"7. c #A31D23",
"8. c #BD2129",
"9. c #BC353A",
"0. c #9B2A2E",
"q. c #D91B22",
"w. c #C6343A",
"e. c #D02932",
"r. c #EA212E",
"t. c #E82937",
"y. c #D5161B",
"u. c #97430E",
"i. c #8D4C0D",
"p. c #B85B07",
"a. c #A44A0A",
"s. c #996310",
"d. c #A8650E",
"f. c #B5600E",
"g. c #C65406",
"h. c #D47807",
"j. c #CD6E09",
"k. c #E37D07",
"l. c #C43A40",
"z. c #AB5356",
"x. c #9A686A",
"c. c #897D7A",
"v. c #95787A",
"b. c #A46062",
"n. c #8E5B57",
"m. c #7F805A",
"M. c #BF820B",
"N. c #DB8909",
"B. c #E99909",
"V. c #F09609",
"C. c #F1B60A",
"Z. c #82835D",
"A. c #8B8B65",
"S. c #878764",
"D. c #9D846C",
"F. c #94936B",
"G. c #98976F",
"H. c #89877B",
"J. c #A3866D",
"K. c #A6A377",
"L. c #747484",
"P. c #7C7C8C",
"I. c #7F7F90",
"U. c #848484",
"Y. c #898582",
"T. c #8D8886",
"R. c #8B8B8A",
"E. c #918C88",
"W. c #938984",
"Q. c #8F9083",
"!. c #848494",
"~. c #8D8D9F",
"^. c #949592",
"/. c #9B9B95",
"(. c #9B9B9A",
"). c #94968C",
"_. c #A19C97",
"`. c #9EA091",
"'. c #A5A29B",
"]. c #ACA69F",
"[. c #9F9FB5",
"{. c #9595AA",
"}. c #A5A5A2",
"|. c #ABA9A5",
" X c #ACACAA",
".X c #AAA7A3",
"XX c #B2ACA6",
"oX c #B3AEAA",
"OX c #AFB0AB",
"+X c #B2B2AC",
"@X c #BAB5AF",
"#X c #B8B9AE",
"$X c #A3A3B9",
"%X c #B9B5B1",
"&X c #BEBAB4",
"*X c #BDBDBC",
"=X c #B6B6B4",
"-X c #AFB1B1",
";X c #C9A788",
":X c #C2BCB4",
">X c #C2BEBB",
",X c #C5C1BB",
"<X c #CAC5BE",
"1X c #C2C1B0",
"2X c #ADADC5",
"3X c #B0B0C8",
"4X c #CEC9C3",
"5X c #C9CBCB",
"6X c #C5C5C5",
"7X c #D1CBC3",
"8X c #D2CECA",
"9X c #D8D3CC",
"0X c #D7D7D6",
"qX c #DDDFE0",
"wX c #DEE0E1",
"eX c #E0E2E3",
"rX c None",
/* pixels */
"rXrXrXrXrXrXrXrXrXrXrXrXrXrXrXrXrXrXrXrXrXrXrXrXrXrXrXrXrXrXrXrXrXrXrXrXrXrXrXrXrXrXrXrXrXrXrXrXrXrXrXrXrXrXrXrXrXrXrXrXrXrXrXrX",
"rXrXrXrXrXrXrXrXrXrXrXrXrXrXrXrXrXrXrXrXrXrXrXrXrXrXrXrXrXrXrXrXrXrXrXrXrXrXrXrXrXrXrXrXrXrXrXrXrXrXrXrXrXrXrXrXrXrXrXrXrXrXrXrX",
"rXrXrXrXrXrXrXrXrXrXrXrXrXrXrXrXrXrXrXrXrXrXrXrXrXrXrXrXrXrXrXrXrXrXrXrXrXrXrXrXrXrXrXrXrXrXrXrXrXrXrXrXrXrXrXrXrXrXrXrXrXrXrXrX",
"rXrXrXrXrXrXrXrXrXrXrXrXrXrXrXrXrXrXrXrXrXrXrXrXrXrXrXrXrXrXrXrXrXrXrXrXrXrXrXrXrXrXrXrXrXrXrXrXrXrXrXrXrXrXrXrXrXrXrXrXrXrXrXrX",
"rXrXrXrXrXrXrXrXrXrXrXrXrXrXrXrXrXrXrXrXrXrXrXrXrXrXrXrXrXrXrXrXrXrXrXrXrXrXrXrXrXrXrXrXrXrXrXrXrXrXrXrXrXrXrXrXrXrXrXrXrXrXrXrX",
"rXrXrXrXrXrXrXrXrXrXrXrXrXrXrXrXrXrXrXrXrXrXrXrXrXrXrXrXrXrXrXrXrXrXrXrXrXrXrXrXrXrXrXrXrXrXrXrXrXrXrXrXrXrXrXrXrXrXrXrXrXrXrXrX",
"rXrXrXrXrXrXrXrXrXrXrXrXrXrXrXrXrXrXrXrXrXrXrXrXrXrXrXrXrXrXrXrXrXrXrXrXrXrXrXrXrXrXrXrXrXrXrXrXrXrXrXrXrXrXrXrXrXrXrXrXrXrXrXrX",
"rXrXrXrXrXrXrXrXrXrXrXrXrXrXrXrXrXrXrXrXrXrX        .   . rXrXrXrXrXrXrXrXrXrXrXrXrXrXrXrXrXrXrXrXrXrXrXrXrXrXrXrXrXrXrXrXrXrXrX",
"rXrXrXrXrXrXrXrXrXrXrXrXrXrXrXrXrXrXrXrX      : , , : :     . .   rXrXrXrXrXrXrXrXrXrXrXrXrXrXrXrXrXrXrXrXrXrXrXrXrXrXrXrXrXrXrX",
"rXrXrXrXrXrXrXrXrXrXrXrXrXrXrXrXrXrXrX    , 8 0 0 0 0 8 0 8 < :       rXrXrXrXrXrXrXrXrXrXrXrXrXrXrXrXrXrXrXrXrXrXrXrXrXrXrXrXrX",
"rXrXrXrXrXrXrXrXrXrXrXrXrXrXrXrXrXrX  O 8 0 w 0 8 8 8 8 8 8 0 w 8 8 :     rXrXrXrXrXrXrXrXrXrXrXrXrXrXrXrXrXrXrXrXrXrXrXrXrXrXrX",
"rXrXrXrXrXrXrXrXrXrXrXrXrXrXrXrXrX  : 8 w 0 0 8 : :   : : : : < 0 0 0 1   .   rX    1 t A Z A 6 > $ . rXrXrXrXrXrXrXrXrXrXrXrXrX",
"rXrXrXrXrXrXrXrXrXrXrXrXrXrXrXrX. : 8 0 0 0 8 1 I I P ^ P P I 9 0 I I 0 0 ,     Z Z.S.S.S.A.F.F.G.F.+.| 6 O rXrXrXrXrXrXrXrXrXrX",
"rXrXrXrXrXrXrXrXrXrXrXrXrXrXrX. O 8 w w w w r I I P P ^ P P P I I P P w 8 8 <   $ ~ A.A.Z.Z.m.m.S.A.F.G.A.+.A > rXrXrXrXrXrXrXrX",
"rXrXrXrXrXrXrXrXrXrXrXrXrXrX.   9 w 0 0 I I P P I P P P P P P I P P P P w 8 8 8 ,   W Q.H.m. . .}  .o.Z.Z.F.F.S.Z > rXrXrXrXrXrX",
"rXrXrXrXrXrXrXrXrXrXrXrXrX.   1 w 0 0 8 P P P ^ P P P P P P P P R U ^ R ^ P w 8 0 ,   E OX`.+.} { { [ } o.o.Z.A.G...& rXrXrXrXrX",
"rXrXrXrXrXrXrXrXrXrXrXrX    1 0 w I , 8 I I e / ) P P P P P R R R R ^ R ^ R R R T r ,   ,.OXOXH.[ ! ! F F G } X.m.Z.m.6 rXrXrXrX",
"rXrXrXrXrXrXrXrXrXrXrXrX. : 8 w 0 8 , I P e w P P P P P P ^ ^ ^ R R R ^ ^ R P R ^ R P < r `.#XOXH.| D F G [ F [  .o.S.m.3 rXrXrX",
"rXrXrXrXrXrXrXrXrXrXrX.   8 0 0 0 1 8 P P P I P P P P P ^ ^ R ^ ^ R R R _ ( R R ^ ^ #.#.O ..OX+XOX'...F D D F [ G { X.m.+.t rXrX",
"rXrXrXrXrXrXrXrXrXrXrX  , 0 0 w 0 : w I P P P P P P P ^ R ^ R P R R ^ ^ ^ ^ R R ^ ^ _ I.1 P  XOXOXOX/.} F D D D G [ { } o.} : rX",
"rXrXrXrXrXrXrXrXrXrX  . 8 8 1 I , , P P P P P P P ^ ^ ) ^ R ^ R ^ ^ R ^ R ^ / $.( R ( :.&.2 ^.1XOXOXOX}.[ D D F F F G F {  .Z   ",
"rXrXrXrXrXrXrXrXrXrX  : I I 8 0 : e T P P P P U R ^ R P ^ ^ ^ ^ R ^ ^ R ^ R / $.( ^ ( *.L.1 ,.OXOXOX#X#X).[ S D F D F [ [ [ { > ",
"rXrXrXrXrXrXrXrXrXrX  , 0 0 8 1 : P T P I I P I R ^ ^ R R ^ ^ ^ R ^ R ^ R ^ ^ ^ T R / #.~.P ` oXOX X X XOX/.[ C C S S D [ G [ Z ",
"rXrXrXrXrXrXrXrXrXrX  , I 0 I , 8 P P P r w e O 1 P ^ ^ ^ R ^ ) ^ R R R ^ R R ^ T T ( $.{.W E @X,X=XOX X X XK.S V V S F S G { [ ",
"rXrXrXrXrXrXrXrXrXrX$ 8 I 8 0 : w P P P P I I w . < R R ^ R ( ;.( ^ ^ R ^ R T R ^ ^ / *.[.( W ].<X7X<X,X%XoX|.| 6 S V S F D G { ",
"rXrXrXrXrXrXrXrXrX. : 0 0 0 8 , w P P P U e : 9 , . w R R R ( $./ R ^ R R R R ^ ^ ^ ( ;.$X^ W .X@X7X7X4X4X>X:X`.5 L V C D F D S ",
"rXrXrXrXrXrXrXrXrX. : 8 w 0 0 , 0 P P P U , a @ 0 , O e ^ ^ R ^ ^ ^ R ^ ^ ( _ ^ ^ ) $.;.~.e ~ .X].:X7X7X7X4X7X9X` > 5 S H S D S ",
"rXrXrXrXrXrXrXrXrX. : 0 0 0 0 8 9 P P P w 2 5.1.O 8 . : R ^ ^ ^ R ^ ^ R / %.%./ ) #.*.L.I.8 ..}.].@X7X7X7X7X9X9X}.1 $ H L V C C ",
"rXrXrXrXrXrXrXrXrX    0 w 0 w w < I P P 8 f N.h.k $ , . I ^ ^ R R #.( ^ ^ #.#.) %.*.:.$X!.< c.].].].<X7X<X<X9X9X9X-.X $ 6 B B B ",
"rXrXrXrXrXrXrXrXrXrX: 8 w 0 0 I , r P U , M V.k.p.a : : 0 R ^ R ^ ( ) R ^ ^ ) / *.*.!.3X>.& H.].].].:X7X9X<X<X9X0X|.& O 7 H S B ",
"rXrXrXrXrXrXrXrXrXrX  8 0 8 8 w : r P P , j V.V.j.a.o , 1 R R ^ R ^ ^ ^ R ( ) ( *.>.[.2XT q _.].].].XX<X9X<X<X9X0X4XQ # & 7 6 5 ",
"rXrXrXrXrXrXrXrXrXrX  < w 8 8 I : r P T 8 p B.C.k.j.a , < T R ^ R ^ R ^ ^ ^ ^ ) *.:.$X2X: W ].].].].XX:X<X<X9X<X0X8X,.;   # & & ",
"rXrXrXrXrXrXrXrXrXrX. : I 0 0 w 2 I P R r 2 f.C.V.j.4.O I T R / ^ R R R R I 1 , ( ;.[.!.  -.].XX].].|.@X7X7X7X7X9X6X_.n c * + . ",
"rXrXrXrXrXrXrXrXrXrX    8 0 w I 1 I U R P 9 f d.B.h.3.O R R R R ^ ^ R I :     O P *.{.%.1 W.].XXXX].].].7X7X7X7X9X6X@X' v c = . ",
"rXrXrXrXrXrXrXrXrXrXrX  , 0 8 8 1 w I R R U 8 : f d.a.o R R R ( ( I 8 8 8 0 I P #.:.!.1 ..'.].].,XXX].'.%X%X@X:X7X4X*XW.c c 4 . ",
"rXrXrXrXrXrXrXrXrXrXrX    8 I 1 8 I I R ^ ^ P e : # k + T ) ^ _ R 8 w 8 : : , 1 _ L.*.  Y.].].].,X:X_.E.}.@X@XoX<X8X*X].c v = . ",
"rXrXrXrXrXrXrXrXrXrXrXrX. : 8 8 r P P R , w ^ R P w     R R R R I 1 @ h 3.5.a $ _ :., t ].].].].XX:X'.'.:X4X7X7X4X9X*X*Xv c + rX",
"rXrXrXrXrXrXrXrXrXrXrXrX    1 0 I P P I   1 T P T U 9 0 / R ^ R 1 * 3.p.j.h.d w P.U 1 c.].].].'./.+XoX_.oX<X4X7X8X9X*X>XK z X rX",
"rXrXrXrXrXrXrXrXrX. . rX.   O 8 w P P 9     O : ^ R R R P P R 8 * u.h.B.j.M 0 :.R 2 -.].].].].]./.'.|./.^. X%X&X7X8X*X>X' = rXrX",
"rXrXrXrXrXrXrXrX    .     .   $ 0 r P < . . .   I 8 T ^ T w I : o s N M # : $.*.X ~ _.].].].].].].@X%X&X|.<X4X7X7X8X*X*X..X rXrX",
"rXrXrXrXrXrXrX  :   .   .       : 0 r , : 8 8 .   . I T I R R I e w 9 8 r ( T . 2 q P.U.^._.|.].].:X4X4X|.<X7X7X4X4X*X*X,.rXrXrX",
"rXrXrXrXrXrX  .   $ : < 1 , $ , . , w , , P w : 1 O , , $ P ^ P R T T T _ ( : b @.] H.T.T.R./.'.].@X7X7XoX:X4X>X=X=X*X3X XrXrXrX",
"rXrXrXrX. :   , 8 0 w I I 0 $ w 8 O < , < T T P T 1 $ 1 . 8 , $ P U R $.R : E U.W.@.c.T.E.T.T.T.R.'.&X:X|..X X XoX=X5X0XqXrXrXrX",
"rXrXrX. : 8 : : e I T T R 0 : I ( <   : < I R R ( R w P     : : w 1 P _   + -.T.W.c.c.T.E.E.R.E.R./. X X}.].oX+X X6XwXeXeXrXrXrX",
"rXrXrX  8 , .   R #._ _ P   8 P _ 4 * . : 8 P R _ ( R R w e T 8 . : w   > < -.Y.T.Y.Y.T.T.R.R.E.E._.oXoXOX|. X|.*X0XeXeXeXrXrXrX",
"rXrXrX  1 : X . _ L.L.( , : 1 P #.w g y X   8 e T E / ( ( #.$.w .   $   x b ,.v.c.c.v.T.T.T.T.T.T.(.oXoX X X|. X5XwXeXeXrXrXrXrX",
"rXrXrX: + h i.= e *.r   1 1   e / ) @ g 1.a X . $ 0 / >.:.>.P O     5 > 4 Q U.v.l.w.z.x.Y.U.U.Y.P.(..X|. XOX3X6X0XwXeXeXrXrXrXrX",
"rXrXrX  a j.N.N   . . :   % + 1 U ( w X h 5.u.j $       .       . > Z C @ ] v.!.b.l.r.e.x.U.U.U.U.}. X-X>X6X5X5X0XwXeXeXrXrXrXrX",
"rXrXrX. u.C.C.s.    .   h p.f : P _ _ $ , $ - u $ # s s : _ ( $ X $ 6 S b ' x.b.w.e.q.y.q.w.x.Y.R. X X*X5X5X5X5X0XwXeXeXrXrXrXrX",
"rXrXrXrX; N N &   rX. X 5.g.j : P ( / : ^ ^ / *.  : 4 5 , $.!.1 $ 4 - 5 ~ n.w.t.r.r.q.w.9.w.w.b.Y.^.^.^.(./.^.R.R.U.m.,.rXrXrXrX",
"rXrXrXrXrX. rXrXrX  o . o a i : P / 0 , P e E *.  w $.;.8 *.!.w . O 4 4 q Q 6.7.<.l x n q x m 8.0.x 0 0 0 1 1 , O   1 W rXrXrXrX",
"rXrXrXrXrXrXrXrXrX  y X , :     0 P < 1 R <   :   , r / 1 W w     $ : 2 1 1 0 w e I U U U W E Y 8.8.Y / / R w < 1 _ (.0XrXrXrXrX",
"rXrXrXrXrXrXrXrXrX. k j : 0 8 1       : w I R e : 2 w 1   $ E %.1 / #.( #._ _ _ ( / ^ R T R T T T n z 1 O   e ,.rXrXrXrXrXrXrXrX",
"rXrXrXrXrXrXrXrXrX. d i.# 8 P r   $ ( (     , ,   : 1     $ ^ _ 2 P R T P P P P U P P P P r I w 8 , q Z O rXrXrXrXrXrXrXrXrXrXrX",
"rXrXrXrXrXrXrXrXrXrX  # # $ 1 @ M ; $./ f & E `   r T . 8 e w O , w w w 0 0 0 w 0 0 8 8 1 : O O t D.;XJ.  rXrXrXrXrXrXrXrXrXrXrX",
"rXrXrXrXrXrXrXrXrXrXrX. . . o 1.p.u : ; N.N 8 8   w , X 8 ^ _ : : , , , : : : O O   . . . .   . ] ;XD.t rXrXrXrXrXrXrXrXrXrXrXrX",
"rXrXrXrXrXrXrXrXrXrXrX# f   : O - X * 2.h.M.# d ;   s -   . : . : 8 ,         : 7 6 V V B 6 5 O   : : rXrXrXrXrXrXrXrXrXrXrXrXrX",
"rXrXrXrXrXrXrXrXrXrX. s i.# w T ^ $ . o u d $ i * + i X rX  .   1 w I I         $ < 5 5 6 6 5 $ rXrXrXrXrXrXrXrXrXrXrXrXrXrXrXrX",
"rXrXrXrXrXrXrXrXrXrX  u - $ : ^ _   . . u % , 1   .   rXrXrXrX    : , 1 : . rX  : , :   $ $ $   rXrXrXrXrXrXrXrXrXrXrXrXrXrXrXrX",
"rXrXrXrXrXrXrXrXrXrX    < r < , w       X : P ^ 0   . rXrXrXrXrXrXrX      . . : I I I 1   . rXrXrXrXrXrXrXrXrXrXrXrXrXrXrXrXrXrX",
"rXrXrXrXrXrXrXrXrXrX.   $ , 1 $   . rXrX    : : :     rXrXrXrXrXrXrXrXrXrXrX    : , , 8   rXrXrXrXrXrXrXrXrXrXrXrXrXrXrXrXrXrXrX",
"rXrXrXrXrXrXrXrXrXrXrXrXrX  .   .   rXrX. . rXrXrXrXrXrXrXrXrXrXrXrXrXrXrXrXrXrX      :   rXrXrXrXrXrXrXrXrXrXrXrXrXrXrXrXrXrXrX",
"rXrXrXrXrXrXrXrXrXrXrXrXrXrXrXrXrXrXrXrXrXrXrXrXrXrXrXrXrXrXrXrXrXrXrXrXrXrXrXrXrXrXrXrXrXrXrXrXrXrXrXrXrXrXrXrXrXrXrXrXrXrXrXrX",
"rXrXrXrXrXrXrXrXrXrXrXrXrXrXrXrXrXrXrXrXrXrXrXrXrXrXrXrXrXrXrXrXrXrXrXrXrXrXrXrXrXrXrXrXrXrXrXrXrXrXrXrXrXrXrXrXrXrXrXrXrXrXrXrX"
};
