/* XPM */
static char *result[] = {
/* columns rows colors chars-per-pixel */
"64 64 201 2 ",
"   c #1A1916",
".  c #1C1B19",
"X  c #221D17",
"o  c #2B1D17",
"O  c #221E1B",
"+  c #2D1E18",
"@  c #321E16",
"#  c #2B2216",
"$  c #23221D",
"%  c #2B221C",
"&  c #29291E",
"*  c #272017",
"=  c #332316",
"-  c #3C2215",
";  c #34251C",
":  c #3A261D",
">  c #3D291E",
",  c #3A2B16",
"<  c #1F1F20",
"1  c #242323",
"2  c #292622",
"3  c #2C2B23",
"4  c #272729",
"5  c #282729",
"6  c #2A2A2C",
"7  c #332B24",
"8  c #342F2A",
"9  c #382C24",
"0  c #323222",
"q  c #393926",
"w  c #35352A",
"e  c #3C352D",
"r  c #3C3C2B",
"t  c #3F3027",
"y  c #2E2E32",
"u  c #302F33",
"i  c #313135",
"p  c #343439",
"a  c #38373C",
"s  c #39393E",
"d  c #5C370F",
"f  c #422115",
"g  c #4B2313",
"h  c #412C15",
"j  c #412A1F",
"k  c #4C2B14",
"l  c #582412",
"z  c #483414",
"x  c #523413",
"c  c #583813",
"v  c #6E2A0E",
"b  c #78280E",
"n  c #7C320D",
"m  c #682C11",
"M  c #683A11",
"N  c #7F3812",
"B  c #452D20",
"V  c #4B2F22",
"C  c #4E3123",
"Z  c #4A3529",
"A  c #423728",
"S  c #523425",
"D  c #553A2C",
"F  c #5D3D2D",
"G  c #543728",
"H  c #453B31",
"J  c #603F2D",
"K  c #3F402C",
"L  c #724B13",
"P  c #43432C",
"I  c #47482F",
"U  c #48472A",
"Y  c #54532D",
"T  c #434233",
"R  c #4B4C32",
"E  c #4A4835",
"W  c #5C4132",
"Q  c #554A3D",
"!  c #594C3F",
"~  c #4F5135",
"^  c #4F5138",
"/  c #515337",
"(  c #5B5A35",
")  c #535639",
"_  c #56583C",
"`  c #5A5C3E",
"'  c #514E2A",
"]  c #63412F",
"[  c #634433",
"{  c #694632",
"}  c #674837",
"|  c #615E32",
" . c #734F3C",
".. c #69673C",
"X. c #787337",
"o. c #3C3C43",
"O. c #403F45",
"+. c #414145",
"@. c #45454D",
"#. c #49484E",
"$. c #5E5244",
"%. c #5C5E40",
"&. c #565641",
"*. c #474750",
"=. c #4A4A53",
"-. c #4F4F59",
";. c #52525D",
":. c #584D41",
">. c #645648",
",. c #665948",
"<. c #715E4D",
"1. c #5F6142",
"2. c #616344",
"3. c #6C6E4B",
"4. c #65654A",
"5. c #6F714E",
"6. c #71734F",
"7. c #736452",
"8. c #796856",
"9. c #797B56",
"0. c #7D7C5A",
"q. c #757752",
"w. c #575761",
"e. c #5A5A64",
"r. c #5D5D69",
"t. c #62626E",
"y. c #666673",
"u. c #6A6A77",
"i. c #6D6D7B",
"p. c #71717F",
"a. c #8D2C0C",
"s. c #8D350D",
"d. c #AC3609",
"f. c #965B0B",
"g. c #864913",
"h. c #855812",
"j. c #985512",
"k. c #814B0A",
"l. c #A6480B",
"z. c #B24709",
"x. c #A9550B",
"c. c #BC5A07",
"v. c #A25E10",
"b. c #886C12",
"n. c #837D3D",
"m. c #C65706",
"M. c #C66807",
"N. c #D97A06",
"B. c #D76806",
"V. c #83765D",
"C. c #896D58",
"Z. c #8B7862",
"A. c #937C65",
"S. c #CB870C",
"D. c #DA8309",
"F. c #E78508",
"G. c #EC9B09",
"H. c #EB9209",
"J. c #F59C0C",
"K. c #F1AB09",
"L. c #F2B509",
"P. c #83845D",
"I. c #878861",
"U. c #8B8B64",
"Y. c #8B8A66",
"T. c #97886A",
"R. c #93936B",
"E. c #A6856A",
"W. c #A48B72",
"Q. c #AD9478",
"!. c #AA9176",
"~. c #B39376",
"^. c #B3997D",
"/. c #BD9C7D",
"(. c #747483",
"). c #7C7C8C",
"_. c #848495",
"`. c #8C8C9E",
"'. c #BB9E81",
"]. c #BAA081",
"[. c #9A9AAE",
"{. c #9393A6",
"}. c #9E9EB3",
"|. c #8E8EA1",
" X c #A1A1B6",
".X c #C2A586",
"XX c #C6A989",
"oX c #CBAC8B",
"OX c #CCA887",
"+X c #CEB08F",
"@X c #D3B391",
"#X c #DCB996",
"$X c #DCBB97",
"%X c #D1B08F",
"&X c #E0BD99",
"*X c #E5C29D",
"=X c #E9C59F",
"-X c #EBC6A1",
";X c #EFCAA3",
":X c #ACACC3",
">X c None",
/* pixels */
">X>X>X>X>X>X>X>X>X>X>X>X>X>X>X>X>X>X>X>X>X>X>X>X>X>X>X>X>X>X>X>X>X>X>X>X>X>X>X>X>X>X>X>X>X>X>X>X>X>X>X>X>X>X>X>X>X>X>X>X>X>X>X>X",
">X>X>X>X>X>X>X>X>X>X>X>X>X>X>X>X>X>X>X>X>X>X>X>X>X>X>X>X>X>X>X>X>X>X>X>X>X>X>X>X>X>X>X>X>X>X>X>X>X>X>X>X>X>X>X>X>X>X>X>X>X>X>X>X",
">X>X>X>X>X>X>X>X>X>X>X>X>X>X>X>X>X>X>X>X>X>X>X>X>X>X>X>X>X>X>X>X>X>X>X>X>X>X>X>X>X>X>X>X>X>X>X>X>X>X>X>X>X>X>X>X>X>X>X>X>X>X>X>X",
">X>X>X>X>X>X>X>X>X>X>X>X>X>X>X>X>X>X>X>X>X>X>X>X>X>X>X>X>X>X>X>X>X>X>X>X>X>X>X>X>X>X>X>X>X>X>X>X>X>X>X>X>X>X>X>X>X>X>X>X>X>X>X>X",
">X>X>X>X>X>X>X>X>X>X>X>X>X>X>X>X>X>X>X>X>X>X>X>X>X>X>X>X>X>X>X>X>X>X>X>X>X>X>X>X>X>X>X>X>X>X>X>X>X>X>X>X>X>X>X>X>X>X>X>X>X>X>X>X",
">X>X>X>X>X>X>X>X>X>X>X>X>X>X>X>X>X>X>X>X>X>X>X>X>X>X>X>X>X>X>X>X>X>X>X>X>X>X>X>X>X>X>X>X>X>X>X>X>X>X>X>X>X>X>X>X>X>X>X>X>X>X>X>X",
">X>X>X>X>X>X>X>X>X>X>X>X>X>X>X>X>X>X>X>X>X>X>X>X>X>X>X>X>X>X>X>X>X>X>X>X>X>X>X>X>X>X>X>X>X>X>X>X>X>X>X>X>X>X>X>X>X>X>X>X>X>X>X>X",
">X>X>X>X>X>X>X>X>X>X>X>X>X>X>X>X>X>X>X>X. . . . . . . . . . >X>X>X>X>X>X>X>X>X>X>X>X>X>X>X>X>X>X>X>X>X>X>X>X>X>X>X>X>X>X>X>X>X>X",
">X>X>X>X>X>X>X>X>X>X>X>X>X>X>X>X>X>X<   < 4 4 6 4 y 4 4 < < . . . >X>X>X>X>X>X>X>X>X>X>X>X>X>X>X>X>X>X>X>X>X>X>X>X>X>X>X>X>X>X>X",
">X>X>X>X>X>X>X>X>X>X>X>X>X>X>X>X>X. < 4 y i p p o.i i y y y 4 < . . . >X>X>X>X>X>X>X>X>X>X>X>X>X>X>X>X>X>X>X>X>X>X>X>X>X>X>X>X>X",
">X>X>X>X>X>X>X>X>X>X>X>X>X>X>X>X  < y 6 p p y 6 < 4 4 4 4 y y i y 4 . . . >X>X>X>X>X>X>X>X>X>X>X>X>X>X>X>X>X>X>X>X>X>X>X>X>X>X>X",
">X>X>X>X>X>X>X>X>X>X>X>X>X>X>X. . 4 o.o.p 6 < 1 4 y y y 4 < 4 o.p p y 4 . . >X>X. . . . $ . .   >X>X>X>X>X>X>X>X>X>X>X>X>X>X>X>X",
">X>X>X>X>X>X>X>X>X>X>X>X>X>X. . y o.y y y 4 o.o.o.*.o.o.o.o.o.o.o.p 6 y y 1 . . &.9.I.U.R.R.U.I.4.:.3 . >X>X>X>X>X>X>X>X>X>X>X>X",
">X>X>X>X>X>X>X>X>X>X>X>X>X. . 6 y y y o.o.o.o.o.o.o.o.o.o.o.o.o.o.o.p 4 6 y 6 . 3 2.P.I.I.I.U.U.R.U.0.1.r 2 >X>X>X>X>X>X>X>X>X>X",
">X>X>X>X>X>X>X>X>X>X>X>X. . 6 p i o.o.o.o.o.o.o.o.o.o.o.o.o.O.O.@.@.@.@.o.p p y < 1 %.3.5.6.6.q.9.I.R.R.R.0.T $ >X>X>X>X>X>X>X>X",
">X>X>X>X>X>X>X>X>X>X>X>X. < y p i y p o.o.o.@.o.o.o.o.o.o.@.*.*.*.@.@.@.@.@.@.o.y O 7 _ 2.3.5.3.1.3.9.0.Y.R.R.4.O >X>X>X>X>X>X>X",
">X>X>X>X>X>X>X>X>X>X>X. < y p o.6 4 o.o.y o.*.o.o.o.o.O.*.*.*.@.@.*.*.=.o.@.*.@.=.+.. q _ %.,.2.1._ _ 1.5.9.P.R.P.T >X>X>X>X>X>X",
">X>X>X>X>X>X>X>X>X>X. . 6 p p i 1 6 o.o.y o.o.o.o.o.o.@.*.*.*.+.+.@.=.;.o.@.*.@.-.t.i $ ) _ _ _ &.%._ _ ` 2.5.9.U.0.r >X>X>X>X>X",
">X>X>X>X>X>X>X>X>X>X  < i i i y 1 o.o.o.o.o.o.o.o.O.+.@.@.+.*.@.*.@.*.=.@.*.=.@.*.y.u.. K ~ / ) ) ) _ ) ` %.%.2.q.P.0.T >X>X>X>X",
">X>X>X>X>X>X>X>X>X>X< 6 i p p y 6 o.o.o.o.o.o.o.+.@.*.*.*.+.@.*.@.*.*.@.@.;.w.*.*.e._.i 3 P R R ) ) ) _ ) ) %.%.2.6.P.0.$ >X>X>X",
">X>X>X>X>X>X>X>X>X< 1 i y o.y < p o.o.o.o.o.o.@.*.@.*.@.*.*.*.*.*.@.*.@.@.-.;.*.@.;.(.y.O r n.X.P I R ) ) ) ~ ` 1.2.3.q.%.2 >X>X",
">X>X>X>X>X>X>X>X>X. 6 p y y y 1 o.o.o.o.o.o.@.*.@.@.@.*.@.@.*.*.@.*.@.*.@.@.@.O.*.-.p.).. 2 ' ' K R ( I ~ ) _ _ _ ` ` 4.9.T >X>X",
">X>X>X>X>X>X>X>X>X< 4 o.y o.1 6 =.o.o.o.o.o.o.o.*.@.*.@.*.*.*.*.@.@.*.*.@.@.*.+.*.;.(.[.  H :.e & P ( P I I ~ ) ) ) %.%.1.1.$ >X",
">X>X>X>X>X>X>X>X  . y 6 o.6 1 y o.o.o.p o.y < 6 @.@.*.*.@.-.;.*.@.@.*.@.o.@.*.*.*.;.(.}.  7..XW.>.0 & & P ..R R ) ) _ 1._ %.3 >X",
">X>X>X>X>X>X>X>X. . p p o.6 1 o.o.o.o.o.a a 5 . 6 @.*.@.+.;.r.=.*.@.*.@.@.@.*.@.O.e.).[.. C.;X;X#X.X8.e * K P R I ~ _ ) ` 2.P . ",
">X>X>X>X>X>X>X>X. 1 p y i y < o.o.o.o.o.y 1 u 5 . u @.*.*.*.=.*.@.*.@.*.;.-.@.*.-.t.(.).. Z.;X;X;X-X@X!.&.0 & A ( R _ _ _ 1.^ . ",
">X>X>X>X>X>X>X>X. 1 p p y i < o.o.o.o.o.O l 2 i 1 . a *.*.@.*.@.*.*.*.=.t.r.=.-.t.y.[._.. W.-X;X;X;X;X-X%XE.r w ( P ~ ) ) ) I $ ",
">X>X>X>X>X>X>X>X. < i i p p 1 y o.o.o.o.- z.v 1 u . 5 @.@.*.@.*.;.=.@.=.r.w.=.r.t.(.:X).< ^.;X;X;X;X;X;X;X$XA.w & q ( R ) ) R 3 ",
">X>X>X>X>X>X>X>X. < i p p p 6 6 o.o.o.6 g.N.M.s.O 6 < i *.*.@.*.-.=.*.@.*.*.;.t.t.|.:Xt.H OX;X;X;X;X;X;X;X;XoX7.  & X.Y R R I 3 ",
">X>X>X>X>X>X>X>X. < i i i p p 1 o.o.o.4 v.J.N.M.g 1 $ 6 @.*.*.@.*.*.@.*.=.=.;.t.y.}. X#.$.#X;X;X;X;X;X;X;X;X@X!.. * q U P P P & ",
">X>X>X>X>X>X>X>X  . y p y y p 1 o.o.o.4 s.H.H.N.z.f 5 1 *.*.@.*.*.*.@.*.*.@.*.w.y.[.`.4 A.-X;X;X=X;X;X;X;X;X*X'.0 X & P ..P ( $ ",
">X>X>X>X>X>X>X>X>X. y i y y y 1 o.o.o.o.B N.L.F.M.s.5 5 @.*.*.@.*.@.*.@.o.y 4 o.t.|.(.  '.;X;X;X;X;X;X;X;X;X-XoX8 # * 0 U 0 0 . ",
">X>X>X>X>X>X>X>X>X  4 p p y p 1 o.o.@.o.. g.K.G.N.l.% o.*.@.*.*.@.*.s 4 . . 4 a t.{.#.2 *X;X;X;X;X-X&X;X;X;X;X'.% B ; O & & X . ",
">X>X>X>X>X>X>X>X>X  < y p p p 1 o.o.@.O.y ; j.S.N.c.: a @.*.*.=.@.p 6 6 i a o.=.y.`.u ! ;X;X;X;X;X-X;X;X;X;X-XZ.; B B : X .   >X",
">X>X>X>X>X>X>X>X>X>X. 1 y p i 1 p o.@.*.o.p 4 ; L x.f p *.@.;.w.i y 6 3 ; 2 1 s (.y.7 W.;X=X;X;X-X@X/.E.A./.@XZ.% B S V : X >X>X",
">X>X>X>X>X>X>X>X>X>X  < y p y 1 p p +.*.*.@.o.p O - + p *.*.*.o.p 4 f v a.n * o.p.o.Q @X=X;X;X;XOXC.F J D F Q.!.2 B V S : O >X>X",
">X>X>X>X>X>X>X>X>X>X>X. 1 i y y o.o.o.o.6 @.@.+.o.6 1 o.*.*.*.o.O m m.B.G.h.i _.a 2 '.;X;X=X~.E.E.OX-X;X-X@X!.'.e j V S # >X>X>X",
">X>X>X>X>X>X>X>X>X>X>X>X. 4 i p o.o.o.6 . o.o.+.+.o.o.+.@.*.+.5 m c.F.G.v.: e.(.. >.*X;X;X$X<.,.A.~.XX#X-X;X-XXX7 > S V O >X>X>X",
">X>X>X>X>X>X>X>X>X>X>X>X. . 6 p o.o.p < . . . p @.O.@.o.p o.i   k M L x % o.e.5 >.+X;X=X;X;X].$.A :.:.$.8.Q.&XQ.o B V ; . >X>X>X",
">X>X>X>X>X>X>X>X. . >X.   . < y p o.p . . . . 6 4 6 *.*.+.+.p 5 5 4 5 5 o.e.6   >.8.@X;X;X-X;X$X8.%X$X@XXX+X@XA.o j > O >X>X>X>X",
">X>X>X>X>X>X>X. .   . . . . . . y p p . 6 p 4 . . 1 p 6 a @.@.@.@.O.@.@.r.i % W W D e 7.$X;X;X;X-X-X-X-X;X;X%XA.. O . >X>X>X>X>X",
">X>X>X>X>X>X>X. <   . < < . 1 . 1 y p O p o.u 4 y . 1 . 5 o.p i @.@.*.r.a O Z { } { W t Q T.@X-X-X;X-X*X@X^.,.e 8 3 >X>X>X>X>X>X",
">X>X>X>X>X>X. . < 4 y i p 6 6 o.< < 6 < p +.O.o.o.6 y i . 1 1 . s 5 =.o.. 9 F [ J G [ { W Z H Q 4.7.>.Q H t 8 . . >X>X>X>X>X>X>X",
">X>X>X>X. . . 4 i i a o.O.6 6 o.o.. . < i o.@.*.e.=.o.p . 6 p 1 < 1 s . * > S C G G ]  . .{ ] D Z Z D W F S o >X>X>X>X>X>X>X>X>X",
">X>X>X>X< 6 < y a @.*.=.O.< p O.@.+ @   1 p o.+.=.*.*.@.@.*.=.u . < . $ $ $ ; : V C S S J F ] F W G F G ; O >X>X>X>X>X>X>X>X>X>X",
">X>X>X. y 6 . 1 #.e.e.w.6 O u o.-.7 b g O . y p +.=.r.u.i.(.;.1 . . $ a s y 3 % : j B 9 j V B B B B : % o >X>X>X>X>X>X>X>X>X>X>X",
">X>X>XO i $ O . ;._.u.y 4 1 1 O.;.O.f b a.l @ O $ 5 a +.o.p $ . . w 3 y K T 6 . 2 % 2 4 + o 2 $ O O . >X>X>X>X>X>X>X>X>X>X>X>X>X",
">X>X>X. 4 f v . a t.6 < < O O a O.-.5 o b d.x.g.O * o O . w $ 4 . R K < o.y < 1 +.a s T 5 . r r   >X>X>X>X>X>X>X>X>X>X>X>X>X>X>X",
">X>X>X. * l.F.b..     O m x.h 6 O.r.@.< 5 < # # . # M z 6 (.-.. % & q $ < 2 w 1 s p 6 5 . $ H R   >X>X>X>X>X>X.   . . . >X>X>X>X",
">X>X>X. m D.K.S.O .   o d.m.x 2 o.w.+.2 =.=.;.u.< 6 a p y i.).. $ t 7 $ 3 K q < & $ . . 3 & & 3 . O 1 4 5 5 5 1 .     . >X>X>X>X",
">X>X>X>X= h.b.z   . X   - s.k 4 o.=.6 5 o.i *.;.1 p e.r.s y.t.. . . & $ 1 4 6 4 6 u i s s O.@.@.*.*.@.+.o.a 5 1 . >X>X>X>X>X>X>X",
">X>X>X>X. . . . >X. g   1 . X $ p @.5 y @.5 . . . < p K 5 u 2 $ 6 s o.@.#.=.-.;.e.;.;.;.=.=.*.@.+.+.p y < . . >X>X>X>X>X>X>X>X>X",
">X>X>X>X>X>X>X>X>X. n x 4 i 6 4 . . . 1 i s @.p 1 4 i 5 . 2 y.t.u #.@.@.@.+.O.O.+.O.o.o.o.a a p 6 1 . . >X>X>X>X>X>X>X>X>X>X>X>X",
">X>X>X>X>X>X>X>X>X  d k.. i o.s . $ #.;.. . 3 6 . 1 6 . $ 1 s p 6 o.o.o.o.o.o.o.s s p p u y 4 1 8 O >X>X>X>X>X>X>X>X>X>X>X>X>X>X",
">X>X>X>X>X>X>X>X>X>XX h = 1 y % L & r.-.c , #.e.. p +.. y +.+.. 6 i y y 6 6 4 1 1 1 1 < O 2 ,.V.E $ >X>X>X>X>X>X>X>X>X>X>X>X>X>X",
">X>X>X>X>X>X>X>X>X>X>X  . . o b c.z 1 = H.L 5 5 . y 2 # 5 o.a . . . . . . . $ & & 0 0 3 O 2 ! H   >X>X>X>X>X>X>X>X>X>X>X>X>X>X>X",
">X>X>X>X>X>X>X>X>X>X>X. d X O X h # = a.M.S., h c . d , . . < < y 6 . >X.   $ $ 0 r r 0   >X>X>X>X>X>X>X>X>X>X>X>X>X>X>X>X>X>X>X",
">X>X>X>X>X>X>X>X>X>X>X# f., 6 s @.4 X o h h o @ - . f . >X. . . < < . >X. 4 y 5 . . $ & . >X>X>X>X>X>X>X>X>X>X>X>X>X>X>X>X>X>X>X",
">X>X>X>X>X>X>X>X>X>X>X= x * $ p t.6 .   z # 6 u . . . >X>X>X>X>X>X>X>X. < 6 i o.y . . >X>X>X>X>X>X>X>X>X>X>X>X>X>X>X>X>X>X>X>X>X",
">X>X>X>X>X>X>X>X>X>X. . 1 i i O s 1   . X 1 O.#.i . . >X>X>X>X>X>X>X>X>X. . < 1 4 . >X>X>X>X>X>X>X>X>X>X>X>X>X>X>X>X>X>X>X>X>X>X",
">X>X>X>X>X>X>X>X>X>X>X. . 4 6 5 . .   >X. . $ 1 4 . . >X>X>X>X>X>X>X>X>X>X>X>X. .   >X>X>X>X>X>X>X>X>X>X>X>X>X>X>X>X>X>X>X>X>X>X",
">X>X>X>X>X>X>X>X>X>X>X>X>X. . .   . >X>X. . >X>X>X>X>X>X>X>X>X>X>X>X>X>X>X>X>X>X>X>X>X>X>X>X>X>X>X>X>X>X>X>X>X>X>X>X>X>X>X>X>X>X",
">X>X>X>X>X>X>X>X>X>X>X>X>X>X>X>X>X>X>X>X>X>X>X>X>X>X>X>X>X>X>X>X>X>X>X>X>X>X>X>X>X>X>X>X>X>X>X>X>X>X>X>X>X>X>X>X>X>X>X>X>X>X>X>X",
">X>X>X>X>X>X>X>X>X>X>X>X>X>X>X>X>X>X>X>X>X>X>X>X>X>X>X>X>X>X>X>X>X>X>X>X>X>X>X>X>X>X>X>X>X>X>X>X>X>X>X>X>X>X>X>X>X>X>X>X>X>X>X>X"
};
