/* XPM */
static char *result[] = {
/* columns rows colors chars-per-pixel */
"64 64 204 2 ",
"   c #1C1B19",
".  c #1A1816",
"X  c #231D17",
"o  c #2C1E17",
"O  c #221E1B",
"+  c #2A1F1A",
"@  c #331E15",
"#  c #381F15",
"$  c #2C2216",
"%  c #24221D",
"&  c #2C221C",
"*  c #2A2A1F",
"=  c #272017",
"-  c #322516",
";  c #3D2216",
":  c #3C2B15",
">  c #33241C",
",  c #3A261D",
"<  c #3D2A1E",
"1  c #352A16",
"2  c #242324",
"3  c #2A2622",
"4  c #2C2B23",
"5  c #272728",
"6  c #282729",
"7  c #2A2A2C",
"8  c #322721",
"9  c #332B24",
"0  c #3A2C25",
"q  c #342E28",
"w  c #343323",
"e  c #3A3A26",
"r  c #35322A",
"t  c #3B342B",
"y  c #3C3C2A",
"u  c #383622",
"i  c #2E2E32",
"p  c #302F32",
"a  c #323135",
"s  c #3A3633",
"d  c #343439",
"f  c #38373C",
"g  c #39393E",
"h  c #3E3A33",
"j  c #5E3A0F",
"k  c #442315",
"l  c #432E14",
"z  c #43291B",
"x  c #572812",
"c  c #473215",
"v  c #583612",
"b  c #6E280E",
"n  c #78280E",
"m  c #662811",
"M  c #643A13",
"N  c #743410",
"B  c #462D21",
"V  c #4B2F21",
"C  c #443126",
"Z  c #4D3224",
"A  c #46362C",
"S  c #5B3B2B",
"D  c #533829",
"F  c #433B32",
"G  c #593F31",
"H  c #504015",
"J  c #6E4713",
"K  c #72440C",
"L  c #44442C",
"P  c #4B4A2E",
"I  c #48482D",
"U  c #5A572F",
"Y  c #454532",
"T  c #4B4136",
"R  c #4B4D33",
"E  c #4A4736",
"W  c #564539",
"Q  c #4F5135",
"!  c #505236",
"~  c #5C5A34",
"^  c #535539",
"/  c #56583C",
"(  c #595B3D",
")  c #585734",
"_  c #514E28",
"`  c #654432",
"'  c #6B4A38",
"]  c #6B4A38",
"[  c #676437",
"{  c #716D37",
"}  c #7D783B",
"|  c #3C3C43",
" . c #353640",
".. c #403F46",
"X. c #414146",
"o. c #45454D",
"O. c #49484F",
"+. c #5B4E40",
"@. c #5C5D41",
"#. c #5D5144",
"$. c #474750",
"%. c #4A4A53",
"&. c #4F4F59",
"*. c #52525C",
"=. c #504F59",
"-. c #6A5C4C",
";. c #615446",
":. c #7A5C48",
">. c #5E6142",
",. c #626444",
"<. c #6A6C4A",
"1. c #666749",
"2. c #71724F",
"3. c #7C7741",
"4. c #736251",
"5. c #7B6956",
"6. c #786858",
"7. c #737452",
"8. c #7D7C5A",
"9. c #797B55",
"0. c #6E704C",
"q. c #5A5A65",
"w. c #5D5D69",
"e. c #565662",
"r. c #605F6A",
"t. c #62626E",
"y. c #646471",
"u. c #696976",
"i. c #6D6C7A",
"p. c #686774",
"a. c #70707F",
"s. c #85370D",
"d. c #862F0F",
"f. c #A83B0A",
"g. c #A22F0A",
"h. c #94440C",
"j. c #93580C",
"k. c #8C5010",
"l. c #A4440A",
"z. c #BA4508",
"x. c #B75609",
"c. c #A3500E",
"v. c #9D6C0E",
"b. c #B6620C",
"n. c #AC780E",
"m. c #C84708",
"M. c #C76705",
"N. c #D87807",
"B. c #CE730C",
"V. c #846B56",
"C. c #85715C",
"Z. c #81624D",
"A. c #8B7763",
"S. c #997C63",
"D. c #7F8059",
"F. c #998012",
"G. c #D88B0C",
"H. c #E48107",
"J. c #ED9B09",
"K. c #EC9708",
"L. c #F08D0D",
"P. c #DDA60B",
"I. c #E4AB0B",
"U. c #F6C80B",
"Y. c #84855E",
"T. c #8A8A63",
"R. c #868660",
"E. c #958069",
"W. c #9C866D",
"Q. c #93926A",
"!. c #9C9171",
"~. c #A5886D",
"^. c #A78B71",
"/. c #AD9479",
"(. c #AB9276",
"). c #B5977A",
"_. c #737383",
"`. c #7E7E8E",
"'. c #838394",
"]. c #88889A",
"[. c #BA9F81",
"{. c #BDA284",
"}. c #8E8DA0",
"|. c #9393A7",
" X c #9595A9",
".X c #9E9EB3",
"XX c #A3A3B9",
"oX c #C6AA8C",
"OX c #CBAC8C",
"+X c #C6A686",
"@X c #D1AE8C",
"#X c #D4B391",
"$X c #DAB694",
"%X c #DBB996",
"&X c #DDBC99",
"*X c #C7AF9A",
"=X c #E1BE9A",
"-X c #E4C29D",
";X c #E9C49E",
":X c #EBC6A1",
">X c #EFC9A3",
",X c #ECC9A7",
"<X c #A9A9C0",
"1X c None",
/* pixels */
"1X1X1X1X1X1X1X1X1X1X1X1X1X1X1X1X1X1X1X1X1X1X1X1X1X1X1X1X1X1X1X1X1X1X1X1X1X1X1X1X1X1X1X1X1X1X1X1X1X1X1X1X1X1X1X1X1X1X1X1X1X1X1X1X",
"1X1X1X1X1X1X1X1X1X1X1X1X1X1X1X1X1X1X1X1X1X1X1X1X1X1X1X1X1X1X1X1X1X1X1X1X1X1X1X1X1X1X1X1X1X1X1X1X1X1X1X1X1X1X1X1X1X1X1X1X1X1X1X1X",
"1X1X1X1X1X1X1X1X1X1X1X1X1X1X1X1X1X1X1X1X1X1X1X1X1X1X1X1X1X1X1X1X1X1X1X1X1X1X1X1X1X1X1X1X1X1X1X1X1X1X1X1X1X1X1X1X1X1X1X1X1X1X1X1X",
"1X1X1X1X1X1X1X1X1X1X1X1X1X1X1X1X1X1X1X1X1X1X1X1X1X1X1X1X1X1X1X1X1X1X1X1X1X1X1X1X1X1X1X1X1X1X1X1X1X1X1X1X1X1X1X1X1X1X1X1X1X1X1X1X",
"1X1X1X1X1X1X1X1X1X1X1X1X1X1X1X1X1X1X1X1X1X1X1X1X1X1X1X1X1X1X1X1X1X1X1X1X1X1X1X1X1X1X1X1X1X1X1X1X1X1X1X1X1X1X1X1X1X1X1X1X1X1X1X1X",
"1X1X1X1X1X1X1X1X1X1X1X1X1X1X1X1X1X1X1X1X1X1X1X1X1X1X1X1X1X1X1X1X1X1X1X1X1X1X1X1X1X1X1X1X1X1X1X1X1X1X1X1X1X1X1X1X1X1X1X1X1X1X1X1X",
"1X1X1X1X1X1X1X1X1X1X1X1X1X1X1X      .         .     1X1X1X1X1X1X1X1X1X1X1X1X1X1X1X1X1X1X1X1X1X1X1X1X1X1X1X1X1X1X1X1X1X1X1X1X1X1X",
"1X1X1X1X1X1X1X1X1X1X1X1X    .     O 2 2 2 5 2 O           1X1X1X1X1X1X1X1X1X1X1X1X1X1X1X1X1X1X1X1X1X1X1X1X1X1X1X1X1X1X1X1X1X1X1X",
"1X1X1X1X1X1X1X1X1X1X    O 5 i i d d a d d d d a d i 7 2     .   1X1X1X1X1X1X1X1X1X1X1X1X1X1X1X1X1X1X1X1X1X1X1X1X1X1X1X1X1X1X1X1X",
"1X1X1X1X1X1X1X1X1X    2 i d d d i i 5 5 2 i  . . .i i i i 5 2       1X1X1X1X1X1X1X1X1X1X1X1X1X1X1X1X1X1X1X1X1X1X1X1X1X1X1X1X1X1X",
"1X1X1X1X1X1X1X1X    7 a d a 7 2 5 7 a d d d | |  . . .d i d  .d 2     1X1X1X1X1X1X1X1X1X1X1X1X1X1X1X1X1X1X1X1X1X1X1X1X1X1X1X1X1X",
"1X1X1X1X1X1X1X1X. 2 a a a 5 2 i | | | |  . .| | | | | $.%.| $.| | p     1X1X1X1X1X1X1X1X1X1X1X1X1X1X1X1X1X1X1X1X1X1X1X1X1X1X1X1X",
"1X1X1X1X1X1X1X  2 i d i 7 7 | | | $.| | | | | $.%.$.$.| o.$.$.$.%.t.%.  1X1X1X1X1X1X1X1X1X1X1X1X1X1X1X1X1X1X1X1X1X1X1X1X1X1X1X1X",
"1X1X1X1X1X1X    i a d i i  .| | | | | | | | $.$.$.$.$.%.| | $.$.$.q.`.o.  1X1X1X1X1X1X1X1X1X1X1X1X1X1X1X1X1X1X1X1X1X1X1X1X1X1X1X",
"1X1X1X1X1X1X. 2 d a d  .| | | | | | |  .$.$.$...| ..%.*.$...%.%.o.%.i.'.5 . 1X1X1X1X1X1X1X1X1X1X1X1X1X1X1X1X1X1X1X1X1X1X1X1X1X1X",
"1X1X1X1X1X1X. 7  .a  .| | | X.| | | | | $.$.$.$.$.$.$.$.$.$.e.q.$.$.q._.*.  1X1X1X1X1X1X1X1X1X1X1X1X1X1X1X1X1X1X1X1X1X1X1X1X1X1X",
"1X1X1X1X1X  2 a d a d |  .| =.o.| | | X.$.$.X.$.$.$.$...$.$.&.&.o.o.&.w.|.d   1X1X1X1X1X1X1X1X1X1X1X1X1X1X1X1X1X1X1X1X1X1X1X1X1X",
"1X1X1X1X1X  5 d a p a | f f X.| | | | X.$.$.| $.$.$.$.$.$.$.$.$.X.o.%.t..X*.. 1X1X1X1X1X1X1X1X1X1X1X1X1X1X1X1X1X1X1X1X1X1X1X1X1X",
"1X1X1X1X.   a d  .6 d |  . . .| | | $.$.$.$.$.$...$.$.$.$.$.$.$.o.o.%.w.|.a.  1X1X1X1X1X1X1X1X1X1X1X1X1X1X1X1X1X1X1X1X1X1X1X1X1X",
"1X1X1X1X. 2 d a p 2 d | | | ..| | X.$.$.$.$.$.$.$.$.$...$...| $.O.o.%.w.'.a.  1X1X1X1X1X  % w Y E R Y h 3   1X1X1X1X1X1X1X1X1X1X",
"1X1X1X1X  i d a a 5 f | | | | | o.$.$.| $.X.$.$.$.$.$.$.$.$...$.o.o.&.t.`.'.3   1X1X% w Q <.7.D.7.8.D.Y.T.8.@.h   1X1X1X1X1X1X1X",
"1X1X1X    i a a p 2  .| | | | ..$.$.$.$.$.$.$.&.q.%.$.$.$.$.&.*.o.%.q.t.|.XX7     * L ! ^ ( ,.<.<.1.<.8.Y.Y.Y.D.@.y 1X1X1X1X1X1X",
"1X1X1X  2 i  .a i 5 X.| |  . ...a  .$.$.o.$.$.&.q.%.$.$.$.$.q.t.&.&.t.t.XXXXa . * ~ Q Q ! Q Q Q ^ / @.>.1.0.9.Y.T.T.@.6 1X1X1X1X",
"1X1X1X. 2  .i i 7 7 %.X... .f f     d | $.$.$.$.$.$.$...$.$.e.w.%.*.y.y.XXXXd . w U I Y P R Q ! ! Q Q ^ @.>.<.2.8.T.Q.2.% 1X1X1X",
"1X1X1X  5  .d d 2 5 | | |  . .| f 5   O | $.$.$.o.X.%.e.$.$.$.$.$.&.y.y.<XXXd   % w P { e [ ) L Q Q ! ^ ! / >.<.7.7.Y.Q.9.t 1X1X",
"1X1X1X  5 a i d 5 5 | | | | | 7 5 i 5   2  .$.$.$.$.$.e.$.$.o.%.$.%.q.y.|..Xa + o % * w * * w 4 } ) Q Q ! ! / >.<.1.7.T.Q.9.7 1X",
"1X1X1X  5  .d d 7 5 | | | | f 2 m k 6 i O O | $.$.$.$.$.o.$.$.$.o. .g *._. Xi & V < & . 8 r 4 9 w w y ~ R ! ^ ( @.>.>.<.D.Q.7.4 ",
"1X1X1X  5 a a d i 5  .| | | d   m.l.k O 6 O 6 o.$.X.$.$.$.o.$.o.i   % X.i.|.7 > S Z > q A.^.E.C.F % w } R Y Q ^ ^ ^ @.^ 7.Y.!.1.",
"1X1X1X  5 i i i d 2 a | | | a O L.N.M.f.O 5 2 a $.$.$.$.$.$.| 5   7 | *.u.'.2 & > & #.[.=X=X;X;X).E.E % u L L R ^ ^ ^ @.( <.R.Q.",
"1X1X1X  2 i d d a i 7  .| | d   L.L.N.N.s.@ 6 6 $.$.$.$.$.| i 5 a f a g y.a.% t -.A.oX,X>X>X>X>X>X-X/.-.3 u } ) Q / ! / >.>.9.T.",
"1X1X1X1X  i a a a d 5 i | |  .5 c.J.J.N.M.s.3 d $.$.$.%.$.d a i & k @ 6 u.o.F ).oX%X>X>X>X>X>X>X>X>X;X$XA.F e L L R / ! / >.,.9.",
"1X1X1X1X  5 a d  .d i 2 | | | a z B.U.J.N.x.k p $...$.q.| a 5 @ d.z.c p '.7 6.-XS.S.-X>X>X>X>X>X>X>X>X>X%XW.u 4 ( ~ Q ^ ! ( >.<.",
"1X1X1X1X. 2 i d a i a 5 | | $.| 2 k b.K.J.N.N O $.$.$.%.f 7 m f.N.G.< *.*.3 /.,X=XZ.V.:X:X:X>X>X>X>X=X>X>X=X~.C _ U L Q ^ ^ @.,.",
"1X1X1X1X. . i d i i a 7 d | | X. .7 ; c J k.s.O | $.$.$.f & l.N.J.c.4 u.6 W !.{.>X+X] #X>X>X>X>X>X>X>X>X>X>X=XS.4 0 L R ^ / ( >.",
"1X1X1X1X1X. 2 i d i d a i | | $.O...g d p 6 O   | $.$.$.6 x b.n.M 3 O.*.2 (.oX+.@X;XZ.~.>X>X>X>X>X>X>X>X>X>X>X=X5.8 L { R ^ ^ >.",
"1X1X1X1X1X1X  7 d d d d 5 d | X.$.$.o.X...| d 5 X.$.$.$.  # $ O 2 d *.a @.%X:XE.:.=XS.).>X>X>X>X>X>X>X>X>X>X>X>X+X;.u ~ I Q ^ ^ ",
"1X1X1X1X1X1X    i a a  .2 a  .| ..6 X.$.o.$.X.o.$. .a X.7 i f  .X.&.X.. S.,X,X,XT 6./.^.>X>X;X>X>X>X>X>X>X>X>X>X:X{.y * L R ! ^ ",
"1X1X1X1X1X1X1X    i a a 5 f | |  .O i p 7 | | | $.$.X.%.X.o.o.o.$.w.i O -.-X,XOX#.r ~.(.>X>X>X>X>X>X>X>X>X>X>X>X>X%X-.% [ Q ^ ^ ",
"1X1X1X1X1X1X1X1X.   7 a a  .| | d         7 O 5 X.i a $.g i o. .X.O.+ W t (.,X:X+XC.:.[.>X>X>X>X=X>X>X>X>X>X>X>X>X>XW.r P I Q / ",
"1X1X1X1X1X1X1X1X1X.   7 d d  .| d     O 2       5   O d O   7 O | p 8 S C @.-X:X:X:X$X$X>X>X>X>X>X>X>X>X>X>X>X>X>X:XW.4 * L Q / ",
"1X1X1X1X1X1X1X1X1X      2 i d  . .5 5 | a 7 d 5   a 2   i a     6   + Z ] Z C.:X,X>X>X>X>X>X;X>X;X>X>X>X;X;X>X>X>X-XW.q % { ~ ^ ",
"1X1X1X1X1X1X1X1X1X    . .   7 d g 5 5 X.| | X.| d | i 7 | o.2   . O % > ` ` A 6.&X>X>X>X>X>X;X>X;X>X>X>X;X>X>X>X>X&XA.& O L P P ",
"1X1X1X1X1X1X          2       O 7 i O d | o.%.e.$.$.$.&._.r.O . 4 Y 3 % Z S ` D W E.&X>X;X>X>X=X$X$X@XOX#X-X:X,X>XoXE = = e ! L ",
"1X1X1X1X1X1X        7 a 5 2 i 2   2 O i | | $.$.$.*._.'.i.a   3 e * . X O Z S ` W 0 -.#X;X:X;X^.S.~.:.` ' V.#X-X{.-.8 < = L [ L ",
"1X1X1X1X1X1XO 2   i  .| p 2 %...@ @ . . 2 6 i a f | s % .       r e 7 s % z S ` ` ' D W ,X>X>X+X& -.+X(.#.> % O . + V z % * 4 u ",
"1X1X1X1X1X1X    7 d ..$.p 5 $.*.@ b x k = O   . O o $ 5 6     % Q y 4 s % > D S ` S ` t /.#X{.!.% % h s 7 5   3 F > Z Z > = * * ",
"1X1X1X1X1X    i a ..%.*.5 2 ..e.d @ n g.f.z.c.l b l.k.r p.2 2   R Y 7 X.r % < B Z C C > q h a p | ..X.| 7 s A.(.-.8 Z Z B $ . 1X",
"1X1X1X1X1X    i | %.t.p.     ...*.f X > x k.J * , j c 5 ].f O = y Y 4 | g p % = O O 6 f o.$.&.&.o.| 7 % W A.-X[.9 B Z Z < O 1X1X",
"1X1X1X1X  2 2   a q.].*.M c q | *.t.2 f f g *.p p X.%.2 |.u.  9 % 4 O   5 a ..%.*.e.%.%.o.X.| f 2 5 5.#X>X:X).E 0 V V z . 1X1X1X",
"1X1X1X1X  7 2     | y.6 c.k.5 g %.w.2 o.&.=.a.p d O.t.2 ].q.  % 7 a ..O.&.&.&.%.$.X.X.| | f 7 2 O W ).OX$XOXC.3 z V 0 + 1X1X1X1X",
"1X1X1X1X  7 2 k c %   + f.h.% d O.o.2 | 7 2 5   O * g O 7 a 6 | %.%.%.o.X.X.| |  .f a i 2 2 & Z S W t F T F t 3 > & . 1X1X1X1X1X",
"1X1X1X1X  5 2 d.N.j.=   o l % i | f 5 o.O.g g O 5 5 p   a y.f a X...| |  . .f d i 5 2     O B Z S S S S B O 3 r . 1X1X1X1X1X1X1X",
"1X1X1X1X  O + h.J.P.:   7 6 2 2       O   2 *     a a         i g a i 7 5 2     3 * % % E       O o O   1X1X1X1X1X1X1X1X1X1X1X1X",
"1X1X1X1X1X  > h.I.F.: 1 7 d g a   7 t.*.  % $.X.  o.a   X.%.  5 5 2 2   O & 4 L Q Y 4 y y . 1X1X1X. 1X1X1X1X1X1X1X1X1X1X1X1X1X1X",
"1X1X1X1X1X1X. & l = c K = p a & M 4 *.9 v.H d 7 O 7 * 1 6 5 .   % y 4 & > 8 9 9 w e 4 Q 4 1X1X1X1X1X1X1X1X1X1X1X1X1X1X1X1X1X1X1X",
"1X1X1X1X1X1X1X1X1X1X. $ $   & n x.l % n J.F.X 1 : % j -   %   . * y R w 0 0 4 C 9   * y % 1X1X1X1X1X1X1X1X1X1X1X1X1X1X1X1X1X1X1X",
"1X1X1X1X1X1X1X1X1X1X1X  l X   o l $ o m N J - ; k   o       .   . % y I w 4 e 8   6.*XA.2 1X1X1X1X1X1X1X1X1X1X1X1X1X1X1X1X1X1X1X",
"1X1X1X1X1X1X1X1X1X1X1X= j.: 6 a O.5 .   : 1     2 5   1X1X1X  2 i 5 4 r Y w * & T oX,X$Xq 1X1X1X1X1X1X1X1X1X1X1X1X1X1X1X1X1X1X1X",
"1X1X1X1X1X1X1X1X1X1X1X$ M $ O d y.7   . j : i d 6 g   1X1X1X  O i  .5   w e *   4.[.).5.  1X1X1X1X1X1X1X1X1X1X1X1X1X1X1X1X1X1X1X",
"1X1X1X1X1X1X1X1X1X1X  X   i p O | 2 .   X 2 | o.a     1X1X1X1X  2 7 7 .   %   1X+ t t O 1X1X1X1X1X1X1X1X1X1X1X1X1X1X1X1X1X1X1X1X",
"1X1X1X1X1X1X1X1X1X1X1X  % 5 i 7       1X      2 3     1X1X1X1X1X1X  O   1X1X1X1X1X1X1X1X1X1X1X1X1X1X1X1X1X1X1X1X1X1X1X1X1X1X1X1X",
"1X1X1X1X1X1X1X1X1X1X1X1X    .     . 1X1X    1X1X1X1X1X1X1X1X1X1X1X1X  1X1X1X1X1X1X1X1X1X1X1X1X1X1X1X1X1X1X1X1X1X1X1X1X1X1X1X1X1X",
"1X1X1X1X1X1X1X1X1X1X1X1X1X1X1X1X1X1X1X1X1X1X1X1X1X1X1X1X1X1X1X1X1X1X1X1X1X1X1X1X1X1X1X1X1X1X1X1X1X1X1X1X1X1X1X1X1X1X1X1X1X1X1X1X",
"1X1X1X1X1X1X1X1X1X1X1X1X1X1X1X1X1X1X1X1X1X1X1X1X1X1X1X1X1X1X1X1X1X1X1X1X1X1X1X1X1X1X1X1X1X1X1X1X1X1X1X1X1X1X1X1X1X1X1X1X1X1X1X1X"
};
