/* XPM */
static char *result[] = {
/* columns rows colors chars-per-pixel */
"64 64 33 1 ",
"  c #676256",
". c #7D7256",
"X c #726B63",
"o c #817857",
"O c #857C5B",
"+ c #8A7F5E",
"@ c #817960",
"# c #8A7F60",
"$ c #837C73",
"% c #897F72",
"& c #8B815F",
"* c #8E8464",
"= c #8E886B",
"- c #918665",
"; c #938867",
": c #918768",
"> c #948C6B",
", c #998E6E",
"< c #97906E",
"1 c #9B916F",
"2 c #978E70",
"3 c #998F71",
"4 c #978E7C",
"5 c #979071",
"6 c #9C9373",
"7 c #9E9678",
"8 c #A19675",
"9 c #A39877",
"0 c #A19778",
"q c #A2997A",
"w c #A99E7E",
"e c #AFA282",
"r c #B0A383",
/* pixels */
"::::*-><67755<556:+++#+--:;><;>;>>>>><;>>;>>;>>>;>>;>>>,>;,;,,;;",
":*-:=*=<57q5<<<61*+->>;:-:>;;>>>>>;>>;>>>>>>>>>>>>>>>;;;:>;>:;>;",
"----;=;><575=<<61-:>;;>;:>>>;>;,;>;>>;;>;>;<>;>;>>>>;>,>,>>>,>;>",
"=-=-*==<<<5=<<<=:>;>>>>>>>;><;;;>>>>>>>>>>>;;<>>;>>;;,,,>,,,,,;;",
"--=--=*;<<<<<<=<6,>:::>>;>>>>;,:>>;>><;>>;>>>>>>>>>>;<,,,,,,>,::",
":=;---====<=<=>780666,::-*:;>>:&;>>>>;>>>>>>>>;>>>>>>>,,,,,,,:--",
":-;--=*-=<><<<<90365752:+++>;:>;>>>>;<>;;>>;;>;>;>>;;;>,,,,,;-;;",
"---==**-=<<<><7705555526,++&:>>:=>;>>>;=>>>>>>>><;>>>>>,,,,;-;;;",
"*=--=**==<<>;677033256555>55=*>;;>>;>;>>>;>>>>>>;,,,,1+,,,,;;;;;",
"-=;-*=*;>><;<697055665655555< =><;>>>;>;>>>>>;;>;;;#,#81,,,;#;;;",
";=-=*-=*=;<<197906552655555==$==>>>>><>;>;;>>>>>;,;,#1%8,,,;#;#,",
";*-=;---=;<<67790055656255<<==>>>>;;><>>>>>>>>;>,;,;;,,,,,;;,,#;",
"=-=*:-:-;11197979755555552=5*;<;>;;><<<:;>;>>>>;:>>;,,,,,,11#,#,",
"*;-;::*;<111699979755555525=&&<;=>;;,<<;>>>>;>>-;>>>#1,,,,1+,#,#",
"=;=--*->1111697997764565=<<=&><<>:;,,<<>;>>>>>&&;>>;#8#,1#,+;,+,",
"**=;-->1111167797997775<55=<>;;;<<<,;<<,>>;>>-&&>:>,118118,,1+,,",
";=;=*;<111811888990003>2<<==<=<<>1<>;,><,;,;;;+#:,,,,,,,,>,,,,,,",
";**=*<111111188899000>22=<<<>=<<1>111<1,;;;,;+;;#;,,,,,,>,,,,,,,",
"-;;;-<1111111888000072=2=<<<<=<>><<<<1<>,;;;++;#;#,,,,,,%,,,,,,,",
"=*=*-><111111188000877>><<=>=;><<11<<;<1>>;++;#;;#,,,,,,,,,,,,,,",
"-=-=*-*;;1111111788706>2<><>1;;11686<>>>>>#++;###;;,,,,,,,,,,,,,",
"----:*-*&;;+;1111168052><;<<;;1116671,1;;*+-;+;;;#;,,,3>,1,,,,,,",
"---;----&;,;;111116875=5<<;11;186766,>,,++#-;;;;;#;,,88,,1,,,,,,",
"===;==--;;,;&81111>,,><=<1;;1;;1861<,,>;+-#-+;++#;;,,88,,,1,,,1,",
";<;--=-=--;<;811111;;;,;,,;;;1;;><<<<<<&&----#-----,308,,,,,,,,,",
"<<--*---=->11111111>,;11888988;;;;;;-<<;---+--;+--#,,883,,,,,,,,",
"5<=-=---:><111111111,1888898888;;;;;;<;;;-&--#--#-->,888,,,,,,,,",
"<<<;--==>11111811111;;8888888888<;;;<<<;----;---+->,,88,@$,,,,,,",
"<<<<;--;118111111811;;1888888888;,;;<;<<;;,,;##;;,,,,,;+X%,3,,,,",
"<65<<--1111111111111*;;1888888811,1,<<;<>,>>;;;#;,,,,,#+%%,,,,,,",
"1<11<;;11111111111118;;188888881,,11;<;1,-#,;:;;;,,,,,,,1,,,,,,,",
"<1<5<<61111111181111w8+188888888,,1;;<<1-;;;#;##;;,,,,,,,,,,,,3,",
"11111;11111111111111q9&,88888881,,,,,;,;+1##,+#+#,,,,,,,,,81,,,,",
"1111+11119911118111176=&88889888,,,,,-;-,,,+++##,1,,,,,%++#1,,,,",
"1;11+11111111111111111<.18888888,,>,1*&,,,#,+++###,,,,,,,#;##,,,",
"111;+11111111111111111=&&88888881,,,9;;,,,,#++###,,,,,,,1,1,8,,,",
"11;;;1111181811111111<,-;;118888,,,,9;1,,#####++,,,,,,,,,,1,1,,,",
"11;;;;111111111118111>,:;11,1888,,889;,,11###++++,,,,,,,,,,,,,,,",
"11;;;;11111111111811,>,,+1,,18881,,88;,;;######%1,,,1,,11,,,,,1,",
"111;;;;11181111811111>;;;;;,,115,,,,1,,+,#####,,,,,,,,,,,,,,1,,,",
"1;;;;;;1111111111111,><=;*<,,;,,,,,,;,;,#;###,,,1818888#,,,1%1,,",
"11,;;;;;11111111111,;<<<<*,,1<,,,,,,#,##;##1,,,,1#1%##881,,181#1",
"11,;;;;;;,,111118861<==<=&,,,1,,,,,,#,#;;#,1,,,,1#8888#8,,,,1881",
",,1<1;;;*,1111118876<<=<<*:,,,,,,,,,,,;;##,,,,,,88#88#11,,1,1%11",
"=;119w1;;;,1111676776<;<==*,,1>,,,,,,,##,1,,,,,1##881111#18#1111",
"=,<19ww1;->1,67777777<=<<>&<,,,,,,,,,,,,,1,,,,,,888#8%#88111#88#",
";=;1wrww;;&*o77777776<<<<=*:,,,,,,,,,,,3,,,,,,,,888#11888#111111",
"=;;8wrww6;:.%47777776<=<<;*+,,,,,,,,,1q8,+,,,,,,##8818##888%18#1",
"<;=67rrrr7<-;67777775>=<==>&1<,,,,,,,8008>>,,><<888#88##88%81#81",
"==;7wrwrww76;;<67666=<<<<<<O&:-,,,,,,804q1,;,,>>8#88#8888#181111",
";<>5werrrww71>;<6<:,<<<<<55&&&--#;;,,80eq8;;;;-;%1#8#88#88##8##8",
"===<9rrrrrw96161,;,>=<<===5<<:-*#;;#,40eq3>;*--;88#81111#888889#",
"=>=>7wrrrewq9969>;;;>>>><<555*--,,#;,1qqq0,:*-->11811##w11#1#8%1",
">;;=<9wreeqq66778;;;=:2><=5>>---;#;;;36qe3,,;*->1+#81889#1818#1+",
"=>=>=9wreeq7;,6877;:::->=<<5=;---;;+:,,33,,>*:<;++11##ww81818#++",
">=>==79weq76,,7888,:>;-:;=<5:<---;;;#,,,,,,:*-;-#1+#111#%1#118+1",
"=>=>;5qqw7q7<,66073;>>>>---;:->:--*-*;,,,,,*-*--+;+;#88#81%811++",
">=>==<qqqq97;<57003;>;>3,-----:>--;*;;,,<:*:;;;-;;,,,#111111#811",
"=;=>>=77qq77,:<7833>:>,45,:---::----*-,;;<>><>;=,1;+#,11#1118#1#",
">=>=>;6qqqq7;,,700>;>:,3656>;-**--*-;;**=>>>;<<>;1,+,##881#81111",
"===;<=57qqq7>>5708>>>>>3345672>=-**--**;>><<<>>>,,;-1#18%1#8111#",
";>=>;=67qq7q,><768;::;;3624626:>;---*;-;>>>>>><<,,,,+1++8188%818",
";>>==><7qqq7>>,706----;>365662<;>---;;;;><>>><>>>,,>1+1#118#8#11",
">=>;;=;q7q76,,176,----;>546565<;:----;>>>>5<>>;,,>>>+1++8#8#888#"
};
