/* XPM */
static char *result[] = {
/* columns rows colors chars-per-pixel */
"64 64 80 1 ",
"  c #1D1D1B",
". c #201F1B",
"X c #21211D",
"o c #262622",
"O c #282724",
"+ c #272824",
"@ c #2A2A24",
"# c #2E2E29",
"$ c #302E27",
"% c #312F29",
"& c #303025",
"* c #383627",
"= c #3B3827",
"- c #33332C",
"; c #3D3A29",
": c #353530",
"> c #3D3E31",
", c #423E2B",
"< c #3F4032",
"1 c #45412C",
"2 c #49442E",
"3 c #434432",
"4 c #4A4630",
"5 c #464836",
"6 c #4D4A33",
"7 c #464B38",
"8 c #4D4F3C",
"9 c #524F35",
"0 c #524E39",
"q c #4F513D",
"w c #545036",
"e c #53533D",
"r c #59543E",
"t c #5C583F",
"y c #535641",
"u c #595647",
"i c #555841",
"p c #5B5B44",
"a c #595648",
"s c #5D5A49",
"d c #615D43",
"f c #625E4C",
"g c #5D6146",
"h c #5F6248",
"j c #646146",
"k c #686547",
"l c #65624E",
"z c #68654F",
"x c #66694B",
"c c #6B6A4D",
"v c #666250",
"b c #696651",
"n c #6D6B54",
"m c #6F6C59",
"M c #716F56",
"N c #716E5B",
"B c #6F7052",
"V c #727254",
"C c #777857",
"Z c #75735A",
"A c #787758",
"S c #767959",
"D c #7A7B5B",
"F c #7F805C",
"G c #7F8160",
"H c #83845B",
"J c #87885D",
"K c #8A8B5F",
"L c #818361",
"P c #878961",
"I c #8B8D61",
"U c #8F9162",
"Y c #919365",
"T c #979866",
"R c #9A9C69",
"E c #909076",
"W c #94937A",
"Q c #9EA16B",
"! c #A0A26C",
"~ c #A7A96F",
/* pixels */
"~!RIRPR!!RQQRIRPRPLLLLFLDjDdDfAkR!!!!QQ!!!QRIRIRPLFLLLLFfAdDlAdr",
"!ZnvvvbbzpjplvlyvvvlvsyllffffvldTAMvbMMMMbbpbnbbvvpvbbbbvbllfnfr",
"!ma-#*%,,=&=,,,;;;-;##;;,;-*-ae9Yna-,zvvp11svvs31isyu13bfbf40Dbr",
"!b-oo.oOoXoo+o++ooXo oooo.o.@yppHf-o:Kbu1++evv,O&Hps3@*HlV1X-Iz6",
"!b,::&----------::----:-%---3FiwIv#o:Kcc-o-JBB<X-Unf,o#GZi,o-Izw",
"!nbKIHITKDIYYUPHWYYWUUIYWYYIJVfpHv*.%HDi=o-Uni<o-Umf,o-Ejp,O-Di4",
"!MvbcDZDxznnnbcDNmmZmbgnNmnvjSvwYv%o&UZf1+-Una-o-Unf=X#Dvv,O&Pb0",
"!nvucifzFdffsycisvssa8afffsysbswYb,O-YFz;+-Uml;X-Uns-X@JcZ7O-Db1",
"!ns1-=1;;3<=&*&;,3-;@+@;,,$--ff9Yz,O-IxF*+-Ums-o-Ub8= @FDz,o#Wn1",
"!b1@oo++o++X .o+oooXo ooooo.%Az9Ut=X-Dvj3+:Uxi<+-Kss,o#WZl;o-Ub1",
"Qb1+---:---#@#--##--#--:&#%->Jz9Yj&o-Inf<o-Khc1o-Dbf=X-Ynf1o-Ul1",
"RppeJUUUUUISJFIYWmHDWYUUPNWYJNf9Up=o-Unf;X&Sie;+-Uns%o-Uns5o-Kp1",
"IbvvBnmmnbgihDVnNDzvmmMMMDNMMvf9Ux,X;Uns& @JhB1o-Yce=O-Ybi1+-Uv1",
"RnvvBisssiceBllffvMifffffzfffvf6Hl,O-Ube*.#FDl,o-KcV1O-IcB5+*Uc1",
"Ibs33<-*-<1,1,=-;%,5,,,,,,,,1fe6Jl,+-Icc&o-UVl;o%LDb,o-GDb1o-Ub1",
"Rb1OXooXo++ooooo.oOOoX.oooo.-Cf9Dp=+-LDi;+-Uns-o#WZf;o#WZf1+-Uc1",
"Lv1&------#---##-:--##--:-%-3Pz9Ul;o:WZs,o#WNf:X-Ymf=X-Unf,o&Yc,",
"LviHUUUUUKFIUIGWYUUKLWYYWLEUJNf6Dv;o:Ymv3+#mDv&o-Uns#o-Uns$o-Yz1",
"HpspnmmnnsbnbcDZmnvgSZmmNDjzpvl6Dl#o-Yms-o-HcM,O-Uvq*X-Unp=O-Kp,",
"Lvysffhs0sfseVcffsq7ysfffzHjsvf6Dl;o-WNs;X%Fbe3O-Ig5#o-PcM1O-Uz1",
"Lbp1,;=-*,=%=1,,=#*#<,,,,;>x6zf6Cl# -Uma@o#Wmf,O#GSy<o#mDz1+*Yc1",
"Lv1@oo.o oXoOOooXoXo++o+OXo#&Af6Ds#o-Ub8+ -Ymf,X#WZf,+:WNl5+-Yz1",
"Lb3:%-#+@-----%#----#:-----%;Pz9Ce*o:Iga@o-UMf,.-Yms,o-YMf1X-Uz1",
"FbbHGEDJDWYUYILWUUUJmWYYIYJFJNf6Dl,o-Ynf;o:UMf,o-Yml,+-Uzr,+-Uz1",
"fvvlChvcDZnnbcDZmnncDNnbplhCclq2Cf,o%WNf,o-PMf,O:WZf,O-Ip7;+-Ip1",
"AbzMislZzfffyVbffstMvvfr7qpecip3df=.-YNf,o#nDz,o-LDz,X-Ilq=o-Ux1",
"jvd3,,17,=,5,71,=$=115,,;=;&1ef6Mf-o-Uns&o#WNf,o%WdH>o-Ihp; &Dl,",
"Dz1Xooo@ooo+o@o@OoOOo@o@+o o$Vf2pd=.-In8-.-YMf,.-Izfx#%FCe&o$Kz1",
"dl0:-%&#%------------;&----#;Pb6Vs-@3Pjs:-;Jnf2-3Hsf6&>Jcc1@3Ib1",
"AnDIIDKDWYUIYYYIYYKUUUYUUUDKIVl1plsiFVSvfZJNvllZPMvvfCJMlieVJMf,",
"dvbcbpzznblpxzczzlpxbbczillcbfa:nlesefvfflblfswfzlfffzzfqpffzlu#",
"dddrpwtw0996699996466666244644--pjwtwpww9999w69696666666446262:@",
"QTTTYTTYTYTKDIHIDZCDDDDCdndVdMrtTTYFUFUYYUTUUFKFKDDASDCDVdMdVpcr",
"!MMvcnnMnbzpbnnbllplbllblnlljnljTVnfzvvczihtxlcexlllvsyflffffllr",
"RMu-,bvlp,1svvs11isuu14zvbf1qDzdTnu-%=%,;=#=,,,;,=$=##;,,=-*-ae1",
"If-O:Pnp,@Oivl1+&Hpd3@-Hjn4X-IcrTz-oo.oooXoo++o+OOoo oooo o.@isw",
"Rv%o-Icb&o-HnB1o-Unf,o#GSi;+-IvpTb3*%%-:-#------:-:%--------3Fp1",
"Pv=.#HDi,O-Yni<+-Umj,o#Ehs,+-DiwYMvKIFIYKFUUUUIFWYYWYUIYWYUUPZlw",
"Rv%o-IVf,@-Yns-o-Unf=X#Dbj1o#JzpTMvbzDZFzznnnbcDZmnmmvgnmmnbjZl1",
"!v,o-TDb,O&Ymg*X-Uns-X#JcZ7+%Dz9YnzpcifbHdffsyciffffs8afslsqsbf1",
"Qv,o-KzF-+:Uns&o-Uby* +HDb,o#Wn9YMd,&,,,:3,;#*-=,5&:#o#,1=#*-lf1",
"Qp;X#Dzj3+-Ubi5&-Igs,o#WZf,X-YcwUc,OoOoOo@o. XoooOO.X oO++oX%Zl1",
"!j%o-Knh1o-KgB<X-Dbs=X-UNf,o-UlwYz,@--------@#--##-##----###;Jz1",
"Rp=o-Unf;X&See<X-Ins-o-Ins5+-Ip6KpfuHYYIYYJSJFIYWmPDWYIYPNWUPVf1",
"Rl,o-Ynp# @JjB1O-Yne=O-Yne,@-Il6HvvvMnmnnbgigDZnNZcbnnMnNDNMNbf,",
"Iz,+-Yne* #FDl,O-KcM1O-JcV5@-Yc9KMvbMysfsyBeBzfhfvByffffflfffvf1",
"Rl,+-Kcc-o-UMl=o-FDb,o-LDz1+-Yc6Hbf,,3&;-31;1<;&*-13,,,,,,,,1fe,",
"Pe;+-GDi;o-Ums$o%WNf,o#WZf,+-YcwKz,@X@oXoo+ooo+X.o++Oo.oOOOX&Al,",
"Rl,O:WZs,o#EZf;X-Ums;X-Ynf,o-Uc6Dv1&----------%#-----#-::##-3Pb1",
"Pl,o:Yml3+#mSv#o-Uns#o-Uns%o-Ul6DliHIYYIYJDIYPLWYUUIGWYYWGEYJVf1",
"Lf%o-Ymf-o-LcB>o-Uvy-X-Unu=O-Ut2CpspnMMnbhbnncDZnnvgSZmmNDflslf1",
"Ll*o-Wms;X#Dvy5@-Ig5&o-JcV1O-Yl6SlisfffsepfseMbffsq7qffffnHjflf1",
"Ll# -Uns@o#Wmf,+#GSy<+#nAz,O-Yz9Sbp3,,=%*,=%=11,=-*#3,,,,=>x6lf1",
"Lf#o-Iv8+ -Ynf,o-WNs1+:WNl5O-Uz9Dl1@ooXX.o.ooooo o.o+oo+O.o#-Cl1",
"Fy;o-Uss#o-Unf,X-Ymf,+-YMf,o-Uc6Dv4--###O#--:-%%----#:------;Jz1",
"Ll=O-Ynf=o-Ynf,o-Ynf,o-Uzr,o-Yl6AbbHGEDJDWYYUIGWYUUJmWYUIUIDPMd,",
"Dl,o-Wmf,@-PNf,O:WNf,o-Up7=O&Up,dfljShbcDZmnncDZMnncDNncplhSclq,",
"lf= -Ymf;o#mDf,O-LDn;.-Ul8,o:Kz6MbbMislZbffseVbffduVbffr7qpecip1",
"Af-o-Uns-o#WNf,o%EjH>o-Ijp,.%Dz2dzf4;,,51,15171,=%=1,51;;;;&1es1",
"jf*X-Ub8*.-IMf,X-Ixjl#-DSe$X$Iv6Vl,X+o++XXo@o++oOoOoo@oo++XX@Vz1",
"Af-#3Jga--=Knf4%3Jpf6-;Jxc1@,Ib4pfy;-#&##--------------*--%$<Pb1",
"jlayHVAnfAJMvvlZJMvvlZPMliqCPMv4MnSIIDIDWYYKYYYUYYIUUYYUUIDKIVf,",
"Zleselzffvzfffefzlffflldqpslcfu:ifbbbilvczztzzczczpzzzczpxzzbfu#",
"pr102r11111111,1111111111112,,$@9ur4w4w2111,111111,,2,2,,,211,@o"
};
